%FSLAX45Y45*%
G04 Gerber Fmt 4.5, Leading zero omitted, Abs format (unit mm)*
G04 Created by KiCad (PCBNEW 5.0.2+dfsg1-1) date Fri 09 Dec 2022 08:13:51 PM PST*
%MOMM*%
%LPD*%
G01*
G04 APERTURE LIST*
%ADD10C,0.203200*%
%ADD11C,0.200000*%
%ADD12C,0.300000*%
G04 APERTURE END LIST*
D10*
X2540000Y-7620000D02*
X12700000Y-6350000D01*
X12700000Y-5416550D02*
X12700000Y-6350000D01*
X12534900Y-5416550D02*
X12700000Y-5416550D01*
X12534900Y-4743450D02*
X12534900Y-5416550D01*
X12700000Y-4743450D02*
X12534900Y-4743450D01*
X12700000Y-3810000D02*
X12700000Y-4743450D01*
X2540000Y-3727450D02*
X2540000Y-2540000D01*
X2705100Y-3727450D02*
X2540000Y-3727450D01*
X2705100Y-4400550D02*
X2705100Y-3727450D01*
X2540000Y-4400550D02*
X2705100Y-4400550D01*
X2540000Y-7620000D02*
X2540000Y-4400550D01*
X2540000Y-2540000D02*
X12700000Y-3810000D01*
D11*
X4487602Y-3899478D02*
X4507922Y-3919798D01*
X4507922Y-3899478D02*
X4487602Y-3919798D01*
X4534479Y-3852601D02*
X4554799Y-3872921D01*
X4554799Y-3852601D02*
X4534479Y-3872921D01*
X5133340Y-3164840D02*
X5153660Y-3185160D01*
X5153660Y-3164840D02*
X5133340Y-3185160D01*
X5552440Y-6212840D02*
X5572760Y-6233160D01*
X5572760Y-6212840D02*
X5552440Y-6233160D01*
X5641340Y-6225540D02*
X5661660Y-6245860D01*
X5661660Y-6225540D02*
X5641340Y-6245860D01*
X5641340Y-6466840D02*
X5661660Y-6487160D01*
X5661660Y-6466840D02*
X5641340Y-6487160D01*
X5692140Y-6708140D02*
X5712460Y-6728460D01*
X5712460Y-6708140D02*
X5692140Y-6728460D01*
X5704840Y-6416040D02*
X5725160Y-6436360D01*
X5725160Y-6416040D02*
X5704840Y-6436360D01*
X5704840Y-6517640D02*
X5725160Y-6537960D01*
X5725160Y-6517640D02*
X5704840Y-6537960D01*
X5768340Y-6187440D02*
X5788660Y-6207760D01*
X5788660Y-6187440D02*
X5768340Y-6207760D01*
X5768340Y-6466840D02*
X5788660Y-6487160D01*
X5788660Y-6466840D02*
X5768340Y-6487160D01*
X5768340Y-6708140D02*
X5788660Y-6728460D01*
X5788660Y-6708140D02*
X5768340Y-6728460D01*
X5831840Y-6416040D02*
X5852160Y-6436360D01*
X5852160Y-6416040D02*
X5831840Y-6436360D01*
X5831840Y-6517640D02*
X5852160Y-6537960D01*
X5852160Y-6517640D02*
X5831840Y-6537960D01*
X5869940Y-4147693D02*
X5890260Y-4168013D01*
X5890260Y-4147693D02*
X5869940Y-4168013D01*
X5869940Y-4213987D02*
X5890260Y-4234307D01*
X5890260Y-4213987D02*
X5869940Y-4234307D01*
X5869940Y-4528693D02*
X5890260Y-4549013D01*
X5890260Y-4528693D02*
X5869940Y-4549013D01*
X5869940Y-4594987D02*
X5890260Y-4615307D01*
X5890260Y-4594987D02*
X5869940Y-4615307D01*
X5869940Y-6708140D02*
X5890260Y-6728460D01*
X5890260Y-6708140D02*
X5869940Y-6728460D01*
X5882640Y-3385693D02*
X5902960Y-3406013D01*
X5902960Y-3385693D02*
X5882640Y-3406013D01*
X5882640Y-3451987D02*
X5902960Y-3472307D01*
X5902960Y-3451987D02*
X5882640Y-3472307D01*
X5882640Y-3766693D02*
X5902960Y-3787013D01*
X5902960Y-3766693D02*
X5882640Y-3787013D01*
X5882640Y-3832987D02*
X5902960Y-3853307D01*
X5902960Y-3832987D02*
X5882640Y-3853307D01*
X5895340Y-6225540D02*
X5915660Y-6245860D01*
X5915660Y-6225540D02*
X5895340Y-6245860D01*
X5895340Y-6466840D02*
X5915660Y-6487160D01*
X5915660Y-6466840D02*
X5895340Y-6487160D01*
X5984240Y-6212840D02*
X6004560Y-6233160D01*
X6004560Y-6212840D02*
X5984240Y-6233160D01*
X5996940Y-3317240D02*
X6017260Y-3337560D01*
X6017260Y-3317240D02*
X5996940Y-3337560D01*
X6182360Y-4241800D02*
X6202680Y-4262120D01*
X6202680Y-4241800D02*
X6182360Y-4262120D01*
X6184900Y-3825240D02*
X6205220Y-3845560D01*
X6205220Y-3825240D02*
X6184900Y-3845560D01*
X6210300Y-4066540D02*
X6230620Y-4086860D01*
X6230620Y-4066540D02*
X6210300Y-4086860D01*
X6212840Y-3980180D02*
X6233160Y-4000500D01*
X6233160Y-3980180D02*
X6212840Y-4000500D01*
X6238240Y-3660140D02*
X6258560Y-3680460D01*
X6258560Y-3660140D02*
X6238240Y-3680460D01*
X6263640Y-4028440D02*
X6283960Y-4048760D01*
X6283960Y-4028440D02*
X6263640Y-4048760D01*
X6263640Y-4384040D02*
X6283960Y-4404360D01*
X6283960Y-4384040D02*
X6263640Y-4404360D01*
X6263640Y-4485640D02*
X6283960Y-4505960D01*
X6283960Y-4485640D02*
X6263640Y-4505960D01*
X6466840Y-4688840D02*
X6487160Y-4709160D01*
X6487160Y-4688840D02*
X6466840Y-4709160D01*
X6568440Y-3380740D02*
X6588760Y-3401060D01*
X6588760Y-3380740D02*
X6568440Y-3401060D01*
X6572840Y-4815840D02*
X6593160Y-4836160D01*
X6593160Y-4815840D02*
X6572840Y-4836160D01*
X6631940Y-4650740D02*
X6652260Y-4671060D01*
X6652260Y-4650740D02*
X6631940Y-4671060D01*
X6676390Y-3425190D02*
X6696710Y-3445510D01*
X6696710Y-3425190D02*
X6676390Y-3445510D01*
X6708140Y-4650740D02*
X6728460Y-4671060D01*
X6728460Y-4650740D02*
X6708140Y-4671060D01*
X6727190Y-3469640D02*
X6747510Y-3489960D01*
X6747510Y-3469640D02*
X6727190Y-3489960D01*
X6911340Y-3418840D02*
X6931660Y-3439160D01*
X6931660Y-3418840D02*
X6911340Y-3439160D01*
X6974840Y-3355340D02*
X6995160Y-3375660D01*
X6995160Y-3355340D02*
X6974840Y-3375660D01*
X7076440Y-4691380D02*
X7096760Y-4711700D01*
X7096760Y-4691380D02*
X7076440Y-4711700D01*
X7089140Y-3418840D02*
X7109460Y-3439160D01*
X7109460Y-3418840D02*
X7089140Y-3439160D01*
X7124700Y-4645660D02*
X7145020Y-4665980D01*
X7145020Y-4645660D02*
X7124700Y-4665980D01*
X7139940Y-3469640D02*
X7160260Y-3489960D01*
X7160260Y-3469640D02*
X7139940Y-3489960D01*
X7228840Y-3469640D02*
X7249160Y-3489960D01*
X7249160Y-3469640D02*
X7228840Y-3489960D01*
X7305040Y-4650740D02*
X7325360Y-4671060D01*
X7325360Y-4650740D02*
X7305040Y-4671060D01*
X7419340Y-5501640D02*
X7439660Y-5521960D01*
X7439660Y-5501640D02*
X7419340Y-5521960D01*
X7432040Y-4218940D02*
X7452360Y-4239260D01*
X7452360Y-4218940D02*
X7432040Y-4239260D01*
X7457440Y-3652520D02*
X7477760Y-3672840D01*
X7477760Y-3652520D02*
X7457440Y-3672840D01*
X7457440Y-3754120D02*
X7477760Y-3774440D01*
X7477760Y-3754120D02*
X7457440Y-3774440D01*
X7457440Y-3952240D02*
X7477760Y-3972560D01*
X7477760Y-3952240D02*
X7457440Y-3972560D01*
X7457440Y-4053840D02*
X7477760Y-4074160D01*
X7477760Y-4053840D02*
X7457440Y-4074160D01*
X7457440Y-4124960D02*
X7477760Y-4145280D01*
X7477760Y-4124960D02*
X7457440Y-4145280D01*
X7463790Y-3882390D02*
X7484110Y-3902710D01*
X7484110Y-3882390D02*
X7463790Y-3902710D01*
X7470140Y-4276090D02*
X7490460Y-4296410D01*
X7490460Y-4276090D02*
X7470140Y-4296410D01*
X7482840Y-3818890D02*
X7503160Y-3839210D01*
X7503160Y-3818890D02*
X7482840Y-3839210D01*
X7482840Y-4523740D02*
X7503160Y-4544060D01*
X7503160Y-4523740D02*
X7482840Y-4544060D01*
X7546340Y-5654040D02*
X7566660Y-5674360D01*
X7566660Y-5654040D02*
X7546340Y-5674360D01*
X7571740Y-4460240D02*
X7592060Y-4480560D01*
X7592060Y-4460240D02*
X7571740Y-4480560D01*
X7673340Y-5717540D02*
X7693660Y-5737860D01*
X7693660Y-5717540D02*
X7673340Y-5737860D01*
X7736840Y-4498340D02*
X7757160Y-4518660D01*
X7757160Y-4498340D02*
X7736840Y-4518660D01*
X7739380Y-5290820D02*
X7759700Y-5311140D01*
X7759700Y-5290820D02*
X7739380Y-5311140D01*
X7787640Y-4828540D02*
X7807960Y-4848860D01*
X7807960Y-4828540D02*
X7787640Y-4848860D01*
X7787640Y-4904740D02*
X7807960Y-4925060D01*
X7807960Y-4904740D02*
X7787640Y-4925060D01*
X7787640Y-5245100D02*
X7807960Y-5265420D01*
X7807960Y-5245100D02*
X7787640Y-5265420D01*
X7863840Y-3609340D02*
X7884160Y-3629660D01*
X7884160Y-3609340D02*
X7863840Y-3629660D01*
X7863840Y-3736340D02*
X7884160Y-3756660D01*
X7884160Y-3736340D02*
X7863840Y-3756660D01*
X7863840Y-3863340D02*
X7884160Y-3883660D01*
X7884160Y-3863340D02*
X7863840Y-3883660D01*
X7863840Y-3990340D02*
X7884160Y-4010660D01*
X7884160Y-3990340D02*
X7863840Y-4010660D01*
X8028940Y-6123940D02*
X8049260Y-6144260D01*
X8049260Y-6123940D02*
X8028940Y-6144260D01*
X8092440Y-4485640D02*
X8112760Y-4505960D01*
X8112760Y-4485640D02*
X8092440Y-4505960D01*
X8092440Y-5654040D02*
X8112760Y-5674360D01*
X8112760Y-5654040D02*
X8092440Y-5674360D01*
X8143240Y-3685540D02*
X8163560Y-3705860D01*
X8163560Y-3685540D02*
X8143240Y-3705860D01*
X8143240Y-5704840D02*
X8163560Y-5725160D01*
X8163560Y-5704840D02*
X8143240Y-5725160D01*
X8155940Y-4460240D02*
X8176260Y-4480560D01*
X8176260Y-4460240D02*
X8155940Y-4480560D01*
X8181340Y-5958840D02*
X8201660Y-5979160D01*
X8201660Y-5958840D02*
X8181340Y-5979160D01*
X8257540Y-5882640D02*
X8277860Y-5902960D01*
X8277860Y-5882640D02*
X8257540Y-5902960D01*
X8257540Y-6263640D02*
X8277860Y-6283960D01*
X8277860Y-6263640D02*
X8257540Y-6283960D01*
X8359140Y-5654040D02*
X8379460Y-5674360D01*
X8379460Y-5654040D02*
X8359140Y-5674360D01*
X8359140Y-5730240D02*
X8379460Y-5750560D01*
X8379460Y-5730240D02*
X8359140Y-5750560D01*
X8473440Y-3685540D02*
X8493760Y-3705860D01*
X8493760Y-3685540D02*
X8473440Y-3705860D01*
X8486140Y-5654040D02*
X8506460Y-5674360D01*
X8506460Y-5654040D02*
X8486140Y-5674360D01*
X8511540Y-4485640D02*
X8531860Y-4505960D01*
X8531860Y-4485640D02*
X8511540Y-4505960D01*
X8536940Y-5704840D02*
X8557260Y-5725160D01*
X8557260Y-5704840D02*
X8536940Y-5725160D01*
X8587740Y-4485640D02*
X8608060Y-4505960D01*
X8608060Y-4485640D02*
X8587740Y-4505960D01*
X8600440Y-4409440D02*
X8620760Y-4429760D01*
X8620760Y-4409440D02*
X8600440Y-4429760D01*
X8663940Y-5704840D02*
X8684260Y-5725160D01*
X8684260Y-5704840D02*
X8663940Y-5725160D01*
X8752840Y-4460240D02*
X8773160Y-4480560D01*
X8773160Y-4460240D02*
X8752840Y-4480560D01*
X8816340Y-4485640D02*
X8836660Y-4505960D01*
X8836660Y-4485640D02*
X8816340Y-4505960D01*
X8956040Y-4638040D02*
X8976360Y-4658360D01*
X8976360Y-4638040D02*
X8956040Y-4658360D01*
X8956040Y-4726940D02*
X8976360Y-4747260D01*
X8976360Y-4726940D02*
X8956040Y-4747260D01*
X9006840Y-5095240D02*
X9027160Y-5115560D01*
X9027160Y-5095240D02*
X9006840Y-5115560D01*
X9006840Y-5488940D02*
X9027160Y-5509260D01*
X9027160Y-5488940D02*
X9006840Y-5509260D01*
X9032240Y-4892040D02*
X9052560Y-4912360D01*
X9052560Y-4892040D02*
X9032240Y-4912360D01*
X9057640Y-5057140D02*
X9077960Y-5077460D01*
X9077960Y-5057140D02*
X9057640Y-5077460D01*
X9057640Y-5133340D02*
X9077960Y-5153660D01*
X9077960Y-5133340D02*
X9057640Y-5153660D01*
X9057640Y-5311140D02*
X9077960Y-5331460D01*
X9077960Y-5311140D02*
X9057640Y-5331460D01*
X9324340Y-4528693D02*
X9344660Y-4549013D01*
X9344660Y-4528693D02*
X9324340Y-4549013D01*
X9324340Y-4594987D02*
X9344660Y-4615307D01*
X9344660Y-4594987D02*
X9324340Y-4615307D01*
X9349740Y-4909693D02*
X9370060Y-4930013D01*
X9370060Y-4909693D02*
X9349740Y-4930013D01*
X9349740Y-4975987D02*
X9370060Y-4996307D01*
X9370060Y-4975987D02*
X9349740Y-4996307D01*
X9349740Y-5290693D02*
X9370060Y-5311013D01*
X9370060Y-5290693D02*
X9349740Y-5311013D01*
X9349740Y-5356987D02*
X9370060Y-5377307D01*
X9370060Y-5356987D02*
X9349740Y-5377307D01*
X9349740Y-5671693D02*
X9370060Y-5692013D01*
X9370060Y-5671693D02*
X9349740Y-5692013D01*
X9349740Y-5737987D02*
X9370060Y-5758307D01*
X9370060Y-5737987D02*
X9349740Y-5758307D01*
X9540240Y-6022340D02*
X9560560Y-6042660D01*
X9560560Y-6022340D02*
X9540240Y-6042660D01*
X9959340Y-6085840D02*
X9979660Y-6106160D01*
X9979660Y-6085840D02*
X9959340Y-6106160D01*
X10723302Y-5271079D02*
X10743622Y-5291399D01*
X10743622Y-5271079D02*
X10723302Y-5291399D01*
X10770179Y-5224202D02*
X10790499Y-5244522D01*
X10790499Y-5224202D02*
X10770179Y-5244522D01*
X8119500Y-4805000D02*
G75*
G03X8119500Y-4805000I-12500J0D01*
G01*
X8119500Y-4942500D02*
G75*
G03X8119500Y-4942500I-12500J0D01*
G01*
X8119500Y-5080000D02*
G75*
G03X8119500Y-5080000I-12500J0D01*
G01*
X8119500Y-5217500D02*
G75*
G03X8119500Y-5217500I-12500J0D01*
G01*
X8119500Y-5355000D02*
G75*
G03X8119500Y-5355000I-12500J0D01*
G01*
X8257000Y-4805000D02*
G75*
G03X8257000Y-4805000I-12500J0D01*
G01*
X8257000Y-4942500D02*
G75*
G03X8257000Y-4942500I-12500J0D01*
G01*
X8257000Y-5080000D02*
G75*
G03X8257000Y-5080000I-12500J0D01*
G01*
X8257000Y-5217500D02*
G75*
G03X8257000Y-5217500I-12500J0D01*
G01*
X8257000Y-5355000D02*
G75*
G03X8257000Y-5355000I-12500J0D01*
G01*
X8394500Y-4805000D02*
G75*
G03X8394500Y-4805000I-12500J0D01*
G01*
X8394500Y-4942500D02*
G75*
G03X8394500Y-4942500I-12500J0D01*
G01*
X8394500Y-5080000D02*
G75*
G03X8394500Y-5080000I-12500J0D01*
G01*
X8394500Y-5217500D02*
G75*
G03X8394500Y-5217500I-12500J0D01*
G01*
X8394500Y-5355000D02*
G75*
G03X8394500Y-5355000I-12500J0D01*
G01*
X8532000Y-4805000D02*
G75*
G03X8532000Y-4805000I-12500J0D01*
G01*
X8532000Y-4942500D02*
G75*
G03X8532000Y-4942500I-12500J0D01*
G01*
X8532000Y-5080000D02*
G75*
G03X8532000Y-5080000I-12500J0D01*
G01*
X8532000Y-5217500D02*
G75*
G03X8532000Y-5217500I-12500J0D01*
G01*
X8532000Y-5355000D02*
G75*
G03X8532000Y-5355000I-12500J0D01*
G01*
X8669500Y-4805000D02*
G75*
G03X8669500Y-4805000I-12500J0D01*
G01*
X8669500Y-4942500D02*
G75*
G03X8669500Y-4942500I-12500J0D01*
G01*
X8669500Y-5080000D02*
G75*
G03X8669500Y-5080000I-12500J0D01*
G01*
X8669500Y-5217500D02*
G75*
G03X8669500Y-5217500I-12500J0D01*
G01*
X8669500Y-5355000D02*
G75*
G03X8669500Y-5355000I-12500J0D01*
G01*
X6595500Y-3789000D02*
G75*
G03X6595500Y-3789000I-12500J0D01*
G01*
X6595500Y-3926500D02*
G75*
G03X6595500Y-3926500I-12500J0D01*
G01*
X6595500Y-4064000D02*
G75*
G03X6595500Y-4064000I-12500J0D01*
G01*
X6595500Y-4201500D02*
G75*
G03X6595500Y-4201500I-12500J0D01*
G01*
X6595500Y-4339000D02*
G75*
G03X6595500Y-4339000I-12500J0D01*
G01*
X6733000Y-3789000D02*
G75*
G03X6733000Y-3789000I-12500J0D01*
G01*
X6733000Y-3926500D02*
G75*
G03X6733000Y-3926500I-12500J0D01*
G01*
X6733000Y-4064000D02*
G75*
G03X6733000Y-4064000I-12500J0D01*
G01*
X6733000Y-4201500D02*
G75*
G03X6733000Y-4201500I-12500J0D01*
G01*
X6733000Y-4339000D02*
G75*
G03X6733000Y-4339000I-12500J0D01*
G01*
X6870500Y-3789000D02*
G75*
G03X6870500Y-3789000I-12500J0D01*
G01*
X6870500Y-3926500D02*
G75*
G03X6870500Y-3926500I-12500J0D01*
G01*
X6870500Y-4064000D02*
G75*
G03X6870500Y-4064000I-12500J0D01*
G01*
X6870500Y-4201500D02*
G75*
G03X6870500Y-4201500I-12500J0D01*
G01*
X6870500Y-4339000D02*
G75*
G03X6870500Y-4339000I-12500J0D01*
G01*
X7008000Y-3789000D02*
G75*
G03X7008000Y-3789000I-12500J0D01*
G01*
X7008000Y-3926500D02*
G75*
G03X7008000Y-3926500I-12500J0D01*
G01*
X7008000Y-4064000D02*
G75*
G03X7008000Y-4064000I-12500J0D01*
G01*
X7008000Y-4201500D02*
G75*
G03X7008000Y-4201500I-12500J0D01*
G01*
X7008000Y-4339000D02*
G75*
G03X7008000Y-4339000I-12500J0D01*
G01*
X7145500Y-3789000D02*
G75*
G03X7145500Y-3789000I-12500J0D01*
G01*
X7145500Y-3926500D02*
G75*
G03X7145500Y-3926500I-12500J0D01*
G01*
X7145500Y-4064000D02*
G75*
G03X7145500Y-4064000I-12500J0D01*
G01*
X7145500Y-4201500D02*
G75*
G03X7145500Y-4201500I-12500J0D01*
G01*
X7145500Y-4339000D02*
G75*
G03X7145500Y-4339000I-12500J0D01*
G01*
X3162300Y-6699250D02*
X3162300Y-6737350D01*
X3143250Y-6718300D02*
X3181350Y-6718300D01*
X3162300Y-6978650D02*
X3162300Y-7016750D01*
X3143250Y-6997700D02*
X3181350Y-6997700D01*
X3162300Y-7258050D02*
X3162300Y-7296150D01*
X3143250Y-7277100D02*
X3181350Y-7277100D01*
X4254500Y-3232150D02*
X4254500Y-3270250D01*
X4235450Y-3251200D02*
X4273550Y-3251200D01*
X4381500Y-3600450D02*
X4381500Y-3638550D01*
X4362450Y-3619500D02*
X4400550Y-3619500D01*
X4381500Y-3981450D02*
X4381500Y-4019550D01*
X4362450Y-4000500D02*
X4400550Y-4000500D01*
X4381500Y-4362450D02*
X4381500Y-4400550D01*
X4362450Y-4381500D02*
X4400550Y-4381500D01*
X4381500Y-4743450D02*
X4381500Y-4781550D01*
X4362450Y-4762500D02*
X4400550Y-4762500D01*
X5207000Y-3473450D02*
X5207000Y-3511550D01*
X5187950Y-3492500D02*
X5226050Y-3492500D01*
X5207000Y-3790950D02*
X5207000Y-3829050D01*
X5187950Y-3810000D02*
X5226050Y-3810000D01*
X5207000Y-4171950D02*
X5207000Y-4210050D01*
X5187950Y-4191000D02*
X5226050Y-4191000D01*
X5207000Y-4552950D02*
X5207000Y-4591050D01*
X5187950Y-4572000D02*
X5226050Y-4572000D01*
X5207000Y-6432550D02*
X5207000Y-6470650D01*
X5187950Y-6451600D02*
X5226050Y-6451600D01*
X5207000Y-6508750D02*
X5207000Y-6546850D01*
X5187950Y-6527800D02*
X5226050Y-6527800D01*
X5473700Y-5365750D02*
X5473700Y-5403850D01*
X5454650Y-5384800D02*
X5492750Y-5384800D01*
X5473700Y-5645150D02*
X5473700Y-5683250D01*
X5454650Y-5664200D02*
X5492750Y-5664200D01*
X5524500Y-3600450D02*
X5524500Y-3638550D01*
X5505450Y-3619500D02*
X5543550Y-3619500D01*
X5524500Y-3981450D02*
X5524500Y-4019550D01*
X5505450Y-4000500D02*
X5543550Y-4000500D01*
X5524500Y-4362450D02*
X5524500Y-4400550D01*
X5505450Y-4381500D02*
X5543550Y-4381500D01*
X5524500Y-4743450D02*
X5524500Y-4781550D01*
X5505450Y-4762500D02*
X5543550Y-4762500D01*
X5524500Y-6762750D02*
X5524500Y-6800850D01*
X5505450Y-6781800D02*
X5543550Y-6781800D01*
X5613400Y-5251450D02*
X5613400Y-5289550D01*
X5594350Y-5270500D02*
X5632450Y-5270500D01*
X5613400Y-5759450D02*
X5613400Y-5797550D01*
X5594350Y-5778500D02*
X5632450Y-5778500D01*
X5753100Y-5365750D02*
X5753100Y-5403850D01*
X5734050Y-5384800D02*
X5772150Y-5384800D01*
X5753100Y-5645150D02*
X5753100Y-5683250D01*
X5734050Y-5664200D02*
X5772150Y-5664200D01*
X5778500Y-5822950D02*
X5778500Y-5861050D01*
X5759450Y-5842000D02*
X5797550Y-5842000D01*
X5829300Y-5480050D02*
X5829300Y-5518150D01*
X5810250Y-5499100D02*
X5848350Y-5499100D01*
X5854700Y-5734050D02*
X5854700Y-5772150D01*
X5835650Y-5753100D02*
X5873750Y-5753100D01*
X5930900Y-4921250D02*
X5930900Y-4959350D01*
X5911850Y-4940300D02*
X5949950Y-4940300D01*
X5956300Y-5378450D02*
X5956300Y-5416550D01*
X5937250Y-5397500D02*
X5975350Y-5397500D01*
X5956300Y-5759450D02*
X5956300Y-5797550D01*
X5937250Y-5778500D02*
X5975350Y-5778500D01*
X6045200Y-3625850D02*
X6045200Y-3663950D01*
X6026150Y-3644900D02*
X6064250Y-3644900D01*
X6057900Y-5391150D02*
X6057900Y-5429250D01*
X6038850Y-5410200D02*
X6076950Y-5410200D01*
X6070600Y-4311650D02*
X6070600Y-4349750D01*
X6051550Y-4330700D02*
X6089650Y-4330700D01*
X6083300Y-4921250D02*
X6083300Y-4959350D01*
X6064250Y-4940300D02*
X6102350Y-4940300D01*
X6083300Y-5073650D02*
X6083300Y-5111750D01*
X6064250Y-5092700D02*
X6102350Y-5092700D01*
X6197600Y-5175250D02*
X6197600Y-5213350D01*
X6178550Y-5194300D02*
X6216650Y-5194300D01*
X6235700Y-6432550D02*
X6235700Y-6470650D01*
X6216650Y-6451600D02*
X6254750Y-6451600D01*
X6235700Y-6508750D02*
X6235700Y-6546850D01*
X6216650Y-6527800D02*
X6254750Y-6527800D01*
X6261100Y-3130550D02*
X6261100Y-3168650D01*
X6242050Y-3149600D02*
X6280150Y-3149600D01*
X6388100Y-4692650D02*
X6388100Y-4730750D01*
X6369050Y-4711700D02*
X6407150Y-4711700D01*
X6565900Y-5187950D02*
X6565900Y-5226050D01*
X6546850Y-5207000D02*
X6584950Y-5207000D01*
X6692900Y-5073650D02*
X6692900Y-5111750D01*
X6673850Y-5092700D02*
X6711950Y-5092700D01*
X8966200Y-6000750D02*
X8966200Y-6038850D01*
X8947150Y-6019800D02*
X8985250Y-6019800D01*
X9169400Y-4781550D02*
X9169400Y-4819650D01*
X9150350Y-4800600D02*
X9188450Y-4800600D01*
X9245600Y-5441950D02*
X9245600Y-5480050D01*
X9226550Y-5461000D02*
X9264650Y-5461000D01*
X9715500Y-4362450D02*
X9715500Y-4400550D01*
X9696450Y-4381500D02*
X9734550Y-4381500D01*
X9715500Y-4743450D02*
X9715500Y-4781550D01*
X9696450Y-4762500D02*
X9734550Y-4762500D01*
X9715500Y-5124450D02*
X9715500Y-5162550D01*
X9696450Y-5143500D02*
X9734550Y-5143500D01*
X9715500Y-5505450D02*
X9715500Y-5543550D01*
X9696450Y-5524500D02*
X9734550Y-5524500D01*
X10033000Y-4489450D02*
X10033000Y-4527550D01*
X10013950Y-4508500D02*
X10052050Y-4508500D01*
X10033000Y-4870450D02*
X10033000Y-4908550D01*
X10013950Y-4889500D02*
X10052050Y-4889500D01*
X10033000Y-5251450D02*
X10033000Y-5289550D01*
X10013950Y-5270500D02*
X10052050Y-5270500D01*
X10033000Y-5632450D02*
X10033000Y-5670550D01*
X10013950Y-5651500D02*
X10052050Y-5651500D01*
X10858500Y-4362450D02*
X10858500Y-4400550D01*
X10839450Y-4381500D02*
X10877550Y-4381500D01*
X10858500Y-4743450D02*
X10858500Y-4781550D01*
X10839450Y-4762500D02*
X10877550Y-4762500D01*
X10858500Y-5124450D02*
X10858500Y-5162550D01*
X10839450Y-5143500D02*
X10877550Y-5143500D01*
X10858500Y-5505450D02*
X10858500Y-5543550D01*
X10839450Y-5524500D02*
X10877550Y-5524500D01*
X10972800Y-5873750D02*
X10972800Y-5911850D01*
X10953750Y-5892800D02*
X10991850Y-5892800D01*
X3029142Y-5812642D02*
X3029142Y-5784358D01*
X3000858Y-5784358D01*
X3000858Y-5812642D01*
X3029142Y-5812642D01*
X3029142Y-5897642D02*
X3029142Y-5869358D01*
X3000858Y-5869358D01*
X3000858Y-5897642D01*
X3029142Y-5897642D01*
X3029142Y-5982642D02*
X3029142Y-5954358D01*
X3000858Y-5954358D01*
X3000858Y-5982642D01*
X3029142Y-5982642D01*
X3029142Y-6067642D02*
X3029142Y-6039358D01*
X3000858Y-6039358D01*
X3000858Y-6067642D01*
X3029142Y-6067642D01*
X3029142Y-6152642D02*
X3029142Y-6124358D01*
X3000858Y-6124358D01*
X3000858Y-6152642D01*
X3029142Y-6152642D01*
X3029142Y-6237642D02*
X3029142Y-6209358D01*
X3000858Y-6209358D01*
X3000858Y-6237642D01*
X3029142Y-6237642D01*
X3029142Y-6322642D02*
X3029142Y-6294358D01*
X3000858Y-6294358D01*
X3000858Y-6322642D01*
X3029142Y-6322642D01*
X3029142Y-6407642D02*
X3029142Y-6379358D01*
X3000858Y-6379358D01*
X3000858Y-6407642D01*
X3029142Y-6407642D01*
X3164142Y-5812642D02*
X3164142Y-5784358D01*
X3135858Y-5784358D01*
X3135858Y-5812642D01*
X3164142Y-5812642D01*
X3164142Y-5897642D02*
X3164142Y-5869358D01*
X3135858Y-5869358D01*
X3135858Y-5897642D01*
X3164142Y-5897642D01*
X3164142Y-5982642D02*
X3164142Y-5954358D01*
X3135858Y-5954358D01*
X3135858Y-5982642D01*
X3164142Y-5982642D01*
X3164142Y-6067642D02*
X3164142Y-6039358D01*
X3135858Y-6039358D01*
X3135858Y-6067642D01*
X3164142Y-6067642D01*
X3164142Y-6152642D02*
X3164142Y-6124358D01*
X3135858Y-6124358D01*
X3135858Y-6152642D01*
X3164142Y-6152642D01*
X3164142Y-6237642D02*
X3164142Y-6209358D01*
X3135858Y-6209358D01*
X3135858Y-6237642D01*
X3164142Y-6237642D01*
X3164142Y-6322642D02*
X3164142Y-6294358D01*
X3135858Y-6294358D01*
X3135858Y-6322642D01*
X3164142Y-6322642D01*
X3164142Y-6407642D02*
X3164142Y-6379358D01*
X3135858Y-6379358D01*
X3135858Y-6407642D01*
X3164142Y-6407642D01*
X2714000Y-5693500D02*
X2744000Y-5663500D01*
X2714000Y-5633500D01*
X2684000Y-5663500D01*
X2714000Y-5693500D01*
X2754000Y-5643500D02*
X2674000Y-5643500D01*
X2754000Y-5683500D02*
X2674000Y-5683500D01*
X2674000Y-5643500D02*
G75*
G03X2674000Y-5683500I0J-20000D01*
G01*
X2754000Y-5683500D02*
G75*
G03X2754000Y-5643500I0J20000D01*
G01*
X2714000Y-6558500D02*
X2744000Y-6528500D01*
X2714000Y-6498500D01*
X2684000Y-6528500D01*
X2714000Y-6558500D01*
X2754000Y-6508500D02*
X2674000Y-6508500D01*
X2754000Y-6548500D02*
X2674000Y-6548500D01*
X2674000Y-6508500D02*
G75*
G03X2674000Y-6548500I0J-20000D01*
G01*
X2754000Y-6548500D02*
G75*
G03X2754000Y-6508500I0J20000D01*
G01*
X3052000Y-5693500D02*
X3082000Y-5663500D01*
X3052000Y-5633500D01*
X3022000Y-5663500D01*
X3052000Y-5693500D01*
X3127000Y-5643500D02*
X2977000Y-5643500D01*
X3127000Y-5683500D02*
X2977000Y-5683500D01*
X2977000Y-5643500D02*
G75*
G03X2977000Y-5683500I0J-20000D01*
G01*
X3127000Y-5683500D02*
G75*
G03X3127000Y-5643500I0J20000D01*
G01*
X3052000Y-6558500D02*
X3082000Y-6528500D01*
X3052000Y-6498500D01*
X3022000Y-6528500D01*
X3052000Y-6558500D01*
X3127000Y-6508500D02*
X2977000Y-6508500D01*
X3127000Y-6548500D02*
X2977000Y-6548500D01*
X2977000Y-6508500D02*
G75*
G03X2977000Y-6548500I0J-20000D01*
G01*
X3127000Y-6548500D02*
G75*
G03X3127000Y-6508500I0J20000D01*
G01*
X2665000Y-3224000D02*
X2745000Y-3304000D01*
X2745000Y-3224000D02*
X2665000Y-3304000D01*
X2745000Y-3264000D02*
G75*
G03X2745000Y-3264000I-40000J0D01*
G01*
X2765000Y-3234000D02*
X2645000Y-3234000D01*
X2765000Y-3294000D02*
X2645000Y-3294000D01*
X2645000Y-3234000D02*
G75*
G03X2645000Y-3294000I0J-30000D01*
G01*
X2765000Y-3294000D02*
G75*
G03X2765000Y-3234000I0J30000D01*
G01*
X2665000Y-4824000D02*
X2745000Y-4904000D01*
X2745000Y-4824000D02*
X2665000Y-4904000D01*
X2745000Y-4864000D02*
G75*
G03X2745000Y-4864000I-40000J0D01*
G01*
X2765000Y-4834000D02*
X2645000Y-4834000D01*
X2765000Y-4894000D02*
X2645000Y-4894000D01*
X2645000Y-4834000D02*
G75*
G03X2645000Y-4894000I0J-30000D01*
G01*
X2765000Y-4894000D02*
G75*
G03X2765000Y-4834000I0J30000D01*
G01*
X12495000Y-4240000D02*
X12575000Y-4320000D01*
X12575000Y-4240000D02*
X12495000Y-4320000D01*
X12575000Y-4280000D02*
G75*
G03X12575000Y-4280000I-40000J0D01*
G01*
X12475000Y-4310000D02*
X12595000Y-4310000D01*
X12475000Y-4250000D02*
X12595000Y-4250000D01*
X12595000Y-4310000D02*
G75*
G03X12595000Y-4250000I0J30000D01*
G01*
X12475000Y-4250000D02*
G75*
G03X12475000Y-4310000I0J-30000D01*
G01*
X12495000Y-5840000D02*
X12575000Y-5920000D01*
X12575000Y-5840000D02*
X12495000Y-5920000D01*
X12575000Y-5880000D02*
G75*
G03X12575000Y-5880000I-40000J0D01*
G01*
X12475000Y-5910000D02*
X12595000Y-5910000D01*
X12475000Y-5850000D02*
X12595000Y-5850000D01*
X12595000Y-5910000D02*
G75*
G03X12595000Y-5850000I0J30000D01*
G01*
X12475000Y-5850000D02*
G75*
G03X12475000Y-5910000I0J-30000D01*
G01*
X2950550Y-3765550D02*
X3039450Y-3854450D01*
X3039450Y-3765550D02*
X2950550Y-3854450D01*
X2995000Y-3765550D02*
X2995000Y-3854450D01*
X2950550Y-3810000D02*
X3039450Y-3810000D01*
X2950550Y-3968750D02*
X3039450Y-4057650D01*
X3039450Y-3968750D02*
X2950550Y-4057650D01*
X2995000Y-3968750D02*
X2995000Y-4057650D01*
X2950550Y-4013200D02*
X3039450Y-4013200D01*
X2950550Y-4171950D02*
X3039450Y-4260850D01*
X3039450Y-4171950D02*
X2950550Y-4260850D01*
X2995000Y-4171950D02*
X2995000Y-4260850D01*
X2950550Y-4216400D02*
X3039450Y-4216400D01*
X2950550Y-4375150D02*
X3039450Y-4464050D01*
X3039450Y-4375150D02*
X2950550Y-4464050D01*
X2995000Y-4375150D02*
X2995000Y-4464050D01*
X2950550Y-4419600D02*
X3039450Y-4419600D01*
X3128550Y-3663950D02*
X3217450Y-3752850D01*
X3217450Y-3663950D02*
X3128550Y-3752850D01*
X3173000Y-3663950D02*
X3173000Y-3752850D01*
X3128550Y-3708400D02*
X3217450Y-3708400D01*
X3128550Y-3867150D02*
X3217450Y-3956050D01*
X3217450Y-3867150D02*
X3128550Y-3956050D01*
X3173000Y-3867150D02*
X3173000Y-3956050D01*
X3128550Y-3911600D02*
X3217450Y-3911600D01*
X3128550Y-4070350D02*
X3217450Y-4159250D01*
X3217450Y-4070350D02*
X3128550Y-4159250D01*
X3173000Y-4070350D02*
X3173000Y-4159250D01*
X3128550Y-4114800D02*
X3217450Y-4114800D01*
X3128550Y-4273550D02*
X3217450Y-4362450D01*
X3217450Y-4273550D02*
X3128550Y-4362450D01*
X3173000Y-4273550D02*
X3173000Y-4362450D01*
X3128550Y-4318000D02*
X3217450Y-4318000D01*
X12022550Y-4781550D02*
X12111450Y-4870450D01*
X12111450Y-4781550D02*
X12022550Y-4870450D01*
X12067000Y-4781550D02*
X12067000Y-4870450D01*
X12022550Y-4826000D02*
X12111450Y-4826000D01*
X12022550Y-4984750D02*
X12111450Y-5073650D01*
X12111450Y-4984750D02*
X12022550Y-5073650D01*
X12067000Y-4984750D02*
X12067000Y-5073650D01*
X12022550Y-5029200D02*
X12111450Y-5029200D01*
X12022550Y-5187950D02*
X12111450Y-5276850D01*
X12111450Y-5187950D02*
X12022550Y-5276850D01*
X12067000Y-5187950D02*
X12067000Y-5276850D01*
X12022550Y-5232400D02*
X12111450Y-5232400D01*
X12022550Y-5391150D02*
X12111450Y-5480050D01*
X12111450Y-5391150D02*
X12022550Y-5480050D01*
X12067000Y-5391150D02*
X12067000Y-5480050D01*
X12022550Y-5435600D02*
X12111450Y-5435600D01*
X12200550Y-4679950D02*
X12289450Y-4768850D01*
X12289450Y-4679950D02*
X12200550Y-4768850D01*
X12245000Y-4679950D02*
X12245000Y-4768850D01*
X12200550Y-4724400D02*
X12289450Y-4724400D01*
X12200550Y-4883150D02*
X12289450Y-4972050D01*
X12289450Y-4883150D02*
X12200550Y-4972050D01*
X12245000Y-4883150D02*
X12245000Y-4972050D01*
X12200550Y-4927600D02*
X12289450Y-4927600D01*
X12200550Y-5086350D02*
X12289450Y-5175250D01*
X12289450Y-5086350D02*
X12200550Y-5175250D01*
X12245000Y-5086350D02*
X12245000Y-5175250D01*
X12200550Y-5130800D02*
X12289450Y-5130800D01*
X12200550Y-5289550D02*
X12289450Y-5378450D01*
X12289450Y-5289550D02*
X12200550Y-5378450D01*
X12245000Y-5289550D02*
X12245000Y-5378450D01*
X12200550Y-5334000D02*
X12289450Y-5334000D01*
X3445000Y-3308000D02*
X3555000Y-3418000D01*
X3555000Y-3308000D02*
X3445000Y-3418000D01*
X3538891Y-3401891D02*
X3538891Y-3324109D01*
X3461109Y-3324109D01*
X3461109Y-3401891D01*
X3538891Y-3401891D01*
X3445000Y-3562000D02*
X3555000Y-3672000D01*
X3555000Y-3562000D02*
X3445000Y-3672000D01*
X3538891Y-3655891D02*
X3538891Y-3578109D01*
X3461109Y-3578109D01*
X3461109Y-3655891D01*
X3538891Y-3655891D01*
X3445000Y-4456000D02*
X3555000Y-4566000D01*
X3555000Y-4456000D02*
X3445000Y-4566000D01*
X3538891Y-4549891D02*
X3538891Y-4472109D01*
X3461109Y-4472109D01*
X3461109Y-4549891D01*
X3538891Y-4549891D01*
X3445000Y-4710000D02*
X3555000Y-4820000D01*
X3555000Y-4710000D02*
X3445000Y-4820000D01*
X3538891Y-4803891D02*
X3538891Y-4726109D01*
X3461109Y-4726109D01*
X3461109Y-4803891D01*
X3538891Y-4803891D01*
X11685000Y-4324000D02*
X11795000Y-4434000D01*
X11795000Y-4324000D02*
X11685000Y-4434000D01*
X11778891Y-4417891D02*
X11778891Y-4340109D01*
X11701109Y-4340109D01*
X11701109Y-4417891D01*
X11778891Y-4417891D01*
X11685000Y-4578000D02*
X11795000Y-4688000D01*
X11795000Y-4578000D02*
X11685000Y-4688000D01*
X11778891Y-4671891D02*
X11778891Y-4594109D01*
X11701109Y-4594109D01*
X11701109Y-4671891D01*
X11778891Y-4671891D01*
X11685000Y-5472000D02*
X11795000Y-5582000D01*
X11795000Y-5472000D02*
X11685000Y-5582000D01*
X11778891Y-5565891D02*
X11778891Y-5488109D01*
X11701109Y-5488109D01*
X11701109Y-5565891D01*
X11778891Y-5565891D01*
X11685000Y-5726000D02*
X11795000Y-5836000D01*
X11795000Y-5726000D02*
X11685000Y-5836000D01*
X11778891Y-5819891D02*
X11778891Y-5742109D01*
X11701109Y-5742109D01*
X11701109Y-5819891D01*
X11778891Y-5819891D01*
D12*
X2816268Y-8095874D02*
X2816268Y-7795874D01*
X2887697Y-7795874D01*
X2930554Y-7810160D01*
X2959126Y-7838731D01*
X2973411Y-7867303D01*
X2987697Y-7924446D01*
X2987697Y-7967303D01*
X2973411Y-8024446D01*
X2959126Y-8053017D01*
X2930554Y-8081589D01*
X2887697Y-8095874D01*
X2816268Y-8095874D01*
X3116268Y-8095874D02*
X3116268Y-7895874D01*
X3116268Y-7953017D02*
X3130554Y-7924446D01*
X3144840Y-7910160D01*
X3173411Y-7895874D01*
X3201983Y-7895874D01*
X3301983Y-8095874D02*
X3301983Y-7895874D01*
X3301983Y-7795874D02*
X3287697Y-7810160D01*
X3301983Y-7824446D01*
X3316268Y-7810160D01*
X3301983Y-7795874D01*
X3301983Y-7824446D01*
X3487697Y-8095874D02*
X3459126Y-8081589D01*
X3444840Y-8053017D01*
X3444840Y-7795874D01*
X3644840Y-8095874D02*
X3616268Y-8081589D01*
X3601983Y-8053017D01*
X3601983Y-7795874D01*
X3987697Y-8095874D02*
X3987697Y-7795874D01*
X4087697Y-8010160D01*
X4187697Y-7795874D01*
X4187697Y-8095874D01*
X4459126Y-8095874D02*
X4459126Y-7938731D01*
X4444840Y-7910160D01*
X4416268Y-7895874D01*
X4359126Y-7895874D01*
X4330554Y-7910160D01*
X4459126Y-8081589D02*
X4430554Y-8095874D01*
X4359126Y-8095874D01*
X4330554Y-8081589D01*
X4316268Y-8053017D01*
X4316268Y-8024446D01*
X4330554Y-7995874D01*
X4359126Y-7981589D01*
X4430554Y-7981589D01*
X4459126Y-7967303D01*
X4601983Y-7895874D02*
X4601983Y-8195874D01*
X4601983Y-7910160D02*
X4630554Y-7895874D01*
X4687697Y-7895874D01*
X4716268Y-7910160D01*
X4730554Y-7924446D01*
X4744840Y-7953017D01*
X4744840Y-8038731D01*
X4730554Y-8067303D01*
X4716268Y-8081589D01*
X4687697Y-8095874D01*
X4630554Y-8095874D01*
X4601983Y-8081589D01*
X4873411Y-8067303D02*
X4887697Y-8081589D01*
X4873411Y-8095874D01*
X4859126Y-8081589D01*
X4873411Y-8067303D01*
X4873411Y-8095874D01*
X4873411Y-7910160D02*
X4887697Y-7924446D01*
X4873411Y-7938731D01*
X4859126Y-7924446D01*
X4873411Y-7910160D01*
X4873411Y-7938731D01*
X2509520Y-8580000D02*
X2529840Y-8600320D01*
X2529840Y-8580000D02*
X2509520Y-8600320D01*
X2873411Y-8425874D02*
X2901983Y-8425874D01*
X2930554Y-8440160D01*
X2944840Y-8454446D01*
X2959126Y-8483017D01*
X2973411Y-8540160D01*
X2973411Y-8611589D01*
X2959126Y-8668732D01*
X2944840Y-8697303D01*
X2930554Y-8711589D01*
X2901983Y-8725874D01*
X2873411Y-8725874D01*
X2844840Y-8711589D01*
X2830554Y-8697303D01*
X2816268Y-8668732D01*
X2801983Y-8611589D01*
X2801983Y-8540160D01*
X2816268Y-8483017D01*
X2830554Y-8454446D01*
X2844840Y-8440160D01*
X2873411Y-8425874D01*
X3101983Y-8697303D02*
X3116268Y-8711589D01*
X3101983Y-8725874D01*
X3087697Y-8711589D01*
X3101983Y-8697303D01*
X3101983Y-8725874D01*
X3230554Y-8454446D02*
X3244840Y-8440160D01*
X3273411Y-8425874D01*
X3344840Y-8425874D01*
X3373411Y-8440160D01*
X3387697Y-8454446D01*
X3401983Y-8483017D01*
X3401983Y-8511589D01*
X3387697Y-8554446D01*
X3216268Y-8725874D01*
X3401983Y-8725874D01*
X3587697Y-8425874D02*
X3616268Y-8425874D01*
X3644840Y-8440160D01*
X3659126Y-8454446D01*
X3673411Y-8483017D01*
X3687697Y-8540160D01*
X3687697Y-8611589D01*
X3673411Y-8668732D01*
X3659126Y-8697303D01*
X3644840Y-8711589D01*
X3616268Y-8725874D01*
X3587697Y-8725874D01*
X3559126Y-8711589D01*
X3544840Y-8697303D01*
X3530554Y-8668732D01*
X3516268Y-8611589D01*
X3516268Y-8540160D01*
X3530554Y-8483017D01*
X3544840Y-8454446D01*
X3559126Y-8440160D01*
X3587697Y-8425874D01*
X3816268Y-8725874D02*
X3816268Y-8525874D01*
X3816268Y-8554446D02*
X3830554Y-8540160D01*
X3859126Y-8525874D01*
X3901983Y-8525874D01*
X3930554Y-8540160D01*
X3944840Y-8568732D01*
X3944840Y-8725874D01*
X3944840Y-8568732D02*
X3959126Y-8540160D01*
X3987697Y-8525874D01*
X4030554Y-8525874D01*
X4059126Y-8540160D01*
X4073411Y-8568732D01*
X4073411Y-8725874D01*
X4216268Y-8725874D02*
X4216268Y-8525874D01*
X4216268Y-8554446D02*
X4230554Y-8540160D01*
X4259126Y-8525874D01*
X4301983Y-8525874D01*
X4330554Y-8540160D01*
X4344840Y-8568732D01*
X4344840Y-8725874D01*
X4344840Y-8568732D02*
X4359126Y-8540160D01*
X4387697Y-8525874D01*
X4430554Y-8525874D01*
X4459126Y-8540160D01*
X4473411Y-8568732D01*
X4473411Y-8725874D01*
X5059126Y-8411589D02*
X4801983Y-8797303D01*
X5444840Y-8425874D02*
X5473411Y-8425874D01*
X5501983Y-8440160D01*
X5516268Y-8454446D01*
X5530554Y-8483017D01*
X5544840Y-8540160D01*
X5544840Y-8611589D01*
X5530554Y-8668732D01*
X5516268Y-8697303D01*
X5501983Y-8711589D01*
X5473411Y-8725874D01*
X5444840Y-8725874D01*
X5416268Y-8711589D01*
X5401983Y-8697303D01*
X5387697Y-8668732D01*
X5373411Y-8611589D01*
X5373411Y-8540160D01*
X5387697Y-8483017D01*
X5401983Y-8454446D01*
X5416268Y-8440160D01*
X5444840Y-8425874D01*
X5673411Y-8697303D02*
X5687697Y-8711589D01*
X5673411Y-8725874D01*
X5659126Y-8711589D01*
X5673411Y-8697303D01*
X5673411Y-8725874D01*
X5873411Y-8425874D02*
X5901983Y-8425874D01*
X5930554Y-8440160D01*
X5944840Y-8454446D01*
X5959126Y-8483017D01*
X5973411Y-8540160D01*
X5973411Y-8611589D01*
X5959126Y-8668732D01*
X5944840Y-8697303D01*
X5930554Y-8711589D01*
X5901983Y-8725874D01*
X5873411Y-8725874D01*
X5844840Y-8711589D01*
X5830554Y-8697303D01*
X5816268Y-8668732D01*
X5801983Y-8611589D01*
X5801983Y-8540160D01*
X5816268Y-8483017D01*
X5830554Y-8454446D01*
X5844840Y-8440160D01*
X5873411Y-8425874D01*
X6159126Y-8425874D02*
X6187697Y-8425874D01*
X6216268Y-8440160D01*
X6230554Y-8454446D01*
X6244840Y-8483017D01*
X6259126Y-8540160D01*
X6259126Y-8611589D01*
X6244840Y-8668732D01*
X6230554Y-8697303D01*
X6216268Y-8711589D01*
X6187697Y-8725874D01*
X6159126Y-8725874D01*
X6130554Y-8711589D01*
X6116268Y-8697303D01*
X6101983Y-8668732D01*
X6087697Y-8611589D01*
X6087697Y-8540160D01*
X6101983Y-8483017D01*
X6116268Y-8454446D01*
X6130554Y-8440160D01*
X6159126Y-8425874D01*
X6430554Y-8554446D02*
X6401983Y-8540160D01*
X6387697Y-8525874D01*
X6373411Y-8497303D01*
X6373411Y-8483017D01*
X6387697Y-8454446D01*
X6401983Y-8440160D01*
X6430554Y-8425874D01*
X6487697Y-8425874D01*
X6516268Y-8440160D01*
X6530554Y-8454446D01*
X6544840Y-8483017D01*
X6544840Y-8497303D01*
X6530554Y-8525874D01*
X6516268Y-8540160D01*
X6487697Y-8554446D01*
X6430554Y-8554446D01*
X6401983Y-8568732D01*
X6387697Y-8583017D01*
X6373411Y-8611589D01*
X6373411Y-8668732D01*
X6387697Y-8697303D01*
X6401983Y-8711589D01*
X6430554Y-8725874D01*
X6487697Y-8725874D01*
X6516268Y-8711589D01*
X6530554Y-8697303D01*
X6544840Y-8668732D01*
X6544840Y-8611589D01*
X6530554Y-8583017D01*
X6516268Y-8568732D01*
X6487697Y-8554446D01*
X6659126Y-8425874D02*
X6659126Y-8483017D01*
X6773411Y-8425874D02*
X6773411Y-8483017D01*
X7216268Y-8840160D02*
X7201983Y-8825874D01*
X7173411Y-8783017D01*
X7159126Y-8754446D01*
X7144840Y-8711589D01*
X7130554Y-8640160D01*
X7130554Y-8583017D01*
X7144840Y-8511589D01*
X7159126Y-8468732D01*
X7173411Y-8440160D01*
X7201983Y-8397303D01*
X7216268Y-8383017D01*
X7487697Y-8725874D02*
X7316268Y-8725874D01*
X7401983Y-8725874D02*
X7401983Y-8425874D01*
X7373411Y-8468732D01*
X7344840Y-8497303D01*
X7316268Y-8511589D01*
X7773411Y-8725874D02*
X7601983Y-8725874D01*
X7687697Y-8725874D02*
X7687697Y-8425874D01*
X7659126Y-8468732D01*
X7630554Y-8497303D01*
X7601983Y-8511589D01*
X7873411Y-8425874D02*
X8059126Y-8425874D01*
X7959126Y-8540160D01*
X8001983Y-8540160D01*
X8030554Y-8554446D01*
X8044840Y-8568732D01*
X8059126Y-8597303D01*
X8059126Y-8668732D01*
X8044840Y-8697303D01*
X8030554Y-8711589D01*
X8001983Y-8725874D01*
X7916268Y-8725874D01*
X7887697Y-8711589D01*
X7873411Y-8697303D01*
X8416268Y-8725874D02*
X8416268Y-8425874D01*
X8544840Y-8725874D02*
X8544840Y-8568732D01*
X8530554Y-8540160D01*
X8501983Y-8525874D01*
X8459126Y-8525874D01*
X8430554Y-8540160D01*
X8416268Y-8554446D01*
X8730554Y-8725874D02*
X8701983Y-8711589D01*
X8687697Y-8697303D01*
X8673411Y-8668732D01*
X8673411Y-8583017D01*
X8687697Y-8554446D01*
X8701983Y-8540160D01*
X8730554Y-8525874D01*
X8773411Y-8525874D01*
X8801983Y-8540160D01*
X8816268Y-8554446D01*
X8830554Y-8583017D01*
X8830554Y-8668732D01*
X8816268Y-8697303D01*
X8801983Y-8711589D01*
X8773411Y-8725874D01*
X8730554Y-8725874D01*
X9001983Y-8725874D02*
X8973411Y-8711589D01*
X8959126Y-8683017D01*
X8959126Y-8425874D01*
X9230554Y-8711589D02*
X9201983Y-8725874D01*
X9144840Y-8725874D01*
X9116268Y-8711589D01*
X9101983Y-8683017D01*
X9101983Y-8568732D01*
X9116268Y-8540160D01*
X9144840Y-8525874D01*
X9201983Y-8525874D01*
X9230554Y-8540160D01*
X9244840Y-8568732D01*
X9244840Y-8597303D01*
X9101983Y-8625874D01*
X9359126Y-8711589D02*
X9387697Y-8725874D01*
X9444840Y-8725874D01*
X9473411Y-8711589D01*
X9487697Y-8683017D01*
X9487697Y-8668732D01*
X9473411Y-8640160D01*
X9444840Y-8625874D01*
X9401983Y-8625874D01*
X9373411Y-8611589D01*
X9359126Y-8583017D01*
X9359126Y-8568732D01*
X9373411Y-8540160D01*
X9401983Y-8525874D01*
X9444840Y-8525874D01*
X9473411Y-8540160D01*
X9587697Y-8840160D02*
X9601983Y-8825874D01*
X9630554Y-8783017D01*
X9644840Y-8754446D01*
X9659126Y-8711589D01*
X9673411Y-8640160D01*
X9673411Y-8583017D01*
X9659126Y-8511589D01*
X9644840Y-8468732D01*
X9630554Y-8440160D01*
X9601983Y-8397303D01*
X9587697Y-8383017D01*
X2529840Y-8986160D02*
G75*
G03X2529840Y-8986160I-12500J0D01*
G01*
X2873411Y-8821874D02*
X2901983Y-8821874D01*
X2930554Y-8836160D01*
X2944840Y-8850446D01*
X2959126Y-8879017D01*
X2973411Y-8936160D01*
X2973411Y-9007589D01*
X2959126Y-9064732D01*
X2944840Y-9093303D01*
X2930554Y-9107589D01*
X2901983Y-9121874D01*
X2873411Y-9121874D01*
X2844840Y-9107589D01*
X2830554Y-9093303D01*
X2816268Y-9064732D01*
X2801983Y-9007589D01*
X2801983Y-8936160D01*
X2816268Y-8879017D01*
X2830554Y-8850446D01*
X2844840Y-8836160D01*
X2873411Y-8821874D01*
X3101983Y-9093303D02*
X3116268Y-9107589D01*
X3101983Y-9121874D01*
X3087697Y-9107589D01*
X3101983Y-9093303D01*
X3101983Y-9121874D01*
X3230554Y-8850446D02*
X3244840Y-8836160D01*
X3273411Y-8821874D01*
X3344840Y-8821874D01*
X3373411Y-8836160D01*
X3387697Y-8850446D01*
X3401983Y-8879017D01*
X3401983Y-8907589D01*
X3387697Y-8950446D01*
X3216268Y-9121874D01*
X3401983Y-9121874D01*
X3673411Y-8821874D02*
X3530554Y-8821874D01*
X3516268Y-8964732D01*
X3530554Y-8950446D01*
X3559126Y-8936160D01*
X3630554Y-8936160D01*
X3659126Y-8950446D01*
X3673411Y-8964732D01*
X3687697Y-8993303D01*
X3687697Y-9064732D01*
X3673411Y-9093303D01*
X3659126Y-9107589D01*
X3630554Y-9121874D01*
X3559126Y-9121874D01*
X3530554Y-9107589D01*
X3516268Y-9093303D01*
X3816268Y-9121874D02*
X3816268Y-8921874D01*
X3816268Y-8950446D02*
X3830554Y-8936160D01*
X3859126Y-8921874D01*
X3901983Y-8921874D01*
X3930554Y-8936160D01*
X3944840Y-8964732D01*
X3944840Y-9121874D01*
X3944840Y-8964732D02*
X3959126Y-8936160D01*
X3987697Y-8921874D01*
X4030554Y-8921874D01*
X4059126Y-8936160D01*
X4073411Y-8964732D01*
X4073411Y-9121874D01*
X4216268Y-9121874D02*
X4216268Y-8921874D01*
X4216268Y-8950446D02*
X4230554Y-8936160D01*
X4259126Y-8921874D01*
X4301983Y-8921874D01*
X4330554Y-8936160D01*
X4344840Y-8964732D01*
X4344840Y-9121874D01*
X4344840Y-8964732D02*
X4359126Y-8936160D01*
X4387697Y-8921874D01*
X4430554Y-8921874D01*
X4459126Y-8936160D01*
X4473411Y-8964732D01*
X4473411Y-9121874D01*
X5059126Y-8807589D02*
X4801983Y-9193303D01*
X5444840Y-8821874D02*
X5473411Y-8821874D01*
X5501983Y-8836160D01*
X5516268Y-8850446D01*
X5530554Y-8879017D01*
X5544840Y-8936160D01*
X5544840Y-9007589D01*
X5530554Y-9064732D01*
X5516268Y-9093303D01*
X5501983Y-9107589D01*
X5473411Y-9121874D01*
X5444840Y-9121874D01*
X5416268Y-9107589D01*
X5401983Y-9093303D01*
X5387697Y-9064732D01*
X5373411Y-9007589D01*
X5373411Y-8936160D01*
X5387697Y-8879017D01*
X5401983Y-8850446D01*
X5416268Y-8836160D01*
X5444840Y-8821874D01*
X5673411Y-9093303D02*
X5687697Y-9107589D01*
X5673411Y-9121874D01*
X5659126Y-9107589D01*
X5673411Y-9093303D01*
X5673411Y-9121874D01*
X5873411Y-8821874D02*
X5901983Y-8821874D01*
X5930554Y-8836160D01*
X5944840Y-8850446D01*
X5959126Y-8879017D01*
X5973411Y-8936160D01*
X5973411Y-9007589D01*
X5959126Y-9064732D01*
X5944840Y-9093303D01*
X5930554Y-9107589D01*
X5901983Y-9121874D01*
X5873411Y-9121874D01*
X5844840Y-9107589D01*
X5830554Y-9093303D01*
X5816268Y-9064732D01*
X5801983Y-9007589D01*
X5801983Y-8936160D01*
X5816268Y-8879017D01*
X5830554Y-8850446D01*
X5844840Y-8836160D01*
X5873411Y-8821874D01*
X6259126Y-9121874D02*
X6087697Y-9121874D01*
X6173411Y-9121874D02*
X6173411Y-8821874D01*
X6144840Y-8864732D01*
X6116268Y-8893303D01*
X6087697Y-8907589D01*
X6444840Y-8821874D02*
X6473411Y-8821874D01*
X6501983Y-8836160D01*
X6516268Y-8850446D01*
X6530554Y-8879017D01*
X6544840Y-8936160D01*
X6544840Y-9007589D01*
X6530554Y-9064732D01*
X6516268Y-9093303D01*
X6501983Y-9107589D01*
X6473411Y-9121874D01*
X6444840Y-9121874D01*
X6416268Y-9107589D01*
X6401983Y-9093303D01*
X6387697Y-9064732D01*
X6373411Y-9007589D01*
X6373411Y-8936160D01*
X6387697Y-8879017D01*
X6401983Y-8850446D01*
X6416268Y-8836160D01*
X6444840Y-8821874D01*
X6659126Y-8821874D02*
X6659126Y-8879017D01*
X6773411Y-8821874D02*
X6773411Y-8879017D01*
X7216268Y-9236160D02*
X7201983Y-9221874D01*
X7173411Y-9179017D01*
X7159126Y-9150446D01*
X7144840Y-9107589D01*
X7130554Y-9036160D01*
X7130554Y-8979017D01*
X7144840Y-8907589D01*
X7159126Y-8864732D01*
X7173411Y-8836160D01*
X7201983Y-8793303D01*
X7216268Y-8779017D01*
X7473411Y-8821874D02*
X7330554Y-8821874D01*
X7316268Y-8964732D01*
X7330554Y-8950446D01*
X7359126Y-8936160D01*
X7430554Y-8936160D01*
X7459126Y-8950446D01*
X7473411Y-8964732D01*
X7487697Y-8993303D01*
X7487697Y-9064732D01*
X7473411Y-9093303D01*
X7459126Y-9107589D01*
X7430554Y-9121874D01*
X7359126Y-9121874D01*
X7330554Y-9107589D01*
X7316268Y-9093303D01*
X7673411Y-8821874D02*
X7701983Y-8821874D01*
X7730554Y-8836160D01*
X7744840Y-8850446D01*
X7759126Y-8879017D01*
X7773411Y-8936160D01*
X7773411Y-9007589D01*
X7759126Y-9064732D01*
X7744840Y-9093303D01*
X7730554Y-9107589D01*
X7701983Y-9121874D01*
X7673411Y-9121874D01*
X7644840Y-9107589D01*
X7630554Y-9093303D01*
X7616268Y-9064732D01*
X7601983Y-9007589D01*
X7601983Y-8936160D01*
X7616268Y-8879017D01*
X7630554Y-8850446D01*
X7644840Y-8836160D01*
X7673411Y-8821874D01*
X8130554Y-9121874D02*
X8130554Y-8821874D01*
X8259126Y-9121874D02*
X8259126Y-8964732D01*
X8244840Y-8936160D01*
X8216268Y-8921874D01*
X8173411Y-8921874D01*
X8144840Y-8936160D01*
X8130554Y-8950446D01*
X8444840Y-9121874D02*
X8416268Y-9107589D01*
X8401983Y-9093303D01*
X8387697Y-9064732D01*
X8387697Y-8979017D01*
X8401983Y-8950446D01*
X8416268Y-8936160D01*
X8444840Y-8921874D01*
X8487697Y-8921874D01*
X8516268Y-8936160D01*
X8530554Y-8950446D01*
X8544840Y-8979017D01*
X8544840Y-9064732D01*
X8530554Y-9093303D01*
X8516268Y-9107589D01*
X8487697Y-9121874D01*
X8444840Y-9121874D01*
X8716268Y-9121874D02*
X8687697Y-9107589D01*
X8673411Y-9079017D01*
X8673411Y-8821874D01*
X8944840Y-9107589D02*
X8916268Y-9121874D01*
X8859126Y-9121874D01*
X8830554Y-9107589D01*
X8816268Y-9079017D01*
X8816268Y-8964732D01*
X8830554Y-8936160D01*
X8859126Y-8921874D01*
X8916268Y-8921874D01*
X8944840Y-8936160D01*
X8959126Y-8964732D01*
X8959126Y-8993303D01*
X8816268Y-9021874D01*
X9073411Y-9107589D02*
X9101983Y-9121874D01*
X9159126Y-9121874D01*
X9187697Y-9107589D01*
X9201983Y-9079017D01*
X9201983Y-9064732D01*
X9187697Y-9036160D01*
X9159126Y-9021874D01*
X9116268Y-9021874D01*
X9087697Y-9007589D01*
X9073411Y-8979017D01*
X9073411Y-8964732D01*
X9087697Y-8936160D01*
X9116268Y-8921874D01*
X9159126Y-8921874D01*
X9187697Y-8936160D01*
X9301983Y-9236160D02*
X9316268Y-9221874D01*
X9344840Y-9179017D01*
X9359126Y-9150446D01*
X9373411Y-9107589D01*
X9387697Y-9036160D01*
X9387697Y-8979017D01*
X9373411Y-8907589D01*
X9359126Y-8864732D01*
X9344840Y-8836160D01*
X9316268Y-8793303D01*
X9301983Y-8779017D01*
X2510790Y-9363110D02*
X2510790Y-9401210D01*
X2491740Y-9382160D02*
X2529840Y-9382160D01*
X2873411Y-9217874D02*
X2901983Y-9217874D01*
X2930554Y-9232160D01*
X2944840Y-9246446D01*
X2959126Y-9275017D01*
X2973411Y-9332160D01*
X2973411Y-9403589D01*
X2959126Y-9460732D01*
X2944840Y-9489303D01*
X2930554Y-9503589D01*
X2901983Y-9517874D01*
X2873411Y-9517874D01*
X2844840Y-9503589D01*
X2830554Y-9489303D01*
X2816268Y-9460732D01*
X2801983Y-9403589D01*
X2801983Y-9332160D01*
X2816268Y-9275017D01*
X2830554Y-9246446D01*
X2844840Y-9232160D01*
X2873411Y-9217874D01*
X3101983Y-9489303D02*
X3116268Y-9503589D01*
X3101983Y-9517874D01*
X3087697Y-9503589D01*
X3101983Y-9489303D01*
X3101983Y-9517874D01*
X3216268Y-9217874D02*
X3401983Y-9217874D01*
X3301983Y-9332160D01*
X3344840Y-9332160D01*
X3373411Y-9346446D01*
X3387697Y-9360732D01*
X3401983Y-9389303D01*
X3401983Y-9460732D01*
X3387697Y-9489303D01*
X3373411Y-9503589D01*
X3344840Y-9517874D01*
X3259126Y-9517874D01*
X3230554Y-9503589D01*
X3216268Y-9489303D01*
X3573411Y-9346446D02*
X3544840Y-9332160D01*
X3530554Y-9317874D01*
X3516268Y-9289303D01*
X3516268Y-9275017D01*
X3530554Y-9246446D01*
X3544840Y-9232160D01*
X3573411Y-9217874D01*
X3630554Y-9217874D01*
X3659126Y-9232160D01*
X3673411Y-9246446D01*
X3687697Y-9275017D01*
X3687697Y-9289303D01*
X3673411Y-9317874D01*
X3659126Y-9332160D01*
X3630554Y-9346446D01*
X3573411Y-9346446D01*
X3544840Y-9360732D01*
X3530554Y-9375017D01*
X3516268Y-9403589D01*
X3516268Y-9460732D01*
X3530554Y-9489303D01*
X3544840Y-9503589D01*
X3573411Y-9517874D01*
X3630554Y-9517874D01*
X3659126Y-9503589D01*
X3673411Y-9489303D01*
X3687697Y-9460732D01*
X3687697Y-9403589D01*
X3673411Y-9375017D01*
X3659126Y-9360732D01*
X3630554Y-9346446D01*
X3816268Y-9517874D02*
X3816268Y-9317874D01*
X3816268Y-9346446D02*
X3830554Y-9332160D01*
X3859126Y-9317874D01*
X3901983Y-9317874D01*
X3930554Y-9332160D01*
X3944840Y-9360732D01*
X3944840Y-9517874D01*
X3944840Y-9360732D02*
X3959126Y-9332160D01*
X3987697Y-9317874D01*
X4030554Y-9317874D01*
X4059126Y-9332160D01*
X4073411Y-9360732D01*
X4073411Y-9517874D01*
X4216268Y-9517874D02*
X4216268Y-9317874D01*
X4216268Y-9346446D02*
X4230554Y-9332160D01*
X4259126Y-9317874D01*
X4301983Y-9317874D01*
X4330554Y-9332160D01*
X4344840Y-9360732D01*
X4344840Y-9517874D01*
X4344840Y-9360732D02*
X4359126Y-9332160D01*
X4387697Y-9317874D01*
X4430554Y-9317874D01*
X4459126Y-9332160D01*
X4473411Y-9360732D01*
X4473411Y-9517874D01*
X5059126Y-9203589D02*
X4801983Y-9589303D01*
X5444840Y-9217874D02*
X5473411Y-9217874D01*
X5501983Y-9232160D01*
X5516268Y-9246446D01*
X5530554Y-9275017D01*
X5544840Y-9332160D01*
X5544840Y-9403589D01*
X5530554Y-9460732D01*
X5516268Y-9489303D01*
X5501983Y-9503589D01*
X5473411Y-9517874D01*
X5444840Y-9517874D01*
X5416268Y-9503589D01*
X5401983Y-9489303D01*
X5387697Y-9460732D01*
X5373411Y-9403589D01*
X5373411Y-9332160D01*
X5387697Y-9275017D01*
X5401983Y-9246446D01*
X5416268Y-9232160D01*
X5444840Y-9217874D01*
X5673411Y-9489303D02*
X5687697Y-9503589D01*
X5673411Y-9517874D01*
X5659126Y-9503589D01*
X5673411Y-9489303D01*
X5673411Y-9517874D01*
X5873411Y-9217874D02*
X5901983Y-9217874D01*
X5930554Y-9232160D01*
X5944840Y-9246446D01*
X5959126Y-9275017D01*
X5973411Y-9332160D01*
X5973411Y-9403589D01*
X5959126Y-9460732D01*
X5944840Y-9489303D01*
X5930554Y-9503589D01*
X5901983Y-9517874D01*
X5873411Y-9517874D01*
X5844840Y-9503589D01*
X5830554Y-9489303D01*
X5816268Y-9460732D01*
X5801983Y-9403589D01*
X5801983Y-9332160D01*
X5816268Y-9275017D01*
X5830554Y-9246446D01*
X5844840Y-9232160D01*
X5873411Y-9217874D01*
X6259126Y-9517874D02*
X6087697Y-9517874D01*
X6173411Y-9517874D02*
X6173411Y-9217874D01*
X6144840Y-9260732D01*
X6116268Y-9289303D01*
X6087697Y-9303589D01*
X6530554Y-9217874D02*
X6387697Y-9217874D01*
X6373411Y-9360732D01*
X6387697Y-9346446D01*
X6416268Y-9332160D01*
X6487697Y-9332160D01*
X6516268Y-9346446D01*
X6530554Y-9360732D01*
X6544840Y-9389303D01*
X6544840Y-9460732D01*
X6530554Y-9489303D01*
X6516268Y-9503589D01*
X6487697Y-9517874D01*
X6416268Y-9517874D01*
X6387697Y-9503589D01*
X6373411Y-9489303D01*
X6659126Y-9217874D02*
X6659126Y-9275017D01*
X6773411Y-9217874D02*
X6773411Y-9275017D01*
X7216268Y-9632160D02*
X7201983Y-9617874D01*
X7173411Y-9575017D01*
X7159126Y-9546446D01*
X7144840Y-9503589D01*
X7130554Y-9432160D01*
X7130554Y-9375017D01*
X7144840Y-9303589D01*
X7159126Y-9260732D01*
X7173411Y-9232160D01*
X7201983Y-9189303D01*
X7216268Y-9175017D01*
X7473411Y-9217874D02*
X7330554Y-9217874D01*
X7316268Y-9360732D01*
X7330554Y-9346446D01*
X7359126Y-9332160D01*
X7430554Y-9332160D01*
X7459126Y-9346446D01*
X7473411Y-9360732D01*
X7487697Y-9389303D01*
X7487697Y-9460732D01*
X7473411Y-9489303D01*
X7459126Y-9503589D01*
X7430554Y-9517874D01*
X7359126Y-9517874D01*
X7330554Y-9503589D01*
X7316268Y-9489303D01*
X7630554Y-9517874D02*
X7687697Y-9517874D01*
X7716268Y-9503589D01*
X7730554Y-9489303D01*
X7759126Y-9446446D01*
X7773411Y-9389303D01*
X7773411Y-9275017D01*
X7759126Y-9246446D01*
X7744840Y-9232160D01*
X7716268Y-9217874D01*
X7659126Y-9217874D01*
X7630554Y-9232160D01*
X7616268Y-9246446D01*
X7601983Y-9275017D01*
X7601983Y-9346446D01*
X7616268Y-9375017D01*
X7630554Y-9389303D01*
X7659126Y-9403589D01*
X7716268Y-9403589D01*
X7744840Y-9389303D01*
X7759126Y-9375017D01*
X7773411Y-9346446D01*
X8130554Y-9517874D02*
X8130554Y-9217874D01*
X8259126Y-9517874D02*
X8259126Y-9360732D01*
X8244840Y-9332160D01*
X8216268Y-9317874D01*
X8173411Y-9317874D01*
X8144840Y-9332160D01*
X8130554Y-9346446D01*
X8444840Y-9517874D02*
X8416268Y-9503589D01*
X8401983Y-9489303D01*
X8387697Y-9460732D01*
X8387697Y-9375017D01*
X8401983Y-9346446D01*
X8416268Y-9332160D01*
X8444840Y-9317874D01*
X8487697Y-9317874D01*
X8516268Y-9332160D01*
X8530554Y-9346446D01*
X8544840Y-9375017D01*
X8544840Y-9460732D01*
X8530554Y-9489303D01*
X8516268Y-9503589D01*
X8487697Y-9517874D01*
X8444840Y-9517874D01*
X8716268Y-9517874D02*
X8687697Y-9503589D01*
X8673411Y-9475017D01*
X8673411Y-9217874D01*
X8944840Y-9503589D02*
X8916268Y-9517874D01*
X8859126Y-9517874D01*
X8830554Y-9503589D01*
X8816268Y-9475017D01*
X8816268Y-9360732D01*
X8830554Y-9332160D01*
X8859126Y-9317874D01*
X8916268Y-9317874D01*
X8944840Y-9332160D01*
X8959126Y-9360732D01*
X8959126Y-9389303D01*
X8816268Y-9417874D01*
X9073411Y-9503589D02*
X9101983Y-9517874D01*
X9159126Y-9517874D01*
X9187697Y-9503589D01*
X9201983Y-9475017D01*
X9201983Y-9460732D01*
X9187697Y-9432160D01*
X9159126Y-9417874D01*
X9116268Y-9417874D01*
X9087697Y-9403589D01*
X9073411Y-9375017D01*
X9073411Y-9360732D01*
X9087697Y-9332160D01*
X9116268Y-9317874D01*
X9159126Y-9317874D01*
X9187697Y-9332160D01*
X9301983Y-9632160D02*
X9316268Y-9617874D01*
X9344840Y-9575017D01*
X9359126Y-9546446D01*
X9373411Y-9503589D01*
X9387697Y-9432160D01*
X9387697Y-9375017D01*
X9373411Y-9303589D01*
X9359126Y-9260732D01*
X9344840Y-9232160D01*
X9316268Y-9189303D01*
X9301983Y-9175017D01*
X2523982Y-9792302D02*
X2523982Y-9764018D01*
X2495698Y-9764018D01*
X2495698Y-9792302D01*
X2523982Y-9792302D01*
X2873411Y-9613874D02*
X2901983Y-9613874D01*
X2930554Y-9628160D01*
X2944840Y-9642446D01*
X2959126Y-9671017D01*
X2973411Y-9728160D01*
X2973411Y-9799589D01*
X2959126Y-9856732D01*
X2944840Y-9885303D01*
X2930554Y-9899589D01*
X2901983Y-9913874D01*
X2873411Y-9913874D01*
X2844840Y-9899589D01*
X2830554Y-9885303D01*
X2816268Y-9856732D01*
X2801983Y-9799589D01*
X2801983Y-9728160D01*
X2816268Y-9671017D01*
X2830554Y-9642446D01*
X2844840Y-9628160D01*
X2873411Y-9613874D01*
X3101983Y-9885303D02*
X3116268Y-9899589D01*
X3101983Y-9913874D01*
X3087697Y-9899589D01*
X3101983Y-9885303D01*
X3101983Y-9913874D01*
X3373411Y-9713874D02*
X3373411Y-9913874D01*
X3301983Y-9599589D02*
X3230554Y-9813874D01*
X3416268Y-9813874D01*
X3587697Y-9613874D02*
X3616268Y-9613874D01*
X3644840Y-9628160D01*
X3659126Y-9642446D01*
X3673411Y-9671017D01*
X3687697Y-9728160D01*
X3687697Y-9799589D01*
X3673411Y-9856732D01*
X3659126Y-9885303D01*
X3644840Y-9899589D01*
X3616268Y-9913874D01*
X3587697Y-9913874D01*
X3559126Y-9899589D01*
X3544840Y-9885303D01*
X3530554Y-9856732D01*
X3516268Y-9799589D01*
X3516268Y-9728160D01*
X3530554Y-9671017D01*
X3544840Y-9642446D01*
X3559126Y-9628160D01*
X3587697Y-9613874D01*
X3816268Y-9913874D02*
X3816268Y-9713874D01*
X3816268Y-9742446D02*
X3830554Y-9728160D01*
X3859126Y-9713874D01*
X3901983Y-9713874D01*
X3930554Y-9728160D01*
X3944840Y-9756732D01*
X3944840Y-9913874D01*
X3944840Y-9756732D02*
X3959126Y-9728160D01*
X3987697Y-9713874D01*
X4030554Y-9713874D01*
X4059126Y-9728160D01*
X4073411Y-9756732D01*
X4073411Y-9913874D01*
X4216268Y-9913874D02*
X4216268Y-9713874D01*
X4216268Y-9742446D02*
X4230554Y-9728160D01*
X4259126Y-9713874D01*
X4301983Y-9713874D01*
X4330554Y-9728160D01*
X4344840Y-9756732D01*
X4344840Y-9913874D01*
X4344840Y-9756732D02*
X4359126Y-9728160D01*
X4387697Y-9713874D01*
X4430554Y-9713874D01*
X4459126Y-9728160D01*
X4473411Y-9756732D01*
X4473411Y-9913874D01*
X5059126Y-9599589D02*
X4801983Y-9985303D01*
X5444840Y-9613874D02*
X5473411Y-9613874D01*
X5501983Y-9628160D01*
X5516268Y-9642446D01*
X5530554Y-9671017D01*
X5544840Y-9728160D01*
X5544840Y-9799589D01*
X5530554Y-9856732D01*
X5516268Y-9885303D01*
X5501983Y-9899589D01*
X5473411Y-9913874D01*
X5444840Y-9913874D01*
X5416268Y-9899589D01*
X5401983Y-9885303D01*
X5387697Y-9856732D01*
X5373411Y-9799589D01*
X5373411Y-9728160D01*
X5387697Y-9671017D01*
X5401983Y-9642446D01*
X5416268Y-9628160D01*
X5444840Y-9613874D01*
X5673411Y-9885303D02*
X5687697Y-9899589D01*
X5673411Y-9913874D01*
X5659126Y-9899589D01*
X5673411Y-9885303D01*
X5673411Y-9913874D01*
X5873411Y-9613874D02*
X5901983Y-9613874D01*
X5930554Y-9628160D01*
X5944840Y-9642446D01*
X5959126Y-9671017D01*
X5973411Y-9728160D01*
X5973411Y-9799589D01*
X5959126Y-9856732D01*
X5944840Y-9885303D01*
X5930554Y-9899589D01*
X5901983Y-9913874D01*
X5873411Y-9913874D01*
X5844840Y-9899589D01*
X5830554Y-9885303D01*
X5816268Y-9856732D01*
X5801983Y-9799589D01*
X5801983Y-9728160D01*
X5816268Y-9671017D01*
X5830554Y-9642446D01*
X5844840Y-9628160D01*
X5873411Y-9613874D01*
X6259126Y-9913874D02*
X6087697Y-9913874D01*
X6173411Y-9913874D02*
X6173411Y-9613874D01*
X6144840Y-9656732D01*
X6116268Y-9685303D01*
X6087697Y-9699589D01*
X6516268Y-9613874D02*
X6459126Y-9613874D01*
X6430554Y-9628160D01*
X6416268Y-9642446D01*
X6387697Y-9685303D01*
X6373411Y-9742446D01*
X6373411Y-9856732D01*
X6387697Y-9885303D01*
X6401983Y-9899589D01*
X6430554Y-9913874D01*
X6487697Y-9913874D01*
X6516268Y-9899589D01*
X6530554Y-9885303D01*
X6544840Y-9856732D01*
X6544840Y-9785303D01*
X6530554Y-9756732D01*
X6516268Y-9742446D01*
X6487697Y-9728160D01*
X6430554Y-9728160D01*
X6401983Y-9742446D01*
X6387697Y-9756732D01*
X6373411Y-9785303D01*
X6659126Y-9613874D02*
X6659126Y-9671017D01*
X6773411Y-9613874D02*
X6773411Y-9671017D01*
X7216268Y-10028160D02*
X7201983Y-10013874D01*
X7173411Y-9971017D01*
X7159126Y-9942446D01*
X7144840Y-9899589D01*
X7130554Y-9828160D01*
X7130554Y-9771017D01*
X7144840Y-9699589D01*
X7159126Y-9656732D01*
X7173411Y-9628160D01*
X7201983Y-9585303D01*
X7216268Y-9571017D01*
X7487697Y-9913874D02*
X7316268Y-9913874D01*
X7401983Y-9913874D02*
X7401983Y-9613874D01*
X7373411Y-9656732D01*
X7344840Y-9685303D01*
X7316268Y-9699589D01*
X7744840Y-9613874D02*
X7687697Y-9613874D01*
X7659126Y-9628160D01*
X7644840Y-9642446D01*
X7616268Y-9685303D01*
X7601983Y-9742446D01*
X7601983Y-9856732D01*
X7616268Y-9885303D01*
X7630554Y-9899589D01*
X7659126Y-9913874D01*
X7716268Y-9913874D01*
X7744840Y-9899589D01*
X7759126Y-9885303D01*
X7773411Y-9856732D01*
X7773411Y-9785303D01*
X7759126Y-9756732D01*
X7744840Y-9742446D01*
X7716268Y-9728160D01*
X7659126Y-9728160D01*
X7630554Y-9742446D01*
X7616268Y-9756732D01*
X7601983Y-9785303D01*
X8130554Y-9913874D02*
X8130554Y-9613874D01*
X8259126Y-9913874D02*
X8259126Y-9756732D01*
X8244840Y-9728160D01*
X8216268Y-9713874D01*
X8173411Y-9713874D01*
X8144840Y-9728160D01*
X8130554Y-9742446D01*
X8444840Y-9913874D02*
X8416268Y-9899589D01*
X8401983Y-9885303D01*
X8387697Y-9856732D01*
X8387697Y-9771017D01*
X8401983Y-9742446D01*
X8416268Y-9728160D01*
X8444840Y-9713874D01*
X8487697Y-9713874D01*
X8516268Y-9728160D01*
X8530554Y-9742446D01*
X8544840Y-9771017D01*
X8544840Y-9856732D01*
X8530554Y-9885303D01*
X8516268Y-9899589D01*
X8487697Y-9913874D01*
X8444840Y-9913874D01*
X8716268Y-9913874D02*
X8687697Y-9899589D01*
X8673411Y-9871017D01*
X8673411Y-9613874D01*
X8944840Y-9899589D02*
X8916268Y-9913874D01*
X8859126Y-9913874D01*
X8830554Y-9899589D01*
X8816268Y-9871017D01*
X8816268Y-9756732D01*
X8830554Y-9728160D01*
X8859126Y-9713874D01*
X8916268Y-9713874D01*
X8944840Y-9728160D01*
X8959126Y-9756732D01*
X8959126Y-9785303D01*
X8816268Y-9813874D01*
X9073411Y-9899589D02*
X9101983Y-9913874D01*
X9159126Y-9913874D01*
X9187697Y-9899589D01*
X9201983Y-9871017D01*
X9201983Y-9856732D01*
X9187697Y-9828160D01*
X9159126Y-9813874D01*
X9116268Y-9813874D01*
X9087697Y-9799589D01*
X9073411Y-9771017D01*
X9073411Y-9756732D01*
X9087697Y-9728160D01*
X9116268Y-9713874D01*
X9159126Y-9713874D01*
X9187697Y-9728160D01*
X9301983Y-10028160D02*
X9316268Y-10013874D01*
X9344840Y-9971017D01*
X9359126Y-9942446D01*
X9373411Y-9899589D01*
X9387697Y-9828160D01*
X9387697Y-9771017D01*
X9373411Y-9699589D01*
X9359126Y-9656732D01*
X9344840Y-9628160D01*
X9316268Y-9585303D01*
X9301983Y-9571017D01*
X2499840Y-10204160D02*
X2529840Y-10174160D01*
X2499840Y-10144160D01*
X2469840Y-10174160D01*
X2499840Y-10204160D01*
X2873411Y-10009874D02*
X2901983Y-10009874D01*
X2930554Y-10024160D01*
X2944840Y-10038446D01*
X2959126Y-10067017D01*
X2973411Y-10124160D01*
X2973411Y-10195589D01*
X2959126Y-10252732D01*
X2944840Y-10281303D01*
X2930554Y-10295589D01*
X2901983Y-10309874D01*
X2873411Y-10309874D01*
X2844840Y-10295589D01*
X2830554Y-10281303D01*
X2816268Y-10252732D01*
X2801983Y-10195589D01*
X2801983Y-10124160D01*
X2816268Y-10067017D01*
X2830554Y-10038446D01*
X2844840Y-10024160D01*
X2873411Y-10009874D01*
X3101983Y-10281303D02*
X3116268Y-10295589D01*
X3101983Y-10309874D01*
X3087697Y-10295589D01*
X3101983Y-10281303D01*
X3101983Y-10309874D01*
X3373411Y-10009874D02*
X3316268Y-10009874D01*
X3287697Y-10024160D01*
X3273411Y-10038446D01*
X3244840Y-10081303D01*
X3230554Y-10138446D01*
X3230554Y-10252732D01*
X3244840Y-10281303D01*
X3259126Y-10295589D01*
X3287697Y-10309874D01*
X3344840Y-10309874D01*
X3373411Y-10295589D01*
X3387697Y-10281303D01*
X3401983Y-10252732D01*
X3401983Y-10181303D01*
X3387697Y-10152732D01*
X3373411Y-10138446D01*
X3344840Y-10124160D01*
X3287697Y-10124160D01*
X3259126Y-10138446D01*
X3244840Y-10152732D01*
X3230554Y-10181303D01*
X3587697Y-10009874D02*
X3616268Y-10009874D01*
X3644840Y-10024160D01*
X3659126Y-10038446D01*
X3673411Y-10067017D01*
X3687697Y-10124160D01*
X3687697Y-10195589D01*
X3673411Y-10252732D01*
X3659126Y-10281303D01*
X3644840Y-10295589D01*
X3616268Y-10309874D01*
X3587697Y-10309874D01*
X3559126Y-10295589D01*
X3544840Y-10281303D01*
X3530554Y-10252732D01*
X3516268Y-10195589D01*
X3516268Y-10124160D01*
X3530554Y-10067017D01*
X3544840Y-10038446D01*
X3559126Y-10024160D01*
X3587697Y-10009874D01*
X3816268Y-10309874D02*
X3816268Y-10109874D01*
X3816268Y-10138446D02*
X3830554Y-10124160D01*
X3859126Y-10109874D01*
X3901983Y-10109874D01*
X3930554Y-10124160D01*
X3944840Y-10152732D01*
X3944840Y-10309874D01*
X3944840Y-10152732D02*
X3959126Y-10124160D01*
X3987697Y-10109874D01*
X4030554Y-10109874D01*
X4059126Y-10124160D01*
X4073411Y-10152732D01*
X4073411Y-10309874D01*
X4216268Y-10309874D02*
X4216268Y-10109874D01*
X4216268Y-10138446D02*
X4230554Y-10124160D01*
X4259126Y-10109874D01*
X4301983Y-10109874D01*
X4330554Y-10124160D01*
X4344840Y-10152732D01*
X4344840Y-10309874D01*
X4344840Y-10152732D02*
X4359126Y-10124160D01*
X4387697Y-10109874D01*
X4430554Y-10109874D01*
X4459126Y-10124160D01*
X4473411Y-10152732D01*
X4473411Y-10309874D01*
X5059126Y-9995589D02*
X4801983Y-10381303D01*
X5444840Y-10009874D02*
X5473411Y-10009874D01*
X5501983Y-10024160D01*
X5516268Y-10038446D01*
X5530554Y-10067017D01*
X5544840Y-10124160D01*
X5544840Y-10195589D01*
X5530554Y-10252732D01*
X5516268Y-10281303D01*
X5501983Y-10295589D01*
X5473411Y-10309874D01*
X5444840Y-10309874D01*
X5416268Y-10295589D01*
X5401983Y-10281303D01*
X5387697Y-10252732D01*
X5373411Y-10195589D01*
X5373411Y-10124160D01*
X5387697Y-10067017D01*
X5401983Y-10038446D01*
X5416268Y-10024160D01*
X5444840Y-10009874D01*
X5673411Y-10281303D02*
X5687697Y-10295589D01*
X5673411Y-10309874D01*
X5659126Y-10295589D01*
X5673411Y-10281303D01*
X5673411Y-10309874D01*
X5873411Y-10009874D02*
X5901983Y-10009874D01*
X5930554Y-10024160D01*
X5944840Y-10038446D01*
X5959126Y-10067017D01*
X5973411Y-10124160D01*
X5973411Y-10195589D01*
X5959126Y-10252732D01*
X5944840Y-10281303D01*
X5930554Y-10295589D01*
X5901983Y-10309874D01*
X5873411Y-10309874D01*
X5844840Y-10295589D01*
X5830554Y-10281303D01*
X5816268Y-10252732D01*
X5801983Y-10195589D01*
X5801983Y-10124160D01*
X5816268Y-10067017D01*
X5830554Y-10038446D01*
X5844840Y-10024160D01*
X5873411Y-10009874D01*
X6087697Y-10038446D02*
X6101983Y-10024160D01*
X6130554Y-10009874D01*
X6201983Y-10009874D01*
X6230554Y-10024160D01*
X6244840Y-10038446D01*
X6259126Y-10067017D01*
X6259126Y-10095589D01*
X6244840Y-10138446D01*
X6073411Y-10309874D01*
X6259126Y-10309874D01*
X6516268Y-10109874D02*
X6516268Y-10309874D01*
X6444840Y-9995589D02*
X6373411Y-10209874D01*
X6559126Y-10209874D01*
X6659126Y-10009874D02*
X6659126Y-10067017D01*
X6773411Y-10009874D02*
X6773411Y-10067017D01*
X7216268Y-10424160D02*
X7201983Y-10409874D01*
X7173411Y-10367017D01*
X7159126Y-10338446D01*
X7144840Y-10295589D01*
X7130554Y-10224160D01*
X7130554Y-10167017D01*
X7144840Y-10095589D01*
X7159126Y-10052732D01*
X7173411Y-10024160D01*
X7201983Y-9981303D01*
X7216268Y-9967017D01*
X7387697Y-10009874D02*
X7416268Y-10009874D01*
X7444840Y-10024160D01*
X7459126Y-10038446D01*
X7473411Y-10067017D01*
X7487697Y-10124160D01*
X7487697Y-10195589D01*
X7473411Y-10252732D01*
X7459126Y-10281303D01*
X7444840Y-10295589D01*
X7416268Y-10309874D01*
X7387697Y-10309874D01*
X7359126Y-10295589D01*
X7344840Y-10281303D01*
X7330554Y-10252732D01*
X7316268Y-10195589D01*
X7316268Y-10124160D01*
X7330554Y-10067017D01*
X7344840Y-10038446D01*
X7359126Y-10024160D01*
X7387697Y-10009874D01*
X7844840Y-10309874D02*
X7844840Y-10009874D01*
X7973411Y-10309874D02*
X7973411Y-10152732D01*
X7959126Y-10124160D01*
X7930554Y-10109874D01*
X7887697Y-10109874D01*
X7859126Y-10124160D01*
X7844840Y-10138446D01*
X8159126Y-10309874D02*
X8130554Y-10295589D01*
X8116268Y-10281303D01*
X8101983Y-10252732D01*
X8101983Y-10167017D01*
X8116268Y-10138446D01*
X8130554Y-10124160D01*
X8159126Y-10109874D01*
X8201983Y-10109874D01*
X8230554Y-10124160D01*
X8244840Y-10138446D01*
X8259126Y-10167017D01*
X8259126Y-10252732D01*
X8244840Y-10281303D01*
X8230554Y-10295589D01*
X8201983Y-10309874D01*
X8159126Y-10309874D01*
X8430554Y-10309874D02*
X8401983Y-10295589D01*
X8387697Y-10267017D01*
X8387697Y-10009874D01*
X8659126Y-10295589D02*
X8630554Y-10309874D01*
X8573411Y-10309874D01*
X8544840Y-10295589D01*
X8530554Y-10267017D01*
X8530554Y-10152732D01*
X8544840Y-10124160D01*
X8573411Y-10109874D01*
X8630554Y-10109874D01*
X8659126Y-10124160D01*
X8673411Y-10152732D01*
X8673411Y-10181303D01*
X8530554Y-10209874D01*
X8787697Y-10295589D02*
X8816268Y-10309874D01*
X8873411Y-10309874D01*
X8901983Y-10295589D01*
X8916268Y-10267017D01*
X8916268Y-10252732D01*
X8901983Y-10224160D01*
X8873411Y-10209874D01*
X8830554Y-10209874D01*
X8801983Y-10195589D01*
X8787697Y-10167017D01*
X8787697Y-10152732D01*
X8801983Y-10124160D01*
X8830554Y-10109874D01*
X8873411Y-10109874D01*
X8901983Y-10124160D01*
X9273411Y-10195589D02*
X9501983Y-10195589D01*
X9387697Y-10309874D02*
X9387697Y-10081303D01*
X10001983Y-10109874D02*
X10001983Y-10309874D01*
X9930554Y-9995589D02*
X9859126Y-10209874D01*
X10044840Y-10209874D01*
X10373411Y-10295589D02*
X10401983Y-10309874D01*
X10459126Y-10309874D01*
X10487697Y-10295589D01*
X10501983Y-10267017D01*
X10501983Y-10252732D01*
X10487697Y-10224160D01*
X10459126Y-10209874D01*
X10416268Y-10209874D01*
X10387697Y-10195589D01*
X10373411Y-10167017D01*
X10373411Y-10152732D01*
X10387697Y-10124160D01*
X10416268Y-10109874D01*
X10459126Y-10109874D01*
X10487697Y-10124160D01*
X10673411Y-10309874D02*
X10644840Y-10295589D01*
X10630554Y-10267017D01*
X10630554Y-10009874D01*
X10830554Y-10309874D02*
X10801983Y-10295589D01*
X10787697Y-10281303D01*
X10773411Y-10252732D01*
X10773411Y-10167017D01*
X10787697Y-10138446D01*
X10801983Y-10124160D01*
X10830554Y-10109874D01*
X10873411Y-10109874D01*
X10901983Y-10124160D01*
X10916268Y-10138446D01*
X10930554Y-10167017D01*
X10930554Y-10252732D01*
X10916268Y-10281303D01*
X10901983Y-10295589D01*
X10873411Y-10309874D01*
X10830554Y-10309874D01*
X11016268Y-10109874D02*
X11130554Y-10109874D01*
X11059126Y-10009874D02*
X11059126Y-10267017D01*
X11073411Y-10295589D01*
X11101983Y-10309874D01*
X11130554Y-10309874D01*
X11216268Y-10295589D02*
X11244840Y-10309874D01*
X11301983Y-10309874D01*
X11330554Y-10295589D01*
X11344840Y-10267017D01*
X11344840Y-10252732D01*
X11330554Y-10224160D01*
X11301983Y-10209874D01*
X11259126Y-10209874D01*
X11230554Y-10195589D01*
X11216268Y-10167017D01*
X11216268Y-10152732D01*
X11230554Y-10124160D01*
X11259126Y-10109874D01*
X11301983Y-10109874D01*
X11330554Y-10124160D01*
X11444840Y-10424160D02*
X11459126Y-10409874D01*
X11487697Y-10367017D01*
X11501983Y-10338446D01*
X11516268Y-10295589D01*
X11530554Y-10224160D01*
X11530554Y-10167017D01*
X11516268Y-10095589D01*
X11501983Y-10052732D01*
X11487697Y-10024160D01*
X11459126Y-9981303D01*
X11444840Y-9967017D01*
X2449840Y-10530160D02*
X2529840Y-10610160D01*
X2529840Y-10530160D02*
X2449840Y-10610160D01*
X2529840Y-10570160D02*
G75*
G03X2529840Y-10570160I-40000J0D01*
G01*
X2873411Y-10405874D02*
X2901983Y-10405874D01*
X2930554Y-10420160D01*
X2944840Y-10434446D01*
X2959126Y-10463017D01*
X2973411Y-10520160D01*
X2973411Y-10591589D01*
X2959126Y-10648732D01*
X2944840Y-10677303D01*
X2930554Y-10691589D01*
X2901983Y-10705874D01*
X2873411Y-10705874D01*
X2844840Y-10691589D01*
X2830554Y-10677303D01*
X2816268Y-10648732D01*
X2801983Y-10591589D01*
X2801983Y-10520160D01*
X2816268Y-10463017D01*
X2830554Y-10434446D01*
X2844840Y-10420160D01*
X2873411Y-10405874D01*
X3101983Y-10677303D02*
X3116268Y-10691589D01*
X3101983Y-10705874D01*
X3087697Y-10691589D01*
X3101983Y-10677303D01*
X3101983Y-10705874D01*
X3287697Y-10534446D02*
X3259126Y-10520160D01*
X3244840Y-10505874D01*
X3230554Y-10477303D01*
X3230554Y-10463017D01*
X3244840Y-10434446D01*
X3259126Y-10420160D01*
X3287697Y-10405874D01*
X3344840Y-10405874D01*
X3373411Y-10420160D01*
X3387697Y-10434446D01*
X3401983Y-10463017D01*
X3401983Y-10477303D01*
X3387697Y-10505874D01*
X3373411Y-10520160D01*
X3344840Y-10534446D01*
X3287697Y-10534446D01*
X3259126Y-10548732D01*
X3244840Y-10563017D01*
X3230554Y-10591589D01*
X3230554Y-10648732D01*
X3244840Y-10677303D01*
X3259126Y-10691589D01*
X3287697Y-10705874D01*
X3344840Y-10705874D01*
X3373411Y-10691589D01*
X3387697Y-10677303D01*
X3401983Y-10648732D01*
X3401983Y-10591589D01*
X3387697Y-10563017D01*
X3373411Y-10548732D01*
X3344840Y-10534446D01*
X3587697Y-10405874D02*
X3616268Y-10405874D01*
X3644840Y-10420160D01*
X3659126Y-10434446D01*
X3673411Y-10463017D01*
X3687697Y-10520160D01*
X3687697Y-10591589D01*
X3673411Y-10648732D01*
X3659126Y-10677303D01*
X3644840Y-10691589D01*
X3616268Y-10705874D01*
X3587697Y-10705874D01*
X3559126Y-10691589D01*
X3544840Y-10677303D01*
X3530554Y-10648732D01*
X3516268Y-10591589D01*
X3516268Y-10520160D01*
X3530554Y-10463017D01*
X3544840Y-10434446D01*
X3559126Y-10420160D01*
X3587697Y-10405874D01*
X3816268Y-10705874D02*
X3816268Y-10505874D01*
X3816268Y-10534446D02*
X3830554Y-10520160D01*
X3859126Y-10505874D01*
X3901983Y-10505874D01*
X3930554Y-10520160D01*
X3944840Y-10548732D01*
X3944840Y-10705874D01*
X3944840Y-10548732D02*
X3959126Y-10520160D01*
X3987697Y-10505874D01*
X4030554Y-10505874D01*
X4059126Y-10520160D01*
X4073411Y-10548732D01*
X4073411Y-10705874D01*
X4216268Y-10705874D02*
X4216268Y-10505874D01*
X4216268Y-10534446D02*
X4230554Y-10520160D01*
X4259126Y-10505874D01*
X4301983Y-10505874D01*
X4330554Y-10520160D01*
X4344840Y-10548732D01*
X4344840Y-10705874D01*
X4344840Y-10548732D02*
X4359126Y-10520160D01*
X4387697Y-10505874D01*
X4430554Y-10505874D01*
X4459126Y-10520160D01*
X4473411Y-10548732D01*
X4473411Y-10705874D01*
X5059126Y-10391589D02*
X4801983Y-10777303D01*
X5444840Y-10405874D02*
X5473411Y-10405874D01*
X5501983Y-10420160D01*
X5516268Y-10434446D01*
X5530554Y-10463017D01*
X5544840Y-10520160D01*
X5544840Y-10591589D01*
X5530554Y-10648732D01*
X5516268Y-10677303D01*
X5501983Y-10691589D01*
X5473411Y-10705874D01*
X5444840Y-10705874D01*
X5416268Y-10691589D01*
X5401983Y-10677303D01*
X5387697Y-10648732D01*
X5373411Y-10591589D01*
X5373411Y-10520160D01*
X5387697Y-10463017D01*
X5401983Y-10434446D01*
X5416268Y-10420160D01*
X5444840Y-10405874D01*
X5673411Y-10677303D02*
X5687697Y-10691589D01*
X5673411Y-10705874D01*
X5659126Y-10691589D01*
X5673411Y-10677303D01*
X5673411Y-10705874D01*
X5873411Y-10405874D02*
X5901983Y-10405874D01*
X5930554Y-10420160D01*
X5944840Y-10434446D01*
X5959126Y-10463017D01*
X5973411Y-10520160D01*
X5973411Y-10591589D01*
X5959126Y-10648732D01*
X5944840Y-10677303D01*
X5930554Y-10691589D01*
X5901983Y-10705874D01*
X5873411Y-10705874D01*
X5844840Y-10691589D01*
X5830554Y-10677303D01*
X5816268Y-10648732D01*
X5801983Y-10591589D01*
X5801983Y-10520160D01*
X5816268Y-10463017D01*
X5830554Y-10434446D01*
X5844840Y-10420160D01*
X5873411Y-10405874D01*
X6073411Y-10405874D02*
X6259126Y-10405874D01*
X6159126Y-10520160D01*
X6201983Y-10520160D01*
X6230554Y-10534446D01*
X6244840Y-10548732D01*
X6259126Y-10577303D01*
X6259126Y-10648732D01*
X6244840Y-10677303D01*
X6230554Y-10691589D01*
X6201983Y-10705874D01*
X6116268Y-10705874D01*
X6087697Y-10691589D01*
X6073411Y-10677303D01*
X6544840Y-10705874D02*
X6373411Y-10705874D01*
X6459126Y-10705874D02*
X6459126Y-10405874D01*
X6430554Y-10448732D01*
X6401983Y-10477303D01*
X6373411Y-10491589D01*
X6659126Y-10405874D02*
X6659126Y-10463017D01*
X6773411Y-10405874D02*
X6773411Y-10463017D01*
X7216268Y-10820160D02*
X7201983Y-10805874D01*
X7173411Y-10763017D01*
X7159126Y-10734446D01*
X7144840Y-10691589D01*
X7130554Y-10620160D01*
X7130554Y-10563017D01*
X7144840Y-10491589D01*
X7159126Y-10448732D01*
X7173411Y-10420160D01*
X7201983Y-10377303D01*
X7216268Y-10363017D01*
X7387697Y-10405874D02*
X7416268Y-10405874D01*
X7444840Y-10420160D01*
X7459126Y-10434446D01*
X7473411Y-10463017D01*
X7487697Y-10520160D01*
X7487697Y-10591589D01*
X7473411Y-10648732D01*
X7459126Y-10677303D01*
X7444840Y-10691589D01*
X7416268Y-10705874D01*
X7387697Y-10705874D01*
X7359126Y-10691589D01*
X7344840Y-10677303D01*
X7330554Y-10648732D01*
X7316268Y-10591589D01*
X7316268Y-10520160D01*
X7330554Y-10463017D01*
X7344840Y-10434446D01*
X7359126Y-10420160D01*
X7387697Y-10405874D01*
X7844840Y-10705874D02*
X7844840Y-10405874D01*
X7973411Y-10705874D02*
X7973411Y-10548732D01*
X7959126Y-10520160D01*
X7930554Y-10505874D01*
X7887697Y-10505874D01*
X7859126Y-10520160D01*
X7844840Y-10534446D01*
X8159126Y-10705874D02*
X8130554Y-10691589D01*
X8116268Y-10677303D01*
X8101983Y-10648732D01*
X8101983Y-10563017D01*
X8116268Y-10534446D01*
X8130554Y-10520160D01*
X8159126Y-10505874D01*
X8201983Y-10505874D01*
X8230554Y-10520160D01*
X8244840Y-10534446D01*
X8259126Y-10563017D01*
X8259126Y-10648732D01*
X8244840Y-10677303D01*
X8230554Y-10691589D01*
X8201983Y-10705874D01*
X8159126Y-10705874D01*
X8430554Y-10705874D02*
X8401983Y-10691589D01*
X8387697Y-10663017D01*
X8387697Y-10405874D01*
X8659126Y-10691589D02*
X8630554Y-10705874D01*
X8573411Y-10705874D01*
X8544840Y-10691589D01*
X8530554Y-10663017D01*
X8530554Y-10548732D01*
X8544840Y-10520160D01*
X8573411Y-10505874D01*
X8630554Y-10505874D01*
X8659126Y-10520160D01*
X8673411Y-10548732D01*
X8673411Y-10577303D01*
X8530554Y-10605874D01*
X8787697Y-10691589D02*
X8816268Y-10705874D01*
X8873411Y-10705874D01*
X8901983Y-10691589D01*
X8916268Y-10663017D01*
X8916268Y-10648732D01*
X8901983Y-10620160D01*
X8873411Y-10605874D01*
X8830554Y-10605874D01*
X8801983Y-10591589D01*
X8787697Y-10563017D01*
X8787697Y-10548732D01*
X8801983Y-10520160D01*
X8830554Y-10505874D01*
X8873411Y-10505874D01*
X8901983Y-10520160D01*
X9273411Y-10591589D02*
X9501983Y-10591589D01*
X9387697Y-10705874D02*
X9387697Y-10477303D01*
X10001983Y-10505874D02*
X10001983Y-10705874D01*
X9930554Y-10391589D02*
X9859126Y-10605874D01*
X10044840Y-10605874D01*
X10373411Y-10691589D02*
X10401983Y-10705874D01*
X10459126Y-10705874D01*
X10487697Y-10691589D01*
X10501983Y-10663017D01*
X10501983Y-10648732D01*
X10487697Y-10620160D01*
X10459126Y-10605874D01*
X10416268Y-10605874D01*
X10387697Y-10591589D01*
X10373411Y-10563017D01*
X10373411Y-10548732D01*
X10387697Y-10520160D01*
X10416268Y-10505874D01*
X10459126Y-10505874D01*
X10487697Y-10520160D01*
X10673411Y-10705874D02*
X10644840Y-10691589D01*
X10630554Y-10663017D01*
X10630554Y-10405874D01*
X10830554Y-10705874D02*
X10801983Y-10691589D01*
X10787697Y-10677303D01*
X10773411Y-10648732D01*
X10773411Y-10563017D01*
X10787697Y-10534446D01*
X10801983Y-10520160D01*
X10830554Y-10505874D01*
X10873411Y-10505874D01*
X10901983Y-10520160D01*
X10916268Y-10534446D01*
X10930554Y-10563017D01*
X10930554Y-10648732D01*
X10916268Y-10677303D01*
X10901983Y-10691589D01*
X10873411Y-10705874D01*
X10830554Y-10705874D01*
X11016268Y-10505874D02*
X11130554Y-10505874D01*
X11059126Y-10405874D02*
X11059126Y-10663017D01*
X11073411Y-10691589D01*
X11101983Y-10705874D01*
X11130554Y-10705874D01*
X11216268Y-10691589D02*
X11244840Y-10705874D01*
X11301983Y-10705874D01*
X11330554Y-10691589D01*
X11344840Y-10663017D01*
X11344840Y-10648732D01*
X11330554Y-10620160D01*
X11301983Y-10605874D01*
X11259126Y-10605874D01*
X11230554Y-10591589D01*
X11216268Y-10563017D01*
X11216268Y-10548732D01*
X11230554Y-10520160D01*
X11259126Y-10505874D01*
X11301983Y-10505874D01*
X11330554Y-10520160D01*
X11444840Y-10820160D02*
X11459126Y-10805874D01*
X11487697Y-10763017D01*
X11501983Y-10734446D01*
X11516268Y-10691589D01*
X11530554Y-10620160D01*
X11530554Y-10563017D01*
X11516268Y-10491589D01*
X11501983Y-10448732D01*
X11487697Y-10420160D01*
X11459126Y-10377303D01*
X11444840Y-10363017D01*
X2440940Y-10921710D02*
X2529840Y-11010610D01*
X2529840Y-10921710D02*
X2440940Y-11010610D01*
X2485390Y-10921710D02*
X2485390Y-11010610D01*
X2440940Y-10966160D02*
X2529840Y-10966160D01*
X2873411Y-10801874D02*
X2901983Y-10801874D01*
X2930554Y-10816160D01*
X2944840Y-10830446D01*
X2959126Y-10859017D01*
X2973411Y-10916160D01*
X2973411Y-10987589D01*
X2959126Y-11044732D01*
X2944840Y-11073303D01*
X2930554Y-11087589D01*
X2901983Y-11101874D01*
X2873411Y-11101874D01*
X2844840Y-11087589D01*
X2830554Y-11073303D01*
X2816268Y-11044732D01*
X2801983Y-10987589D01*
X2801983Y-10916160D01*
X2816268Y-10859017D01*
X2830554Y-10830446D01*
X2844840Y-10816160D01*
X2873411Y-10801874D01*
X3101983Y-11073303D02*
X3116268Y-11087589D01*
X3101983Y-11101874D01*
X3087697Y-11087589D01*
X3101983Y-11073303D01*
X3101983Y-11101874D01*
X3287697Y-10930446D02*
X3259126Y-10916160D01*
X3244840Y-10901874D01*
X3230554Y-10873303D01*
X3230554Y-10859017D01*
X3244840Y-10830446D01*
X3259126Y-10816160D01*
X3287697Y-10801874D01*
X3344840Y-10801874D01*
X3373411Y-10816160D01*
X3387697Y-10830446D01*
X3401983Y-10859017D01*
X3401983Y-10873303D01*
X3387697Y-10901874D01*
X3373411Y-10916160D01*
X3344840Y-10930446D01*
X3287697Y-10930446D01*
X3259126Y-10944732D01*
X3244840Y-10959017D01*
X3230554Y-10987589D01*
X3230554Y-11044732D01*
X3244840Y-11073303D01*
X3259126Y-11087589D01*
X3287697Y-11101874D01*
X3344840Y-11101874D01*
X3373411Y-11087589D01*
X3387697Y-11073303D01*
X3401983Y-11044732D01*
X3401983Y-10987589D01*
X3387697Y-10959017D01*
X3373411Y-10944732D01*
X3344840Y-10930446D01*
X3544840Y-11101874D02*
X3601983Y-11101874D01*
X3630554Y-11087589D01*
X3644840Y-11073303D01*
X3673411Y-11030446D01*
X3687697Y-10973303D01*
X3687697Y-10859017D01*
X3673411Y-10830446D01*
X3659126Y-10816160D01*
X3630554Y-10801874D01*
X3573411Y-10801874D01*
X3544840Y-10816160D01*
X3530554Y-10830446D01*
X3516268Y-10859017D01*
X3516268Y-10930446D01*
X3530554Y-10959017D01*
X3544840Y-10973303D01*
X3573411Y-10987589D01*
X3630554Y-10987589D01*
X3659126Y-10973303D01*
X3673411Y-10959017D01*
X3687697Y-10930446D01*
X3816268Y-11101874D02*
X3816268Y-10901874D01*
X3816268Y-10930446D02*
X3830554Y-10916160D01*
X3859126Y-10901874D01*
X3901983Y-10901874D01*
X3930554Y-10916160D01*
X3944840Y-10944732D01*
X3944840Y-11101874D01*
X3944840Y-10944732D02*
X3959126Y-10916160D01*
X3987697Y-10901874D01*
X4030554Y-10901874D01*
X4059126Y-10916160D01*
X4073411Y-10944732D01*
X4073411Y-11101874D01*
X4216268Y-11101874D02*
X4216268Y-10901874D01*
X4216268Y-10930446D02*
X4230554Y-10916160D01*
X4259126Y-10901874D01*
X4301983Y-10901874D01*
X4330554Y-10916160D01*
X4344840Y-10944732D01*
X4344840Y-11101874D01*
X4344840Y-10944732D02*
X4359126Y-10916160D01*
X4387697Y-10901874D01*
X4430554Y-10901874D01*
X4459126Y-10916160D01*
X4473411Y-10944732D01*
X4473411Y-11101874D01*
X5059126Y-10787589D02*
X4801983Y-11173303D01*
X5444840Y-10801874D02*
X5473411Y-10801874D01*
X5501983Y-10816160D01*
X5516268Y-10830446D01*
X5530554Y-10859017D01*
X5544840Y-10916160D01*
X5544840Y-10987589D01*
X5530554Y-11044732D01*
X5516268Y-11073303D01*
X5501983Y-11087589D01*
X5473411Y-11101874D01*
X5444840Y-11101874D01*
X5416268Y-11087589D01*
X5401983Y-11073303D01*
X5387697Y-11044732D01*
X5373411Y-10987589D01*
X5373411Y-10916160D01*
X5387697Y-10859017D01*
X5401983Y-10830446D01*
X5416268Y-10816160D01*
X5444840Y-10801874D01*
X5673411Y-11073303D02*
X5687697Y-11087589D01*
X5673411Y-11101874D01*
X5659126Y-11087589D01*
X5673411Y-11073303D01*
X5673411Y-11101874D01*
X5873411Y-10801874D02*
X5901983Y-10801874D01*
X5930554Y-10816160D01*
X5944840Y-10830446D01*
X5959126Y-10859017D01*
X5973411Y-10916160D01*
X5973411Y-10987589D01*
X5959126Y-11044732D01*
X5944840Y-11073303D01*
X5930554Y-11087589D01*
X5901983Y-11101874D01*
X5873411Y-11101874D01*
X5844840Y-11087589D01*
X5830554Y-11073303D01*
X5816268Y-11044732D01*
X5801983Y-10987589D01*
X5801983Y-10916160D01*
X5816268Y-10859017D01*
X5830554Y-10830446D01*
X5844840Y-10816160D01*
X5873411Y-10801874D01*
X6073411Y-10801874D02*
X6259126Y-10801874D01*
X6159126Y-10916160D01*
X6201983Y-10916160D01*
X6230554Y-10930446D01*
X6244840Y-10944732D01*
X6259126Y-10973303D01*
X6259126Y-11044732D01*
X6244840Y-11073303D01*
X6230554Y-11087589D01*
X6201983Y-11101874D01*
X6116268Y-11101874D01*
X6087697Y-11087589D01*
X6073411Y-11073303D01*
X6530554Y-10801874D02*
X6387697Y-10801874D01*
X6373411Y-10944732D01*
X6387697Y-10930446D01*
X6416268Y-10916160D01*
X6487697Y-10916160D01*
X6516268Y-10930446D01*
X6530554Y-10944732D01*
X6544840Y-10973303D01*
X6544840Y-11044732D01*
X6530554Y-11073303D01*
X6516268Y-11087589D01*
X6487697Y-11101874D01*
X6416268Y-11101874D01*
X6387697Y-11087589D01*
X6373411Y-11073303D01*
X6659126Y-10801874D02*
X6659126Y-10859017D01*
X6773411Y-10801874D02*
X6773411Y-10859017D01*
X7216268Y-11216160D02*
X7201983Y-11201874D01*
X7173411Y-11159017D01*
X7159126Y-11130446D01*
X7144840Y-11087589D01*
X7130554Y-11016160D01*
X7130554Y-10959017D01*
X7144840Y-10887589D01*
X7159126Y-10844732D01*
X7173411Y-10816160D01*
X7201983Y-10773303D01*
X7216268Y-10759017D01*
X7487697Y-11101874D02*
X7316268Y-11101874D01*
X7401983Y-11101874D02*
X7401983Y-10801874D01*
X7373411Y-10844732D01*
X7344840Y-10873303D01*
X7316268Y-10887589D01*
X7744840Y-10801874D02*
X7687697Y-10801874D01*
X7659126Y-10816160D01*
X7644840Y-10830446D01*
X7616268Y-10873303D01*
X7601983Y-10930446D01*
X7601983Y-11044732D01*
X7616268Y-11073303D01*
X7630554Y-11087589D01*
X7659126Y-11101874D01*
X7716268Y-11101874D01*
X7744840Y-11087589D01*
X7759126Y-11073303D01*
X7773411Y-11044732D01*
X7773411Y-10973303D01*
X7759126Y-10944732D01*
X7744840Y-10930446D01*
X7716268Y-10916160D01*
X7659126Y-10916160D01*
X7630554Y-10930446D01*
X7616268Y-10944732D01*
X7601983Y-10973303D01*
X8130554Y-11101874D02*
X8130554Y-10801874D01*
X8259126Y-11101874D02*
X8259126Y-10944732D01*
X8244840Y-10916160D01*
X8216268Y-10901874D01*
X8173411Y-10901874D01*
X8144840Y-10916160D01*
X8130554Y-10930446D01*
X8444840Y-11101874D02*
X8416268Y-11087589D01*
X8401983Y-11073303D01*
X8387697Y-11044732D01*
X8387697Y-10959017D01*
X8401983Y-10930446D01*
X8416268Y-10916160D01*
X8444840Y-10901874D01*
X8487697Y-10901874D01*
X8516268Y-10916160D01*
X8530554Y-10930446D01*
X8544840Y-10959017D01*
X8544840Y-11044732D01*
X8530554Y-11073303D01*
X8516268Y-11087589D01*
X8487697Y-11101874D01*
X8444840Y-11101874D01*
X8716268Y-11101874D02*
X8687697Y-11087589D01*
X8673411Y-11059017D01*
X8673411Y-10801874D01*
X8944840Y-11087589D02*
X8916268Y-11101874D01*
X8859126Y-11101874D01*
X8830554Y-11087589D01*
X8816268Y-11059017D01*
X8816268Y-10944732D01*
X8830554Y-10916160D01*
X8859126Y-10901874D01*
X8916268Y-10901874D01*
X8944840Y-10916160D01*
X8959126Y-10944732D01*
X8959126Y-10973303D01*
X8816268Y-11001874D01*
X9073411Y-11087589D02*
X9101983Y-11101874D01*
X9159126Y-11101874D01*
X9187697Y-11087589D01*
X9201983Y-11059017D01*
X9201983Y-11044732D01*
X9187697Y-11016160D01*
X9159126Y-11001874D01*
X9116268Y-11001874D01*
X9087697Y-10987589D01*
X9073411Y-10959017D01*
X9073411Y-10944732D01*
X9087697Y-10916160D01*
X9116268Y-10901874D01*
X9159126Y-10901874D01*
X9187697Y-10916160D01*
X9301983Y-11216160D02*
X9316268Y-11201874D01*
X9344840Y-11159017D01*
X9359126Y-11130446D01*
X9373411Y-11087589D01*
X9387697Y-11016160D01*
X9387697Y-10959017D01*
X9373411Y-10887589D01*
X9359126Y-10844732D01*
X9344840Y-10816160D01*
X9316268Y-10773303D01*
X9301983Y-10759017D01*
X2419840Y-11307160D02*
X2529840Y-11417160D01*
X2529840Y-11307160D02*
X2419840Y-11417160D01*
X2513731Y-11401051D02*
X2513731Y-11323269D01*
X2435949Y-11323269D01*
X2435949Y-11401051D01*
X2513731Y-11401051D01*
X2973411Y-11497874D02*
X2801983Y-11497874D01*
X2887697Y-11497874D02*
X2887697Y-11197874D01*
X2859126Y-11240731D01*
X2830554Y-11269303D01*
X2801983Y-11283589D01*
X3101983Y-11469303D02*
X3116268Y-11483589D01*
X3101983Y-11497874D01*
X3087697Y-11483589D01*
X3101983Y-11469303D01*
X3101983Y-11497874D01*
X3401983Y-11497874D02*
X3230554Y-11497874D01*
X3316268Y-11497874D02*
X3316268Y-11197874D01*
X3287697Y-11240731D01*
X3259126Y-11269303D01*
X3230554Y-11283589D01*
X3587697Y-11197874D02*
X3616268Y-11197874D01*
X3644840Y-11212160D01*
X3659126Y-11226446D01*
X3673411Y-11255017D01*
X3687697Y-11312160D01*
X3687697Y-11383589D01*
X3673411Y-11440731D01*
X3659126Y-11469303D01*
X3644840Y-11483589D01*
X3616268Y-11497874D01*
X3587697Y-11497874D01*
X3559126Y-11483589D01*
X3544840Y-11469303D01*
X3530554Y-11440731D01*
X3516268Y-11383589D01*
X3516268Y-11312160D01*
X3530554Y-11255017D01*
X3544840Y-11226446D01*
X3559126Y-11212160D01*
X3587697Y-11197874D01*
X3816268Y-11497874D02*
X3816268Y-11297874D01*
X3816268Y-11326446D02*
X3830554Y-11312160D01*
X3859126Y-11297874D01*
X3901983Y-11297874D01*
X3930554Y-11312160D01*
X3944840Y-11340731D01*
X3944840Y-11497874D01*
X3944840Y-11340731D02*
X3959126Y-11312160D01*
X3987697Y-11297874D01*
X4030554Y-11297874D01*
X4059126Y-11312160D01*
X4073411Y-11340731D01*
X4073411Y-11497874D01*
X4216268Y-11497874D02*
X4216268Y-11297874D01*
X4216268Y-11326446D02*
X4230554Y-11312160D01*
X4259126Y-11297874D01*
X4301983Y-11297874D01*
X4330554Y-11312160D01*
X4344840Y-11340731D01*
X4344840Y-11497874D01*
X4344840Y-11340731D02*
X4359126Y-11312160D01*
X4387697Y-11297874D01*
X4430554Y-11297874D01*
X4459126Y-11312160D01*
X4473411Y-11340731D01*
X4473411Y-11497874D01*
X5059126Y-11183589D02*
X4801983Y-11569303D01*
X5444840Y-11197874D02*
X5473411Y-11197874D01*
X5501983Y-11212160D01*
X5516268Y-11226446D01*
X5530554Y-11255017D01*
X5544840Y-11312160D01*
X5544840Y-11383589D01*
X5530554Y-11440731D01*
X5516268Y-11469303D01*
X5501983Y-11483589D01*
X5473411Y-11497874D01*
X5444840Y-11497874D01*
X5416268Y-11483589D01*
X5401983Y-11469303D01*
X5387697Y-11440731D01*
X5373411Y-11383589D01*
X5373411Y-11312160D01*
X5387697Y-11255017D01*
X5401983Y-11226446D01*
X5416268Y-11212160D01*
X5444840Y-11197874D01*
X5673411Y-11469303D02*
X5687697Y-11483589D01*
X5673411Y-11497874D01*
X5659126Y-11483589D01*
X5673411Y-11469303D01*
X5673411Y-11497874D01*
X5873411Y-11197874D02*
X5901983Y-11197874D01*
X5930554Y-11212160D01*
X5944840Y-11226446D01*
X5959126Y-11255017D01*
X5973411Y-11312160D01*
X5973411Y-11383589D01*
X5959126Y-11440731D01*
X5944840Y-11469303D01*
X5930554Y-11483589D01*
X5901983Y-11497874D01*
X5873411Y-11497874D01*
X5844840Y-11483589D01*
X5830554Y-11469303D01*
X5816268Y-11440731D01*
X5801983Y-11383589D01*
X5801983Y-11312160D01*
X5816268Y-11255017D01*
X5830554Y-11226446D01*
X5844840Y-11212160D01*
X5873411Y-11197874D01*
X6230554Y-11297874D02*
X6230554Y-11497874D01*
X6159126Y-11183589D02*
X6087697Y-11397874D01*
X6273411Y-11397874D01*
X6359126Y-11197874D02*
X6544840Y-11197874D01*
X6444840Y-11312160D01*
X6487697Y-11312160D01*
X6516268Y-11326446D01*
X6530554Y-11340731D01*
X6544840Y-11369303D01*
X6544840Y-11440731D01*
X6530554Y-11469303D01*
X6516268Y-11483589D01*
X6487697Y-11497874D01*
X6401983Y-11497874D01*
X6373411Y-11483589D01*
X6359126Y-11469303D01*
X6659126Y-11197874D02*
X6659126Y-11255017D01*
X6773411Y-11197874D02*
X6773411Y-11255017D01*
X7216268Y-11612160D02*
X7201983Y-11597874D01*
X7173411Y-11555017D01*
X7159126Y-11526446D01*
X7144840Y-11483589D01*
X7130554Y-11412160D01*
X7130554Y-11355017D01*
X7144840Y-11283589D01*
X7159126Y-11240731D01*
X7173411Y-11212160D01*
X7201983Y-11169303D01*
X7216268Y-11155017D01*
X7373411Y-11326446D02*
X7344840Y-11312160D01*
X7330554Y-11297874D01*
X7316268Y-11269303D01*
X7316268Y-11255017D01*
X7330554Y-11226446D01*
X7344840Y-11212160D01*
X7373411Y-11197874D01*
X7430554Y-11197874D01*
X7459126Y-11212160D01*
X7473411Y-11226446D01*
X7487697Y-11255017D01*
X7487697Y-11269303D01*
X7473411Y-11297874D01*
X7459126Y-11312160D01*
X7430554Y-11326446D01*
X7373411Y-11326446D01*
X7344840Y-11340731D01*
X7330554Y-11355017D01*
X7316268Y-11383589D01*
X7316268Y-11440731D01*
X7330554Y-11469303D01*
X7344840Y-11483589D01*
X7373411Y-11497874D01*
X7430554Y-11497874D01*
X7459126Y-11483589D01*
X7473411Y-11469303D01*
X7487697Y-11440731D01*
X7487697Y-11383589D01*
X7473411Y-11355017D01*
X7459126Y-11340731D01*
X7430554Y-11326446D01*
X7844840Y-11497874D02*
X7844840Y-11197874D01*
X7973411Y-11497874D02*
X7973411Y-11340731D01*
X7959126Y-11312160D01*
X7930554Y-11297874D01*
X7887697Y-11297874D01*
X7859126Y-11312160D01*
X7844840Y-11326446D01*
X8159126Y-11497874D02*
X8130554Y-11483589D01*
X8116268Y-11469303D01*
X8101983Y-11440731D01*
X8101983Y-11355017D01*
X8116268Y-11326446D01*
X8130554Y-11312160D01*
X8159126Y-11297874D01*
X8201983Y-11297874D01*
X8230554Y-11312160D01*
X8244840Y-11326446D01*
X8259126Y-11355017D01*
X8259126Y-11440731D01*
X8244840Y-11469303D01*
X8230554Y-11483589D01*
X8201983Y-11497874D01*
X8159126Y-11497874D01*
X8430554Y-11497874D02*
X8401983Y-11483589D01*
X8387697Y-11455017D01*
X8387697Y-11197874D01*
X8659126Y-11483589D02*
X8630554Y-11497874D01*
X8573411Y-11497874D01*
X8544840Y-11483589D01*
X8530554Y-11455017D01*
X8530554Y-11340731D01*
X8544840Y-11312160D01*
X8573411Y-11297874D01*
X8630554Y-11297874D01*
X8659126Y-11312160D01*
X8673411Y-11340731D01*
X8673411Y-11369303D01*
X8530554Y-11397874D01*
X8787697Y-11483589D02*
X8816268Y-11497874D01*
X8873411Y-11497874D01*
X8901983Y-11483589D01*
X8916268Y-11455017D01*
X8916268Y-11440731D01*
X8901983Y-11412160D01*
X8873411Y-11397874D01*
X8830554Y-11397874D01*
X8801983Y-11383589D01*
X8787697Y-11355017D01*
X8787697Y-11340731D01*
X8801983Y-11312160D01*
X8830554Y-11297874D01*
X8873411Y-11297874D01*
X8901983Y-11312160D01*
X9016268Y-11612160D02*
X9030554Y-11597874D01*
X9059126Y-11555017D01*
X9073411Y-11526446D01*
X9087697Y-11483589D01*
X9101983Y-11412160D01*
X9101983Y-11355017D01*
X9087697Y-11283589D01*
X9073411Y-11240731D01*
X9059126Y-11212160D01*
X9030554Y-11169303D01*
X9016268Y-11155017D01*
M02*
