G04 #@! TF.GenerationSoftware,KiCad,Pcbnew,5.0.2+dfsg1-1*
G04 #@! TF.CreationDate,2022-12-19T16:21:19-08:00*
G04 #@! TF.ProjectId,jvc43,6a766334-332e-46b6-9963-61645f706362,2*
G04 #@! TF.SameCoordinates,Original*
G04 #@! TF.FileFunction,Copper,L3,Inr*
G04 #@! TF.FilePolarity,Positive*
%FSLAX46Y46*%
G04 Gerber Fmt 4.6, Leading zero omitted, Abs format (unit mm)*
G04 Created by KiCad (PCBNEW 5.0.2+dfsg1-1) date Mon 19 Dec 2022 04:21:19 PM PST*
%MOMM*%
%LPD*%
G01*
G04 APERTURE LIST*
%ADD10C,0.100000*%
%ADD11C,0.150000*%
%ADD12C,0.300000*%
%ADD13C,0.400000*%
G04 #@! TA.AperFunction,NonConductor*
%ADD14C,0.300000*%
G04 #@! TD*
G04 #@! TA.AperFunction,ViaPad*
%ADD15C,1.600000*%
G04 #@! TD*
G04 #@! TA.AperFunction,ViaPad*
%ADD16C,1.295400*%
G04 #@! TD*
G04 #@! TA.AperFunction,ViaPad*
%ADD17O,2.500000X1.300000*%
G04 #@! TD*
G04 #@! TA.AperFunction,WasherPad*
%ADD18C,2.300000*%
G04 #@! TD*
G04 #@! TA.AperFunction,ViaPad*
%ADD19O,1.700000X0.900000*%
G04 #@! TD*
G04 #@! TA.AperFunction,ViaPad*
%ADD20O,2.400000X0.900000*%
G04 #@! TD*
G04 #@! TA.AperFunction,ViaPad*
%ADD21C,0.650000*%
G04 #@! TD*
G04 #@! TA.AperFunction,ViaPad*
%ADD22C,0.700000*%
G04 #@! TD*
G04 #@! TA.AperFunction,ViaPad*
%ADD23C,0.457200*%
G04 #@! TD*
G04 #@! TA.AperFunction,ViaPad*
%ADD24C,0.635000*%
G04 #@! TD*
G04 #@! TA.AperFunction,Conductor*
%ADD25C,0.187960*%
G04 #@! TD*
G04 #@! TA.AperFunction,Conductor*
%ADD26C,0.198120*%
G04 #@! TD*
G04 #@! TA.AperFunction,Conductor*
%ADD27C,0.635000*%
G04 #@! TD*
G04 #@! TA.AperFunction,Conductor*
%ADD28C,0.381000*%
G04 #@! TD*
G04 #@! TA.AperFunction,Conductor*
%ADD29C,0.254000*%
G04 #@! TD*
G04 #@! TA.AperFunction,Conductor*
%ADD30C,0.203200*%
G04 #@! TD*
G04 APERTURE END LIST*
D10*
D11*
X311800000Y-235400000D02*
X311800000Y-267400000D01*
X419800000Y-267400000D01*
X419800000Y-235400000D01*
X311800000Y-235400000D01*
D10*
D11*
X10000000Y-10000000D02*
X10000000Y-269400000D01*
X421800000Y-269400000D01*
X421800000Y-10000000D01*
X10000000Y-10000000D01*
D10*
D11*
X12000000Y-12000000D02*
X12000000Y-267400000D01*
X419800000Y-267400000D01*
X419800000Y-12000000D01*
X12000000Y-12000000D01*
D10*
D11*
X60000000Y-12000000D02*
X60000000Y-10000000D01*
D10*
D11*
X110000000Y-12000000D02*
X110000000Y-10000000D01*
D10*
D11*
X160000000Y-12000000D02*
X160000000Y-10000000D01*
D10*
D11*
X210000000Y-12000000D02*
X210000000Y-10000000D01*
D10*
D11*
X260000000Y-12000000D02*
X260000000Y-10000000D01*
D10*
D11*
X310000000Y-12000000D02*
X310000000Y-10000000D01*
D10*
D11*
X360000000Y-12000000D02*
X360000000Y-10000000D01*
D10*
D11*
X410000000Y-12000000D02*
X410000000Y-10000000D01*
D10*
D11*
X36065476Y-11588095D02*
X35322619Y-11588095D01*
X35694047Y-11588095D02*
X35694047Y-10288095D01*
X35570238Y-10473809D01*
X35446428Y-10597619D01*
X35322619Y-10659523D01*
D10*
D11*
X85322619Y-10411904D02*
X85384523Y-10350000D01*
X85508333Y-10288095D01*
X85817857Y-10288095D01*
X85941666Y-10350000D01*
X86003571Y-10411904D01*
X86065476Y-10535714D01*
X86065476Y-10659523D01*
X86003571Y-10845238D01*
X85260714Y-11588095D01*
X86065476Y-11588095D01*
D10*
D11*
X135260714Y-10288095D02*
X136065476Y-10288095D01*
X135632142Y-10783333D01*
X135817857Y-10783333D01*
X135941666Y-10845238D01*
X136003571Y-10907142D01*
X136065476Y-11030952D01*
X136065476Y-11340476D01*
X136003571Y-11464285D01*
X135941666Y-11526190D01*
X135817857Y-11588095D01*
X135446428Y-11588095D01*
X135322619Y-11526190D01*
X135260714Y-11464285D01*
D10*
D11*
X185941666Y-10721428D02*
X185941666Y-11588095D01*
X185632142Y-10226190D02*
X185322619Y-11154761D01*
X186127380Y-11154761D01*
D10*
D11*
X236003571Y-10288095D02*
X235384523Y-10288095D01*
X235322619Y-10907142D01*
X235384523Y-10845238D01*
X235508333Y-10783333D01*
X235817857Y-10783333D01*
X235941666Y-10845238D01*
X236003571Y-10907142D01*
X236065476Y-11030952D01*
X236065476Y-11340476D01*
X236003571Y-11464285D01*
X235941666Y-11526190D01*
X235817857Y-11588095D01*
X235508333Y-11588095D01*
X235384523Y-11526190D01*
X235322619Y-11464285D01*
D10*
D11*
X285941666Y-10288095D02*
X285694047Y-10288095D01*
X285570238Y-10350000D01*
X285508333Y-10411904D01*
X285384523Y-10597619D01*
X285322619Y-10845238D01*
X285322619Y-11340476D01*
X285384523Y-11464285D01*
X285446428Y-11526190D01*
X285570238Y-11588095D01*
X285817857Y-11588095D01*
X285941666Y-11526190D01*
X286003571Y-11464285D01*
X286065476Y-11340476D01*
X286065476Y-11030952D01*
X286003571Y-10907142D01*
X285941666Y-10845238D01*
X285817857Y-10783333D01*
X285570238Y-10783333D01*
X285446428Y-10845238D01*
X285384523Y-10907142D01*
X285322619Y-11030952D01*
D10*
D11*
X335260714Y-10288095D02*
X336127380Y-10288095D01*
X335570238Y-11588095D01*
D10*
D11*
X385570238Y-10845238D02*
X385446428Y-10783333D01*
X385384523Y-10721428D01*
X385322619Y-10597619D01*
X385322619Y-10535714D01*
X385384523Y-10411904D01*
X385446428Y-10350000D01*
X385570238Y-10288095D01*
X385817857Y-10288095D01*
X385941666Y-10350000D01*
X386003571Y-10411904D01*
X386065476Y-10535714D01*
X386065476Y-10597619D01*
X386003571Y-10721428D01*
X385941666Y-10783333D01*
X385817857Y-10845238D01*
X385570238Y-10845238D01*
X385446428Y-10907142D01*
X385384523Y-10969047D01*
X385322619Y-11092857D01*
X385322619Y-11340476D01*
X385384523Y-11464285D01*
X385446428Y-11526190D01*
X385570238Y-11588095D01*
X385817857Y-11588095D01*
X385941666Y-11526190D01*
X386003571Y-11464285D01*
X386065476Y-11340476D01*
X386065476Y-11092857D01*
X386003571Y-10969047D01*
X385941666Y-10907142D01*
X385817857Y-10845238D01*
D10*
D11*
X60000000Y-267400000D02*
X60000000Y-269400000D01*
D10*
D11*
X110000000Y-267400000D02*
X110000000Y-269400000D01*
D10*
D11*
X160000000Y-267400000D02*
X160000000Y-269400000D01*
D10*
D11*
X210000000Y-267400000D02*
X210000000Y-269400000D01*
D10*
D11*
X260000000Y-267400000D02*
X260000000Y-269400000D01*
D10*
D11*
X310000000Y-267400000D02*
X310000000Y-269400000D01*
D10*
D11*
X360000000Y-267400000D02*
X360000000Y-269400000D01*
D10*
D11*
X410000000Y-267400000D02*
X410000000Y-269400000D01*
D10*
D11*
X36065476Y-268988095D02*
X35322619Y-268988095D01*
X35694047Y-268988095D02*
X35694047Y-267688095D01*
X35570238Y-267873809D01*
X35446428Y-267997619D01*
X35322619Y-268059523D01*
D10*
D11*
X85322619Y-267811904D02*
X85384523Y-267750000D01*
X85508333Y-267688095D01*
X85817857Y-267688095D01*
X85941666Y-267750000D01*
X86003571Y-267811904D01*
X86065476Y-267935714D01*
X86065476Y-268059523D01*
X86003571Y-268245238D01*
X85260714Y-268988095D01*
X86065476Y-268988095D01*
D10*
D11*
X135260714Y-267688095D02*
X136065476Y-267688095D01*
X135632142Y-268183333D01*
X135817857Y-268183333D01*
X135941666Y-268245238D01*
X136003571Y-268307142D01*
X136065476Y-268430952D01*
X136065476Y-268740476D01*
X136003571Y-268864285D01*
X135941666Y-268926190D01*
X135817857Y-268988095D01*
X135446428Y-268988095D01*
X135322619Y-268926190D01*
X135260714Y-268864285D01*
D10*
D11*
X185941666Y-268121428D02*
X185941666Y-268988095D01*
X185632142Y-267626190D02*
X185322619Y-268554761D01*
X186127380Y-268554761D01*
D10*
D11*
X236003571Y-267688095D02*
X235384523Y-267688095D01*
X235322619Y-268307142D01*
X235384523Y-268245238D01*
X235508333Y-268183333D01*
X235817857Y-268183333D01*
X235941666Y-268245238D01*
X236003571Y-268307142D01*
X236065476Y-268430952D01*
X236065476Y-268740476D01*
X236003571Y-268864285D01*
X235941666Y-268926190D01*
X235817857Y-268988095D01*
X235508333Y-268988095D01*
X235384523Y-268926190D01*
X235322619Y-268864285D01*
D10*
D11*
X285941666Y-267688095D02*
X285694047Y-267688095D01*
X285570238Y-267750000D01*
X285508333Y-267811904D01*
X285384523Y-267997619D01*
X285322619Y-268245238D01*
X285322619Y-268740476D01*
X285384523Y-268864285D01*
X285446428Y-268926190D01*
X285570238Y-268988095D01*
X285817857Y-268988095D01*
X285941666Y-268926190D01*
X286003571Y-268864285D01*
X286065476Y-268740476D01*
X286065476Y-268430952D01*
X286003571Y-268307142D01*
X285941666Y-268245238D01*
X285817857Y-268183333D01*
X285570238Y-268183333D01*
X285446428Y-268245238D01*
X285384523Y-268307142D01*
X285322619Y-268430952D01*
D10*
D11*
X335260714Y-267688095D02*
X336127380Y-267688095D01*
X335570238Y-268988095D01*
D10*
D11*
X385570238Y-268245238D02*
X385446428Y-268183333D01*
X385384523Y-268121428D01*
X385322619Y-267997619D01*
X385322619Y-267935714D01*
X385384523Y-267811904D01*
X385446428Y-267750000D01*
X385570238Y-267688095D01*
X385817857Y-267688095D01*
X385941666Y-267750000D01*
X386003571Y-267811904D01*
X386065476Y-267935714D01*
X386065476Y-267997619D01*
X386003571Y-268121428D01*
X385941666Y-268183333D01*
X385817857Y-268245238D01*
X385570238Y-268245238D01*
X385446428Y-268307142D01*
X385384523Y-268369047D01*
X385322619Y-268492857D01*
X385322619Y-268740476D01*
X385384523Y-268864285D01*
X385446428Y-268926190D01*
X385570238Y-268988095D01*
X385817857Y-268988095D01*
X385941666Y-268926190D01*
X386003571Y-268864285D01*
X386065476Y-268740476D01*
X386065476Y-268492857D01*
X386003571Y-268369047D01*
X385941666Y-268307142D01*
X385817857Y-268245238D01*
D10*
D11*
X10000000Y-60000000D02*
X12000000Y-60000000D01*
D10*
D11*
X10000000Y-110000000D02*
X12000000Y-110000000D01*
D10*
D11*
X10000000Y-160000000D02*
X12000000Y-160000000D01*
D10*
D11*
X10000000Y-210000000D02*
X12000000Y-210000000D01*
D10*
D11*
X10000000Y-260000000D02*
X12000000Y-260000000D01*
D10*
D11*
X10690476Y-35216666D02*
X11309523Y-35216666D01*
X10566666Y-35588095D02*
X11000000Y-34288095D01*
X11433333Y-35588095D01*
D10*
D11*
X11092857Y-84907142D02*
X11278571Y-84969047D01*
X11340476Y-85030952D01*
X11402380Y-85154761D01*
X11402380Y-85340476D01*
X11340476Y-85464285D01*
X11278571Y-85526190D01*
X11154761Y-85588095D01*
X10659523Y-85588095D01*
X10659523Y-84288095D01*
X11092857Y-84288095D01*
X11216666Y-84350000D01*
X11278571Y-84411904D01*
X11340476Y-84535714D01*
X11340476Y-84659523D01*
X11278571Y-84783333D01*
X11216666Y-84845238D01*
X11092857Y-84907142D01*
X10659523Y-84907142D01*
D10*
D11*
X11402380Y-135464285D02*
X11340476Y-135526190D01*
X11154761Y-135588095D01*
X11030952Y-135588095D01*
X10845238Y-135526190D01*
X10721428Y-135402380D01*
X10659523Y-135278571D01*
X10597619Y-135030952D01*
X10597619Y-134845238D01*
X10659523Y-134597619D01*
X10721428Y-134473809D01*
X10845238Y-134350000D01*
X11030952Y-134288095D01*
X11154761Y-134288095D01*
X11340476Y-134350000D01*
X11402380Y-134411904D01*
D10*
D11*
X10659523Y-185588095D02*
X10659523Y-184288095D01*
X10969047Y-184288095D01*
X11154761Y-184350000D01*
X11278571Y-184473809D01*
X11340476Y-184597619D01*
X11402380Y-184845238D01*
X11402380Y-185030952D01*
X11340476Y-185278571D01*
X11278571Y-185402380D01*
X11154761Y-185526190D01*
X10969047Y-185588095D01*
X10659523Y-185588095D01*
D10*
D11*
X10721428Y-234907142D02*
X11154761Y-234907142D01*
X11340476Y-235588095D02*
X10721428Y-235588095D01*
X10721428Y-234288095D01*
X11340476Y-234288095D01*
D10*
D11*
X421800000Y-60000000D02*
X419800000Y-60000000D01*
D10*
D11*
X421800000Y-110000000D02*
X419800000Y-110000000D01*
D10*
D11*
X421800000Y-160000000D02*
X419800000Y-160000000D01*
D10*
D11*
X421800000Y-210000000D02*
X419800000Y-210000000D01*
D10*
D11*
X421800000Y-260000000D02*
X419800000Y-260000000D01*
D10*
D11*
X420490476Y-35216666D02*
X421109523Y-35216666D01*
X420366666Y-35588095D02*
X420800000Y-34288095D01*
X421233333Y-35588095D01*
D10*
D11*
X420892857Y-84907142D02*
X421078571Y-84969047D01*
X421140476Y-85030952D01*
X421202380Y-85154761D01*
X421202380Y-85340476D01*
X421140476Y-85464285D01*
X421078571Y-85526190D01*
X420954761Y-85588095D01*
X420459523Y-85588095D01*
X420459523Y-84288095D01*
X420892857Y-84288095D01*
X421016666Y-84350000D01*
X421078571Y-84411904D01*
X421140476Y-84535714D01*
X421140476Y-84659523D01*
X421078571Y-84783333D01*
X421016666Y-84845238D01*
X420892857Y-84907142D01*
X420459523Y-84907142D01*
D10*
D11*
X421202380Y-135464285D02*
X421140476Y-135526190D01*
X420954761Y-135588095D01*
X420830952Y-135588095D01*
X420645238Y-135526190D01*
X420521428Y-135402380D01*
X420459523Y-135278571D01*
X420397619Y-135030952D01*
X420397619Y-134845238D01*
X420459523Y-134597619D01*
X420521428Y-134473809D01*
X420645238Y-134350000D01*
X420830952Y-134288095D01*
X420954761Y-134288095D01*
X421140476Y-134350000D01*
X421202380Y-134411904D01*
D10*
D11*
X420459523Y-185588095D02*
X420459523Y-184288095D01*
X420769047Y-184288095D01*
X420954761Y-184350000D01*
X421078571Y-184473809D01*
X421140476Y-184597619D01*
X421202380Y-184845238D01*
X421202380Y-185030952D01*
X421140476Y-185278571D01*
X421078571Y-185402380D01*
X420954761Y-185526190D01*
X420769047Y-185588095D01*
X420459523Y-185588095D01*
D10*
D11*
X420521428Y-234907142D02*
X420954761Y-234907142D01*
X421140476Y-235588095D02*
X420521428Y-235588095D01*
X420521428Y-234288095D01*
X421140476Y-234288095D01*
D10*
D11*
X335232142Y-263178571D02*
X335232142Y-261678571D01*
X335589285Y-261678571D01*
X335803571Y-261750000D01*
X335946428Y-261892857D01*
X336017857Y-262035714D01*
X336089285Y-262321428D01*
X336089285Y-262535714D01*
X336017857Y-262821428D01*
X335946428Y-262964285D01*
X335803571Y-263107142D01*
X335589285Y-263178571D01*
X335232142Y-263178571D01*
X337375000Y-263178571D02*
X337375000Y-262392857D01*
X337303571Y-262250000D01*
X337160714Y-262178571D01*
X336875000Y-262178571D01*
X336732142Y-262250000D01*
X337375000Y-263107142D02*
X337232142Y-263178571D01*
X336875000Y-263178571D01*
X336732142Y-263107142D01*
X336660714Y-262964285D01*
X336660714Y-262821428D01*
X336732142Y-262678571D01*
X336875000Y-262607142D01*
X337232142Y-262607142D01*
X337375000Y-262535714D01*
X337875000Y-262178571D02*
X338446428Y-262178571D01*
X338089285Y-261678571D02*
X338089285Y-262964285D01*
X338160714Y-263107142D01*
X338303571Y-263178571D01*
X338446428Y-263178571D01*
X339517857Y-263107142D02*
X339375000Y-263178571D01*
X339089285Y-263178571D01*
X338946428Y-263107142D01*
X338875000Y-262964285D01*
X338875000Y-262392857D01*
X338946428Y-262250000D01*
X339089285Y-262178571D01*
X339375000Y-262178571D01*
X339517857Y-262250000D01*
X339589285Y-262392857D01*
X339589285Y-262535714D01*
X338875000Y-262678571D01*
X340232142Y-263035714D02*
X340303571Y-263107142D01*
X340232142Y-263178571D01*
X340160714Y-263107142D01*
X340232142Y-263035714D01*
X340232142Y-263178571D01*
X340232142Y-262250000D02*
X340303571Y-262321428D01*
X340232142Y-262392857D01*
X340160714Y-262321428D01*
X340232142Y-262250000D01*
X340232142Y-262392857D01*
X342017857Y-261821428D02*
X342089285Y-261750000D01*
X342232142Y-261678571D01*
X342589285Y-261678571D01*
X342732142Y-261750000D01*
X342803571Y-261821428D01*
X342875000Y-261964285D01*
X342875000Y-262107142D01*
X342803571Y-262321428D01*
X341946428Y-263178571D01*
X342875000Y-263178571D01*
X343803571Y-261678571D02*
X343946428Y-261678571D01*
X344089285Y-261750000D01*
X344160714Y-261821428D01*
X344232142Y-261964285D01*
X344303571Y-262250000D01*
X344303571Y-262607142D01*
X344232142Y-262892857D01*
X344160714Y-263035714D01*
X344089285Y-263107142D01*
X343946428Y-263178571D01*
X343803571Y-263178571D01*
X343660714Y-263107142D01*
X343589285Y-263035714D01*
X343517857Y-262892857D01*
X343446428Y-262607142D01*
X343446428Y-262250000D01*
X343517857Y-261964285D01*
X343589285Y-261821428D01*
X343660714Y-261750000D01*
X343803571Y-261678571D01*
X344875000Y-261821428D02*
X344946428Y-261750000D01*
X345089285Y-261678571D01*
X345446428Y-261678571D01*
X345589285Y-261750000D01*
X345660714Y-261821428D01*
X345732142Y-261964285D01*
X345732142Y-262107142D01*
X345660714Y-262321428D01*
X344803571Y-263178571D01*
X345732142Y-263178571D01*
X346303571Y-261821428D02*
X346375000Y-261750000D01*
X346517857Y-261678571D01*
X346875000Y-261678571D01*
X347017857Y-261750000D01*
X347089285Y-261821428D01*
X347160714Y-261964285D01*
X347160714Y-262107142D01*
X347089285Y-262321428D01*
X346232142Y-263178571D01*
X347160714Y-263178571D01*
X347803571Y-262607142D02*
X348946428Y-262607142D01*
X350446428Y-263178571D02*
X349589285Y-263178571D01*
X350017857Y-263178571D02*
X350017857Y-261678571D01*
X349875000Y-261892857D01*
X349732142Y-262035714D01*
X349589285Y-262107142D01*
X351017857Y-261821428D02*
X351089285Y-261750000D01*
X351232142Y-261678571D01*
X351589285Y-261678571D01*
X351732142Y-261750000D01*
X351803571Y-261821428D01*
X351875000Y-261964285D01*
X351875000Y-262107142D01*
X351803571Y-262321428D01*
X350946428Y-263178571D01*
X351875000Y-263178571D01*
X352517857Y-262607142D02*
X353660714Y-262607142D01*
X355160714Y-263178571D02*
X354303571Y-263178571D01*
X354732142Y-263178571D02*
X354732142Y-261678571D01*
X354589285Y-261892857D01*
X354446428Y-262035714D01*
X354303571Y-262107142D01*
X355875000Y-263178571D02*
X356160714Y-263178571D01*
X356303571Y-263107142D01*
X356375000Y-263035714D01*
X356517857Y-262821428D01*
X356589285Y-262535714D01*
X356589285Y-261964285D01*
X356517857Y-261821428D01*
X356446428Y-261750000D01*
X356303571Y-261678571D01*
X356017857Y-261678571D01*
X355875000Y-261750000D01*
X355803571Y-261821428D01*
X355732142Y-261964285D01*
X355732142Y-262321428D01*
X355803571Y-262464285D01*
X355875000Y-262535714D01*
X356017857Y-262607142D01*
X356303571Y-262607142D01*
X356446428Y-262535714D01*
X356517857Y-262464285D01*
X356589285Y-262321428D01*
D10*
D11*
X311800000Y-263900000D02*
X419800000Y-263900000D01*
D10*
D11*
X313232142Y-265978571D02*
X313232142Y-264478571D01*
X314089285Y-265978571D02*
X313446428Y-265121428D01*
X314089285Y-264478571D02*
X313232142Y-265335714D01*
X314732142Y-265978571D02*
X314732142Y-264978571D01*
X314732142Y-264478571D02*
X314660714Y-264550000D01*
X314732142Y-264621428D01*
X314803571Y-264550000D01*
X314732142Y-264478571D01*
X314732142Y-264621428D01*
X316303571Y-265835714D02*
X316232142Y-265907142D01*
X316017857Y-265978571D01*
X315875000Y-265978571D01*
X315660714Y-265907142D01*
X315517857Y-265764285D01*
X315446428Y-265621428D01*
X315375000Y-265335714D01*
X315375000Y-265121428D01*
X315446428Y-264835714D01*
X315517857Y-264692857D01*
X315660714Y-264550000D01*
X315875000Y-264478571D01*
X316017857Y-264478571D01*
X316232142Y-264550000D01*
X316303571Y-264621428D01*
X317589285Y-265978571D02*
X317589285Y-265192857D01*
X317517857Y-265050000D01*
X317375000Y-264978571D01*
X317089285Y-264978571D01*
X316946428Y-265050000D01*
X317589285Y-265907142D02*
X317446428Y-265978571D01*
X317089285Y-265978571D01*
X316946428Y-265907142D01*
X316875000Y-265764285D01*
X316875000Y-265621428D01*
X316946428Y-265478571D01*
X317089285Y-265407142D01*
X317446428Y-265407142D01*
X317589285Y-265335714D01*
X318946428Y-265978571D02*
X318946428Y-264478571D01*
X318946428Y-265907142D02*
X318803571Y-265978571D01*
X318517857Y-265978571D01*
X318375000Y-265907142D01*
X318303571Y-265835714D01*
X318232142Y-265692857D01*
X318232142Y-265264285D01*
X318303571Y-265121428D01*
X318375000Y-265050000D01*
X318517857Y-264978571D01*
X318803571Y-264978571D01*
X318946428Y-265050000D01*
X320803571Y-265192857D02*
X321303571Y-265192857D01*
X321517857Y-265978571D02*
X320803571Y-265978571D01*
X320803571Y-264478571D01*
X321517857Y-264478571D01*
X322160714Y-265835714D02*
X322232142Y-265907142D01*
X322160714Y-265978571D01*
X322089285Y-265907142D01*
X322160714Y-265835714D01*
X322160714Y-265978571D01*
X322875000Y-265978571D02*
X322875000Y-264478571D01*
X323232142Y-264478571D01*
X323446428Y-264550000D01*
X323589285Y-264692857D01*
X323660714Y-264835714D01*
X323732142Y-265121428D01*
X323732142Y-265335714D01*
X323660714Y-265621428D01*
X323589285Y-265764285D01*
X323446428Y-265907142D01*
X323232142Y-265978571D01*
X322875000Y-265978571D01*
X324375000Y-265835714D02*
X324446428Y-265907142D01*
X324375000Y-265978571D01*
X324303571Y-265907142D01*
X324375000Y-265835714D01*
X324375000Y-265978571D01*
X325017857Y-265550000D02*
X325732142Y-265550000D01*
X324875000Y-265978571D02*
X325375000Y-264478571D01*
X325875000Y-265978571D01*
X326375000Y-265835714D02*
X326446428Y-265907142D01*
X326375000Y-265978571D01*
X326303571Y-265907142D01*
X326375000Y-265835714D01*
X326375000Y-265978571D01*
X329375000Y-265978571D02*
X329375000Y-264478571D01*
X329517857Y-265407142D02*
X329946428Y-265978571D01*
X329946428Y-264978571D02*
X329375000Y-265550000D01*
X330589285Y-265978571D02*
X330589285Y-264978571D01*
X330589285Y-264478571D02*
X330517857Y-264550000D01*
X330589285Y-264621428D01*
X330660714Y-264550000D01*
X330589285Y-264478571D01*
X330589285Y-264621428D01*
X331946428Y-265907142D02*
X331803571Y-265978571D01*
X331517857Y-265978571D01*
X331375000Y-265907142D01*
X331303571Y-265835714D01*
X331232142Y-265692857D01*
X331232142Y-265264285D01*
X331303571Y-265121428D01*
X331375000Y-265050000D01*
X331517857Y-264978571D01*
X331803571Y-264978571D01*
X331946428Y-265050000D01*
X333232142Y-265978571D02*
X333232142Y-265192857D01*
X333160714Y-265050000D01*
X333017857Y-264978571D01*
X332732142Y-264978571D01*
X332589285Y-265050000D01*
X333232142Y-265907142D02*
X333089285Y-265978571D01*
X332732142Y-265978571D01*
X332589285Y-265907142D01*
X332517857Y-265764285D01*
X332517857Y-265621428D01*
X332589285Y-265478571D01*
X332732142Y-265407142D01*
X333089285Y-265407142D01*
X333232142Y-265335714D01*
X334589285Y-265978571D02*
X334589285Y-264478571D01*
X334589285Y-265907142D02*
X334446428Y-265978571D01*
X334160714Y-265978571D01*
X334017857Y-265907142D01*
X333946428Y-265835714D01*
X333875000Y-265692857D01*
X333875000Y-265264285D01*
X333946428Y-265121428D01*
X334017857Y-265050000D01*
X334160714Y-264978571D01*
X334446428Y-264978571D01*
X334589285Y-265050000D01*
X337160714Y-264478571D02*
X336446428Y-264478571D01*
X336375000Y-265192857D01*
X336446428Y-265121428D01*
X336589285Y-265050000D01*
X336946428Y-265050000D01*
X337089285Y-265121428D01*
X337160714Y-265192857D01*
X337232142Y-265335714D01*
X337232142Y-265692857D01*
X337160714Y-265835714D01*
X337089285Y-265907142D01*
X336946428Y-265978571D01*
X336589285Y-265978571D01*
X336446428Y-265907142D01*
X336375000Y-265835714D01*
X337875000Y-265835714D02*
X337946428Y-265907142D01*
X337875000Y-265978571D01*
X337803571Y-265907142D01*
X337875000Y-265835714D01*
X337875000Y-265978571D01*
X338875000Y-264478571D02*
X339017857Y-264478571D01*
X339160714Y-264550000D01*
X339232142Y-264621428D01*
X339303571Y-264764285D01*
X339375000Y-265050000D01*
X339375000Y-265407142D01*
X339303571Y-265692857D01*
X339232142Y-265835714D01*
X339160714Y-265907142D01*
X339017857Y-265978571D01*
X338875000Y-265978571D01*
X338732142Y-265907142D01*
X338660714Y-265835714D01*
X338589285Y-265692857D01*
X338517857Y-265407142D01*
X338517857Y-265050000D01*
X338589285Y-264764285D01*
X338660714Y-264621428D01*
X338732142Y-264550000D01*
X338875000Y-264478571D01*
X340017857Y-265835714D02*
X340089285Y-265907142D01*
X340017857Y-265978571D01*
X339946428Y-265907142D01*
X340017857Y-265835714D01*
X340017857Y-265978571D01*
X340660714Y-264621428D02*
X340732142Y-264550000D01*
X340875000Y-264478571D01*
X341232142Y-264478571D01*
X341375000Y-264550000D01*
X341446428Y-264621428D01*
X341517857Y-264764285D01*
X341517857Y-264907142D01*
X341446428Y-265121428D01*
X340589285Y-265978571D01*
X341517857Y-265978571D01*
X342160714Y-265407142D02*
X343303571Y-265407142D01*
X342732142Y-265978571D02*
X342732142Y-264835714D01*
X344660714Y-265978571D02*
X344660714Y-264478571D01*
X344660714Y-265907142D02*
X344517857Y-265978571D01*
X344232142Y-265978571D01*
X344089285Y-265907142D01*
X344017857Y-265835714D01*
X343946428Y-265692857D01*
X343946428Y-265264285D01*
X344017857Y-265121428D01*
X344089285Y-265050000D01*
X344232142Y-264978571D01*
X344517857Y-264978571D01*
X344660714Y-265050000D01*
X345160714Y-264978571D02*
X345732142Y-264978571D01*
X345375000Y-265978571D02*
X345375000Y-264692857D01*
X345446428Y-264550000D01*
X345589285Y-264478571D01*
X345732142Y-264478571D01*
X346160714Y-265907142D02*
X346303571Y-265978571D01*
X346589285Y-265978571D01*
X346732142Y-265907142D01*
X346803571Y-265764285D01*
X346803571Y-265692857D01*
X346732142Y-265550000D01*
X346589285Y-265478571D01*
X346375000Y-265478571D01*
X346232142Y-265407142D01*
X346160714Y-265264285D01*
X346160714Y-265192857D01*
X346232142Y-265050000D01*
X346375000Y-264978571D01*
X346589285Y-264978571D01*
X346732142Y-265050000D01*
X348089285Y-264978571D02*
X348089285Y-266192857D01*
X348017857Y-266335714D01*
X347946428Y-266407142D01*
X347803571Y-266478571D01*
X347589285Y-266478571D01*
X347446428Y-266407142D01*
X348089285Y-265907142D02*
X347946428Y-265978571D01*
X347660714Y-265978571D01*
X347517857Y-265907142D01*
X347446428Y-265835714D01*
X347375000Y-265692857D01*
X347375000Y-265264285D01*
X347446428Y-265121428D01*
X347517857Y-265050000D01*
X347660714Y-264978571D01*
X347946428Y-264978571D01*
X348089285Y-265050000D01*
X349589285Y-265978571D02*
X348732142Y-265978571D01*
X349160714Y-265978571D02*
X349160714Y-264478571D01*
X349017857Y-264692857D01*
X348875000Y-264835714D01*
X348732142Y-264907142D01*
X350232142Y-265407142D02*
X351375000Y-265407142D01*
X352875000Y-265978571D02*
X352017857Y-265978571D01*
X352446428Y-265978571D02*
X352446428Y-264478571D01*
X352303571Y-264692857D01*
X352160714Y-264835714D01*
X352017857Y-264907142D01*
D10*
D11*
X311800000Y-260900000D02*
X419800000Y-260900000D01*
D10*
D12*
X399209285Y-263178571D02*
X398709285Y-262464285D01*
X398352142Y-263178571D02*
X398352142Y-261678571D01*
X398923571Y-261678571D01*
X399066428Y-261750000D01*
X399137857Y-261821428D01*
X399209285Y-261964285D01*
X399209285Y-262178571D01*
X399137857Y-262321428D01*
X399066428Y-262392857D01*
X398923571Y-262464285D01*
X398352142Y-262464285D01*
X400423571Y-263107142D02*
X400280714Y-263178571D01*
X399995000Y-263178571D01*
X399852142Y-263107142D01*
X399780714Y-262964285D01*
X399780714Y-262392857D01*
X399852142Y-262250000D01*
X399995000Y-262178571D01*
X400280714Y-262178571D01*
X400423571Y-262250000D01*
X400495000Y-262392857D01*
X400495000Y-262535714D01*
X399780714Y-262678571D01*
X400995000Y-262178571D02*
X401352142Y-263178571D01*
X401709285Y-262178571D01*
X402280714Y-263035714D02*
X402352142Y-263107142D01*
X402280714Y-263178571D01*
X402209285Y-263107142D01*
X402280714Y-263035714D01*
X402280714Y-263178571D01*
X402280714Y-262250000D02*
X402352142Y-262321428D01*
X402280714Y-262392857D01*
X402209285Y-262321428D01*
X402280714Y-262250000D01*
X402280714Y-262392857D01*
X404066428Y-261821428D02*
X404137857Y-261750000D01*
X404280714Y-261678571D01*
X404637857Y-261678571D01*
X404780714Y-261750000D01*
X404852142Y-261821428D01*
X404923571Y-261964285D01*
X404923571Y-262107142D01*
X404852142Y-262321428D01*
X403995000Y-263178571D01*
X404923571Y-263178571D01*
D10*
D11*
X313160714Y-263107142D02*
X313375000Y-263178571D01*
X313732142Y-263178571D01*
X313875000Y-263107142D01*
X313946428Y-263035714D01*
X314017857Y-262892857D01*
X314017857Y-262750000D01*
X313946428Y-262607142D01*
X313875000Y-262535714D01*
X313732142Y-262464285D01*
X313446428Y-262392857D01*
X313303571Y-262321428D01*
X313232142Y-262250000D01*
X313160714Y-262107142D01*
X313160714Y-261964285D01*
X313232142Y-261821428D01*
X313303571Y-261750000D01*
X313446428Y-261678571D01*
X313803571Y-261678571D01*
X314017857Y-261750000D01*
X314660714Y-263178571D02*
X314660714Y-262178571D01*
X314660714Y-261678571D02*
X314589285Y-261750000D01*
X314660714Y-261821428D01*
X314732142Y-261750000D01*
X314660714Y-261678571D01*
X314660714Y-261821428D01*
X315232142Y-262178571D02*
X316017857Y-262178571D01*
X315232142Y-263178571D01*
X316017857Y-263178571D01*
X317160714Y-263107142D02*
X317017857Y-263178571D01*
X316732142Y-263178571D01*
X316589285Y-263107142D01*
X316517857Y-262964285D01*
X316517857Y-262392857D01*
X316589285Y-262250000D01*
X316732142Y-262178571D01*
X317017857Y-262178571D01*
X317160714Y-262250000D01*
X317232142Y-262392857D01*
X317232142Y-262535714D01*
X316517857Y-262678571D01*
X317875000Y-263035714D02*
X317946428Y-263107142D01*
X317875000Y-263178571D01*
X317803571Y-263107142D01*
X317875000Y-263035714D01*
X317875000Y-263178571D01*
X317875000Y-262250000D02*
X317946428Y-262321428D01*
X317875000Y-262392857D01*
X317803571Y-262321428D01*
X317875000Y-262250000D01*
X317875000Y-262392857D01*
X320232142Y-262392857D02*
X320446428Y-262464285D01*
X320517857Y-262535714D01*
X320589285Y-262678571D01*
X320589285Y-262892857D01*
X320517857Y-263035714D01*
X320446428Y-263107142D01*
X320303571Y-263178571D01*
X319732142Y-263178571D01*
X319732142Y-261678571D01*
X320232142Y-261678571D01*
X320375000Y-261750000D01*
X320446428Y-261821428D01*
X320517857Y-261964285D01*
X320517857Y-262107142D01*
X320446428Y-262250000D01*
X320375000Y-262321428D01*
X320232142Y-262392857D01*
X319732142Y-262392857D01*
D10*
D11*
X398232142Y-265978571D02*
X398232142Y-264478571D01*
X399589285Y-265978571D02*
X399589285Y-264478571D01*
X399589285Y-265907142D02*
X399446428Y-265978571D01*
X399160714Y-265978571D01*
X399017857Y-265907142D01*
X398946428Y-265835714D01*
X398875000Y-265692857D01*
X398875000Y-265264285D01*
X398946428Y-265121428D01*
X399017857Y-265050000D01*
X399160714Y-264978571D01*
X399446428Y-264978571D01*
X399589285Y-265050000D01*
X400303571Y-265835714D02*
X400375000Y-265907142D01*
X400303571Y-265978571D01*
X400232142Y-265907142D01*
X400303571Y-265835714D01*
X400303571Y-265978571D01*
X400303571Y-265050000D02*
X400375000Y-265121428D01*
X400303571Y-265192857D01*
X400232142Y-265121428D01*
X400303571Y-265050000D01*
X400303571Y-265192857D01*
X402946428Y-265978571D02*
X402089285Y-265978571D01*
X402517857Y-265978571D02*
X402517857Y-264478571D01*
X402375000Y-264692857D01*
X402232142Y-264835714D01*
X402089285Y-264907142D01*
X404660714Y-264407142D02*
X403375000Y-266335714D01*
X405946428Y-265978571D02*
X405089285Y-265978571D01*
X405517857Y-265978571D02*
X405517857Y-264478571D01*
X405375000Y-264692857D01*
X405232142Y-264835714D01*
X405089285Y-264907142D01*
D10*
D11*
X311800000Y-256900000D02*
X419800000Y-256900000D01*
D10*
D13*
X313512380Y-257604761D02*
X314655238Y-257604761D01*
X313833809Y-259604761D02*
X314083809Y-257604761D01*
X315071904Y-259604761D02*
X315238571Y-258271428D01*
X315321904Y-257604761D02*
X315214761Y-257700000D01*
X315298095Y-257795238D01*
X315405238Y-257700000D01*
X315321904Y-257604761D01*
X315298095Y-257795238D01*
X315905238Y-258271428D02*
X316667142Y-258271428D01*
X316274285Y-257604761D02*
X316060000Y-259319047D01*
X316131428Y-259509523D01*
X316310000Y-259604761D01*
X316500476Y-259604761D01*
X317452857Y-259604761D02*
X317274285Y-259509523D01*
X317202857Y-259319047D01*
X317417142Y-257604761D01*
X318988571Y-259509523D02*
X318786190Y-259604761D01*
X318405238Y-259604761D01*
X318226666Y-259509523D01*
X318155238Y-259319047D01*
X318250476Y-258557142D01*
X318369523Y-258366666D01*
X318571904Y-258271428D01*
X318952857Y-258271428D01*
X319131428Y-258366666D01*
X319202857Y-258557142D01*
X319179047Y-258747619D01*
X318202857Y-258938095D01*
X319952857Y-259414285D02*
X320036190Y-259509523D01*
X319929047Y-259604761D01*
X319845714Y-259509523D01*
X319952857Y-259414285D01*
X319929047Y-259604761D01*
X320083809Y-258366666D02*
X320167142Y-258461904D01*
X320060000Y-258557142D01*
X319976666Y-258461904D01*
X320083809Y-258366666D01*
X320060000Y-258557142D01*
X323690952Y-257700000D02*
X323512380Y-257604761D01*
X323226666Y-257604761D01*
X322929047Y-257700000D01*
X322714761Y-257890476D01*
X322595714Y-258080952D01*
X322452857Y-258461904D01*
X322417142Y-258747619D01*
X322464761Y-259128571D01*
X322536190Y-259319047D01*
X322702857Y-259509523D01*
X322976666Y-259604761D01*
X323167142Y-259604761D01*
X323464761Y-259509523D01*
X323571904Y-259414285D01*
X323655238Y-258747619D01*
X323274285Y-258747619D01*
X324405238Y-259604761D02*
X324571904Y-258271428D01*
X324655238Y-257604761D02*
X324548095Y-257700000D01*
X324631428Y-257795238D01*
X324738571Y-257700000D01*
X324655238Y-257604761D01*
X324631428Y-257795238D01*
X326381428Y-258271428D02*
X326179047Y-259890476D01*
X326060000Y-260080952D01*
X325952857Y-260176190D01*
X325750476Y-260271428D01*
X325464761Y-260271428D01*
X325286190Y-260176190D01*
X326226666Y-259509523D02*
X326024285Y-259604761D01*
X325643333Y-259604761D01*
X325464761Y-259509523D01*
X325381428Y-259414285D01*
X325310000Y-259223809D01*
X325381428Y-258652380D01*
X325500476Y-258461904D01*
X325607619Y-258366666D01*
X325810000Y-258271428D01*
X326190952Y-258271428D01*
X326369523Y-258366666D01*
X328024285Y-259604761D02*
X328155238Y-258557142D01*
X328083809Y-258366666D01*
X327905238Y-258271428D01*
X327524285Y-258271428D01*
X327321904Y-258366666D01*
X328036190Y-259509523D02*
X327833809Y-259604761D01*
X327357619Y-259604761D01*
X327179047Y-259509523D01*
X327107619Y-259319047D01*
X327131428Y-259128571D01*
X327250476Y-258938095D01*
X327452857Y-258842857D01*
X327929047Y-258842857D01*
X328131428Y-258747619D01*
X328976666Y-259604761D02*
X329226666Y-257604761D01*
X329702857Y-257604761D01*
X329976666Y-257700000D01*
X330143333Y-257890476D01*
X330214761Y-258080952D01*
X330262380Y-258461904D01*
X330226666Y-258747619D01*
X330083809Y-259128571D01*
X329964761Y-259319047D01*
X329750476Y-259509523D01*
X329452857Y-259604761D01*
X328976666Y-259604761D01*
X330976666Y-259604761D02*
X331143333Y-258271428D01*
X331226666Y-257604761D02*
X331119523Y-257700000D01*
X331202857Y-257795238D01*
X331310000Y-257700000D01*
X331226666Y-257604761D01*
X331202857Y-257795238D01*
X332214761Y-259604761D02*
X332036190Y-259509523D01*
X331952857Y-259414285D01*
X331881428Y-259223809D01*
X331952857Y-258652380D01*
X332071904Y-258461904D01*
X332179047Y-258366666D01*
X332381428Y-258271428D01*
X332667142Y-258271428D01*
X332845714Y-258366666D01*
X332929047Y-258461904D01*
X333000476Y-258652380D01*
X332929047Y-259223809D01*
X332810000Y-259414285D01*
X332702857Y-259509523D01*
X332500476Y-259604761D01*
X332214761Y-259604761D01*
X334595714Y-259604761D02*
X334845714Y-257604761D01*
X334607619Y-259509523D02*
X334405238Y-259604761D01*
X334024285Y-259604761D01*
X333845714Y-259509523D01*
X333762380Y-259414285D01*
X333690952Y-259223809D01*
X333762380Y-258652380D01*
X333881428Y-258461904D01*
X333988571Y-258366666D01*
X334190952Y-258271428D01*
X334571904Y-258271428D01*
X334750476Y-258366666D01*
X336321904Y-259509523D02*
X336119523Y-259604761D01*
X335738571Y-259604761D01*
X335560000Y-259509523D01*
X335488571Y-259319047D01*
X335583809Y-258557142D01*
X335702857Y-258366666D01*
X335905238Y-258271428D01*
X336286190Y-258271428D01*
X336464761Y-258366666D01*
X336536190Y-258557142D01*
X336512380Y-258747619D01*
X335536190Y-258938095D01*
X340476666Y-257509523D02*
X338440952Y-260080952D01*
X343226666Y-257604761D02*
X343048095Y-259033333D01*
X342917142Y-259319047D01*
X342702857Y-259509523D01*
X342405238Y-259604761D01*
X342214761Y-259604761D01*
X343893333Y-257604761D02*
X344310000Y-259604761D01*
X345226666Y-257604761D01*
X346810000Y-259414285D02*
X346702857Y-259509523D01*
X346405238Y-259604761D01*
X346214761Y-259604761D01*
X345940952Y-259509523D01*
X345774285Y-259319047D01*
X345702857Y-259128571D01*
X345655238Y-258747619D01*
X345690952Y-258461904D01*
X345833809Y-258080952D01*
X345952857Y-257890476D01*
X346167142Y-257700000D01*
X346464761Y-257604761D01*
X346655238Y-257604761D01*
X346929047Y-257700000D01*
X347012380Y-257795238D01*
X348667142Y-258271428D02*
X348500476Y-259604761D01*
X348286190Y-257509523D02*
X347631428Y-258938095D01*
X348869523Y-258938095D01*
X349607619Y-257604761D02*
X350845714Y-257604761D01*
X350083809Y-258366666D01*
X350369523Y-258366666D01*
X350548095Y-258461904D01*
X350631428Y-258557142D01*
X350702857Y-258747619D01*
X350643333Y-259223809D01*
X350524285Y-259414285D01*
X350417142Y-259509523D01*
X350214761Y-259604761D01*
X349643333Y-259604761D01*
X349464761Y-259509523D01*
X349381428Y-259414285D01*
X352250476Y-258557142D02*
X352524285Y-258652380D01*
X352607619Y-258747619D01*
X352679047Y-258938095D01*
X352643333Y-259223809D01*
X352524285Y-259414285D01*
X352417142Y-259509523D01*
X352214761Y-259604761D01*
X351452857Y-259604761D01*
X351702857Y-257604761D01*
X352369523Y-257604761D01*
X352548095Y-257700000D01*
X352631428Y-257795238D01*
X352702857Y-257985714D01*
X352679047Y-258176190D01*
X352560000Y-258366666D01*
X352452857Y-258461904D01*
X352250476Y-258557142D01*
X351583809Y-258557142D01*
D10*
D11*
X313732142Y-254992857D02*
X313232142Y-254992857D01*
X313232142Y-255778571D02*
X313232142Y-254278571D01*
X313946428Y-254278571D01*
X314517857Y-255778571D02*
X314517857Y-254778571D01*
X314517857Y-254278571D02*
X314446428Y-254350000D01*
X314517857Y-254421428D01*
X314589285Y-254350000D01*
X314517857Y-254278571D01*
X314517857Y-254421428D01*
X315446428Y-255778571D02*
X315303571Y-255707142D01*
X315232142Y-255564285D01*
X315232142Y-254278571D01*
X316589285Y-255707142D02*
X316446428Y-255778571D01*
X316160714Y-255778571D01*
X316017857Y-255707142D01*
X315946428Y-255564285D01*
X315946428Y-254992857D01*
X316017857Y-254850000D01*
X316160714Y-254778571D01*
X316446428Y-254778571D01*
X316589285Y-254850000D01*
X316660714Y-254992857D01*
X316660714Y-255135714D01*
X315946428Y-255278571D01*
X317303571Y-255635714D02*
X317375000Y-255707142D01*
X317303571Y-255778571D01*
X317232142Y-255707142D01*
X317303571Y-255635714D01*
X317303571Y-255778571D01*
X317303571Y-254850000D02*
X317375000Y-254921428D01*
X317303571Y-254992857D01*
X317232142Y-254921428D01*
X317303571Y-254850000D01*
X317303571Y-254992857D01*
X319160714Y-254778571D02*
X319160714Y-256064285D01*
X319089285Y-256207142D01*
X318946428Y-256278571D01*
X318875000Y-256278571D01*
X319160714Y-254278571D02*
X319089285Y-254350000D01*
X319160714Y-254421428D01*
X319232142Y-254350000D01*
X319160714Y-254278571D01*
X319160714Y-254421428D01*
X319732142Y-254778571D02*
X320089285Y-255778571D01*
X320446428Y-254778571D01*
X321660714Y-255707142D02*
X321517857Y-255778571D01*
X321232142Y-255778571D01*
X321089285Y-255707142D01*
X321017857Y-255635714D01*
X320946428Y-255492857D01*
X320946428Y-255064285D01*
X321017857Y-254921428D01*
X321089285Y-254850000D01*
X321232142Y-254778571D01*
X321517857Y-254778571D01*
X321660714Y-254850000D01*
X322946428Y-254778571D02*
X322946428Y-255778571D01*
X322589285Y-254207142D02*
X322232142Y-255278571D01*
X323160714Y-255278571D01*
X323589285Y-254278571D02*
X324517857Y-254278571D01*
X324017857Y-254850000D01*
X324232142Y-254850000D01*
X324375000Y-254921428D01*
X324446428Y-254992857D01*
X324517857Y-255135714D01*
X324517857Y-255492857D01*
X324446428Y-255635714D01*
X324375000Y-255707142D01*
X324232142Y-255778571D01*
X323803571Y-255778571D01*
X323660714Y-255707142D01*
X323589285Y-255635714D01*
X325160714Y-255635714D02*
X325232142Y-255707142D01*
X325160714Y-255778571D01*
X325089285Y-255707142D01*
X325160714Y-255635714D01*
X325160714Y-255778571D01*
X325875000Y-255778571D02*
X325875000Y-254278571D01*
X326017857Y-255207142D02*
X326446428Y-255778571D01*
X326446428Y-254778571D02*
X325875000Y-255350000D01*
X327089285Y-255778571D02*
X327089285Y-254778571D01*
X327089285Y-254278571D02*
X327017857Y-254350000D01*
X327089285Y-254421428D01*
X327160714Y-254350000D01*
X327089285Y-254278571D01*
X327089285Y-254421428D01*
X328446428Y-255707142D02*
X328303571Y-255778571D01*
X328017857Y-255778571D01*
X327875000Y-255707142D01*
X327803571Y-255635714D01*
X327732142Y-255492857D01*
X327732142Y-255064285D01*
X327803571Y-254921428D01*
X327875000Y-254850000D01*
X328017857Y-254778571D01*
X328303571Y-254778571D01*
X328446428Y-254850000D01*
X329732142Y-255778571D02*
X329732142Y-254992857D01*
X329660714Y-254850000D01*
X329517857Y-254778571D01*
X329232142Y-254778571D01*
X329089285Y-254850000D01*
X329732142Y-255707142D02*
X329589285Y-255778571D01*
X329232142Y-255778571D01*
X329089285Y-255707142D01*
X329017857Y-255564285D01*
X329017857Y-255421428D01*
X329089285Y-255278571D01*
X329232142Y-255207142D01*
X329589285Y-255207142D01*
X329732142Y-255135714D01*
X331089285Y-255778571D02*
X331089285Y-254278571D01*
X331089285Y-255707142D02*
X330946428Y-255778571D01*
X330660714Y-255778571D01*
X330517857Y-255707142D01*
X330446428Y-255635714D01*
X330375000Y-255492857D01*
X330375000Y-255064285D01*
X330446428Y-254921428D01*
X330517857Y-254850000D01*
X330660714Y-254778571D01*
X330946428Y-254778571D01*
X331089285Y-254850000D01*
X331446428Y-255921428D02*
X332589285Y-255921428D01*
X332946428Y-254778571D02*
X332946428Y-256278571D01*
X332946428Y-254850000D02*
X333089285Y-254778571D01*
X333375000Y-254778571D01*
X333517857Y-254850000D01*
X333589285Y-254921428D01*
X333660714Y-255064285D01*
X333660714Y-255492857D01*
X333589285Y-255635714D01*
X333517857Y-255707142D01*
X333375000Y-255778571D01*
X333089285Y-255778571D01*
X332946428Y-255707142D01*
X334946428Y-255707142D02*
X334803571Y-255778571D01*
X334517857Y-255778571D01*
X334375000Y-255707142D01*
X334303571Y-255635714D01*
X334232142Y-255492857D01*
X334232142Y-255064285D01*
X334303571Y-254921428D01*
X334375000Y-254850000D01*
X334517857Y-254778571D01*
X334803571Y-254778571D01*
X334946428Y-254850000D01*
X335589285Y-255778571D02*
X335589285Y-254278571D01*
X335589285Y-254850000D02*
X335732142Y-254778571D01*
X336017857Y-254778571D01*
X336160714Y-254850000D01*
X336232142Y-254921428D01*
X336303571Y-255064285D01*
X336303571Y-255492857D01*
X336232142Y-255635714D01*
X336160714Y-255707142D01*
X336017857Y-255778571D01*
X335732142Y-255778571D01*
X335589285Y-255707142D01*
D10*
D11*
X311800000Y-250900000D02*
X419800000Y-250900000D01*
D10*
D11*
X313160714Y-253007142D02*
X313375000Y-253078571D01*
X313732142Y-253078571D01*
X313875000Y-253007142D01*
X313946428Y-252935714D01*
X314017857Y-252792857D01*
X314017857Y-252650000D01*
X313946428Y-252507142D01*
X313875000Y-252435714D01*
X313732142Y-252364285D01*
X313446428Y-252292857D01*
X313303571Y-252221428D01*
X313232142Y-252150000D01*
X313160714Y-252007142D01*
X313160714Y-251864285D01*
X313232142Y-251721428D01*
X313303571Y-251650000D01*
X313446428Y-251578571D01*
X313803571Y-251578571D01*
X314017857Y-251650000D01*
X314660714Y-253078571D02*
X314660714Y-251578571D01*
X315303571Y-253078571D02*
X315303571Y-252292857D01*
X315232142Y-252150000D01*
X315089285Y-252078571D01*
X314875000Y-252078571D01*
X314732142Y-252150000D01*
X314660714Y-252221428D01*
X316589285Y-253007142D02*
X316446428Y-253078571D01*
X316160714Y-253078571D01*
X316017857Y-253007142D01*
X315946428Y-252864285D01*
X315946428Y-252292857D01*
X316017857Y-252150000D01*
X316160714Y-252078571D01*
X316446428Y-252078571D01*
X316589285Y-252150000D01*
X316660714Y-252292857D01*
X316660714Y-252435714D01*
X315946428Y-252578571D01*
X317875000Y-253007142D02*
X317732142Y-253078571D01*
X317446428Y-253078571D01*
X317303571Y-253007142D01*
X317232142Y-252864285D01*
X317232142Y-252292857D01*
X317303571Y-252150000D01*
X317446428Y-252078571D01*
X317732142Y-252078571D01*
X317875000Y-252150000D01*
X317946428Y-252292857D01*
X317946428Y-252435714D01*
X317232142Y-252578571D01*
X318375000Y-252078571D02*
X318946428Y-252078571D01*
X318589285Y-251578571D02*
X318589285Y-252864285D01*
X318660714Y-253007142D01*
X318803571Y-253078571D01*
X318946428Y-253078571D01*
X319446428Y-252935714D02*
X319517857Y-253007142D01*
X319446428Y-253078571D01*
X319375000Y-253007142D01*
X319446428Y-252935714D01*
X319446428Y-253078571D01*
X319446428Y-252150000D02*
X319517857Y-252221428D01*
X319446428Y-252292857D01*
X319375000Y-252221428D01*
X319446428Y-252150000D01*
X319446428Y-252292857D01*
D10*
D12*
X314566428Y-248935714D02*
X314423571Y-248864285D01*
X314137857Y-248864285D01*
X313995000Y-248935714D01*
X313852142Y-249078571D01*
X313780714Y-249221428D01*
X313780714Y-249507142D01*
X313852142Y-249650000D01*
X313995000Y-249792857D01*
X314137857Y-249864285D01*
X314423571Y-249864285D01*
X314566428Y-249792857D01*
X314280714Y-248364285D02*
X313923571Y-248435714D01*
X313566428Y-248650000D01*
X313352142Y-249007142D01*
X313280714Y-249364285D01*
X313352142Y-249721428D01*
X313566428Y-250078571D01*
X313923571Y-250292857D01*
X314280714Y-250364285D01*
X314637857Y-250292857D01*
X314995000Y-250078571D01*
X315209285Y-249721428D01*
X315280714Y-249364285D01*
X315209285Y-249007142D01*
X314995000Y-248650000D01*
X314637857Y-248435714D01*
X314280714Y-248364285D01*
X315852142Y-248721428D02*
X315923571Y-248650000D01*
X316066428Y-248578571D01*
X316423571Y-248578571D01*
X316566428Y-248650000D01*
X316637857Y-248721428D01*
X316709285Y-248864285D01*
X316709285Y-249007142D01*
X316637857Y-249221428D01*
X315780714Y-250078571D01*
X316709285Y-250078571D01*
X317637857Y-248578571D02*
X317780714Y-248578571D01*
X317923571Y-248650000D01*
X317995000Y-248721428D01*
X318066428Y-248864285D01*
X318137857Y-249150000D01*
X318137857Y-249507142D01*
X318066428Y-249792857D01*
X317995000Y-249935714D01*
X317923571Y-250007142D01*
X317780714Y-250078571D01*
X317637857Y-250078571D01*
X317495000Y-250007142D01*
X317423571Y-249935714D01*
X317352142Y-249792857D01*
X317280714Y-249507142D01*
X317280714Y-249150000D01*
X317352142Y-248864285D01*
X317423571Y-248721428D01*
X317495000Y-248650000D01*
X317637857Y-248578571D01*
X318709285Y-248721428D02*
X318780714Y-248650000D01*
X318923571Y-248578571D01*
X319280714Y-248578571D01*
X319423571Y-248650000D01*
X319495000Y-248721428D01*
X319566428Y-248864285D01*
X319566428Y-249007142D01*
X319495000Y-249221428D01*
X318637857Y-250078571D01*
X319566428Y-250078571D01*
X320137857Y-248721428D02*
X320209285Y-248650000D01*
X320352142Y-248578571D01*
X320709285Y-248578571D01*
X320852142Y-248650000D01*
X320923571Y-248721428D01*
X320995000Y-248864285D01*
X320995000Y-249007142D01*
X320923571Y-249221428D01*
X320066428Y-250078571D01*
X320995000Y-250078571D01*
X323066428Y-248578571D02*
X323352142Y-248578571D01*
X323495000Y-248650000D01*
X323637857Y-248792857D01*
X323709285Y-249078571D01*
X323709285Y-249578571D01*
X323637857Y-249864285D01*
X323495000Y-250007142D01*
X323352142Y-250078571D01*
X323066428Y-250078571D01*
X322923571Y-250007142D01*
X322780714Y-249864285D01*
X322709285Y-249578571D01*
X322709285Y-249078571D01*
X322780714Y-248792857D01*
X322923571Y-248650000D01*
X323066428Y-248578571D01*
X324137857Y-248578571D02*
X324995000Y-248578571D01*
X324566428Y-250078571D02*
X324566428Y-248578571D01*
X327495000Y-249935714D02*
X327423571Y-250007142D01*
X327209285Y-250078571D01*
X327066428Y-250078571D01*
X326852142Y-250007142D01*
X326709285Y-249864285D01*
X326637857Y-249721428D01*
X326566428Y-249435714D01*
X326566428Y-249221428D01*
X326637857Y-248935714D01*
X326709285Y-248792857D01*
X326852142Y-248650000D01*
X327066428Y-248578571D01*
X327209285Y-248578571D01*
X327423571Y-248650000D01*
X327495000Y-248721428D01*
X328352142Y-250078571D02*
X328209285Y-250007142D01*
X328137857Y-249935714D01*
X328066428Y-249792857D01*
X328066428Y-249364285D01*
X328137857Y-249221428D01*
X328209285Y-249150000D01*
X328352142Y-249078571D01*
X328566428Y-249078571D01*
X328709285Y-249150000D01*
X328780714Y-249221428D01*
X328852142Y-249364285D01*
X328852142Y-249792857D01*
X328780714Y-249935714D01*
X328709285Y-250007142D01*
X328566428Y-250078571D01*
X328352142Y-250078571D01*
X329495000Y-249078571D02*
X329495000Y-250078571D01*
X329495000Y-249221428D02*
X329566428Y-249150000D01*
X329709285Y-249078571D01*
X329923571Y-249078571D01*
X330066428Y-249150000D01*
X330137857Y-249292857D01*
X330137857Y-250078571D01*
X331495000Y-250007142D02*
X331352142Y-250078571D01*
X331066428Y-250078571D01*
X330923571Y-250007142D01*
X330852142Y-249935714D01*
X330780714Y-249792857D01*
X330780714Y-249364285D01*
X330852142Y-249221428D01*
X330923571Y-249150000D01*
X331066428Y-249078571D01*
X331352142Y-249078571D01*
X331495000Y-249150000D01*
X332352142Y-250078571D02*
X332209285Y-250007142D01*
X332137857Y-249864285D01*
X332137857Y-248578571D01*
X333566428Y-250078571D02*
X333566428Y-249292857D01*
X333495000Y-249150000D01*
X333352142Y-249078571D01*
X333066428Y-249078571D01*
X332923571Y-249150000D01*
X333566428Y-250007142D02*
X333423571Y-250078571D01*
X333066428Y-250078571D01*
X332923571Y-250007142D01*
X332852142Y-249864285D01*
X332852142Y-249721428D01*
X332923571Y-249578571D01*
X333066428Y-249507142D01*
X333423571Y-249507142D01*
X333566428Y-249435714D01*
X334137857Y-249078571D02*
X334495000Y-250078571D01*
X334852142Y-249078571D01*
X335995000Y-250007142D02*
X335852142Y-250078571D01*
X335566428Y-250078571D01*
X335423571Y-250007142D01*
X335352142Y-249864285D01*
X335352142Y-249292857D01*
X335423571Y-249150000D01*
X335566428Y-249078571D01*
X335852142Y-249078571D01*
X335995000Y-249150000D01*
X336066428Y-249292857D01*
X336066428Y-249435714D01*
X335352142Y-249578571D01*
D10*
D11*
X313946428Y-247078571D02*
X313232142Y-247078571D01*
X313232142Y-245578571D01*
X314446428Y-247078571D02*
X314446428Y-246078571D01*
X314446428Y-245578571D02*
X314375000Y-245650000D01*
X314446428Y-245721428D01*
X314517857Y-245650000D01*
X314446428Y-245578571D01*
X314446428Y-245721428D01*
X315803571Y-247007142D02*
X315660714Y-247078571D01*
X315375000Y-247078571D01*
X315232142Y-247007142D01*
X315160714Y-246935714D01*
X315089285Y-246792857D01*
X315089285Y-246364285D01*
X315160714Y-246221428D01*
X315232142Y-246150000D01*
X315375000Y-246078571D01*
X315660714Y-246078571D01*
X315803571Y-246150000D01*
X317017857Y-247007142D02*
X316875000Y-247078571D01*
X316589285Y-247078571D01*
X316446428Y-247007142D01*
X316375000Y-246864285D01*
X316375000Y-246292857D01*
X316446428Y-246150000D01*
X316589285Y-246078571D01*
X316875000Y-246078571D01*
X317017857Y-246150000D01*
X317089285Y-246292857D01*
X317089285Y-246435714D01*
X316375000Y-246578571D01*
X317732142Y-246078571D02*
X317732142Y-247078571D01*
X317732142Y-246221428D02*
X317803571Y-246150000D01*
X317946428Y-246078571D01*
X318160714Y-246078571D01*
X318303571Y-246150000D01*
X318375000Y-246292857D01*
X318375000Y-247078571D01*
X319017857Y-247007142D02*
X319160714Y-247078571D01*
X319446428Y-247078571D01*
X319589285Y-247007142D01*
X319660714Y-246864285D01*
X319660714Y-246792857D01*
X319589285Y-246650000D01*
X319446428Y-246578571D01*
X319232142Y-246578571D01*
X319089285Y-246507142D01*
X319017857Y-246364285D01*
X319017857Y-246292857D01*
X319089285Y-246150000D01*
X319232142Y-246078571D01*
X319446428Y-246078571D01*
X319589285Y-246150000D01*
X320875000Y-247007142D02*
X320732142Y-247078571D01*
X320446428Y-247078571D01*
X320303571Y-247007142D01*
X320232142Y-246864285D01*
X320232142Y-246292857D01*
X320303571Y-246150000D01*
X320446428Y-246078571D01*
X320732142Y-246078571D01*
X320875000Y-246150000D01*
X320946428Y-246292857D01*
X320946428Y-246435714D01*
X320232142Y-246578571D01*
X322232142Y-247078571D02*
X322232142Y-245578571D01*
X322232142Y-247007142D02*
X322089285Y-247078571D01*
X321803571Y-247078571D01*
X321660714Y-247007142D01*
X321589285Y-246935714D01*
X321517857Y-246792857D01*
X321517857Y-246364285D01*
X321589285Y-246221428D01*
X321660714Y-246150000D01*
X321803571Y-246078571D01*
X322089285Y-246078571D01*
X322232142Y-246150000D01*
X324732142Y-246078571D02*
X324732142Y-247078571D01*
X324089285Y-246078571D02*
X324089285Y-246864285D01*
X324160714Y-247007142D01*
X324303571Y-247078571D01*
X324517857Y-247078571D01*
X324660714Y-247007142D01*
X324732142Y-246935714D01*
X325446428Y-246078571D02*
X325446428Y-247078571D01*
X325446428Y-246221428D02*
X325517857Y-246150000D01*
X325660714Y-246078571D01*
X325875000Y-246078571D01*
X326017857Y-246150000D01*
X326089285Y-246292857D01*
X326089285Y-247078571D01*
X327446428Y-247078571D02*
X327446428Y-245578571D01*
X327446428Y-247007142D02*
X327303571Y-247078571D01*
X327017857Y-247078571D01*
X326875000Y-247007142D01*
X326803571Y-246935714D01*
X326732142Y-246792857D01*
X326732142Y-246364285D01*
X326803571Y-246221428D01*
X326875000Y-246150000D01*
X327017857Y-246078571D01*
X327303571Y-246078571D01*
X327446428Y-246150000D01*
X328732142Y-247007142D02*
X328589285Y-247078571D01*
X328303571Y-247078571D01*
X328160714Y-247007142D01*
X328089285Y-246864285D01*
X328089285Y-246292857D01*
X328160714Y-246150000D01*
X328303571Y-246078571D01*
X328589285Y-246078571D01*
X328732142Y-246150000D01*
X328803571Y-246292857D01*
X328803571Y-246435714D01*
X328089285Y-246578571D01*
X329446428Y-247078571D02*
X329446428Y-246078571D01*
X329446428Y-246364285D02*
X329517857Y-246221428D01*
X329589285Y-246150000D01*
X329732142Y-246078571D01*
X329875000Y-246078571D01*
X331303571Y-246078571D02*
X331875000Y-246078571D01*
X331517857Y-245578571D02*
X331517857Y-246864285D01*
X331589285Y-247007142D01*
X331732142Y-247078571D01*
X331875000Y-247078571D01*
X332375000Y-247078571D02*
X332375000Y-245578571D01*
X333017857Y-247078571D02*
X333017857Y-246292857D01*
X332946428Y-246150000D01*
X332803571Y-246078571D01*
X332589285Y-246078571D01*
X332446428Y-246150000D01*
X332375000Y-246221428D01*
X334303571Y-247007142D02*
X334160714Y-247078571D01*
X333875000Y-247078571D01*
X333732142Y-247007142D01*
X333660714Y-246864285D01*
X333660714Y-246292857D01*
X333732142Y-246150000D01*
X333875000Y-246078571D01*
X334160714Y-246078571D01*
X334303571Y-246150000D01*
X334375000Y-246292857D01*
X334375000Y-246435714D01*
X333660714Y-246578571D01*
X335946428Y-245578571D02*
X336803571Y-245578571D01*
X336375000Y-247078571D02*
X336375000Y-245578571D01*
X337232142Y-246650000D02*
X337946428Y-246650000D01*
X337089285Y-247078571D02*
X337589285Y-245578571D01*
X338089285Y-247078571D01*
X338589285Y-247078571D02*
X338589285Y-245578571D01*
X339160714Y-245578571D01*
X339303571Y-245650000D01*
X339375000Y-245721428D01*
X339446428Y-245864285D01*
X339446428Y-246078571D01*
X339375000Y-246221428D01*
X339303571Y-246292857D01*
X339160714Y-246364285D01*
X338589285Y-246364285D01*
X340946428Y-247078571D02*
X340446428Y-246364285D01*
X340089285Y-247078571D02*
X340089285Y-245578571D01*
X340660714Y-245578571D01*
X340803571Y-245650000D01*
X340875000Y-245721428D01*
X340946428Y-245864285D01*
X340946428Y-246078571D01*
X340875000Y-246221428D01*
X340803571Y-246292857D01*
X340660714Y-246364285D01*
X340089285Y-246364285D01*
X343017857Y-245578571D02*
X343303571Y-245578571D01*
X343446428Y-245650000D01*
X343589285Y-245792857D01*
X343660714Y-246078571D01*
X343660714Y-246578571D01*
X343589285Y-246864285D01*
X343446428Y-247007142D01*
X343303571Y-247078571D01*
X343017857Y-247078571D01*
X342875000Y-247007142D01*
X342732142Y-246864285D01*
X342660714Y-246578571D01*
X342660714Y-246078571D01*
X342732142Y-245792857D01*
X342875000Y-245650000D01*
X343017857Y-245578571D01*
X344303571Y-246078571D02*
X344303571Y-247578571D01*
X344303571Y-246150000D02*
X344446428Y-246078571D01*
X344732142Y-246078571D01*
X344875000Y-246150000D01*
X344946428Y-246221428D01*
X345017857Y-246364285D01*
X345017857Y-246792857D01*
X344946428Y-246935714D01*
X344875000Y-247007142D01*
X344732142Y-247078571D01*
X344446428Y-247078571D01*
X344303571Y-247007142D01*
X346232142Y-247007142D02*
X346089285Y-247078571D01*
X345803571Y-247078571D01*
X345660714Y-247007142D01*
X345589285Y-246864285D01*
X345589285Y-246292857D01*
X345660714Y-246150000D01*
X345803571Y-246078571D01*
X346089285Y-246078571D01*
X346232142Y-246150000D01*
X346303571Y-246292857D01*
X346303571Y-246435714D01*
X345589285Y-246578571D01*
X346946428Y-246078571D02*
X346946428Y-247078571D01*
X346946428Y-246221428D02*
X347017857Y-246150000D01*
X347160714Y-246078571D01*
X347375000Y-246078571D01*
X347517857Y-246150000D01*
X347589285Y-246292857D01*
X347589285Y-247078571D01*
X349446428Y-247078571D02*
X349446428Y-245578571D01*
X349446428Y-246292857D02*
X350303571Y-246292857D01*
X350303571Y-247078571D02*
X350303571Y-245578571D01*
X351660714Y-247078571D02*
X351660714Y-246292857D01*
X351589285Y-246150000D01*
X351446428Y-246078571D01*
X351160714Y-246078571D01*
X351017857Y-246150000D01*
X351660714Y-247007142D02*
X351517857Y-247078571D01*
X351160714Y-247078571D01*
X351017857Y-247007142D01*
X350946428Y-246864285D01*
X350946428Y-246721428D01*
X351017857Y-246578571D01*
X351160714Y-246507142D01*
X351517857Y-246507142D01*
X351660714Y-246435714D01*
X352375000Y-247078571D02*
X352375000Y-246078571D01*
X352375000Y-246364285D02*
X352446428Y-246221428D01*
X352517857Y-246150000D01*
X352660714Y-246078571D01*
X352803571Y-246078571D01*
X353946428Y-247078571D02*
X353946428Y-245578571D01*
X353946428Y-247007142D02*
X353803571Y-247078571D01*
X353517857Y-247078571D01*
X353375000Y-247007142D01*
X353303571Y-246935714D01*
X353232142Y-246792857D01*
X353232142Y-246364285D01*
X353303571Y-246221428D01*
X353375000Y-246150000D01*
X353517857Y-246078571D01*
X353803571Y-246078571D01*
X353946428Y-246150000D01*
X354517857Y-246078571D02*
X354803571Y-247078571D01*
X355089285Y-246364285D01*
X355375000Y-247078571D01*
X355660714Y-246078571D01*
X356875000Y-247078571D02*
X356875000Y-246292857D01*
X356803571Y-246150000D01*
X356660714Y-246078571D01*
X356375000Y-246078571D01*
X356232142Y-246150000D01*
X356875000Y-247007142D02*
X356732142Y-247078571D01*
X356375000Y-247078571D01*
X356232142Y-247007142D01*
X356160714Y-246864285D01*
X356160714Y-246721428D01*
X356232142Y-246578571D01*
X356375000Y-246507142D01*
X356732142Y-246507142D01*
X356875000Y-246435714D01*
X357589285Y-247078571D02*
X357589285Y-246078571D01*
X357589285Y-246364285D02*
X357660714Y-246221428D01*
X357732142Y-246150000D01*
X357875000Y-246078571D01*
X358017857Y-246078571D01*
X359089285Y-247007142D02*
X358946428Y-247078571D01*
X358660714Y-247078571D01*
X358517857Y-247007142D01*
X358446428Y-246864285D01*
X358446428Y-246292857D01*
X358517857Y-246150000D01*
X358660714Y-246078571D01*
X358946428Y-246078571D01*
X359089285Y-246150000D01*
X359160714Y-246292857D01*
X359160714Y-246435714D01*
X358446428Y-246578571D01*
X361660714Y-247078571D02*
X360946428Y-247078571D01*
X360946428Y-245578571D01*
X362160714Y-247078571D02*
X362160714Y-246078571D01*
X362160714Y-245578571D02*
X362089285Y-245650000D01*
X362160714Y-245721428D01*
X362232142Y-245650000D01*
X362160714Y-245578571D01*
X362160714Y-245721428D01*
X363517857Y-247007142D02*
X363375000Y-247078571D01*
X363089285Y-247078571D01*
X362946428Y-247007142D01*
X362875000Y-246935714D01*
X362803571Y-246792857D01*
X362803571Y-246364285D01*
X362875000Y-246221428D01*
X362946428Y-246150000D01*
X363089285Y-246078571D01*
X363375000Y-246078571D01*
X363517857Y-246150000D01*
X364732142Y-247007142D02*
X364589285Y-247078571D01*
X364303571Y-247078571D01*
X364160714Y-247007142D01*
X364089285Y-246864285D01*
X364089285Y-246292857D01*
X364160714Y-246150000D01*
X364303571Y-246078571D01*
X364589285Y-246078571D01*
X364732142Y-246150000D01*
X364803571Y-246292857D01*
X364803571Y-246435714D01*
X364089285Y-246578571D01*
X365446428Y-246078571D02*
X365446428Y-247078571D01*
X365446428Y-246221428D02*
X365517857Y-246150000D01*
X365660714Y-246078571D01*
X365875000Y-246078571D01*
X366017857Y-246150000D01*
X366089285Y-246292857D01*
X366089285Y-247078571D01*
X366732142Y-247007142D02*
X366875000Y-247078571D01*
X367160714Y-247078571D01*
X367303571Y-247007142D01*
X367375000Y-246864285D01*
X367375000Y-246792857D01*
X367303571Y-246650000D01*
X367160714Y-246578571D01*
X366946428Y-246578571D01*
X366803571Y-246507142D01*
X366732142Y-246364285D01*
X366732142Y-246292857D01*
X366803571Y-246150000D01*
X366946428Y-246078571D01*
X367160714Y-246078571D01*
X367303571Y-246150000D01*
X368589285Y-247007142D02*
X368446428Y-247078571D01*
X368160714Y-247078571D01*
X368017857Y-247007142D01*
X367946428Y-246864285D01*
X367946428Y-246292857D01*
X368017857Y-246150000D01*
X368160714Y-246078571D01*
X368446428Y-246078571D01*
X368589285Y-246150000D01*
X368660714Y-246292857D01*
X368660714Y-246435714D01*
X367946428Y-246578571D01*
X370303571Y-246078571D02*
X370660714Y-247078571D01*
X371017857Y-246078571D01*
X372375000Y-247078571D02*
X371517857Y-247078571D01*
X371946428Y-247078571D02*
X371946428Y-245578571D01*
X371803571Y-245792857D01*
X371660714Y-245935714D01*
X371517857Y-246007142D01*
X373017857Y-246935714D02*
X373089285Y-247007142D01*
X373017857Y-247078571D01*
X372946428Y-247007142D01*
X373017857Y-246935714D01*
X373017857Y-247078571D01*
X374017857Y-245578571D02*
X374160714Y-245578571D01*
X374303571Y-245650000D01*
X374375000Y-245721428D01*
X374446428Y-245864285D01*
X374517857Y-246150000D01*
X374517857Y-246507142D01*
X374446428Y-246792857D01*
X374375000Y-246935714D01*
X374303571Y-247007142D01*
X374160714Y-247078571D01*
X374017857Y-247078571D01*
X373875000Y-247007142D01*
X373803571Y-246935714D01*
X373732142Y-246792857D01*
X373660714Y-246507142D01*
X373660714Y-246150000D01*
X373732142Y-245864285D01*
X373803571Y-245721428D01*
X373875000Y-245650000D01*
X374017857Y-245578571D01*
D10*
D11*
X331800000Y-260900000D02*
X331800000Y-263900000D01*
D10*
D11*
X395800000Y-260900000D02*
X395800000Y-267400000D01*
D14*
X331466428Y-183558571D02*
X330752142Y-183558571D01*
X330752142Y-182058571D01*
X331823571Y-182058571D02*
X332752142Y-182058571D01*
X332252142Y-182630000D01*
X332466428Y-182630000D01*
X332609285Y-182701428D01*
X332680714Y-182772857D01*
X332752142Y-182915714D01*
X332752142Y-183272857D01*
X332680714Y-183415714D01*
X332609285Y-183487142D01*
X332466428Y-183558571D01*
X332037857Y-183558571D01*
X331895000Y-183487142D01*
X331823571Y-183415714D01*
X335395000Y-183415714D02*
X335323571Y-183487142D01*
X335109285Y-183558571D01*
X334966428Y-183558571D01*
X334752142Y-183487142D01*
X334609285Y-183344285D01*
X334537857Y-183201428D01*
X334466428Y-182915714D01*
X334466428Y-182701428D01*
X334537857Y-182415714D01*
X334609285Y-182272857D01*
X334752142Y-182130000D01*
X334966428Y-182058571D01*
X335109285Y-182058571D01*
X335323571Y-182130000D01*
X335395000Y-182201428D01*
X336323571Y-182058571D02*
X336609285Y-182058571D01*
X336752142Y-182130000D01*
X336895000Y-182272857D01*
X336966428Y-182558571D01*
X336966428Y-183058571D01*
X336895000Y-183344285D01*
X336752142Y-183487142D01*
X336609285Y-183558571D01*
X336323571Y-183558571D01*
X336180714Y-183487142D01*
X336037857Y-183344285D01*
X335966428Y-183058571D01*
X335966428Y-182558571D01*
X336037857Y-182272857D01*
X336180714Y-182130000D01*
X336323571Y-182058571D01*
X337609285Y-183558571D02*
X337609285Y-182058571D01*
X338180714Y-182058571D01*
X338323571Y-182130000D01*
X338395000Y-182201428D01*
X338466428Y-182344285D01*
X338466428Y-182558571D01*
X338395000Y-182701428D01*
X338323571Y-182772857D01*
X338180714Y-182844285D01*
X337609285Y-182844285D01*
X339109285Y-183558571D02*
X339109285Y-182058571D01*
X339680714Y-182058571D01*
X339823571Y-182130000D01*
X339895000Y-182201428D01*
X339966428Y-182344285D01*
X339966428Y-182558571D01*
X339895000Y-182701428D01*
X339823571Y-182772857D01*
X339680714Y-182844285D01*
X339109285Y-182844285D01*
X340609285Y-182772857D02*
X341109285Y-182772857D01*
X341323571Y-183558571D02*
X340609285Y-183558571D01*
X340609285Y-182058571D01*
X341323571Y-182058571D01*
X342823571Y-183558571D02*
X342323571Y-182844285D01*
X341966428Y-183558571D02*
X341966428Y-182058571D01*
X342537857Y-182058571D01*
X342680714Y-182130000D01*
X342752142Y-182201428D01*
X342823571Y-182344285D01*
X342823571Y-182558571D01*
X342752142Y-182701428D01*
X342680714Y-182772857D01*
X342537857Y-182844285D01*
X341966428Y-182844285D01*
D15*
G04 #@! TO.N,+2V5*
G04 #@! TO.C,J201*
X35000000Y-45110000D03*
G04 #@! TO.N,/Ethernet1/green*
X35000000Y-36170000D03*
G04 #@! TO.N,/Ethernet1/yellow*
X35000000Y-47650000D03*
G04 #@! TO.N,+2V5*
X35000000Y-33630000D03*
D16*
G04 #@! TO.N,/Ethernet1/ETH_TX3-*
X29950000Y-44196000D03*
G04 #@! TO.N,/Ethernet1/ETH_TX3+*
X31730000Y-43180000D03*
G04 #@! TO.N,/Ethernet1/ETH_TX1-*
X29950000Y-42164000D03*
G04 #@! TO.N,/Ethernet1/ETH_TX2-*
X31730000Y-41148000D03*
G04 #@! TO.N,/Ethernet1/ETH_TX2+*
X29950000Y-40132000D03*
G04 #@! TO.N,/Ethernet1/ETH_TX1+*
X31730000Y-39116000D03*
G04 #@! TO.N,/Ethernet1/ETH_TX0-*
X29950000Y-38100000D03*
G04 #@! TO.N,/Ethernet1/ETH_TX0+*
X31730000Y-37084000D03*
D17*
G04 #@! TO.N,/Ethernet1/gnd_eth*
X27050000Y-48640000D03*
X27050000Y-32640000D03*
D18*
G04 #@! TO.N,*
X31400000Y-46380000D03*
X31400000Y-34900000D03*
G04 #@! TD*
D15*
G04 #@! TO.N,+2V5*
G04 #@! TO.C,J301*
X117400000Y-46330000D03*
G04 #@! TO.N,/Ethernet2/green*
X117400000Y-55270000D03*
G04 #@! TO.N,/Ethernet2/yellow*
X117400000Y-43790000D03*
G04 #@! TO.N,+2V5*
X117400000Y-57810000D03*
D16*
G04 #@! TO.N,/Ethernet2/ETH_TX3-*
X122450000Y-47244000D03*
G04 #@! TO.N,/Ethernet2/ETH_TX3+*
X120670000Y-48260000D03*
G04 #@! TO.N,/Ethernet2/ETH_TX1-*
X122450000Y-49276000D03*
G04 #@! TO.N,/Ethernet2/ETH_TX2-*
X120670000Y-50292000D03*
G04 #@! TO.N,/Ethernet2/ETH_TX2+*
X122450000Y-51308000D03*
G04 #@! TO.N,/Ethernet2/ETH_TX1+*
X120670000Y-52324000D03*
G04 #@! TO.N,/Ethernet2/ETH_TX0-*
X122450000Y-53340000D03*
G04 #@! TO.N,/Ethernet2/ETH_TX0+*
X120670000Y-54356000D03*
D17*
G04 #@! TO.N,/Ethernet2/gnd_eth*
X125350000Y-42800000D03*
X125350000Y-58800000D03*
D18*
G04 #@! TO.N,*
X121000000Y-45060000D03*
X121000000Y-56540000D03*
G04 #@! TD*
D19*
G04 #@! TO.N,GND*
G04 #@! TO.C,J401*
X27140000Y-56635000D03*
X27140000Y-65285000D03*
D20*
X30520000Y-56635000D03*
X30520000Y-65285000D03*
D21*
X31500000Y-57985000D03*
G04 #@! TO.N,/Power_Supply/VCC_USB*
X31500000Y-58835000D03*
G04 #@! TO.N,/Power_Supply/CC1*
X31500000Y-59685000D03*
G04 #@! TO.N,Net-(J401-PadA6)*
X31500000Y-60535000D03*
G04 #@! TO.N,Net-(J401-PadA7)*
X31500000Y-61385000D03*
G04 #@! TO.N,Net-(J401-PadA8)*
X31500000Y-62235000D03*
G04 #@! TO.N,/Power_Supply/VCC_USB*
X31500000Y-63085000D03*
G04 #@! TO.N,GND*
X31500000Y-63935000D03*
X30150000Y-63935000D03*
G04 #@! TO.N,/Power_Supply/VCC_USB*
X30150000Y-63085000D03*
G04 #@! TO.N,/Power_Supply/CC2*
X30150000Y-62235000D03*
G04 #@! TO.N,Net-(J401-PadB6)*
X30150000Y-61385000D03*
G04 #@! TO.N,Net-(J401-PadB7)*
X30150000Y-60535000D03*
G04 #@! TO.N,Net-(J401-PadB8)*
X30150000Y-59685000D03*
G04 #@! TO.N,/Power_Supply/VCC_USB*
X30150000Y-58835000D03*
G04 #@! TO.N,GND*
X30150000Y-57985000D03*
G04 #@! TD*
D22*
G04 #@! TO.N,GND*
G04 #@! TO.C,U201*
X66180000Y-43040000D03*
X68580000Y-41840000D03*
X66180000Y-41840000D03*
X68580000Y-40640000D03*
X66180000Y-40640000D03*
X68580000Y-39440000D03*
X67380000Y-39440000D03*
X66180000Y-39440000D03*
X68580000Y-38240000D03*
X67380000Y-38240000D03*
X66180000Y-38240000D03*
X67380000Y-40640000D03*
X67380000Y-41840000D03*
X67380000Y-43040000D03*
X68580000Y-43040000D03*
X69780000Y-39440000D03*
X70980000Y-39440000D03*
X70980000Y-38240000D03*
X70980000Y-41840000D03*
X69780000Y-38240000D03*
X70980000Y-40640000D03*
X70980000Y-43040000D03*
X69780000Y-43040000D03*
X69780000Y-41840000D03*
X69780000Y-40640000D03*
G04 #@! TD*
G04 #@! TO.N,GND*
G04 #@! TO.C,U301*
X82620000Y-50800000D03*
X82620000Y-49600000D03*
X82620000Y-48400000D03*
X81420000Y-48400000D03*
X81420000Y-50800000D03*
X82620000Y-53200000D03*
X81420000Y-49600000D03*
X81420000Y-53200000D03*
X81420000Y-52000000D03*
X82620000Y-52000000D03*
X83820000Y-48400000D03*
X85020000Y-48400000D03*
X85020000Y-49600000D03*
X85020000Y-50800000D03*
X86220000Y-53200000D03*
X85020000Y-53200000D03*
X83820000Y-53200000D03*
X86220000Y-52000000D03*
X85020000Y-52000000D03*
X83820000Y-52000000D03*
X86220000Y-50800000D03*
X83820000Y-50800000D03*
X86220000Y-49600000D03*
X83820000Y-49600000D03*
X86220000Y-48400000D03*
G04 #@! TD*
D23*
G04 #@! TO.N,GND*
X58420000Y-65278000D03*
X58420000Y-64262000D03*
X57150000Y-64262000D03*
X57150000Y-65278000D03*
X59055000Y-64770000D03*
X56515000Y-64770000D03*
D24*
X57785000Y-58420000D03*
X31623000Y-67183000D03*
X31623000Y-69977000D03*
X31623000Y-72771000D03*
D23*
X57785000Y-64770000D03*
X57023000Y-67183000D03*
X58801000Y-67183000D03*
D24*
X54737000Y-53848000D03*
X57531000Y-53848000D03*
X56134000Y-52705000D03*
X59563000Y-53975000D03*
X58293000Y-54991000D03*
X60579000Y-54102000D03*
X67945000Y-52070000D03*
X62357000Y-64516000D03*
X62357000Y-65278000D03*
X52070000Y-64516000D03*
X52070000Y-65278000D03*
X99695000Y-47625000D03*
X99695000Y-43815000D03*
X99695000Y-51435000D03*
X99695000Y-55245000D03*
X52705000Y-43815000D03*
X52705000Y-40005000D03*
X52705000Y-36195000D03*
X52705000Y-47625000D03*
X71247000Y-35179000D03*
D23*
X69189600Y-45948600D03*
X67970400Y-45948600D03*
X71958200Y-45974000D03*
X73888600Y-43891200D03*
D24*
X89281000Y-42545000D03*
X91440000Y-42545000D03*
X90043000Y-57023000D03*
X60960000Y-48895000D03*
X63119000Y-48895000D03*
X63627000Y-50673000D03*
X64516000Y-51562000D03*
X69469000Y-50800000D03*
X61595000Y-35433000D03*
X75184000Y-52578000D03*
D23*
X81203800Y-56134000D03*
X82169000Y-59690000D03*
X70612000Y-46863000D03*
X79883000Y-36830000D03*
D24*
X54610000Y-32893000D03*
D23*
G04 #@! TO.N,/Ethernet1/ETH_TX1-*
X35941000Y-39570660D03*
G04 #@! TO.N,/Ethernet1/ETH_TX1+*
X35941000Y-38915340D03*
G04 #@! TO.N,/Ethernet2/ETH_TX1+*
X116713000Y-52524660D03*
G04 #@! TO.N,/Ethernet2/ETH_TX1-*
X116713000Y-51869340D03*
G04 #@! TO.N,/EN_W2B*
X77851000Y-45466000D03*
X80010000Y-37592000D03*
G04 #@! TO.N,/ER_W2B*
X77851000Y-36830000D03*
X79756000Y-45212000D03*
G04 #@! TO.N,/CLK_W2B*
X80010000Y-36068000D03*
X78994000Y-45212000D03*
D24*
G04 #@! TO.N,/Ethernet1/gnd_eth*
X42545000Y-32512000D03*
G04 #@! TO.N,/Ethernet2/gnd_eth*
X109728000Y-58928000D03*
G04 #@! TO.N,/Ethernet1/ETH_CT0*
X43815000Y-36195000D03*
G04 #@! TO.N,/Ethernet1/ETH_CT1*
X43815000Y-40005000D03*
G04 #@! TO.N,/Ethernet1/ETH_CT2*
X43815000Y-43815000D03*
G04 #@! TO.N,/Ethernet1/ETH_CT3*
X43815000Y-47625000D03*
G04 #@! TO.N,/Ethernet2/ETH_CT0*
X108585000Y-55245000D03*
G04 #@! TO.N,/Ethernet2/ETH_CT1*
X108585000Y-51435000D03*
G04 #@! TO.N,/Ethernet2/ETH_CT2*
X108585000Y-47625000D03*
G04 #@! TO.N,/Ethernet2/ETH_CT3*
X108585000Y-43815000D03*
D23*
G04 #@! TO.N,/Ethernet1/XI*
X66014600Y-34569400D03*
X85344000Y-56515000D03*
X68580000Y-48260000D03*
G04 #@! TO.N,/Power_Supply/IntVcc*
X57785000Y-61976000D03*
X57785000Y-67183000D03*
G04 #@! TO.N,/Power_Supply/FB1*
X55626000Y-62230000D03*
G04 #@! TO.N,/Power_Supply/FB2*
X59944000Y-62230000D03*
G04 #@! TO.N,+2V5*
X73533000Y-48387000D03*
D24*
X59563000Y-57785000D03*
X58547000Y-57531000D03*
X56515000Y-50165000D03*
X58166000Y-50165000D03*
D23*
X71170800Y-45948600D03*
X66776600Y-45948600D03*
X68656200Y-35331400D03*
X83769200Y-56108600D03*
X85775800Y-45491400D03*
X80797400Y-45491400D03*
X74066400Y-37566600D03*
X74676000Y-40970200D03*
D24*
X65024000Y-48895000D03*
D23*
X78511400Y-54229000D03*
X77597000Y-50520600D03*
D24*
X87376000Y-42291000D03*
D23*
X86360000Y-61214000D03*
D24*
X100965000Y-40640000D03*
X77216000Y-44450000D03*
D23*
X79248000Y-35306000D03*
D24*
X54610000Y-31750000D03*
D23*
G04 #@! TO.N,/Power_Supply/PS_Vin*
X56515000Y-62357000D03*
X59055000Y-62357000D03*
D24*
X55245000Y-67818000D03*
D23*
G04 #@! TO.N,/Ethernet1/nRST*
X51943000Y-32108000D03*
D24*
G04 #@! TO.N,/Ethernet1/VDDAH*
X62738000Y-44958000D03*
X63500000Y-44958000D03*
D23*
X63373000Y-37592000D03*
X63246000Y-36830000D03*
X63220600Y-43510200D03*
G04 #@! TO.N,/Ethernet1/VDD*
X69977000Y-45948600D03*
X69316600Y-35331400D03*
X74676000Y-39471600D03*
X74295000Y-43256200D03*
D24*
X74041000Y-36195000D03*
X72009000Y-34544000D03*
D23*
G04 #@! TO.N,/Ethernet1/VDDAL*
X62839600Y-39116000D03*
X62433200Y-39497000D03*
X62179200Y-41757600D03*
X62153800Y-42214800D03*
G04 #@! TO.N,/Ethernet1/VDDAL_PLL*
X65989200Y-35331400D03*
D24*
G04 #@! TO.N,/Ethernet2/VDDAH*
X88900000Y-46482000D03*
D23*
X89128600Y-53517800D03*
X89128600Y-54051200D03*
X89128600Y-47929800D03*
D24*
X89662000Y-46482000D03*
D23*
G04 #@! TO.N,/Ethernet2/VDD*
X83083400Y-56108600D03*
X82270600Y-45212000D03*
X78206600Y-51968400D03*
D24*
X78613000Y-54991000D03*
X78613000Y-55753000D03*
D23*
X78409800Y-48615600D03*
G04 #@! TO.N,/Ethernet2/VDDAL*
X89128600Y-49530000D03*
X89585800Y-49657000D03*
X89128600Y-51917600D03*
X89585800Y-52070000D03*
G04 #@! TO.N,/Ethernet2/VDDAL_PLL*
X86436200Y-56108600D03*
D24*
G04 #@! TO.N,+1V1*
X54737000Y-56642000D03*
X57531000Y-56642000D03*
X56134000Y-57785000D03*
X93345000Y-42672000D03*
X88646000Y-60071000D03*
X76581000Y-56769000D03*
X59055000Y-48895000D03*
X75692000Y-34544000D03*
X61849000Y-33528000D03*
D23*
G04 #@! TO.N,/RXD0*
X75438000Y-38354000D03*
G04 #@! TO.N,/RXD1*
X77470000Y-39116000D03*
G04 #@! TO.N,/RXD2*
X75438000Y-39878000D03*
G04 #@! TO.N,/RXD3*
X77470000Y-40640000D03*
G04 #@! TO.N,/RXD4*
X75438000Y-41402000D03*
G04 #@! TO.N,/RXD5*
X77470000Y-42164000D03*
G04 #@! TO.N,/RXD6*
X75438000Y-42926000D03*
G04 #@! TO.N,/Ethernet1/RXCLK*
X77470000Y-36068000D03*
G04 #@! TO.N,/Ethernet1/RXDV*
X77470000Y-37592000D03*
G04 #@! TO.N,/Ethernet1/CLK125*
X59690000Y-32131000D03*
G04 #@! TO.N,/Ethernet1/LED2*
X66243200Y-46863000D03*
X52705000Y-49276000D03*
G04 #@! TO.N,/Ethernet1/LED1*
X52705000Y-51054000D03*
X67360800Y-47498000D03*
G04 #@! TO.N,/Ethernet2/LED1*
X85598000Y-44831000D03*
G04 #@! TO.N,/Ethernet2/LED2*
X86309200Y-44780200D03*
D24*
G04 #@! TO.N,/Ethernet1/ETH_CR3*
X55245000Y-47625000D03*
G04 #@! TO.N,/Ethernet1/ETH_CR2*
X55245000Y-43815000D03*
G04 #@! TO.N,/Ethernet1/ETH_CR1*
X55245000Y-40005000D03*
G04 #@! TO.N,/Ethernet1/ETH_CR0*
X55245000Y-36195000D03*
G04 #@! TO.N,/Ethernet2/ETH_CR3*
X97155000Y-43815000D03*
G04 #@! TO.N,/Ethernet2/ETH_CR2*
X97155000Y-47625000D03*
G04 #@! TO.N,/Ethernet2/ETH_CR1*
X97155000Y-51435000D03*
G04 #@! TO.N,/Ethernet2/ETH_CR0*
X97155000Y-55245000D03*
G04 #@! TD*
D25*
G04 #@! TO.N,/Ethernet1/ETH_TX1-*
X30861000Y-40767000D02*
X29950000Y-41678000D01*
X35806380Y-39436040D02*
X35131960Y-39436040D01*
X35941000Y-39570660D02*
X35806380Y-39436040D01*
X30861000Y-40513000D02*
X30861000Y-40767000D01*
X35131960Y-39436040D02*
X34496960Y-40071040D01*
X29950000Y-41678000D02*
X29950000Y-42164000D01*
X34496960Y-40071040D02*
X31302960Y-40071040D01*
X31302960Y-40071040D02*
X30861000Y-40513000D01*
G04 #@! TO.N,/Ethernet1/ETH_TX1+*
X35806380Y-39049960D02*
X34972040Y-39049960D01*
X35941000Y-38915340D02*
X35806380Y-39049960D01*
X34972040Y-39049960D02*
X34337040Y-39684960D01*
X34337040Y-39684960D02*
X31750000Y-39684960D01*
G04 #@! TO.N,/Ethernet2/ETH_TX1+*
X116847620Y-52390040D02*
X117427960Y-52390040D01*
X116713000Y-52524660D02*
X116847620Y-52390040D01*
X117427960Y-52390040D02*
X118062960Y-51755040D01*
X118062960Y-51755040D02*
X120650000Y-51755040D01*
G04 #@! TO.N,/Ethernet2/ETH_TX1-*
X122450000Y-49762000D02*
X122450000Y-49276000D01*
X121539000Y-50673000D02*
X122450000Y-49762000D01*
X116847620Y-52003960D02*
X117268040Y-52003960D01*
X116713000Y-51869340D02*
X116847620Y-52003960D01*
X121539000Y-50800000D02*
X121539000Y-50673000D01*
X117268040Y-52003960D02*
X117903040Y-51368960D01*
X117903040Y-51368960D02*
X120970040Y-51368960D01*
X120970040Y-51368960D02*
X121539000Y-50800000D01*
D26*
G04 #@! TO.N,/EN_W2B*
X80645000Y-42418000D02*
X77851000Y-45212000D01*
X80645000Y-38227000D02*
X80645000Y-42418000D01*
X80010000Y-37592000D02*
X80645000Y-38227000D01*
X77851000Y-45212000D02*
X77851000Y-45466000D01*
G04 #@! TO.N,/ER_W2B*
X78486000Y-36830000D02*
X77851000Y-36830000D01*
X80899000Y-35433000D02*
X79883000Y-35433000D01*
X79883000Y-35433000D02*
X78486000Y-36830000D01*
X81915000Y-36449000D02*
X80899000Y-35433000D01*
X79756000Y-45212000D02*
X81915000Y-43053000D01*
X81915000Y-43053000D02*
X81915000Y-36449000D01*
G04 #@! TO.N,/CLK_W2B*
X81280000Y-37338000D02*
X80010000Y-36068000D01*
X81280000Y-42926000D02*
X81280000Y-37338000D01*
X78994000Y-45212000D02*
X81280000Y-42926000D01*
G04 #@! TO.N,/Ethernet1/XI*
X68580000Y-50800000D02*
X68580000Y-48260000D01*
X75819000Y-58039000D02*
X68580000Y-50800000D01*
X85344000Y-56515000D02*
X83820000Y-58039000D01*
X83820000Y-58039000D02*
X75819000Y-58039000D01*
X68580000Y-47498000D02*
X67310000Y-46228000D01*
X68580000Y-48260000D02*
X68580000Y-47498000D01*
X67310000Y-45466000D02*
X65278000Y-43434000D01*
X65633600Y-34569400D02*
X66014600Y-34569400D01*
X65278000Y-43434000D02*
X65278000Y-34925000D01*
X67310000Y-46228000D02*
X67310000Y-45466000D01*
X65278000Y-34925000D02*
X65633600Y-34569400D01*
D27*
G04 #@! TO.N,/Power_Supply/IntVcc*
X57785000Y-61976000D02*
X57785000Y-62611000D01*
X57785000Y-62611000D02*
X58547000Y-63373000D01*
X58547000Y-63373000D02*
X59055000Y-63373000D01*
X59055000Y-63373000D02*
X59944000Y-64262000D01*
X59944000Y-64262000D02*
X59944000Y-65278000D01*
X59944000Y-65278000D02*
X58928000Y-66294000D01*
X58928000Y-66294000D02*
X58166000Y-66294000D01*
X57785000Y-66675000D02*
X57785000Y-67183000D01*
X58166000Y-66294000D02*
X57785000Y-66675000D01*
G04 #@! TO.N,/Power_Supply/PS_Vin*
X59055000Y-62357000D02*
X59055000Y-61595000D01*
D28*
G04 #@! TO.N,/Ethernet1/LED2*
X58928000Y-46863000D02*
X66243200Y-46863000D01*
X57404000Y-48387000D02*
X58928000Y-46863000D01*
X52705000Y-49276000D02*
X53594000Y-48387000D01*
X53594000Y-48387000D02*
X57404000Y-48387000D01*
G04 #@! TO.N,/Ethernet1/LED1*
X66852800Y-48006000D02*
X67360800Y-47498000D01*
X58801000Y-48006000D02*
X66852800Y-48006000D01*
X57785000Y-49022000D02*
X58801000Y-48006000D01*
X54356000Y-49022000D02*
X57785000Y-49022000D01*
X52705000Y-51054000D02*
X52705000Y-50673000D01*
X52705000Y-50673000D02*
X54356000Y-49022000D01*
G04 #@! TD*
D29*
G04 #@! TO.N,/Power_Supply/PS_Vin*
G36*
X59563000Y-59234606D02*
X59563000Y-61820737D01*
X59470272Y-61913465D01*
X59391764Y-62103000D01*
X58599606Y-62103000D01*
X58547000Y-62050394D01*
X58547000Y-61468000D01*
X58537333Y-61419399D01*
X58509803Y-61378197D01*
X58382803Y-61251197D01*
X58341601Y-61223667D01*
X58293000Y-61214000D01*
X57277000Y-61214000D01*
X57228399Y-61223667D01*
X57187197Y-61251197D01*
X57060197Y-61378197D01*
X57032667Y-61419399D01*
X57023000Y-61468000D01*
X57023000Y-63320394D01*
X56970394Y-63373000D01*
X56007000Y-63373000D01*
X55958399Y-63382667D01*
X55917197Y-63410197D01*
X55790197Y-63537197D01*
X55762667Y-63578399D01*
X55753000Y-63627000D01*
X55753000Y-67765394D01*
X55700394Y-67818000D01*
X52884606Y-67818000D01*
X52832000Y-67765394D01*
X52832000Y-62118848D01*
X55067200Y-62118848D01*
X55067200Y-62341152D01*
X55152272Y-62546535D01*
X55309465Y-62703728D01*
X55514848Y-62788800D01*
X55737152Y-62788800D01*
X55942535Y-62703728D01*
X56099728Y-62546535D01*
X56184800Y-62341152D01*
X56184800Y-62118848D01*
X56099728Y-61913465D01*
X55942535Y-61756272D01*
X55737152Y-61671200D01*
X55514848Y-61671200D01*
X55309465Y-61756272D01*
X55152272Y-61913465D01*
X55067200Y-62118848D01*
X52832000Y-62118848D01*
X52832000Y-59234606D01*
X52884606Y-59182000D01*
X59510394Y-59182000D01*
X59563000Y-59234606D01*
X59563000Y-59234606D01*
G37*
X59563000Y-59234606D02*
X59563000Y-61820737D01*
X59470272Y-61913465D01*
X59391764Y-62103000D01*
X58599606Y-62103000D01*
X58547000Y-62050394D01*
X58547000Y-61468000D01*
X58537333Y-61419399D01*
X58509803Y-61378197D01*
X58382803Y-61251197D01*
X58341601Y-61223667D01*
X58293000Y-61214000D01*
X57277000Y-61214000D01*
X57228399Y-61223667D01*
X57187197Y-61251197D01*
X57060197Y-61378197D01*
X57032667Y-61419399D01*
X57023000Y-61468000D01*
X57023000Y-63320394D01*
X56970394Y-63373000D01*
X56007000Y-63373000D01*
X55958399Y-63382667D01*
X55917197Y-63410197D01*
X55790197Y-63537197D01*
X55762667Y-63578399D01*
X55753000Y-63627000D01*
X55753000Y-67765394D01*
X55700394Y-67818000D01*
X52884606Y-67818000D01*
X52832000Y-67765394D01*
X52832000Y-62118848D01*
X55067200Y-62118848D01*
X55067200Y-62341152D01*
X55152272Y-62546535D01*
X55309465Y-62703728D01*
X55514848Y-62788800D01*
X55737152Y-62788800D01*
X55942535Y-62703728D01*
X56099728Y-62546535D01*
X56184800Y-62341152D01*
X56184800Y-62118848D01*
X56099728Y-61913465D01*
X55942535Y-61756272D01*
X55737152Y-61671200D01*
X55514848Y-61671200D01*
X55309465Y-61756272D01*
X55152272Y-61913465D01*
X55067200Y-62118848D01*
X52832000Y-62118848D01*
X52832000Y-59234606D01*
X52884606Y-59182000D01*
X59510394Y-59182000D01*
X59563000Y-59234606D01*
D30*
G04 #@! TO.N,+2V5*
G36*
X60858400Y-49699084D02*
X60858400Y-53544158D01*
X60702783Y-53479700D01*
X60455217Y-53479700D01*
X60226495Y-53574439D01*
X60116300Y-53684634D01*
X60090561Y-53622495D01*
X59915505Y-53447439D01*
X59686783Y-53352700D01*
X59439217Y-53352700D01*
X59210495Y-53447439D01*
X59035439Y-53622495D01*
X58940700Y-53851217D01*
X58940700Y-54098783D01*
X59035439Y-54327505D01*
X59210495Y-54502561D01*
X59439217Y-54597300D01*
X59686783Y-54597300D01*
X59915505Y-54502561D01*
X60025700Y-54392366D01*
X60051439Y-54454505D01*
X60226495Y-54629561D01*
X60455217Y-54724300D01*
X60702783Y-54724300D01*
X60858400Y-54659842D01*
X60858400Y-58250916D01*
X60790916Y-58318400D01*
X58407300Y-58318400D01*
X58407300Y-58296217D01*
X58312561Y-58067495D01*
X58137505Y-57892439D01*
X57908783Y-57797700D01*
X57661217Y-57797700D01*
X57432495Y-57892439D01*
X57257439Y-58067495D01*
X57162700Y-58296217D01*
X57162700Y-58318400D01*
X56472408Y-58318400D01*
X56486505Y-58312561D01*
X56661561Y-58137505D01*
X56756300Y-57908783D01*
X56756300Y-57661217D01*
X56661561Y-57432495D01*
X56486505Y-57257439D01*
X56257783Y-57162700D01*
X56010217Y-57162700D01*
X55781495Y-57257439D01*
X55606439Y-57432495D01*
X55511700Y-57661217D01*
X55511700Y-57908783D01*
X55606439Y-58137505D01*
X55781495Y-58312561D01*
X55795592Y-58318400D01*
X54779084Y-58318400D01*
X54711600Y-58250916D01*
X54711600Y-57264300D01*
X54860783Y-57264300D01*
X55089505Y-57169561D01*
X55264561Y-56994505D01*
X55359300Y-56765783D01*
X55359300Y-56518217D01*
X56908700Y-56518217D01*
X56908700Y-56765783D01*
X57003439Y-56994505D01*
X57178495Y-57169561D01*
X57407217Y-57264300D01*
X57654783Y-57264300D01*
X57883505Y-57169561D01*
X58058561Y-56994505D01*
X58153300Y-56765783D01*
X58153300Y-56518217D01*
X58058561Y-56289495D01*
X57883505Y-56114439D01*
X57654783Y-56019700D01*
X57407217Y-56019700D01*
X57178495Y-56114439D01*
X57003439Y-56289495D01*
X56908700Y-56518217D01*
X55359300Y-56518217D01*
X55264561Y-56289495D01*
X55089505Y-56114439D01*
X54860783Y-56019700D01*
X54711600Y-56019700D01*
X54711600Y-54867217D01*
X57670700Y-54867217D01*
X57670700Y-55114783D01*
X57765439Y-55343505D01*
X57940495Y-55518561D01*
X58169217Y-55613300D01*
X58416783Y-55613300D01*
X58645505Y-55518561D01*
X58820561Y-55343505D01*
X58915300Y-55114783D01*
X58915300Y-54867217D01*
X58820561Y-54638495D01*
X58645505Y-54463439D01*
X58416783Y-54368700D01*
X58169217Y-54368700D01*
X57940495Y-54463439D01*
X57765439Y-54638495D01*
X57670700Y-54867217D01*
X54711600Y-54867217D01*
X54711600Y-54470300D01*
X54860783Y-54470300D01*
X55089505Y-54375561D01*
X55264561Y-54200505D01*
X55359300Y-53971783D01*
X55359300Y-53724217D01*
X56908700Y-53724217D01*
X56908700Y-53971783D01*
X57003439Y-54200505D01*
X57178495Y-54375561D01*
X57407217Y-54470300D01*
X57654783Y-54470300D01*
X57883505Y-54375561D01*
X58058561Y-54200505D01*
X58153300Y-53971783D01*
X58153300Y-53724217D01*
X58058561Y-53495495D01*
X57883505Y-53320439D01*
X57654783Y-53225700D01*
X57407217Y-53225700D01*
X57178495Y-53320439D01*
X57003439Y-53495495D01*
X56908700Y-53724217D01*
X55359300Y-53724217D01*
X55264561Y-53495495D01*
X55089505Y-53320439D01*
X54860783Y-53225700D01*
X54711600Y-53225700D01*
X54711600Y-52581217D01*
X55511700Y-52581217D01*
X55511700Y-52828783D01*
X55606439Y-53057505D01*
X55781495Y-53232561D01*
X56010217Y-53327300D01*
X56257783Y-53327300D01*
X56486505Y-53232561D01*
X56661561Y-53057505D01*
X56756300Y-52828783D01*
X56756300Y-52581217D01*
X56661561Y-52352495D01*
X56486505Y-52177439D01*
X56257783Y-52082700D01*
X56010217Y-52082700D01*
X55781495Y-52177439D01*
X55606439Y-52352495D01*
X55511700Y-52581217D01*
X54711600Y-52581217D01*
X54711600Y-49699084D01*
X54779084Y-49631600D01*
X60790916Y-49631600D01*
X60858400Y-49699084D01*
X60858400Y-49699084D01*
G37*
X60858400Y-49699084D02*
X60858400Y-53544158D01*
X60702783Y-53479700D01*
X60455217Y-53479700D01*
X60226495Y-53574439D01*
X60116300Y-53684634D01*
X60090561Y-53622495D01*
X59915505Y-53447439D01*
X59686783Y-53352700D01*
X59439217Y-53352700D01*
X59210495Y-53447439D01*
X59035439Y-53622495D01*
X58940700Y-53851217D01*
X58940700Y-54098783D01*
X59035439Y-54327505D01*
X59210495Y-54502561D01*
X59439217Y-54597300D01*
X59686783Y-54597300D01*
X59915505Y-54502561D01*
X60025700Y-54392366D01*
X60051439Y-54454505D01*
X60226495Y-54629561D01*
X60455217Y-54724300D01*
X60702783Y-54724300D01*
X60858400Y-54659842D01*
X60858400Y-58250916D01*
X60790916Y-58318400D01*
X58407300Y-58318400D01*
X58407300Y-58296217D01*
X58312561Y-58067495D01*
X58137505Y-57892439D01*
X57908783Y-57797700D01*
X57661217Y-57797700D01*
X57432495Y-57892439D01*
X57257439Y-58067495D01*
X57162700Y-58296217D01*
X57162700Y-58318400D01*
X56472408Y-58318400D01*
X56486505Y-58312561D01*
X56661561Y-58137505D01*
X56756300Y-57908783D01*
X56756300Y-57661217D01*
X56661561Y-57432495D01*
X56486505Y-57257439D01*
X56257783Y-57162700D01*
X56010217Y-57162700D01*
X55781495Y-57257439D01*
X55606439Y-57432495D01*
X55511700Y-57661217D01*
X55511700Y-57908783D01*
X55606439Y-58137505D01*
X55781495Y-58312561D01*
X55795592Y-58318400D01*
X54779084Y-58318400D01*
X54711600Y-58250916D01*
X54711600Y-57264300D01*
X54860783Y-57264300D01*
X55089505Y-57169561D01*
X55264561Y-56994505D01*
X55359300Y-56765783D01*
X55359300Y-56518217D01*
X56908700Y-56518217D01*
X56908700Y-56765783D01*
X57003439Y-56994505D01*
X57178495Y-57169561D01*
X57407217Y-57264300D01*
X57654783Y-57264300D01*
X57883505Y-57169561D01*
X58058561Y-56994505D01*
X58153300Y-56765783D01*
X58153300Y-56518217D01*
X58058561Y-56289495D01*
X57883505Y-56114439D01*
X57654783Y-56019700D01*
X57407217Y-56019700D01*
X57178495Y-56114439D01*
X57003439Y-56289495D01*
X56908700Y-56518217D01*
X55359300Y-56518217D01*
X55264561Y-56289495D01*
X55089505Y-56114439D01*
X54860783Y-56019700D01*
X54711600Y-56019700D01*
X54711600Y-54867217D01*
X57670700Y-54867217D01*
X57670700Y-55114783D01*
X57765439Y-55343505D01*
X57940495Y-55518561D01*
X58169217Y-55613300D01*
X58416783Y-55613300D01*
X58645505Y-55518561D01*
X58820561Y-55343505D01*
X58915300Y-55114783D01*
X58915300Y-54867217D01*
X58820561Y-54638495D01*
X58645505Y-54463439D01*
X58416783Y-54368700D01*
X58169217Y-54368700D01*
X57940495Y-54463439D01*
X57765439Y-54638495D01*
X57670700Y-54867217D01*
X54711600Y-54867217D01*
X54711600Y-54470300D01*
X54860783Y-54470300D01*
X55089505Y-54375561D01*
X55264561Y-54200505D01*
X55359300Y-53971783D01*
X55359300Y-53724217D01*
X56908700Y-53724217D01*
X56908700Y-53971783D01*
X57003439Y-54200505D01*
X57178495Y-54375561D01*
X57407217Y-54470300D01*
X57654783Y-54470300D01*
X57883505Y-54375561D01*
X58058561Y-54200505D01*
X58153300Y-53971783D01*
X58153300Y-53724217D01*
X58058561Y-53495495D01*
X57883505Y-53320439D01*
X57654783Y-53225700D01*
X57407217Y-53225700D01*
X57178495Y-53320439D01*
X57003439Y-53495495D01*
X56908700Y-53724217D01*
X55359300Y-53724217D01*
X55264561Y-53495495D01*
X55089505Y-53320439D01*
X54860783Y-53225700D01*
X54711600Y-53225700D01*
X54711600Y-52581217D01*
X55511700Y-52581217D01*
X55511700Y-52828783D01*
X55606439Y-53057505D01*
X55781495Y-53232561D01*
X56010217Y-53327300D01*
X56257783Y-53327300D01*
X56486505Y-53232561D01*
X56661561Y-53057505D01*
X56756300Y-52828783D01*
X56756300Y-52581217D01*
X56661561Y-52352495D01*
X56486505Y-52177439D01*
X56257783Y-52082700D01*
X56010217Y-52082700D01*
X55781495Y-52177439D01*
X55606439Y-52352495D01*
X55511700Y-52581217D01*
X54711600Y-52581217D01*
X54711600Y-49699084D01*
X54779084Y-49631600D01*
X60790916Y-49631600D01*
X60858400Y-49699084D01*
G04 #@! TO.N,/Ethernet2/VDDAH*
G36*
X91973400Y-45889084D02*
X91973400Y-54440916D01*
X91905916Y-54508400D01*
X87164084Y-54508400D01*
X87096600Y-54440916D01*
X87096600Y-51812511D01*
X88600280Y-51812511D01*
X88600280Y-52022689D01*
X88680712Y-52216869D01*
X88829331Y-52365488D01*
X89023511Y-52445920D01*
X89214563Y-52445920D01*
X89286531Y-52517888D01*
X89480711Y-52598320D01*
X89690889Y-52598320D01*
X89885069Y-52517888D01*
X90033688Y-52369269D01*
X90114120Y-52175089D01*
X90114120Y-51964911D01*
X90033688Y-51770731D01*
X89885069Y-51622112D01*
X89690889Y-51541680D01*
X89499837Y-51541680D01*
X89427869Y-51469712D01*
X89233689Y-51389280D01*
X89023511Y-51389280D01*
X88829331Y-51469712D01*
X88680712Y-51618331D01*
X88600280Y-51812511D01*
X87096600Y-51812511D01*
X87096600Y-49424911D01*
X88600280Y-49424911D01*
X88600280Y-49635089D01*
X88680712Y-49829269D01*
X88829331Y-49977888D01*
X89023511Y-50058320D01*
X89233689Y-50058320D01*
X89238125Y-50056482D01*
X89286531Y-50104888D01*
X89480711Y-50185320D01*
X89690889Y-50185320D01*
X89885069Y-50104888D01*
X90033688Y-49956269D01*
X90114120Y-49762089D01*
X90114120Y-49551911D01*
X90033688Y-49357731D01*
X89885069Y-49209112D01*
X89690889Y-49128680D01*
X89480711Y-49128680D01*
X89476275Y-49130518D01*
X89427869Y-49082112D01*
X89233689Y-49001680D01*
X89023511Y-49001680D01*
X88829331Y-49082112D01*
X88680712Y-49230731D01*
X88600280Y-49424911D01*
X87096600Y-49424911D01*
X87096600Y-45889084D01*
X87164084Y-45821600D01*
X91905916Y-45821600D01*
X91973400Y-45889084D01*
X91973400Y-45889084D01*
G37*
X91973400Y-45889084D02*
X91973400Y-54440916D01*
X91905916Y-54508400D01*
X87164084Y-54508400D01*
X87096600Y-54440916D01*
X87096600Y-51812511D01*
X88600280Y-51812511D01*
X88600280Y-52022689D01*
X88680712Y-52216869D01*
X88829331Y-52365488D01*
X89023511Y-52445920D01*
X89214563Y-52445920D01*
X89286531Y-52517888D01*
X89480711Y-52598320D01*
X89690889Y-52598320D01*
X89885069Y-52517888D01*
X90033688Y-52369269D01*
X90114120Y-52175089D01*
X90114120Y-51964911D01*
X90033688Y-51770731D01*
X89885069Y-51622112D01*
X89690889Y-51541680D01*
X89499837Y-51541680D01*
X89427869Y-51469712D01*
X89233689Y-51389280D01*
X89023511Y-51389280D01*
X88829331Y-51469712D01*
X88680712Y-51618331D01*
X88600280Y-51812511D01*
X87096600Y-51812511D01*
X87096600Y-49424911D01*
X88600280Y-49424911D01*
X88600280Y-49635089D01*
X88680712Y-49829269D01*
X88829331Y-49977888D01*
X89023511Y-50058320D01*
X89233689Y-50058320D01*
X89238125Y-50056482D01*
X89286531Y-50104888D01*
X89480711Y-50185320D01*
X89690889Y-50185320D01*
X89885069Y-50104888D01*
X90033688Y-49956269D01*
X90114120Y-49762089D01*
X90114120Y-49551911D01*
X90033688Y-49357731D01*
X89885069Y-49209112D01*
X89690889Y-49128680D01*
X89480711Y-49128680D01*
X89476275Y-49130518D01*
X89427869Y-49082112D01*
X89233689Y-49001680D01*
X89023511Y-49001680D01*
X88829331Y-49082112D01*
X88680712Y-49230731D01*
X88600280Y-49424911D01*
X87096600Y-49424911D01*
X87096600Y-45889084D01*
X87164084Y-45821600D01*
X91905916Y-45821600D01*
X91973400Y-45889084D01*
G04 #@! TO.N,/Ethernet2/VDD*
G36*
X83718400Y-44619084D02*
X83718400Y-47750280D01*
X83690763Y-47750280D01*
X83451963Y-47849194D01*
X83269194Y-48031963D01*
X83220000Y-48150728D01*
X83170806Y-48031963D01*
X82988037Y-47849194D01*
X82749237Y-47750280D01*
X82490763Y-47750280D01*
X82251963Y-47849194D01*
X82069194Y-48031963D01*
X82020000Y-48150728D01*
X81970806Y-48031963D01*
X81788037Y-47849194D01*
X81549237Y-47750280D01*
X81290763Y-47750280D01*
X81051963Y-47849194D01*
X80869194Y-48031963D01*
X80770280Y-48270763D01*
X80770280Y-48529237D01*
X80869194Y-48768037D01*
X81051963Y-48950806D01*
X81170728Y-49000000D01*
X81051963Y-49049194D01*
X80869194Y-49231963D01*
X80770280Y-49470763D01*
X80770280Y-49729237D01*
X80869194Y-49968037D01*
X81051963Y-50150806D01*
X81170728Y-50200000D01*
X81051963Y-50249194D01*
X80869194Y-50431963D01*
X80770280Y-50670763D01*
X80770280Y-50929237D01*
X80869194Y-51168037D01*
X81051963Y-51350806D01*
X81170728Y-51400000D01*
X81051963Y-51449194D01*
X80869194Y-51631963D01*
X80770280Y-51870763D01*
X80770280Y-52129237D01*
X80869194Y-52368037D01*
X81051963Y-52550806D01*
X81170728Y-52600000D01*
X81051963Y-52649194D01*
X80869194Y-52831963D01*
X80770280Y-53070763D01*
X80770280Y-53329237D01*
X80869194Y-53568037D01*
X81051963Y-53750806D01*
X81290763Y-53849720D01*
X81549237Y-53849720D01*
X81788037Y-53750806D01*
X81970806Y-53568037D01*
X82020000Y-53449272D01*
X82069194Y-53568037D01*
X82251963Y-53750806D01*
X82490763Y-53849720D01*
X82749237Y-53849720D01*
X82988037Y-53750806D01*
X83170806Y-53568037D01*
X83220000Y-53449272D01*
X83269194Y-53568037D01*
X83451963Y-53750806D01*
X83690763Y-53849720D01*
X83718400Y-53849720D01*
X83718400Y-55580280D01*
X83664111Y-55580280D01*
X83469931Y-55660712D01*
X83321312Y-55809331D01*
X83240880Y-56003511D01*
X83240880Y-56213689D01*
X83321312Y-56407869D01*
X83326843Y-56413400D01*
X81659918Y-56413400D01*
X81732120Y-56239089D01*
X81732120Y-56028911D01*
X81651688Y-55834731D01*
X81503069Y-55686112D01*
X81308889Y-55605680D01*
X81098711Y-55605680D01*
X80904531Y-55686112D01*
X80755912Y-55834731D01*
X80675480Y-56028911D01*
X80675480Y-56239089D01*
X80747682Y-56413400D01*
X77098281Y-56413400D01*
X76936600Y-56251719D01*
X76936600Y-54123911D01*
X77983080Y-54123911D01*
X77983080Y-54334089D01*
X78063512Y-54528269D01*
X78212131Y-54676888D01*
X78406311Y-54757320D01*
X78616489Y-54757320D01*
X78810669Y-54676888D01*
X78959288Y-54528269D01*
X79039720Y-54334089D01*
X79039720Y-54123911D01*
X78959288Y-53929731D01*
X78810669Y-53781112D01*
X78616489Y-53700680D01*
X78406311Y-53700680D01*
X78212131Y-53781112D01*
X78063512Y-53929731D01*
X77983080Y-54123911D01*
X76936600Y-54123911D01*
X76936600Y-50415511D01*
X77068680Y-50415511D01*
X77068680Y-50625689D01*
X77149112Y-50819869D01*
X77297731Y-50968488D01*
X77491911Y-51048920D01*
X77702089Y-51048920D01*
X77896269Y-50968488D01*
X78044888Y-50819869D01*
X78125320Y-50625689D01*
X78125320Y-50415511D01*
X78044888Y-50221331D01*
X77896269Y-50072712D01*
X77702089Y-49992280D01*
X77491911Y-49992280D01*
X77297731Y-50072712D01*
X77149112Y-50221331D01*
X77068680Y-50415511D01*
X76936600Y-50415511D01*
X76936600Y-45002343D01*
X77093227Y-45067220D01*
X77338773Y-45067220D01*
X77517635Y-44993133D01*
X77475358Y-45056405D01*
X77473207Y-45067220D01*
X77465903Y-45103940D01*
X77403112Y-45166731D01*
X77322680Y-45360911D01*
X77322680Y-45571089D01*
X77403112Y-45765269D01*
X77551731Y-45913888D01*
X77745911Y-45994320D01*
X77956089Y-45994320D01*
X78150269Y-45913888D01*
X78298888Y-45765269D01*
X78379320Y-45571089D01*
X78379320Y-45360911D01*
X78346143Y-45280816D01*
X78465680Y-45161279D01*
X78465680Y-45317089D01*
X78546112Y-45511269D01*
X78694731Y-45659888D01*
X78888911Y-45740320D01*
X79099089Y-45740320D01*
X79293269Y-45659888D01*
X79375000Y-45578157D01*
X79456731Y-45659888D01*
X79650911Y-45740320D01*
X79861089Y-45740320D01*
X80055269Y-45659888D01*
X80203888Y-45511269D01*
X80255647Y-45386311D01*
X80269080Y-45386311D01*
X80269080Y-45596489D01*
X80349512Y-45790669D01*
X80498131Y-45939288D01*
X80692311Y-46019720D01*
X80902489Y-46019720D01*
X81096669Y-45939288D01*
X81245288Y-45790669D01*
X81325720Y-45596489D01*
X81325720Y-45386311D01*
X81245288Y-45192131D01*
X81096669Y-45043512D01*
X80902489Y-44963080D01*
X80692311Y-44963080D01*
X80498131Y-45043512D01*
X80349512Y-45192131D01*
X80269080Y-45386311D01*
X80255647Y-45386311D01*
X80284320Y-45317089D01*
X80284320Y-45247639D01*
X80980359Y-44551600D01*
X83650916Y-44551600D01*
X83718400Y-44619084D01*
X83718400Y-44619084D01*
G37*
X83718400Y-44619084D02*
X83718400Y-47750280D01*
X83690763Y-47750280D01*
X83451963Y-47849194D01*
X83269194Y-48031963D01*
X83220000Y-48150728D01*
X83170806Y-48031963D01*
X82988037Y-47849194D01*
X82749237Y-47750280D01*
X82490763Y-47750280D01*
X82251963Y-47849194D01*
X82069194Y-48031963D01*
X82020000Y-48150728D01*
X81970806Y-48031963D01*
X81788037Y-47849194D01*
X81549237Y-47750280D01*
X81290763Y-47750280D01*
X81051963Y-47849194D01*
X80869194Y-48031963D01*
X80770280Y-48270763D01*
X80770280Y-48529237D01*
X80869194Y-48768037D01*
X81051963Y-48950806D01*
X81170728Y-49000000D01*
X81051963Y-49049194D01*
X80869194Y-49231963D01*
X80770280Y-49470763D01*
X80770280Y-49729237D01*
X80869194Y-49968037D01*
X81051963Y-50150806D01*
X81170728Y-50200000D01*
X81051963Y-50249194D01*
X80869194Y-50431963D01*
X80770280Y-50670763D01*
X80770280Y-50929237D01*
X80869194Y-51168037D01*
X81051963Y-51350806D01*
X81170728Y-51400000D01*
X81051963Y-51449194D01*
X80869194Y-51631963D01*
X80770280Y-51870763D01*
X80770280Y-52129237D01*
X80869194Y-52368037D01*
X81051963Y-52550806D01*
X81170728Y-52600000D01*
X81051963Y-52649194D01*
X80869194Y-52831963D01*
X80770280Y-53070763D01*
X80770280Y-53329237D01*
X80869194Y-53568037D01*
X81051963Y-53750806D01*
X81290763Y-53849720D01*
X81549237Y-53849720D01*
X81788037Y-53750806D01*
X81970806Y-53568037D01*
X82020000Y-53449272D01*
X82069194Y-53568037D01*
X82251963Y-53750806D01*
X82490763Y-53849720D01*
X82749237Y-53849720D01*
X82988037Y-53750806D01*
X83170806Y-53568037D01*
X83220000Y-53449272D01*
X83269194Y-53568037D01*
X83451963Y-53750806D01*
X83690763Y-53849720D01*
X83718400Y-53849720D01*
X83718400Y-55580280D01*
X83664111Y-55580280D01*
X83469931Y-55660712D01*
X83321312Y-55809331D01*
X83240880Y-56003511D01*
X83240880Y-56213689D01*
X83321312Y-56407869D01*
X83326843Y-56413400D01*
X81659918Y-56413400D01*
X81732120Y-56239089D01*
X81732120Y-56028911D01*
X81651688Y-55834731D01*
X81503069Y-55686112D01*
X81308889Y-55605680D01*
X81098711Y-55605680D01*
X80904531Y-55686112D01*
X80755912Y-55834731D01*
X80675480Y-56028911D01*
X80675480Y-56239089D01*
X80747682Y-56413400D01*
X77098281Y-56413400D01*
X76936600Y-56251719D01*
X76936600Y-54123911D01*
X77983080Y-54123911D01*
X77983080Y-54334089D01*
X78063512Y-54528269D01*
X78212131Y-54676888D01*
X78406311Y-54757320D01*
X78616489Y-54757320D01*
X78810669Y-54676888D01*
X78959288Y-54528269D01*
X79039720Y-54334089D01*
X79039720Y-54123911D01*
X78959288Y-53929731D01*
X78810669Y-53781112D01*
X78616489Y-53700680D01*
X78406311Y-53700680D01*
X78212131Y-53781112D01*
X78063512Y-53929731D01*
X77983080Y-54123911D01*
X76936600Y-54123911D01*
X76936600Y-50415511D01*
X77068680Y-50415511D01*
X77068680Y-50625689D01*
X77149112Y-50819869D01*
X77297731Y-50968488D01*
X77491911Y-51048920D01*
X77702089Y-51048920D01*
X77896269Y-50968488D01*
X78044888Y-50819869D01*
X78125320Y-50625689D01*
X78125320Y-50415511D01*
X78044888Y-50221331D01*
X77896269Y-50072712D01*
X77702089Y-49992280D01*
X77491911Y-49992280D01*
X77297731Y-50072712D01*
X77149112Y-50221331D01*
X77068680Y-50415511D01*
X76936600Y-50415511D01*
X76936600Y-45002343D01*
X77093227Y-45067220D01*
X77338773Y-45067220D01*
X77517635Y-44993133D01*
X77475358Y-45056405D01*
X77473207Y-45067220D01*
X77465903Y-45103940D01*
X77403112Y-45166731D01*
X77322680Y-45360911D01*
X77322680Y-45571089D01*
X77403112Y-45765269D01*
X77551731Y-45913888D01*
X77745911Y-45994320D01*
X77956089Y-45994320D01*
X78150269Y-45913888D01*
X78298888Y-45765269D01*
X78379320Y-45571089D01*
X78379320Y-45360911D01*
X78346143Y-45280816D01*
X78465680Y-45161279D01*
X78465680Y-45317089D01*
X78546112Y-45511269D01*
X78694731Y-45659888D01*
X78888911Y-45740320D01*
X79099089Y-45740320D01*
X79293269Y-45659888D01*
X79375000Y-45578157D01*
X79456731Y-45659888D01*
X79650911Y-45740320D01*
X79861089Y-45740320D01*
X80055269Y-45659888D01*
X80203888Y-45511269D01*
X80255647Y-45386311D01*
X80269080Y-45386311D01*
X80269080Y-45596489D01*
X80349512Y-45790669D01*
X80498131Y-45939288D01*
X80692311Y-46019720D01*
X80902489Y-46019720D01*
X81096669Y-45939288D01*
X81245288Y-45790669D01*
X81325720Y-45596489D01*
X81325720Y-45386311D01*
X81245288Y-45192131D01*
X81096669Y-45043512D01*
X80902489Y-44963080D01*
X80692311Y-44963080D01*
X80498131Y-45043512D01*
X80349512Y-45192131D01*
X80269080Y-45386311D01*
X80255647Y-45386311D01*
X80284320Y-45317089D01*
X80284320Y-45247639D01*
X80980359Y-44551600D01*
X83650916Y-44551600D01*
X83718400Y-44619084D01*
G04 #@! TO.N,/Ethernet1/VDDAH*
G36*
X64668400Y-36364084D02*
X64668400Y-45550916D01*
X64600916Y-45618400D01*
X59859084Y-45618400D01*
X59791600Y-45550916D01*
X59791600Y-42109711D01*
X61625480Y-42109711D01*
X61625480Y-42319889D01*
X61705912Y-42514069D01*
X61854531Y-42662688D01*
X62048711Y-42743120D01*
X62258889Y-42743120D01*
X62453069Y-42662688D01*
X62601688Y-42514069D01*
X62682120Y-42319889D01*
X62682120Y-42109711D01*
X62643660Y-42016861D01*
X62707520Y-41862689D01*
X62707520Y-41652511D01*
X62627088Y-41458331D01*
X62478469Y-41309712D01*
X62284289Y-41229280D01*
X62074111Y-41229280D01*
X61879931Y-41309712D01*
X61731312Y-41458331D01*
X61650880Y-41652511D01*
X61650880Y-41862689D01*
X61689340Y-41955539D01*
X61625480Y-42109711D01*
X59791600Y-42109711D01*
X59791600Y-39391911D01*
X61904880Y-39391911D01*
X61904880Y-39602089D01*
X61985312Y-39796269D01*
X62133931Y-39944888D01*
X62328111Y-40025320D01*
X62538289Y-40025320D01*
X62732469Y-39944888D01*
X62881088Y-39796269D01*
X62944027Y-39644320D01*
X62944689Y-39644320D01*
X63138869Y-39563888D01*
X63287488Y-39415269D01*
X63367920Y-39221089D01*
X63367920Y-39010911D01*
X63287488Y-38816731D01*
X63138869Y-38668112D01*
X62944689Y-38587680D01*
X62734511Y-38587680D01*
X62540331Y-38668112D01*
X62391712Y-38816731D01*
X62328773Y-38968680D01*
X62328111Y-38968680D01*
X62133931Y-39049112D01*
X61985312Y-39197731D01*
X61904880Y-39391911D01*
X59791600Y-39391911D01*
X59791600Y-36364084D01*
X59859084Y-36296600D01*
X64600916Y-36296600D01*
X64668400Y-36364084D01*
X64668400Y-36364084D01*
G37*
X64668400Y-36364084D02*
X64668400Y-45550916D01*
X64600916Y-45618400D01*
X59859084Y-45618400D01*
X59791600Y-45550916D01*
X59791600Y-42109711D01*
X61625480Y-42109711D01*
X61625480Y-42319889D01*
X61705912Y-42514069D01*
X61854531Y-42662688D01*
X62048711Y-42743120D01*
X62258889Y-42743120D01*
X62453069Y-42662688D01*
X62601688Y-42514069D01*
X62682120Y-42319889D01*
X62682120Y-42109711D01*
X62643660Y-42016861D01*
X62707520Y-41862689D01*
X62707520Y-41652511D01*
X62627088Y-41458331D01*
X62478469Y-41309712D01*
X62284289Y-41229280D01*
X62074111Y-41229280D01*
X61879931Y-41309712D01*
X61731312Y-41458331D01*
X61650880Y-41652511D01*
X61650880Y-41862689D01*
X61689340Y-41955539D01*
X61625480Y-42109711D01*
X59791600Y-42109711D01*
X59791600Y-39391911D01*
X61904880Y-39391911D01*
X61904880Y-39602089D01*
X61985312Y-39796269D01*
X62133931Y-39944888D01*
X62328111Y-40025320D01*
X62538289Y-40025320D01*
X62732469Y-39944888D01*
X62881088Y-39796269D01*
X62944027Y-39644320D01*
X62944689Y-39644320D01*
X63138869Y-39563888D01*
X63287488Y-39415269D01*
X63367920Y-39221089D01*
X63367920Y-39010911D01*
X63287488Y-38816731D01*
X63138869Y-38668112D01*
X62944689Y-38587680D01*
X62734511Y-38587680D01*
X62540331Y-38668112D01*
X62391712Y-38816731D01*
X62328773Y-38968680D01*
X62328111Y-38968680D01*
X62133931Y-39049112D01*
X61985312Y-39197731D01*
X61904880Y-39391911D01*
X59791600Y-39391911D01*
X59791600Y-36364084D01*
X59859084Y-36296600D01*
X64600916Y-36296600D01*
X64668400Y-36364084D01*
G04 #@! TO.N,/Ethernet1/VDD*
G36*
X74828400Y-34459084D02*
X74828400Y-40461477D01*
X74781089Y-40441880D01*
X74570911Y-40441880D01*
X74376731Y-40522312D01*
X74228112Y-40670931D01*
X74147680Y-40865111D01*
X74147680Y-41075289D01*
X74228112Y-41269469D01*
X74376731Y-41418088D01*
X74570911Y-41498520D01*
X74781089Y-41498520D01*
X74828400Y-41478923D01*
X74828400Y-46185916D01*
X74760916Y-46253400D01*
X72414318Y-46253400D01*
X72486520Y-46079089D01*
X72486520Y-45868911D01*
X72406088Y-45674731D01*
X72257469Y-45526112D01*
X72063289Y-45445680D01*
X71853111Y-45445680D01*
X71658931Y-45526112D01*
X71577200Y-45607843D01*
X71470069Y-45500712D01*
X71275889Y-45420280D01*
X71065711Y-45420280D01*
X70871531Y-45500712D01*
X70722912Y-45649331D01*
X70642480Y-45843511D01*
X70642480Y-46053689D01*
X70722912Y-46247869D01*
X70728443Y-46253400D01*
X69631957Y-46253400D01*
X69637488Y-46247869D01*
X69717920Y-46053689D01*
X69717920Y-45843511D01*
X69637488Y-45649331D01*
X69488869Y-45500712D01*
X69294689Y-45420280D01*
X69084511Y-45420280D01*
X68890331Y-45500712D01*
X68741712Y-45649331D01*
X68681600Y-45794454D01*
X68681600Y-43786111D01*
X73360280Y-43786111D01*
X73360280Y-43996289D01*
X73440712Y-44190469D01*
X73589331Y-44339088D01*
X73783511Y-44419520D01*
X73993689Y-44419520D01*
X74187869Y-44339088D01*
X74336488Y-44190469D01*
X74416920Y-43996289D01*
X74416920Y-43786111D01*
X74336488Y-43591931D01*
X74187869Y-43443312D01*
X73993689Y-43362880D01*
X73783511Y-43362880D01*
X73589331Y-43443312D01*
X73440712Y-43591931D01*
X73360280Y-43786111D01*
X68681600Y-43786111D01*
X68681600Y-43689720D01*
X68709237Y-43689720D01*
X68948037Y-43590806D01*
X69130806Y-43408037D01*
X69180000Y-43289272D01*
X69229194Y-43408037D01*
X69411963Y-43590806D01*
X69650763Y-43689720D01*
X69909237Y-43689720D01*
X70148037Y-43590806D01*
X70330806Y-43408037D01*
X70380000Y-43289272D01*
X70429194Y-43408037D01*
X70611963Y-43590806D01*
X70850763Y-43689720D01*
X71109237Y-43689720D01*
X71348037Y-43590806D01*
X71530806Y-43408037D01*
X71629720Y-43169237D01*
X71629720Y-42910763D01*
X71530806Y-42671963D01*
X71348037Y-42489194D01*
X71229272Y-42440000D01*
X71348037Y-42390806D01*
X71530806Y-42208037D01*
X71629720Y-41969237D01*
X71629720Y-41710763D01*
X71530806Y-41471963D01*
X71348037Y-41289194D01*
X71229272Y-41240000D01*
X71348037Y-41190806D01*
X71530806Y-41008037D01*
X71629720Y-40769237D01*
X71629720Y-40510763D01*
X71530806Y-40271963D01*
X71348037Y-40089194D01*
X71229272Y-40040000D01*
X71348037Y-39990806D01*
X71530806Y-39808037D01*
X71629720Y-39569237D01*
X71629720Y-39310763D01*
X71530806Y-39071963D01*
X71348037Y-38889194D01*
X71229272Y-38840000D01*
X71348037Y-38790806D01*
X71530806Y-38608037D01*
X71629720Y-38369237D01*
X71629720Y-38110763D01*
X71530806Y-37871963D01*
X71348037Y-37689194D01*
X71109237Y-37590280D01*
X70850763Y-37590280D01*
X70611963Y-37689194D01*
X70429194Y-37871963D01*
X70380000Y-37990728D01*
X70330806Y-37871963D01*
X70148037Y-37689194D01*
X69909237Y-37590280D01*
X69650763Y-37590280D01*
X69411963Y-37689194D01*
X69229194Y-37871963D01*
X69180000Y-37990728D01*
X69130806Y-37871963D01*
X68948037Y-37689194D01*
X68709237Y-37590280D01*
X68681600Y-37590280D01*
X68681600Y-37461511D01*
X73538080Y-37461511D01*
X73538080Y-37671689D01*
X73618512Y-37865869D01*
X73767131Y-38014488D01*
X73961311Y-38094920D01*
X74171489Y-38094920D01*
X74365669Y-38014488D01*
X74514288Y-37865869D01*
X74594720Y-37671689D01*
X74594720Y-37461511D01*
X74514288Y-37267331D01*
X74365669Y-37118712D01*
X74171489Y-37038280D01*
X73961311Y-37038280D01*
X73767131Y-37118712D01*
X73618512Y-37267331D01*
X73538080Y-37461511D01*
X68681600Y-37461511D01*
X68681600Y-35859720D01*
X68761289Y-35859720D01*
X68955469Y-35779288D01*
X69104088Y-35630669D01*
X69184520Y-35436489D01*
X69184520Y-35226311D01*
X69114069Y-35056227D01*
X70629780Y-35056227D01*
X70629780Y-35301773D01*
X70723746Y-35528627D01*
X70897373Y-35702254D01*
X71124227Y-35796220D01*
X71369773Y-35796220D01*
X71596627Y-35702254D01*
X71770254Y-35528627D01*
X71864220Y-35301773D01*
X71864220Y-35056227D01*
X71770254Y-34829373D01*
X71596627Y-34655746D01*
X71369773Y-34561780D01*
X71124227Y-34561780D01*
X70897373Y-34655746D01*
X70723746Y-34829373D01*
X70629780Y-35056227D01*
X69114069Y-35056227D01*
X69104088Y-35032131D01*
X68955469Y-34883512D01*
X68761289Y-34803080D01*
X68681600Y-34803080D01*
X68681600Y-34459084D01*
X68749084Y-34391600D01*
X74760916Y-34391600D01*
X74828400Y-34459084D01*
X74828400Y-34459084D01*
G37*
X74828400Y-34459084D02*
X74828400Y-40461477D01*
X74781089Y-40441880D01*
X74570911Y-40441880D01*
X74376731Y-40522312D01*
X74228112Y-40670931D01*
X74147680Y-40865111D01*
X74147680Y-41075289D01*
X74228112Y-41269469D01*
X74376731Y-41418088D01*
X74570911Y-41498520D01*
X74781089Y-41498520D01*
X74828400Y-41478923D01*
X74828400Y-46185916D01*
X74760916Y-46253400D01*
X72414318Y-46253400D01*
X72486520Y-46079089D01*
X72486520Y-45868911D01*
X72406088Y-45674731D01*
X72257469Y-45526112D01*
X72063289Y-45445680D01*
X71853111Y-45445680D01*
X71658931Y-45526112D01*
X71577200Y-45607843D01*
X71470069Y-45500712D01*
X71275889Y-45420280D01*
X71065711Y-45420280D01*
X70871531Y-45500712D01*
X70722912Y-45649331D01*
X70642480Y-45843511D01*
X70642480Y-46053689D01*
X70722912Y-46247869D01*
X70728443Y-46253400D01*
X69631957Y-46253400D01*
X69637488Y-46247869D01*
X69717920Y-46053689D01*
X69717920Y-45843511D01*
X69637488Y-45649331D01*
X69488869Y-45500712D01*
X69294689Y-45420280D01*
X69084511Y-45420280D01*
X68890331Y-45500712D01*
X68741712Y-45649331D01*
X68681600Y-45794454D01*
X68681600Y-43786111D01*
X73360280Y-43786111D01*
X73360280Y-43996289D01*
X73440712Y-44190469D01*
X73589331Y-44339088D01*
X73783511Y-44419520D01*
X73993689Y-44419520D01*
X74187869Y-44339088D01*
X74336488Y-44190469D01*
X74416920Y-43996289D01*
X74416920Y-43786111D01*
X74336488Y-43591931D01*
X74187869Y-43443312D01*
X73993689Y-43362880D01*
X73783511Y-43362880D01*
X73589331Y-43443312D01*
X73440712Y-43591931D01*
X73360280Y-43786111D01*
X68681600Y-43786111D01*
X68681600Y-43689720D01*
X68709237Y-43689720D01*
X68948037Y-43590806D01*
X69130806Y-43408037D01*
X69180000Y-43289272D01*
X69229194Y-43408037D01*
X69411963Y-43590806D01*
X69650763Y-43689720D01*
X69909237Y-43689720D01*
X70148037Y-43590806D01*
X70330806Y-43408037D01*
X70380000Y-43289272D01*
X70429194Y-43408037D01*
X70611963Y-43590806D01*
X70850763Y-43689720D01*
X71109237Y-43689720D01*
X71348037Y-43590806D01*
X71530806Y-43408037D01*
X71629720Y-43169237D01*
X71629720Y-42910763D01*
X71530806Y-42671963D01*
X71348037Y-42489194D01*
X71229272Y-42440000D01*
X71348037Y-42390806D01*
X71530806Y-42208037D01*
X71629720Y-41969237D01*
X71629720Y-41710763D01*
X71530806Y-41471963D01*
X71348037Y-41289194D01*
X71229272Y-41240000D01*
X71348037Y-41190806D01*
X71530806Y-41008037D01*
X71629720Y-40769237D01*
X71629720Y-40510763D01*
X71530806Y-40271963D01*
X71348037Y-40089194D01*
X71229272Y-40040000D01*
X71348037Y-39990806D01*
X71530806Y-39808037D01*
X71629720Y-39569237D01*
X71629720Y-39310763D01*
X71530806Y-39071963D01*
X71348037Y-38889194D01*
X71229272Y-38840000D01*
X71348037Y-38790806D01*
X71530806Y-38608037D01*
X71629720Y-38369237D01*
X71629720Y-38110763D01*
X71530806Y-37871963D01*
X71348037Y-37689194D01*
X71109237Y-37590280D01*
X70850763Y-37590280D01*
X70611963Y-37689194D01*
X70429194Y-37871963D01*
X70380000Y-37990728D01*
X70330806Y-37871963D01*
X70148037Y-37689194D01*
X69909237Y-37590280D01*
X69650763Y-37590280D01*
X69411963Y-37689194D01*
X69229194Y-37871963D01*
X69180000Y-37990728D01*
X69130806Y-37871963D01*
X68948037Y-37689194D01*
X68709237Y-37590280D01*
X68681600Y-37590280D01*
X68681600Y-37461511D01*
X73538080Y-37461511D01*
X73538080Y-37671689D01*
X73618512Y-37865869D01*
X73767131Y-38014488D01*
X73961311Y-38094920D01*
X74171489Y-38094920D01*
X74365669Y-38014488D01*
X74514288Y-37865869D01*
X74594720Y-37671689D01*
X74594720Y-37461511D01*
X74514288Y-37267331D01*
X74365669Y-37118712D01*
X74171489Y-37038280D01*
X73961311Y-37038280D01*
X73767131Y-37118712D01*
X73618512Y-37267331D01*
X73538080Y-37461511D01*
X68681600Y-37461511D01*
X68681600Y-35859720D01*
X68761289Y-35859720D01*
X68955469Y-35779288D01*
X69104088Y-35630669D01*
X69184520Y-35436489D01*
X69184520Y-35226311D01*
X69114069Y-35056227D01*
X70629780Y-35056227D01*
X70629780Y-35301773D01*
X70723746Y-35528627D01*
X70897373Y-35702254D01*
X71124227Y-35796220D01*
X71369773Y-35796220D01*
X71596627Y-35702254D01*
X71770254Y-35528627D01*
X71864220Y-35301773D01*
X71864220Y-35056227D01*
X71770254Y-34829373D01*
X71596627Y-34655746D01*
X71369773Y-34561780D01*
X71124227Y-34561780D01*
X70897373Y-34655746D01*
X70723746Y-34829373D01*
X70629780Y-35056227D01*
X69114069Y-35056227D01*
X69104088Y-35032131D01*
X68955469Y-34883512D01*
X68761289Y-34803080D01*
X68681600Y-34803080D01*
X68681600Y-34459084D01*
X68749084Y-34391600D01*
X74760916Y-34391600D01*
X74828400Y-34459084D01*
G04 #@! TD*
M02*
