M48
;DRILL file {KiCad 5.0.2+dfsg1-1} date Fri 09 Dec 2022 08:13:49 PM PST
;FORMAT={-:-/ absolute / inch / decimal}
FMAT,2
INCH,TZ
T1C0.0080
T2C0.0098
T3C0.0150
T4C0.0157
T5C0.0236
T6C0.0315
T7C0.0350
T8C0.0433
%
G90
G05
T1
X1.7708Y-1.5392
X1.7892Y-1.5208
X2.025Y-1.25
X2.19Y-2.45
X2.225Y-2.455
X2.225Y-2.55
X2.245Y-2.645
X2.25Y-2.53
X2.25Y-2.57
X2.275Y-2.44
X2.275Y-2.55
X2.275Y-2.645
X2.3Y-2.53
X2.3Y-2.57
X2.315Y-1.6369
X2.315Y-1.663
X2.315Y-1.787
X2.315Y-1.8131
X2.315Y-2.645
X2.32Y-1.3369
X2.32Y-1.363
X2.32Y-1.4869
X2.32Y-1.5131
X2.325Y-2.455
X2.325Y-2.55
X2.36Y-2.45
X2.365Y-1.31
X2.438Y-1.674
X2.439Y-1.51
X2.449Y-1.605
X2.45Y-1.571
X2.46Y-1.445
X2.47Y-1.59
X2.47Y-1.73
X2.47Y-1.77
X2.55Y-1.85
X2.59Y-1.335
X2.5917Y-1.9
X2.615Y-1.835
X2.6325Y-1.3525
X2.645Y-1.835
X2.6525Y-1.37
X2.725Y-1.35
X2.75Y-1.325
X2.79Y-1.851
X2.795Y-1.35
X2.809Y-1.833
X2.815Y-1.37
X2.85Y-1.37
X2.88Y-1.835
X2.925Y-2.17
X2.93Y-1.665
X2.94Y-1.442
X2.94Y-1.482
X2.94Y-1.56
X2.94Y-1.6
X2.94Y-1.628
X2.9425Y-1.5325
X2.945Y-1.6875
X2.95Y-1.5075
X2.95Y-1.785
X2.975Y-2.23
X2.985Y-1.76
X3.025Y-2.255
X3.05Y-1.775
X3.051Y-2.087
X3.07Y-1.905
X3.07Y-1.935
X3.07Y-2.069
X3.1Y-1.425
X3.1Y-1.475
X3.1Y-1.525
X3.1Y-1.575
X3.165Y-2.415
X3.19Y-1.77
X3.19Y-2.23
X3.21Y-1.455
X3.21Y-2.25
X3.215Y-1.76
X3.225Y-2.35
X3.255Y-2.32
X3.255Y-2.47
X3.295Y-2.23
X3.295Y-2.26
X3.34Y-1.455
X3.345Y-2.23
X3.355Y-1.77
X3.365Y-2.25
X3.385Y-1.77
X3.39Y-1.74
X3.415Y-2.25
X3.45Y-1.76
X3.475Y-1.77
X3.53Y-1.83
X3.53Y-1.865
X3.55Y-2.01
X3.55Y-2.165
X3.56Y-1.93
X3.57Y-1.995
X3.57Y-2.025
X3.57Y-2.095
X3.675Y-1.787
X3.675Y-1.8131
X3.685Y-1.9369
X3.685Y-1.963
X3.685Y-2.0869
X3.685Y-2.113
X3.685Y-2.2369
X3.685Y-2.263
X3.76Y-2.375
X3.925Y-2.4
X4.2258Y-2.0792
X4.2442Y-2.0608
T2
X3.1917Y-1.8917
X3.1917Y-1.9459
X3.1917Y-2.
X3.1917Y-2.0541
X3.1917Y-2.1083
X3.2459Y-1.8917
X3.2459Y-1.9459
X3.2459Y-2.
X3.2459Y-2.0541
X3.2459Y-2.1083
X3.3Y-1.8917
X3.3Y-1.9459
X3.3Y-2.
X3.3Y-2.0541
X3.3Y-2.1083
X3.3541Y-1.8917
X3.3541Y-1.9459
X3.3541Y-2.
X3.3541Y-2.0541
X3.3541Y-2.1083
X3.4083Y-1.8917
X3.4083Y-1.9459
X3.4083Y-2.
X3.4083Y-2.0541
X3.4083Y-2.1083
X2.5917Y-1.4917
X2.5917Y-1.5459
X2.5917Y-1.6
X2.5917Y-1.6541
X2.5917Y-1.7083
X2.6459Y-1.4917
X2.6459Y-1.5459
X2.6459Y-1.6
X2.6459Y-1.6541
X2.6459Y-1.7083
X2.7Y-1.4917
X2.7Y-1.5459
X2.7Y-1.6
X2.7Y-1.6541
X2.7Y-1.7083
X2.7541Y-1.4917
X2.7541Y-1.5459
X2.7541Y-1.6
X2.7541Y-1.6541
X2.7541Y-1.7083
X2.8083Y-1.4917
X2.8083Y-1.5459
X2.8083Y-1.6
X2.8083Y-1.6541
X2.8083Y-1.7083
T3
X1.245Y-2.645
X1.245Y-2.755
X1.245Y-2.865
X1.675Y-1.28
X1.725Y-1.425
X1.725Y-1.575
X1.725Y-1.725
X1.725Y-1.875
X2.05Y-1.375
X2.05Y-1.5
X2.05Y-1.65
X2.05Y-1.8
X2.05Y-2.54
X2.05Y-2.57
X2.155Y-2.12
X2.155Y-2.23
X2.175Y-1.425
X2.175Y-1.575
X2.175Y-1.725
X2.175Y-1.875
X2.175Y-2.67
X2.21Y-2.075
X2.21Y-2.275
X2.265Y-2.12
X2.265Y-2.23
X2.275Y-2.3
X2.295Y-2.165
X2.305Y-2.265
X2.335Y-1.945
X2.345Y-2.125
X2.345Y-2.275
X2.38Y-1.435
X2.385Y-2.13
X2.39Y-1.705
X2.395Y-1.945
X2.395Y-2.005
X2.44Y-2.045
X2.455Y-2.54
X2.455Y-2.57
X2.465Y-1.24
X2.515Y-1.855
X2.585Y-2.05
X2.635Y-2.005
X3.53Y-2.37
X3.61Y-1.89
X3.64Y-2.15
X3.825Y-1.725
X3.825Y-1.875
X3.825Y-2.025
X3.825Y-2.175
X3.95Y-1.775
X3.95Y-1.925
X3.95Y-2.075
X3.95Y-2.225
X4.275Y-1.725
X4.275Y-1.875
X4.275Y-2.025
X4.275Y-2.175
X4.32Y-2.32
T4
X1.187Y-2.2829
X1.187Y-2.3163
X1.187Y-2.3498
X1.187Y-2.3833
X1.187Y-2.4167
X1.187Y-2.4502
X1.187Y-2.4837
X1.187Y-2.5171
X1.2402Y-2.2829
X1.2402Y-2.3163
X1.2402Y-2.3498
X1.2402Y-2.3833
X1.2402Y-2.4167
X1.2402Y-2.4502
X1.2402Y-2.4837
X1.2402Y-2.5171
T7
X1.1791Y-1.5
X1.1791Y-1.58
X1.1791Y-1.66
X1.1791Y-1.74
X1.2492Y-1.46
X1.2492Y-1.54
X1.2492Y-1.62
X1.2492Y-1.7
X4.7508Y-1.9
X4.7508Y-1.98
X4.7508Y-2.06
X4.7508Y-2.14
X4.8209Y-1.86
X4.8209Y-1.94
X4.8209Y-2.02
X4.8209Y-2.1
T8
X1.378Y-1.324
X1.378Y-1.424
X1.378Y-1.776
X1.378Y-1.876
X4.622Y-1.724
X4.622Y-1.824
X4.622Y-2.176
X4.622Y-2.276
T5
X1.0843Y-2.2297G85X1.0528Y-2.2297
G05
X1.0843Y-2.5703G85X1.0528Y-2.5703
G05
X1.2311Y-2.2297G85X1.172Y-2.2297
G05
X1.2311Y-2.5703G85X1.172Y-2.5703
G05
T6
X1.0886Y-1.285G85X1.0413Y-1.285
G05
X1.0886Y-1.915G85X1.0413Y-1.915
G05
X4.9114Y-1.685G85X4.9587Y-1.685
G05
X4.9114Y-2.315G85X4.9587Y-2.315
G05
T0
M30
