M48
;DRILL file {KiCad 5.0.2+dfsg1-1} date Mon 19 Dec 2022 09:08:34 AM PST
;FORMAT={-:-/ absolute / inch / decimal}
FMAT,2
INCH,TZ
T1C0.0080
T2C0.0130
T3C0.0150
T4C0.0157
T5C0.0236
T6C0.0315
T7C0.0350
T8C0.0433
%
G90
G05
T1
X1.415Y-1.5321
X1.415Y-1.5579
X2.045Y-1.2641
X2.075Y-1.94
X2.075Y-2.01
X2.19Y-2.45
X2.225Y-2.455
X2.225Y-2.55
X2.245Y-2.645
X2.25Y-2.53
X2.25Y-2.57
X2.275Y-2.44
X2.275Y-2.55
X2.275Y-2.645
X2.3Y-2.53
X2.3Y-2.57
X2.315Y-2.645
X2.325Y-2.455
X2.325Y-2.55
X2.35Y-1.265
X2.36Y-2.45
X2.447Y-1.662
X2.448Y-1.644
X2.458Y-1.555
X2.474Y-1.54
X2.489Y-1.713
X2.49Y-1.45
X2.495Y-1.48
X2.598Y-1.391
X2.599Y-1.361
X2.608Y-1.845
X2.629Y-1.809
X2.652Y-1.87
X2.676Y-1.809
X2.7Y-1.9
X2.703Y-1.391
X2.724Y-1.809
X2.729Y-1.391
X2.755Y-1.809
X2.78Y-1.845
X2.802Y-1.809
X2.833Y-1.81
X2.895Y-1.905
X2.909Y-1.728
X2.916Y-1.479
X2.925Y-1.703
X2.94Y-1.554
X2.94Y-1.613
X2.97Y-1.51
X2.97Y-1.57
X2.97Y-1.63
X2.97Y-1.69
X3.05Y-1.42
X3.05Y-1.48
X3.05Y-1.54
X3.05Y-1.6
X3.05Y-1.66
X3.055Y-1.989
X3.065Y-1.45
X3.065Y-1.79
X3.079Y-2.046
X3.087Y-1.914
X3.091Y-2.135
X3.11Y-1.78
X3.12Y-1.39
X3.14Y-1.78
X3.145Y-1.45
X3.15Y-1.42
X3.15Y-1.48
X3.181Y-1.791
X3.197Y-2.21
X3.235Y-2.35
X3.239Y-1.78
X3.271Y-2.209
X3.298Y-2.209
X3.36Y-2.225
X3.37Y-1.765
X3.377Y-1.791
X3.398Y-1.763
X3.4Y-2.41
X3.403Y-2.209
X3.509Y-1.887
X3.509Y-1.95
X3.509Y-2.044
X3.509Y-2.107
X3.509Y-2.128
X3.527Y-1.955
X3.527Y-2.05
X4.595Y-2.0421
X4.595Y-2.0679
T2
X3.2055Y-1.9055
X3.2055Y-1.9528
X3.2055Y-2.
X3.2055Y-2.0472
X3.2055Y-2.0945
X3.2528Y-1.9055
X3.2528Y-1.9528
X3.2528Y-2.
X3.2528Y-2.0472
X3.2528Y-2.0945
X3.3Y-1.9055
X3.3Y-1.9528
X3.3Y-2.
X3.3Y-2.0472
X3.3Y-2.0945
X3.3472Y-1.9055
X3.3472Y-1.9528
X3.3472Y-2.
X3.3472Y-2.0472
X3.3472Y-2.0945
X3.3945Y-1.9055
X3.3945Y-1.9528
X3.3945Y-2.
X3.3945Y-2.0472
X3.3945Y-2.0945
X2.6055Y-1.5055
X2.6055Y-1.5528
X2.6055Y-1.6
X2.6055Y-1.6472
X2.6055Y-1.6945
X2.6528Y-1.5055
X2.6528Y-1.5528
X2.6528Y-1.6
X2.6528Y-1.6472
X2.6528Y-1.6945
X2.7Y-1.5055
X2.7Y-1.5528
X2.7Y-1.6
X2.7Y-1.6472
X2.7Y-1.6945
X2.7472Y-1.5055
X2.7472Y-1.5528
X2.7472Y-1.6
X2.7472Y-1.6472
X2.7472Y-1.6945
X2.7945Y-1.5055
X2.7945Y-1.5528
X2.7945Y-1.6
X2.7945Y-1.6472
X2.7945Y-1.6945
T3
X1.245Y-2.645
X1.245Y-2.755
X1.245Y-2.865
X1.675Y-1.28
X1.725Y-1.425
X1.725Y-1.575
X1.725Y-1.725
X1.725Y-1.875
X2.05Y-2.54
X2.05Y-2.57
X2.075Y-1.425
X2.075Y-1.575
X2.075Y-1.725
X2.075Y-1.875
X2.15Y-1.25
X2.15Y-1.295
X2.155Y-2.12
X2.155Y-2.23
X2.175Y-1.425
X2.175Y-1.575
X2.175Y-1.725
X2.175Y-1.875
X2.175Y-2.67
X2.21Y-2.075
X2.21Y-2.275
X2.225Y-1.975
X2.265Y-2.12
X2.265Y-2.23
X2.275Y-2.3
X2.29Y-1.975
X2.295Y-2.165
X2.305Y-2.265
X2.325Y-1.925
X2.345Y-2.125
X2.345Y-2.275
X2.385Y-2.13
X2.4Y-1.925
X2.425Y-1.395
X2.435Y-1.32
X2.455Y-2.54
X2.455Y-2.57
X2.47Y-1.77
X2.485Y-1.925
X2.5Y-1.77
X2.505Y-1.995
X2.54Y-2.03
X2.56Y-1.925
X2.675Y-2.05
X2.735Y-2.
X2.805Y-1.385
X2.835Y-1.36
X2.915Y-1.425
X2.96Y-2.07
X2.98Y-1.36
X3.015Y-2.235
X3.04Y-1.75
X3.095Y-2.165
X3.095Y-2.19
X3.44Y-1.665
X3.49Y-2.365
X3.5Y-1.83
X3.515Y-1.675
X3.53Y-1.83
X3.545Y-2.245
X3.6Y-1.675
X3.675Y-1.68
X3.825Y-1.725
X3.825Y-1.875
X3.825Y-2.025
X3.825Y-2.175
X3.925Y-1.725
X3.925Y-1.875
X3.925Y-2.025
X3.925Y-2.175
X3.975Y-1.6
X4.275Y-1.725
X4.275Y-1.875
X4.275Y-2.025
X4.275Y-2.175
X4.32Y-2.32
T4
X1.187Y-2.2829
X1.187Y-2.3163
X1.187Y-2.3498
X1.187Y-2.3833
X1.187Y-2.4167
X1.187Y-2.4502
X1.187Y-2.4837
X1.187Y-2.5171
X1.2402Y-2.2829
X1.2402Y-2.3163
X1.2402Y-2.3498
X1.2402Y-2.3833
X1.2402Y-2.4167
X1.2402Y-2.4502
X1.2402Y-2.4837
X1.2402Y-2.5171
T7
X1.1791Y-1.5
X1.1791Y-1.58
X1.1791Y-1.66
X1.1791Y-1.74
X1.2492Y-1.46
X1.2492Y-1.54
X1.2492Y-1.62
X1.2492Y-1.7
X4.7508Y-1.9
X4.7508Y-1.98
X4.7508Y-2.06
X4.7508Y-2.14
X4.8209Y-1.86
X4.8209Y-1.94
X4.8209Y-2.02
X4.8209Y-2.1
T8
X1.378Y-1.324
X1.378Y-1.424
X1.378Y-1.776
X1.378Y-1.876
X4.622Y-1.724
X4.622Y-1.824
X4.622Y-2.176
X4.622Y-2.276
T5
X1.0843Y-2.2297G85X1.0528Y-2.2297
G05
X1.0843Y-2.5703G85X1.0528Y-2.5703
G05
X1.2311Y-2.2297G85X1.172Y-2.2297
G05
X1.2311Y-2.5703G85X1.172Y-2.5703
G05
T6
X1.0886Y-1.285G85X1.0413Y-1.285
G05
X1.0886Y-1.915G85X1.0413Y-1.915
G05
X4.9114Y-1.685G85X4.9587Y-1.685
G05
X4.9114Y-2.315G85X4.9587Y-2.315
G05
T0
M30
