G04 #@! TF.GenerationSoftware,KiCad,Pcbnew,5.0.2+dfsg1-1*
G04 #@! TF.CreationDate,2022-12-09T20:16:52-08:00*
G04 #@! TF.ProjectId,jvc43,6a766334-332e-46b6-9963-61645f706362,1*
G04 #@! TF.SameCoordinates,Original*
G04 #@! TF.FileFunction,Profile,NP*
%FSLAX46Y46*%
G04 Gerber Fmt 4.6, Leading zero omitted, Abs format (unit mm)*
G04 Created by KiCad (PCBNEW 5.0.2+dfsg1-1) date Fri 09 Dec 2022 08:16:52 PM PST*
%MOMM*%
%LPD*%
G01*
G04 APERTURE LIST*
%ADD10C,0.100000*%
%ADD11C,0.150000*%
%ADD12C,0.300000*%
%ADD13C,0.400000*%
%ADD14C,0.203200*%
G04 APERTURE END LIST*
D10*
D11*
X311800000Y-235400000D02*
X311800000Y-267400000D01*
X419800000Y-267400000D01*
X419800000Y-235400000D01*
X311800000Y-235400000D01*
D10*
D11*
X10000000Y-10000000D02*
X10000000Y-269400000D01*
X421800000Y-269400000D01*
X421800000Y-10000000D01*
X10000000Y-10000000D01*
D10*
D11*
X12000000Y-12000000D02*
X12000000Y-267400000D01*
X419800000Y-267400000D01*
X419800000Y-12000000D01*
X12000000Y-12000000D01*
D10*
D11*
X60000000Y-12000000D02*
X60000000Y-10000000D01*
D10*
D11*
X110000000Y-12000000D02*
X110000000Y-10000000D01*
D10*
D11*
X160000000Y-12000000D02*
X160000000Y-10000000D01*
D10*
D11*
X210000000Y-12000000D02*
X210000000Y-10000000D01*
D10*
D11*
X260000000Y-12000000D02*
X260000000Y-10000000D01*
D10*
D11*
X310000000Y-12000000D02*
X310000000Y-10000000D01*
D10*
D11*
X360000000Y-12000000D02*
X360000000Y-10000000D01*
D10*
D11*
X410000000Y-12000000D02*
X410000000Y-10000000D01*
D10*
D11*
X36065476Y-11588095D02*
X35322619Y-11588095D01*
X35694047Y-11588095D02*
X35694047Y-10288095D01*
X35570238Y-10473809D01*
X35446428Y-10597619D01*
X35322619Y-10659523D01*
D10*
D11*
X85322619Y-10411904D02*
X85384523Y-10350000D01*
X85508333Y-10288095D01*
X85817857Y-10288095D01*
X85941666Y-10350000D01*
X86003571Y-10411904D01*
X86065476Y-10535714D01*
X86065476Y-10659523D01*
X86003571Y-10845238D01*
X85260714Y-11588095D01*
X86065476Y-11588095D01*
D10*
D11*
X135260714Y-10288095D02*
X136065476Y-10288095D01*
X135632142Y-10783333D01*
X135817857Y-10783333D01*
X135941666Y-10845238D01*
X136003571Y-10907142D01*
X136065476Y-11030952D01*
X136065476Y-11340476D01*
X136003571Y-11464285D01*
X135941666Y-11526190D01*
X135817857Y-11588095D01*
X135446428Y-11588095D01*
X135322619Y-11526190D01*
X135260714Y-11464285D01*
D10*
D11*
X185941666Y-10721428D02*
X185941666Y-11588095D01*
X185632142Y-10226190D02*
X185322619Y-11154761D01*
X186127380Y-11154761D01*
D10*
D11*
X236003571Y-10288095D02*
X235384523Y-10288095D01*
X235322619Y-10907142D01*
X235384523Y-10845238D01*
X235508333Y-10783333D01*
X235817857Y-10783333D01*
X235941666Y-10845238D01*
X236003571Y-10907142D01*
X236065476Y-11030952D01*
X236065476Y-11340476D01*
X236003571Y-11464285D01*
X235941666Y-11526190D01*
X235817857Y-11588095D01*
X235508333Y-11588095D01*
X235384523Y-11526190D01*
X235322619Y-11464285D01*
D10*
D11*
X285941666Y-10288095D02*
X285694047Y-10288095D01*
X285570238Y-10350000D01*
X285508333Y-10411904D01*
X285384523Y-10597619D01*
X285322619Y-10845238D01*
X285322619Y-11340476D01*
X285384523Y-11464285D01*
X285446428Y-11526190D01*
X285570238Y-11588095D01*
X285817857Y-11588095D01*
X285941666Y-11526190D01*
X286003571Y-11464285D01*
X286065476Y-11340476D01*
X286065476Y-11030952D01*
X286003571Y-10907142D01*
X285941666Y-10845238D01*
X285817857Y-10783333D01*
X285570238Y-10783333D01*
X285446428Y-10845238D01*
X285384523Y-10907142D01*
X285322619Y-11030952D01*
D10*
D11*
X335260714Y-10288095D02*
X336127380Y-10288095D01*
X335570238Y-11588095D01*
D10*
D11*
X385570238Y-10845238D02*
X385446428Y-10783333D01*
X385384523Y-10721428D01*
X385322619Y-10597619D01*
X385322619Y-10535714D01*
X385384523Y-10411904D01*
X385446428Y-10350000D01*
X385570238Y-10288095D01*
X385817857Y-10288095D01*
X385941666Y-10350000D01*
X386003571Y-10411904D01*
X386065476Y-10535714D01*
X386065476Y-10597619D01*
X386003571Y-10721428D01*
X385941666Y-10783333D01*
X385817857Y-10845238D01*
X385570238Y-10845238D01*
X385446428Y-10907142D01*
X385384523Y-10969047D01*
X385322619Y-11092857D01*
X385322619Y-11340476D01*
X385384523Y-11464285D01*
X385446428Y-11526190D01*
X385570238Y-11588095D01*
X385817857Y-11588095D01*
X385941666Y-11526190D01*
X386003571Y-11464285D01*
X386065476Y-11340476D01*
X386065476Y-11092857D01*
X386003571Y-10969047D01*
X385941666Y-10907142D01*
X385817857Y-10845238D01*
D10*
D11*
X60000000Y-267400000D02*
X60000000Y-269400000D01*
D10*
D11*
X110000000Y-267400000D02*
X110000000Y-269400000D01*
D10*
D11*
X160000000Y-267400000D02*
X160000000Y-269400000D01*
D10*
D11*
X210000000Y-267400000D02*
X210000000Y-269400000D01*
D10*
D11*
X260000000Y-267400000D02*
X260000000Y-269400000D01*
D10*
D11*
X310000000Y-267400000D02*
X310000000Y-269400000D01*
D10*
D11*
X360000000Y-267400000D02*
X360000000Y-269400000D01*
D10*
D11*
X410000000Y-267400000D02*
X410000000Y-269400000D01*
D10*
D11*
X36065476Y-268988095D02*
X35322619Y-268988095D01*
X35694047Y-268988095D02*
X35694047Y-267688095D01*
X35570238Y-267873809D01*
X35446428Y-267997619D01*
X35322619Y-268059523D01*
D10*
D11*
X85322619Y-267811904D02*
X85384523Y-267750000D01*
X85508333Y-267688095D01*
X85817857Y-267688095D01*
X85941666Y-267750000D01*
X86003571Y-267811904D01*
X86065476Y-267935714D01*
X86065476Y-268059523D01*
X86003571Y-268245238D01*
X85260714Y-268988095D01*
X86065476Y-268988095D01*
D10*
D11*
X135260714Y-267688095D02*
X136065476Y-267688095D01*
X135632142Y-268183333D01*
X135817857Y-268183333D01*
X135941666Y-268245238D01*
X136003571Y-268307142D01*
X136065476Y-268430952D01*
X136065476Y-268740476D01*
X136003571Y-268864285D01*
X135941666Y-268926190D01*
X135817857Y-268988095D01*
X135446428Y-268988095D01*
X135322619Y-268926190D01*
X135260714Y-268864285D01*
D10*
D11*
X185941666Y-268121428D02*
X185941666Y-268988095D01*
X185632142Y-267626190D02*
X185322619Y-268554761D01*
X186127380Y-268554761D01*
D10*
D11*
X236003571Y-267688095D02*
X235384523Y-267688095D01*
X235322619Y-268307142D01*
X235384523Y-268245238D01*
X235508333Y-268183333D01*
X235817857Y-268183333D01*
X235941666Y-268245238D01*
X236003571Y-268307142D01*
X236065476Y-268430952D01*
X236065476Y-268740476D01*
X236003571Y-268864285D01*
X235941666Y-268926190D01*
X235817857Y-268988095D01*
X235508333Y-268988095D01*
X235384523Y-268926190D01*
X235322619Y-268864285D01*
D10*
D11*
X285941666Y-267688095D02*
X285694047Y-267688095D01*
X285570238Y-267750000D01*
X285508333Y-267811904D01*
X285384523Y-267997619D01*
X285322619Y-268245238D01*
X285322619Y-268740476D01*
X285384523Y-268864285D01*
X285446428Y-268926190D01*
X285570238Y-268988095D01*
X285817857Y-268988095D01*
X285941666Y-268926190D01*
X286003571Y-268864285D01*
X286065476Y-268740476D01*
X286065476Y-268430952D01*
X286003571Y-268307142D01*
X285941666Y-268245238D01*
X285817857Y-268183333D01*
X285570238Y-268183333D01*
X285446428Y-268245238D01*
X285384523Y-268307142D01*
X285322619Y-268430952D01*
D10*
D11*
X335260714Y-267688095D02*
X336127380Y-267688095D01*
X335570238Y-268988095D01*
D10*
D11*
X385570238Y-268245238D02*
X385446428Y-268183333D01*
X385384523Y-268121428D01*
X385322619Y-267997619D01*
X385322619Y-267935714D01*
X385384523Y-267811904D01*
X385446428Y-267750000D01*
X385570238Y-267688095D01*
X385817857Y-267688095D01*
X385941666Y-267750000D01*
X386003571Y-267811904D01*
X386065476Y-267935714D01*
X386065476Y-267997619D01*
X386003571Y-268121428D01*
X385941666Y-268183333D01*
X385817857Y-268245238D01*
X385570238Y-268245238D01*
X385446428Y-268307142D01*
X385384523Y-268369047D01*
X385322619Y-268492857D01*
X385322619Y-268740476D01*
X385384523Y-268864285D01*
X385446428Y-268926190D01*
X385570238Y-268988095D01*
X385817857Y-268988095D01*
X385941666Y-268926190D01*
X386003571Y-268864285D01*
X386065476Y-268740476D01*
X386065476Y-268492857D01*
X386003571Y-268369047D01*
X385941666Y-268307142D01*
X385817857Y-268245238D01*
D10*
D11*
X10000000Y-60000000D02*
X12000000Y-60000000D01*
D10*
D11*
X10000000Y-110000000D02*
X12000000Y-110000000D01*
D10*
D11*
X10000000Y-160000000D02*
X12000000Y-160000000D01*
D10*
D11*
X10000000Y-210000000D02*
X12000000Y-210000000D01*
D10*
D11*
X10000000Y-260000000D02*
X12000000Y-260000000D01*
D10*
D11*
X10690476Y-35216666D02*
X11309523Y-35216666D01*
X10566666Y-35588095D02*
X11000000Y-34288095D01*
X11433333Y-35588095D01*
D10*
D11*
X11092857Y-84907142D02*
X11278571Y-84969047D01*
X11340476Y-85030952D01*
X11402380Y-85154761D01*
X11402380Y-85340476D01*
X11340476Y-85464285D01*
X11278571Y-85526190D01*
X11154761Y-85588095D01*
X10659523Y-85588095D01*
X10659523Y-84288095D01*
X11092857Y-84288095D01*
X11216666Y-84350000D01*
X11278571Y-84411904D01*
X11340476Y-84535714D01*
X11340476Y-84659523D01*
X11278571Y-84783333D01*
X11216666Y-84845238D01*
X11092857Y-84907142D01*
X10659523Y-84907142D01*
D10*
D11*
X11402380Y-135464285D02*
X11340476Y-135526190D01*
X11154761Y-135588095D01*
X11030952Y-135588095D01*
X10845238Y-135526190D01*
X10721428Y-135402380D01*
X10659523Y-135278571D01*
X10597619Y-135030952D01*
X10597619Y-134845238D01*
X10659523Y-134597619D01*
X10721428Y-134473809D01*
X10845238Y-134350000D01*
X11030952Y-134288095D01*
X11154761Y-134288095D01*
X11340476Y-134350000D01*
X11402380Y-134411904D01*
D10*
D11*
X10659523Y-185588095D02*
X10659523Y-184288095D01*
X10969047Y-184288095D01*
X11154761Y-184350000D01*
X11278571Y-184473809D01*
X11340476Y-184597619D01*
X11402380Y-184845238D01*
X11402380Y-185030952D01*
X11340476Y-185278571D01*
X11278571Y-185402380D01*
X11154761Y-185526190D01*
X10969047Y-185588095D01*
X10659523Y-185588095D01*
D10*
D11*
X10721428Y-234907142D02*
X11154761Y-234907142D01*
X11340476Y-235588095D02*
X10721428Y-235588095D01*
X10721428Y-234288095D01*
X11340476Y-234288095D01*
D10*
D11*
X421800000Y-60000000D02*
X419800000Y-60000000D01*
D10*
D11*
X421800000Y-110000000D02*
X419800000Y-110000000D01*
D10*
D11*
X421800000Y-160000000D02*
X419800000Y-160000000D01*
D10*
D11*
X421800000Y-210000000D02*
X419800000Y-210000000D01*
D10*
D11*
X421800000Y-260000000D02*
X419800000Y-260000000D01*
D10*
D11*
X420490476Y-35216666D02*
X421109523Y-35216666D01*
X420366666Y-35588095D02*
X420800000Y-34288095D01*
X421233333Y-35588095D01*
D10*
D11*
X420892857Y-84907142D02*
X421078571Y-84969047D01*
X421140476Y-85030952D01*
X421202380Y-85154761D01*
X421202380Y-85340476D01*
X421140476Y-85464285D01*
X421078571Y-85526190D01*
X420954761Y-85588095D01*
X420459523Y-85588095D01*
X420459523Y-84288095D01*
X420892857Y-84288095D01*
X421016666Y-84350000D01*
X421078571Y-84411904D01*
X421140476Y-84535714D01*
X421140476Y-84659523D01*
X421078571Y-84783333D01*
X421016666Y-84845238D01*
X420892857Y-84907142D01*
X420459523Y-84907142D01*
D10*
D11*
X421202380Y-135464285D02*
X421140476Y-135526190D01*
X420954761Y-135588095D01*
X420830952Y-135588095D01*
X420645238Y-135526190D01*
X420521428Y-135402380D01*
X420459523Y-135278571D01*
X420397619Y-135030952D01*
X420397619Y-134845238D01*
X420459523Y-134597619D01*
X420521428Y-134473809D01*
X420645238Y-134350000D01*
X420830952Y-134288095D01*
X420954761Y-134288095D01*
X421140476Y-134350000D01*
X421202380Y-134411904D01*
D10*
D11*
X420459523Y-185588095D02*
X420459523Y-184288095D01*
X420769047Y-184288095D01*
X420954761Y-184350000D01*
X421078571Y-184473809D01*
X421140476Y-184597619D01*
X421202380Y-184845238D01*
X421202380Y-185030952D01*
X421140476Y-185278571D01*
X421078571Y-185402380D01*
X420954761Y-185526190D01*
X420769047Y-185588095D01*
X420459523Y-185588095D01*
D10*
D11*
X420521428Y-234907142D02*
X420954761Y-234907142D01*
X421140476Y-235588095D02*
X420521428Y-235588095D01*
X420521428Y-234288095D01*
X421140476Y-234288095D01*
D10*
D11*
X335232142Y-263178571D02*
X335232142Y-261678571D01*
X335589285Y-261678571D01*
X335803571Y-261750000D01*
X335946428Y-261892857D01*
X336017857Y-262035714D01*
X336089285Y-262321428D01*
X336089285Y-262535714D01*
X336017857Y-262821428D01*
X335946428Y-262964285D01*
X335803571Y-263107142D01*
X335589285Y-263178571D01*
X335232142Y-263178571D01*
X337375000Y-263178571D02*
X337375000Y-262392857D01*
X337303571Y-262250000D01*
X337160714Y-262178571D01*
X336875000Y-262178571D01*
X336732142Y-262250000D01*
X337375000Y-263107142D02*
X337232142Y-263178571D01*
X336875000Y-263178571D01*
X336732142Y-263107142D01*
X336660714Y-262964285D01*
X336660714Y-262821428D01*
X336732142Y-262678571D01*
X336875000Y-262607142D01*
X337232142Y-262607142D01*
X337375000Y-262535714D01*
X337875000Y-262178571D02*
X338446428Y-262178571D01*
X338089285Y-261678571D02*
X338089285Y-262964285D01*
X338160714Y-263107142D01*
X338303571Y-263178571D01*
X338446428Y-263178571D01*
X339517857Y-263107142D02*
X339375000Y-263178571D01*
X339089285Y-263178571D01*
X338946428Y-263107142D01*
X338875000Y-262964285D01*
X338875000Y-262392857D01*
X338946428Y-262250000D01*
X339089285Y-262178571D01*
X339375000Y-262178571D01*
X339517857Y-262250000D01*
X339589285Y-262392857D01*
X339589285Y-262535714D01*
X338875000Y-262678571D01*
X340232142Y-263035714D02*
X340303571Y-263107142D01*
X340232142Y-263178571D01*
X340160714Y-263107142D01*
X340232142Y-263035714D01*
X340232142Y-263178571D01*
X340232142Y-262250000D02*
X340303571Y-262321428D01*
X340232142Y-262392857D01*
X340160714Y-262321428D01*
X340232142Y-262250000D01*
X340232142Y-262392857D01*
X342017857Y-261821428D02*
X342089285Y-261750000D01*
X342232142Y-261678571D01*
X342589285Y-261678571D01*
X342732142Y-261750000D01*
X342803571Y-261821428D01*
X342875000Y-261964285D01*
X342875000Y-262107142D01*
X342803571Y-262321428D01*
X341946428Y-263178571D01*
X342875000Y-263178571D01*
X343803571Y-261678571D02*
X343946428Y-261678571D01*
X344089285Y-261750000D01*
X344160714Y-261821428D01*
X344232142Y-261964285D01*
X344303571Y-262250000D01*
X344303571Y-262607142D01*
X344232142Y-262892857D01*
X344160714Y-263035714D01*
X344089285Y-263107142D01*
X343946428Y-263178571D01*
X343803571Y-263178571D01*
X343660714Y-263107142D01*
X343589285Y-263035714D01*
X343517857Y-262892857D01*
X343446428Y-262607142D01*
X343446428Y-262250000D01*
X343517857Y-261964285D01*
X343589285Y-261821428D01*
X343660714Y-261750000D01*
X343803571Y-261678571D01*
X344875000Y-261821428D02*
X344946428Y-261750000D01*
X345089285Y-261678571D01*
X345446428Y-261678571D01*
X345589285Y-261750000D01*
X345660714Y-261821428D01*
X345732142Y-261964285D01*
X345732142Y-262107142D01*
X345660714Y-262321428D01*
X344803571Y-263178571D01*
X345732142Y-263178571D01*
X346303571Y-261821428D02*
X346375000Y-261750000D01*
X346517857Y-261678571D01*
X346875000Y-261678571D01*
X347017857Y-261750000D01*
X347089285Y-261821428D01*
X347160714Y-261964285D01*
X347160714Y-262107142D01*
X347089285Y-262321428D01*
X346232142Y-263178571D01*
X347160714Y-263178571D01*
X347803571Y-262607142D02*
X348946428Y-262607142D01*
X350446428Y-263178571D02*
X349589285Y-263178571D01*
X350017857Y-263178571D02*
X350017857Y-261678571D01*
X349875000Y-261892857D01*
X349732142Y-262035714D01*
X349589285Y-262107142D01*
X351017857Y-261821428D02*
X351089285Y-261750000D01*
X351232142Y-261678571D01*
X351589285Y-261678571D01*
X351732142Y-261750000D01*
X351803571Y-261821428D01*
X351875000Y-261964285D01*
X351875000Y-262107142D01*
X351803571Y-262321428D01*
X350946428Y-263178571D01*
X351875000Y-263178571D01*
X352517857Y-262607142D02*
X353660714Y-262607142D01*
X354660714Y-261678571D02*
X354803571Y-261678571D01*
X354946428Y-261750000D01*
X355017857Y-261821428D01*
X355089285Y-261964285D01*
X355160714Y-262250000D01*
X355160714Y-262607142D01*
X355089285Y-262892857D01*
X355017857Y-263035714D01*
X354946428Y-263107142D01*
X354803571Y-263178571D01*
X354660714Y-263178571D01*
X354517857Y-263107142D01*
X354446428Y-263035714D01*
X354375000Y-262892857D01*
X354303571Y-262607142D01*
X354303571Y-262250000D01*
X354375000Y-261964285D01*
X354446428Y-261821428D01*
X354517857Y-261750000D01*
X354660714Y-261678571D01*
X355875000Y-263178571D02*
X356160714Y-263178571D01*
X356303571Y-263107142D01*
X356375000Y-263035714D01*
X356517857Y-262821428D01*
X356589285Y-262535714D01*
X356589285Y-261964285D01*
X356517857Y-261821428D01*
X356446428Y-261750000D01*
X356303571Y-261678571D01*
X356017857Y-261678571D01*
X355875000Y-261750000D01*
X355803571Y-261821428D01*
X355732142Y-261964285D01*
X355732142Y-262321428D01*
X355803571Y-262464285D01*
X355875000Y-262535714D01*
X356017857Y-262607142D01*
X356303571Y-262607142D01*
X356446428Y-262535714D01*
X356517857Y-262464285D01*
X356589285Y-262321428D01*
D10*
D11*
X311800000Y-263900000D02*
X419800000Y-263900000D01*
D10*
D11*
X313232142Y-265978571D02*
X313232142Y-264478571D01*
X314089285Y-265978571D02*
X313446428Y-265121428D01*
X314089285Y-264478571D02*
X313232142Y-265335714D01*
X314732142Y-265978571D02*
X314732142Y-264978571D01*
X314732142Y-264478571D02*
X314660714Y-264550000D01*
X314732142Y-264621428D01*
X314803571Y-264550000D01*
X314732142Y-264478571D01*
X314732142Y-264621428D01*
X316303571Y-265835714D02*
X316232142Y-265907142D01*
X316017857Y-265978571D01*
X315875000Y-265978571D01*
X315660714Y-265907142D01*
X315517857Y-265764285D01*
X315446428Y-265621428D01*
X315375000Y-265335714D01*
X315375000Y-265121428D01*
X315446428Y-264835714D01*
X315517857Y-264692857D01*
X315660714Y-264550000D01*
X315875000Y-264478571D01*
X316017857Y-264478571D01*
X316232142Y-264550000D01*
X316303571Y-264621428D01*
X317589285Y-265978571D02*
X317589285Y-265192857D01*
X317517857Y-265050000D01*
X317375000Y-264978571D01*
X317089285Y-264978571D01*
X316946428Y-265050000D01*
X317589285Y-265907142D02*
X317446428Y-265978571D01*
X317089285Y-265978571D01*
X316946428Y-265907142D01*
X316875000Y-265764285D01*
X316875000Y-265621428D01*
X316946428Y-265478571D01*
X317089285Y-265407142D01*
X317446428Y-265407142D01*
X317589285Y-265335714D01*
X318946428Y-265978571D02*
X318946428Y-264478571D01*
X318946428Y-265907142D02*
X318803571Y-265978571D01*
X318517857Y-265978571D01*
X318375000Y-265907142D01*
X318303571Y-265835714D01*
X318232142Y-265692857D01*
X318232142Y-265264285D01*
X318303571Y-265121428D01*
X318375000Y-265050000D01*
X318517857Y-264978571D01*
X318803571Y-264978571D01*
X318946428Y-265050000D01*
X320803571Y-265192857D02*
X321303571Y-265192857D01*
X321517857Y-265978571D02*
X320803571Y-265978571D01*
X320803571Y-264478571D01*
X321517857Y-264478571D01*
X322160714Y-265835714D02*
X322232142Y-265907142D01*
X322160714Y-265978571D01*
X322089285Y-265907142D01*
X322160714Y-265835714D01*
X322160714Y-265978571D01*
X322875000Y-265978571D02*
X322875000Y-264478571D01*
X323232142Y-264478571D01*
X323446428Y-264550000D01*
X323589285Y-264692857D01*
X323660714Y-264835714D01*
X323732142Y-265121428D01*
X323732142Y-265335714D01*
X323660714Y-265621428D01*
X323589285Y-265764285D01*
X323446428Y-265907142D01*
X323232142Y-265978571D01*
X322875000Y-265978571D01*
X324375000Y-265835714D02*
X324446428Y-265907142D01*
X324375000Y-265978571D01*
X324303571Y-265907142D01*
X324375000Y-265835714D01*
X324375000Y-265978571D01*
X325017857Y-265550000D02*
X325732142Y-265550000D01*
X324875000Y-265978571D02*
X325375000Y-264478571D01*
X325875000Y-265978571D01*
X326375000Y-265835714D02*
X326446428Y-265907142D01*
X326375000Y-265978571D01*
X326303571Y-265907142D01*
X326375000Y-265835714D01*
X326375000Y-265978571D01*
X329375000Y-265978571D02*
X329375000Y-264478571D01*
X329517857Y-265407142D02*
X329946428Y-265978571D01*
X329946428Y-264978571D02*
X329375000Y-265550000D01*
X330589285Y-265978571D02*
X330589285Y-264978571D01*
X330589285Y-264478571D02*
X330517857Y-264550000D01*
X330589285Y-264621428D01*
X330660714Y-264550000D01*
X330589285Y-264478571D01*
X330589285Y-264621428D01*
X331946428Y-265907142D02*
X331803571Y-265978571D01*
X331517857Y-265978571D01*
X331375000Y-265907142D01*
X331303571Y-265835714D01*
X331232142Y-265692857D01*
X331232142Y-265264285D01*
X331303571Y-265121428D01*
X331375000Y-265050000D01*
X331517857Y-264978571D01*
X331803571Y-264978571D01*
X331946428Y-265050000D01*
X333232142Y-265978571D02*
X333232142Y-265192857D01*
X333160714Y-265050000D01*
X333017857Y-264978571D01*
X332732142Y-264978571D01*
X332589285Y-265050000D01*
X333232142Y-265907142D02*
X333089285Y-265978571D01*
X332732142Y-265978571D01*
X332589285Y-265907142D01*
X332517857Y-265764285D01*
X332517857Y-265621428D01*
X332589285Y-265478571D01*
X332732142Y-265407142D01*
X333089285Y-265407142D01*
X333232142Y-265335714D01*
X334589285Y-265978571D02*
X334589285Y-264478571D01*
X334589285Y-265907142D02*
X334446428Y-265978571D01*
X334160714Y-265978571D01*
X334017857Y-265907142D01*
X333946428Y-265835714D01*
X333875000Y-265692857D01*
X333875000Y-265264285D01*
X333946428Y-265121428D01*
X334017857Y-265050000D01*
X334160714Y-264978571D01*
X334446428Y-264978571D01*
X334589285Y-265050000D01*
X337160714Y-264478571D02*
X336446428Y-264478571D01*
X336375000Y-265192857D01*
X336446428Y-265121428D01*
X336589285Y-265050000D01*
X336946428Y-265050000D01*
X337089285Y-265121428D01*
X337160714Y-265192857D01*
X337232142Y-265335714D01*
X337232142Y-265692857D01*
X337160714Y-265835714D01*
X337089285Y-265907142D01*
X336946428Y-265978571D01*
X336589285Y-265978571D01*
X336446428Y-265907142D01*
X336375000Y-265835714D01*
X337875000Y-265835714D02*
X337946428Y-265907142D01*
X337875000Y-265978571D01*
X337803571Y-265907142D01*
X337875000Y-265835714D01*
X337875000Y-265978571D01*
X338875000Y-264478571D02*
X339017857Y-264478571D01*
X339160714Y-264550000D01*
X339232142Y-264621428D01*
X339303571Y-264764285D01*
X339375000Y-265050000D01*
X339375000Y-265407142D01*
X339303571Y-265692857D01*
X339232142Y-265835714D01*
X339160714Y-265907142D01*
X339017857Y-265978571D01*
X338875000Y-265978571D01*
X338732142Y-265907142D01*
X338660714Y-265835714D01*
X338589285Y-265692857D01*
X338517857Y-265407142D01*
X338517857Y-265050000D01*
X338589285Y-264764285D01*
X338660714Y-264621428D01*
X338732142Y-264550000D01*
X338875000Y-264478571D01*
X340017857Y-265835714D02*
X340089285Y-265907142D01*
X340017857Y-265978571D01*
X339946428Y-265907142D01*
X340017857Y-265835714D01*
X340017857Y-265978571D01*
X340660714Y-264621428D02*
X340732142Y-264550000D01*
X340875000Y-264478571D01*
X341232142Y-264478571D01*
X341375000Y-264550000D01*
X341446428Y-264621428D01*
X341517857Y-264764285D01*
X341517857Y-264907142D01*
X341446428Y-265121428D01*
X340589285Y-265978571D01*
X341517857Y-265978571D01*
X342160714Y-265407142D02*
X343303571Y-265407142D01*
X342732142Y-265978571D02*
X342732142Y-264835714D01*
X344660714Y-265978571D02*
X344660714Y-264478571D01*
X344660714Y-265907142D02*
X344517857Y-265978571D01*
X344232142Y-265978571D01*
X344089285Y-265907142D01*
X344017857Y-265835714D01*
X343946428Y-265692857D01*
X343946428Y-265264285D01*
X344017857Y-265121428D01*
X344089285Y-265050000D01*
X344232142Y-264978571D01*
X344517857Y-264978571D01*
X344660714Y-265050000D01*
X345160714Y-264978571D02*
X345732142Y-264978571D01*
X345375000Y-265978571D02*
X345375000Y-264692857D01*
X345446428Y-264550000D01*
X345589285Y-264478571D01*
X345732142Y-264478571D01*
X346160714Y-265907142D02*
X346303571Y-265978571D01*
X346589285Y-265978571D01*
X346732142Y-265907142D01*
X346803571Y-265764285D01*
X346803571Y-265692857D01*
X346732142Y-265550000D01*
X346589285Y-265478571D01*
X346375000Y-265478571D01*
X346232142Y-265407142D01*
X346160714Y-265264285D01*
X346160714Y-265192857D01*
X346232142Y-265050000D01*
X346375000Y-264978571D01*
X346589285Y-264978571D01*
X346732142Y-265050000D01*
X348089285Y-264978571D02*
X348089285Y-266192857D01*
X348017857Y-266335714D01*
X347946428Y-266407142D01*
X347803571Y-266478571D01*
X347589285Y-266478571D01*
X347446428Y-266407142D01*
X348089285Y-265907142D02*
X347946428Y-265978571D01*
X347660714Y-265978571D01*
X347517857Y-265907142D01*
X347446428Y-265835714D01*
X347375000Y-265692857D01*
X347375000Y-265264285D01*
X347446428Y-265121428D01*
X347517857Y-265050000D01*
X347660714Y-264978571D01*
X347946428Y-264978571D01*
X348089285Y-265050000D01*
X349589285Y-265978571D02*
X348732142Y-265978571D01*
X349160714Y-265978571D02*
X349160714Y-264478571D01*
X349017857Y-264692857D01*
X348875000Y-264835714D01*
X348732142Y-264907142D01*
X350232142Y-265407142D02*
X351375000Y-265407142D01*
X352875000Y-265978571D02*
X352017857Y-265978571D01*
X352446428Y-265978571D02*
X352446428Y-264478571D01*
X352303571Y-264692857D01*
X352160714Y-264835714D01*
X352017857Y-264907142D01*
D10*
D11*
X311800000Y-260900000D02*
X419800000Y-260900000D01*
D10*
D12*
X399209285Y-263178571D02*
X398709285Y-262464285D01*
X398352142Y-263178571D02*
X398352142Y-261678571D01*
X398923571Y-261678571D01*
X399066428Y-261750000D01*
X399137857Y-261821428D01*
X399209285Y-261964285D01*
X399209285Y-262178571D01*
X399137857Y-262321428D01*
X399066428Y-262392857D01*
X398923571Y-262464285D01*
X398352142Y-262464285D01*
X400423571Y-263107142D02*
X400280714Y-263178571D01*
X399995000Y-263178571D01*
X399852142Y-263107142D01*
X399780714Y-262964285D01*
X399780714Y-262392857D01*
X399852142Y-262250000D01*
X399995000Y-262178571D01*
X400280714Y-262178571D01*
X400423571Y-262250000D01*
X400495000Y-262392857D01*
X400495000Y-262535714D01*
X399780714Y-262678571D01*
X400995000Y-262178571D02*
X401352142Y-263178571D01*
X401709285Y-262178571D01*
X402280714Y-263035714D02*
X402352142Y-263107142D01*
X402280714Y-263178571D01*
X402209285Y-263107142D01*
X402280714Y-263035714D01*
X402280714Y-263178571D01*
X402280714Y-262250000D02*
X402352142Y-262321428D01*
X402280714Y-262392857D01*
X402209285Y-262321428D01*
X402280714Y-262250000D01*
X402280714Y-262392857D01*
X404923571Y-263178571D02*
X404066428Y-263178571D01*
X404495000Y-263178571D02*
X404495000Y-261678571D01*
X404352142Y-261892857D01*
X404209285Y-262035714D01*
X404066428Y-262107142D01*
D10*
D11*
X313160714Y-263107142D02*
X313375000Y-263178571D01*
X313732142Y-263178571D01*
X313875000Y-263107142D01*
X313946428Y-263035714D01*
X314017857Y-262892857D01*
X314017857Y-262750000D01*
X313946428Y-262607142D01*
X313875000Y-262535714D01*
X313732142Y-262464285D01*
X313446428Y-262392857D01*
X313303571Y-262321428D01*
X313232142Y-262250000D01*
X313160714Y-262107142D01*
X313160714Y-261964285D01*
X313232142Y-261821428D01*
X313303571Y-261750000D01*
X313446428Y-261678571D01*
X313803571Y-261678571D01*
X314017857Y-261750000D01*
X314660714Y-263178571D02*
X314660714Y-262178571D01*
X314660714Y-261678571D02*
X314589285Y-261750000D01*
X314660714Y-261821428D01*
X314732142Y-261750000D01*
X314660714Y-261678571D01*
X314660714Y-261821428D01*
X315232142Y-262178571D02*
X316017857Y-262178571D01*
X315232142Y-263178571D01*
X316017857Y-263178571D01*
X317160714Y-263107142D02*
X317017857Y-263178571D01*
X316732142Y-263178571D01*
X316589285Y-263107142D01*
X316517857Y-262964285D01*
X316517857Y-262392857D01*
X316589285Y-262250000D01*
X316732142Y-262178571D01*
X317017857Y-262178571D01*
X317160714Y-262250000D01*
X317232142Y-262392857D01*
X317232142Y-262535714D01*
X316517857Y-262678571D01*
X317875000Y-263035714D02*
X317946428Y-263107142D01*
X317875000Y-263178571D01*
X317803571Y-263107142D01*
X317875000Y-263035714D01*
X317875000Y-263178571D01*
X317875000Y-262250000D02*
X317946428Y-262321428D01*
X317875000Y-262392857D01*
X317803571Y-262321428D01*
X317875000Y-262250000D01*
X317875000Y-262392857D01*
X320232142Y-262392857D02*
X320446428Y-262464285D01*
X320517857Y-262535714D01*
X320589285Y-262678571D01*
X320589285Y-262892857D01*
X320517857Y-263035714D01*
X320446428Y-263107142D01*
X320303571Y-263178571D01*
X319732142Y-263178571D01*
X319732142Y-261678571D01*
X320232142Y-261678571D01*
X320375000Y-261750000D01*
X320446428Y-261821428D01*
X320517857Y-261964285D01*
X320517857Y-262107142D01*
X320446428Y-262250000D01*
X320375000Y-262321428D01*
X320232142Y-262392857D01*
X319732142Y-262392857D01*
D10*
D11*
X398232142Y-265978571D02*
X398232142Y-264478571D01*
X399589285Y-265978571D02*
X399589285Y-264478571D01*
X399589285Y-265907142D02*
X399446428Y-265978571D01*
X399160714Y-265978571D01*
X399017857Y-265907142D01*
X398946428Y-265835714D01*
X398875000Y-265692857D01*
X398875000Y-265264285D01*
X398946428Y-265121428D01*
X399017857Y-265050000D01*
X399160714Y-264978571D01*
X399446428Y-264978571D01*
X399589285Y-265050000D01*
X400303571Y-265835714D02*
X400375000Y-265907142D01*
X400303571Y-265978571D01*
X400232142Y-265907142D01*
X400303571Y-265835714D01*
X400303571Y-265978571D01*
X400303571Y-265050000D02*
X400375000Y-265121428D01*
X400303571Y-265192857D01*
X400232142Y-265121428D01*
X400303571Y-265050000D01*
X400303571Y-265192857D01*
X402946428Y-265978571D02*
X402089285Y-265978571D01*
X402517857Y-265978571D02*
X402517857Y-264478571D01*
X402375000Y-264692857D01*
X402232142Y-264835714D01*
X402089285Y-264907142D01*
X404660714Y-264407142D02*
X403375000Y-266335714D01*
X405946428Y-265978571D02*
X405089285Y-265978571D01*
X405517857Y-265978571D02*
X405517857Y-264478571D01*
X405375000Y-264692857D01*
X405232142Y-264835714D01*
X405089285Y-264907142D01*
D10*
D11*
X311800000Y-256900000D02*
X419800000Y-256900000D01*
D10*
D13*
X313512380Y-257604761D02*
X314655238Y-257604761D01*
X313833809Y-259604761D02*
X314083809Y-257604761D01*
X315071904Y-259604761D02*
X315238571Y-258271428D01*
X315321904Y-257604761D02*
X315214761Y-257700000D01*
X315298095Y-257795238D01*
X315405238Y-257700000D01*
X315321904Y-257604761D01*
X315298095Y-257795238D01*
X315905238Y-258271428D02*
X316667142Y-258271428D01*
X316274285Y-257604761D02*
X316060000Y-259319047D01*
X316131428Y-259509523D01*
X316310000Y-259604761D01*
X316500476Y-259604761D01*
X317452857Y-259604761D02*
X317274285Y-259509523D01*
X317202857Y-259319047D01*
X317417142Y-257604761D01*
X318988571Y-259509523D02*
X318786190Y-259604761D01*
X318405238Y-259604761D01*
X318226666Y-259509523D01*
X318155238Y-259319047D01*
X318250476Y-258557142D01*
X318369523Y-258366666D01*
X318571904Y-258271428D01*
X318952857Y-258271428D01*
X319131428Y-258366666D01*
X319202857Y-258557142D01*
X319179047Y-258747619D01*
X318202857Y-258938095D01*
X319952857Y-259414285D02*
X320036190Y-259509523D01*
X319929047Y-259604761D01*
X319845714Y-259509523D01*
X319952857Y-259414285D01*
X319929047Y-259604761D01*
X320083809Y-258366666D02*
X320167142Y-258461904D01*
X320060000Y-258557142D01*
X319976666Y-258461904D01*
X320083809Y-258366666D01*
X320060000Y-258557142D01*
X323690952Y-257700000D02*
X323512380Y-257604761D01*
X323226666Y-257604761D01*
X322929047Y-257700000D01*
X322714761Y-257890476D01*
X322595714Y-258080952D01*
X322452857Y-258461904D01*
X322417142Y-258747619D01*
X322464761Y-259128571D01*
X322536190Y-259319047D01*
X322702857Y-259509523D01*
X322976666Y-259604761D01*
X323167142Y-259604761D01*
X323464761Y-259509523D01*
X323571904Y-259414285D01*
X323655238Y-258747619D01*
X323274285Y-258747619D01*
X324405238Y-259604761D02*
X324571904Y-258271428D01*
X324655238Y-257604761D02*
X324548095Y-257700000D01*
X324631428Y-257795238D01*
X324738571Y-257700000D01*
X324655238Y-257604761D01*
X324631428Y-257795238D01*
X326381428Y-258271428D02*
X326179047Y-259890476D01*
X326060000Y-260080952D01*
X325952857Y-260176190D01*
X325750476Y-260271428D01*
X325464761Y-260271428D01*
X325286190Y-260176190D01*
X326226666Y-259509523D02*
X326024285Y-259604761D01*
X325643333Y-259604761D01*
X325464761Y-259509523D01*
X325381428Y-259414285D01*
X325310000Y-259223809D01*
X325381428Y-258652380D01*
X325500476Y-258461904D01*
X325607619Y-258366666D01*
X325810000Y-258271428D01*
X326190952Y-258271428D01*
X326369523Y-258366666D01*
X328024285Y-259604761D02*
X328155238Y-258557142D01*
X328083809Y-258366666D01*
X327905238Y-258271428D01*
X327524285Y-258271428D01*
X327321904Y-258366666D01*
X328036190Y-259509523D02*
X327833809Y-259604761D01*
X327357619Y-259604761D01*
X327179047Y-259509523D01*
X327107619Y-259319047D01*
X327131428Y-259128571D01*
X327250476Y-258938095D01*
X327452857Y-258842857D01*
X327929047Y-258842857D01*
X328131428Y-258747619D01*
X328976666Y-259604761D02*
X329226666Y-257604761D01*
X329702857Y-257604761D01*
X329976666Y-257700000D01*
X330143333Y-257890476D01*
X330214761Y-258080952D01*
X330262380Y-258461904D01*
X330226666Y-258747619D01*
X330083809Y-259128571D01*
X329964761Y-259319047D01*
X329750476Y-259509523D01*
X329452857Y-259604761D01*
X328976666Y-259604761D01*
X330976666Y-259604761D02*
X331143333Y-258271428D01*
X331226666Y-257604761D02*
X331119523Y-257700000D01*
X331202857Y-257795238D01*
X331310000Y-257700000D01*
X331226666Y-257604761D01*
X331202857Y-257795238D01*
X332214761Y-259604761D02*
X332036190Y-259509523D01*
X331952857Y-259414285D01*
X331881428Y-259223809D01*
X331952857Y-258652380D01*
X332071904Y-258461904D01*
X332179047Y-258366666D01*
X332381428Y-258271428D01*
X332667142Y-258271428D01*
X332845714Y-258366666D01*
X332929047Y-258461904D01*
X333000476Y-258652380D01*
X332929047Y-259223809D01*
X332810000Y-259414285D01*
X332702857Y-259509523D01*
X332500476Y-259604761D01*
X332214761Y-259604761D01*
X334595714Y-259604761D02*
X334845714Y-257604761D01*
X334607619Y-259509523D02*
X334405238Y-259604761D01*
X334024285Y-259604761D01*
X333845714Y-259509523D01*
X333762380Y-259414285D01*
X333690952Y-259223809D01*
X333762380Y-258652380D01*
X333881428Y-258461904D01*
X333988571Y-258366666D01*
X334190952Y-258271428D01*
X334571904Y-258271428D01*
X334750476Y-258366666D01*
X336321904Y-259509523D02*
X336119523Y-259604761D01*
X335738571Y-259604761D01*
X335560000Y-259509523D01*
X335488571Y-259319047D01*
X335583809Y-258557142D01*
X335702857Y-258366666D01*
X335905238Y-258271428D01*
X336286190Y-258271428D01*
X336464761Y-258366666D01*
X336536190Y-258557142D01*
X336512380Y-258747619D01*
X335536190Y-258938095D01*
X340476666Y-257509523D02*
X338440952Y-260080952D01*
X343226666Y-257604761D02*
X343048095Y-259033333D01*
X342917142Y-259319047D01*
X342702857Y-259509523D01*
X342405238Y-259604761D01*
X342214761Y-259604761D01*
X343893333Y-257604761D02*
X344310000Y-259604761D01*
X345226666Y-257604761D01*
X346810000Y-259414285D02*
X346702857Y-259509523D01*
X346405238Y-259604761D01*
X346214761Y-259604761D01*
X345940952Y-259509523D01*
X345774285Y-259319047D01*
X345702857Y-259128571D01*
X345655238Y-258747619D01*
X345690952Y-258461904D01*
X345833809Y-258080952D01*
X345952857Y-257890476D01*
X346167142Y-257700000D01*
X346464761Y-257604761D01*
X346655238Y-257604761D01*
X346929047Y-257700000D01*
X347012380Y-257795238D01*
X348667142Y-258271428D02*
X348500476Y-259604761D01*
X348286190Y-257509523D02*
X347631428Y-258938095D01*
X348869523Y-258938095D01*
X349607619Y-257604761D02*
X350845714Y-257604761D01*
X350083809Y-258366666D01*
X350369523Y-258366666D01*
X350548095Y-258461904D01*
X350631428Y-258557142D01*
X350702857Y-258747619D01*
X350643333Y-259223809D01*
X350524285Y-259414285D01*
X350417142Y-259509523D01*
X350214761Y-259604761D01*
X349643333Y-259604761D01*
X349464761Y-259509523D01*
X349381428Y-259414285D01*
X351429047Y-259033333D02*
X352381428Y-259033333D01*
X351167142Y-259604761D02*
X352083809Y-257604761D01*
X352500476Y-259604761D01*
D10*
D11*
X313732142Y-254992857D02*
X313232142Y-254992857D01*
X313232142Y-255778571D02*
X313232142Y-254278571D01*
X313946428Y-254278571D01*
X314517857Y-255778571D02*
X314517857Y-254778571D01*
X314517857Y-254278571D02*
X314446428Y-254350000D01*
X314517857Y-254421428D01*
X314589285Y-254350000D01*
X314517857Y-254278571D01*
X314517857Y-254421428D01*
X315446428Y-255778571D02*
X315303571Y-255707142D01*
X315232142Y-255564285D01*
X315232142Y-254278571D01*
X316589285Y-255707142D02*
X316446428Y-255778571D01*
X316160714Y-255778571D01*
X316017857Y-255707142D01*
X315946428Y-255564285D01*
X315946428Y-254992857D01*
X316017857Y-254850000D01*
X316160714Y-254778571D01*
X316446428Y-254778571D01*
X316589285Y-254850000D01*
X316660714Y-254992857D01*
X316660714Y-255135714D01*
X315946428Y-255278571D01*
X317303571Y-255635714D02*
X317375000Y-255707142D01*
X317303571Y-255778571D01*
X317232142Y-255707142D01*
X317303571Y-255635714D01*
X317303571Y-255778571D01*
X317303571Y-254850000D02*
X317375000Y-254921428D01*
X317303571Y-254992857D01*
X317232142Y-254921428D01*
X317303571Y-254850000D01*
X317303571Y-254992857D01*
X319160714Y-254778571D02*
X319160714Y-256064285D01*
X319089285Y-256207142D01*
X318946428Y-256278571D01*
X318875000Y-256278571D01*
X319160714Y-254278571D02*
X319089285Y-254350000D01*
X319160714Y-254421428D01*
X319232142Y-254350000D01*
X319160714Y-254278571D01*
X319160714Y-254421428D01*
X319732142Y-254778571D02*
X320089285Y-255778571D01*
X320446428Y-254778571D01*
X321660714Y-255707142D02*
X321517857Y-255778571D01*
X321232142Y-255778571D01*
X321089285Y-255707142D01*
X321017857Y-255635714D01*
X320946428Y-255492857D01*
X320946428Y-255064285D01*
X321017857Y-254921428D01*
X321089285Y-254850000D01*
X321232142Y-254778571D01*
X321517857Y-254778571D01*
X321660714Y-254850000D01*
X322946428Y-254778571D02*
X322946428Y-255778571D01*
X322589285Y-254207142D02*
X322232142Y-255278571D01*
X323160714Y-255278571D01*
X323589285Y-254278571D02*
X324517857Y-254278571D01*
X324017857Y-254850000D01*
X324232142Y-254850000D01*
X324375000Y-254921428D01*
X324446428Y-254992857D01*
X324517857Y-255135714D01*
X324517857Y-255492857D01*
X324446428Y-255635714D01*
X324375000Y-255707142D01*
X324232142Y-255778571D01*
X323803571Y-255778571D01*
X323660714Y-255707142D01*
X323589285Y-255635714D01*
X325160714Y-255635714D02*
X325232142Y-255707142D01*
X325160714Y-255778571D01*
X325089285Y-255707142D01*
X325160714Y-255635714D01*
X325160714Y-255778571D01*
X325875000Y-255778571D02*
X325875000Y-254278571D01*
X326017857Y-255207142D02*
X326446428Y-255778571D01*
X326446428Y-254778571D02*
X325875000Y-255350000D01*
X327089285Y-255778571D02*
X327089285Y-254778571D01*
X327089285Y-254278571D02*
X327017857Y-254350000D01*
X327089285Y-254421428D01*
X327160714Y-254350000D01*
X327089285Y-254278571D01*
X327089285Y-254421428D01*
X328446428Y-255707142D02*
X328303571Y-255778571D01*
X328017857Y-255778571D01*
X327875000Y-255707142D01*
X327803571Y-255635714D01*
X327732142Y-255492857D01*
X327732142Y-255064285D01*
X327803571Y-254921428D01*
X327875000Y-254850000D01*
X328017857Y-254778571D01*
X328303571Y-254778571D01*
X328446428Y-254850000D01*
X329732142Y-255778571D02*
X329732142Y-254992857D01*
X329660714Y-254850000D01*
X329517857Y-254778571D01*
X329232142Y-254778571D01*
X329089285Y-254850000D01*
X329732142Y-255707142D02*
X329589285Y-255778571D01*
X329232142Y-255778571D01*
X329089285Y-255707142D01*
X329017857Y-255564285D01*
X329017857Y-255421428D01*
X329089285Y-255278571D01*
X329232142Y-255207142D01*
X329589285Y-255207142D01*
X329732142Y-255135714D01*
X331089285Y-255778571D02*
X331089285Y-254278571D01*
X331089285Y-255707142D02*
X330946428Y-255778571D01*
X330660714Y-255778571D01*
X330517857Y-255707142D01*
X330446428Y-255635714D01*
X330375000Y-255492857D01*
X330375000Y-255064285D01*
X330446428Y-254921428D01*
X330517857Y-254850000D01*
X330660714Y-254778571D01*
X330946428Y-254778571D01*
X331089285Y-254850000D01*
X331446428Y-255921428D02*
X332589285Y-255921428D01*
X332946428Y-254778571D02*
X332946428Y-256278571D01*
X332946428Y-254850000D02*
X333089285Y-254778571D01*
X333375000Y-254778571D01*
X333517857Y-254850000D01*
X333589285Y-254921428D01*
X333660714Y-255064285D01*
X333660714Y-255492857D01*
X333589285Y-255635714D01*
X333517857Y-255707142D01*
X333375000Y-255778571D01*
X333089285Y-255778571D01*
X332946428Y-255707142D01*
X334946428Y-255707142D02*
X334803571Y-255778571D01*
X334517857Y-255778571D01*
X334375000Y-255707142D01*
X334303571Y-255635714D01*
X334232142Y-255492857D01*
X334232142Y-255064285D01*
X334303571Y-254921428D01*
X334375000Y-254850000D01*
X334517857Y-254778571D01*
X334803571Y-254778571D01*
X334946428Y-254850000D01*
X335589285Y-255778571D02*
X335589285Y-254278571D01*
X335589285Y-254850000D02*
X335732142Y-254778571D01*
X336017857Y-254778571D01*
X336160714Y-254850000D01*
X336232142Y-254921428D01*
X336303571Y-255064285D01*
X336303571Y-255492857D01*
X336232142Y-255635714D01*
X336160714Y-255707142D01*
X336017857Y-255778571D01*
X335732142Y-255778571D01*
X335589285Y-255707142D01*
D10*
D11*
X311800000Y-250900000D02*
X419800000Y-250900000D01*
D10*
D11*
X313160714Y-253007142D02*
X313375000Y-253078571D01*
X313732142Y-253078571D01*
X313875000Y-253007142D01*
X313946428Y-252935714D01*
X314017857Y-252792857D01*
X314017857Y-252650000D01*
X313946428Y-252507142D01*
X313875000Y-252435714D01*
X313732142Y-252364285D01*
X313446428Y-252292857D01*
X313303571Y-252221428D01*
X313232142Y-252150000D01*
X313160714Y-252007142D01*
X313160714Y-251864285D01*
X313232142Y-251721428D01*
X313303571Y-251650000D01*
X313446428Y-251578571D01*
X313803571Y-251578571D01*
X314017857Y-251650000D01*
X314660714Y-253078571D02*
X314660714Y-251578571D01*
X315303571Y-253078571D02*
X315303571Y-252292857D01*
X315232142Y-252150000D01*
X315089285Y-252078571D01*
X314875000Y-252078571D01*
X314732142Y-252150000D01*
X314660714Y-252221428D01*
X316589285Y-253007142D02*
X316446428Y-253078571D01*
X316160714Y-253078571D01*
X316017857Y-253007142D01*
X315946428Y-252864285D01*
X315946428Y-252292857D01*
X316017857Y-252150000D01*
X316160714Y-252078571D01*
X316446428Y-252078571D01*
X316589285Y-252150000D01*
X316660714Y-252292857D01*
X316660714Y-252435714D01*
X315946428Y-252578571D01*
X317875000Y-253007142D02*
X317732142Y-253078571D01*
X317446428Y-253078571D01*
X317303571Y-253007142D01*
X317232142Y-252864285D01*
X317232142Y-252292857D01*
X317303571Y-252150000D01*
X317446428Y-252078571D01*
X317732142Y-252078571D01*
X317875000Y-252150000D01*
X317946428Y-252292857D01*
X317946428Y-252435714D01*
X317232142Y-252578571D01*
X318375000Y-252078571D02*
X318946428Y-252078571D01*
X318589285Y-251578571D02*
X318589285Y-252864285D01*
X318660714Y-253007142D01*
X318803571Y-253078571D01*
X318946428Y-253078571D01*
X319446428Y-252935714D02*
X319517857Y-253007142D01*
X319446428Y-253078571D01*
X319375000Y-253007142D01*
X319446428Y-252935714D01*
X319446428Y-253078571D01*
X319446428Y-252150000D02*
X319517857Y-252221428D01*
X319446428Y-252292857D01*
X319375000Y-252221428D01*
X319446428Y-252150000D01*
X319446428Y-252292857D01*
D10*
D12*
X314566428Y-248935714D02*
X314423571Y-248864285D01*
X314137857Y-248864285D01*
X313995000Y-248935714D01*
X313852142Y-249078571D01*
X313780714Y-249221428D01*
X313780714Y-249507142D01*
X313852142Y-249650000D01*
X313995000Y-249792857D01*
X314137857Y-249864285D01*
X314423571Y-249864285D01*
X314566428Y-249792857D01*
X314280714Y-248364285D02*
X313923571Y-248435714D01*
X313566428Y-248650000D01*
X313352142Y-249007142D01*
X313280714Y-249364285D01*
X313352142Y-249721428D01*
X313566428Y-250078571D01*
X313923571Y-250292857D01*
X314280714Y-250364285D01*
X314637857Y-250292857D01*
X314995000Y-250078571D01*
X315209285Y-249721428D01*
X315280714Y-249364285D01*
X315209285Y-249007142D01*
X314995000Y-248650000D01*
X314637857Y-248435714D01*
X314280714Y-248364285D01*
X315852142Y-248721428D02*
X315923571Y-248650000D01*
X316066428Y-248578571D01*
X316423571Y-248578571D01*
X316566428Y-248650000D01*
X316637857Y-248721428D01*
X316709285Y-248864285D01*
X316709285Y-249007142D01*
X316637857Y-249221428D01*
X315780714Y-250078571D01*
X316709285Y-250078571D01*
X317637857Y-248578571D02*
X317780714Y-248578571D01*
X317923571Y-248650000D01*
X317995000Y-248721428D01*
X318066428Y-248864285D01*
X318137857Y-249150000D01*
X318137857Y-249507142D01*
X318066428Y-249792857D01*
X317995000Y-249935714D01*
X317923571Y-250007142D01*
X317780714Y-250078571D01*
X317637857Y-250078571D01*
X317495000Y-250007142D01*
X317423571Y-249935714D01*
X317352142Y-249792857D01*
X317280714Y-249507142D01*
X317280714Y-249150000D01*
X317352142Y-248864285D01*
X317423571Y-248721428D01*
X317495000Y-248650000D01*
X317637857Y-248578571D01*
X318709285Y-248721428D02*
X318780714Y-248650000D01*
X318923571Y-248578571D01*
X319280714Y-248578571D01*
X319423571Y-248650000D01*
X319495000Y-248721428D01*
X319566428Y-248864285D01*
X319566428Y-249007142D01*
X319495000Y-249221428D01*
X318637857Y-250078571D01*
X319566428Y-250078571D01*
X320137857Y-248721428D02*
X320209285Y-248650000D01*
X320352142Y-248578571D01*
X320709285Y-248578571D01*
X320852142Y-248650000D01*
X320923571Y-248721428D01*
X320995000Y-248864285D01*
X320995000Y-249007142D01*
X320923571Y-249221428D01*
X320066428Y-250078571D01*
X320995000Y-250078571D01*
X323066428Y-248578571D02*
X323352142Y-248578571D01*
X323495000Y-248650000D01*
X323637857Y-248792857D01*
X323709285Y-249078571D01*
X323709285Y-249578571D01*
X323637857Y-249864285D01*
X323495000Y-250007142D01*
X323352142Y-250078571D01*
X323066428Y-250078571D01*
X322923571Y-250007142D01*
X322780714Y-249864285D01*
X322709285Y-249578571D01*
X322709285Y-249078571D01*
X322780714Y-248792857D01*
X322923571Y-248650000D01*
X323066428Y-248578571D01*
X324137857Y-248578571D02*
X324995000Y-248578571D01*
X324566428Y-250078571D02*
X324566428Y-248578571D01*
X327495000Y-249935714D02*
X327423571Y-250007142D01*
X327209285Y-250078571D01*
X327066428Y-250078571D01*
X326852142Y-250007142D01*
X326709285Y-249864285D01*
X326637857Y-249721428D01*
X326566428Y-249435714D01*
X326566428Y-249221428D01*
X326637857Y-248935714D01*
X326709285Y-248792857D01*
X326852142Y-248650000D01*
X327066428Y-248578571D01*
X327209285Y-248578571D01*
X327423571Y-248650000D01*
X327495000Y-248721428D01*
X328352142Y-250078571D02*
X328209285Y-250007142D01*
X328137857Y-249935714D01*
X328066428Y-249792857D01*
X328066428Y-249364285D01*
X328137857Y-249221428D01*
X328209285Y-249150000D01*
X328352142Y-249078571D01*
X328566428Y-249078571D01*
X328709285Y-249150000D01*
X328780714Y-249221428D01*
X328852142Y-249364285D01*
X328852142Y-249792857D01*
X328780714Y-249935714D01*
X328709285Y-250007142D01*
X328566428Y-250078571D01*
X328352142Y-250078571D01*
X329495000Y-249078571D02*
X329495000Y-250078571D01*
X329495000Y-249221428D02*
X329566428Y-249150000D01*
X329709285Y-249078571D01*
X329923571Y-249078571D01*
X330066428Y-249150000D01*
X330137857Y-249292857D01*
X330137857Y-250078571D01*
X331495000Y-250007142D02*
X331352142Y-250078571D01*
X331066428Y-250078571D01*
X330923571Y-250007142D01*
X330852142Y-249935714D01*
X330780714Y-249792857D01*
X330780714Y-249364285D01*
X330852142Y-249221428D01*
X330923571Y-249150000D01*
X331066428Y-249078571D01*
X331352142Y-249078571D01*
X331495000Y-249150000D01*
X332352142Y-250078571D02*
X332209285Y-250007142D01*
X332137857Y-249864285D01*
X332137857Y-248578571D01*
X333566428Y-250078571D02*
X333566428Y-249292857D01*
X333495000Y-249150000D01*
X333352142Y-249078571D01*
X333066428Y-249078571D01*
X332923571Y-249150000D01*
X333566428Y-250007142D02*
X333423571Y-250078571D01*
X333066428Y-250078571D01*
X332923571Y-250007142D01*
X332852142Y-249864285D01*
X332852142Y-249721428D01*
X332923571Y-249578571D01*
X333066428Y-249507142D01*
X333423571Y-249507142D01*
X333566428Y-249435714D01*
X334137857Y-249078571D02*
X334495000Y-250078571D01*
X334852142Y-249078571D01*
X335995000Y-250007142D02*
X335852142Y-250078571D01*
X335566428Y-250078571D01*
X335423571Y-250007142D01*
X335352142Y-249864285D01*
X335352142Y-249292857D01*
X335423571Y-249150000D01*
X335566428Y-249078571D01*
X335852142Y-249078571D01*
X335995000Y-249150000D01*
X336066428Y-249292857D01*
X336066428Y-249435714D01*
X335352142Y-249578571D01*
D10*
D11*
X313946428Y-247078571D02*
X313232142Y-247078571D01*
X313232142Y-245578571D01*
X314446428Y-247078571D02*
X314446428Y-246078571D01*
X314446428Y-245578571D02*
X314375000Y-245650000D01*
X314446428Y-245721428D01*
X314517857Y-245650000D01*
X314446428Y-245578571D01*
X314446428Y-245721428D01*
X315803571Y-247007142D02*
X315660714Y-247078571D01*
X315375000Y-247078571D01*
X315232142Y-247007142D01*
X315160714Y-246935714D01*
X315089285Y-246792857D01*
X315089285Y-246364285D01*
X315160714Y-246221428D01*
X315232142Y-246150000D01*
X315375000Y-246078571D01*
X315660714Y-246078571D01*
X315803571Y-246150000D01*
X317017857Y-247007142D02*
X316875000Y-247078571D01*
X316589285Y-247078571D01*
X316446428Y-247007142D01*
X316375000Y-246864285D01*
X316375000Y-246292857D01*
X316446428Y-246150000D01*
X316589285Y-246078571D01*
X316875000Y-246078571D01*
X317017857Y-246150000D01*
X317089285Y-246292857D01*
X317089285Y-246435714D01*
X316375000Y-246578571D01*
X317732142Y-246078571D02*
X317732142Y-247078571D01*
X317732142Y-246221428D02*
X317803571Y-246150000D01*
X317946428Y-246078571D01*
X318160714Y-246078571D01*
X318303571Y-246150000D01*
X318375000Y-246292857D01*
X318375000Y-247078571D01*
X319017857Y-247007142D02*
X319160714Y-247078571D01*
X319446428Y-247078571D01*
X319589285Y-247007142D01*
X319660714Y-246864285D01*
X319660714Y-246792857D01*
X319589285Y-246650000D01*
X319446428Y-246578571D01*
X319232142Y-246578571D01*
X319089285Y-246507142D01*
X319017857Y-246364285D01*
X319017857Y-246292857D01*
X319089285Y-246150000D01*
X319232142Y-246078571D01*
X319446428Y-246078571D01*
X319589285Y-246150000D01*
X320875000Y-247007142D02*
X320732142Y-247078571D01*
X320446428Y-247078571D01*
X320303571Y-247007142D01*
X320232142Y-246864285D01*
X320232142Y-246292857D01*
X320303571Y-246150000D01*
X320446428Y-246078571D01*
X320732142Y-246078571D01*
X320875000Y-246150000D01*
X320946428Y-246292857D01*
X320946428Y-246435714D01*
X320232142Y-246578571D01*
X322232142Y-247078571D02*
X322232142Y-245578571D01*
X322232142Y-247007142D02*
X322089285Y-247078571D01*
X321803571Y-247078571D01*
X321660714Y-247007142D01*
X321589285Y-246935714D01*
X321517857Y-246792857D01*
X321517857Y-246364285D01*
X321589285Y-246221428D01*
X321660714Y-246150000D01*
X321803571Y-246078571D01*
X322089285Y-246078571D01*
X322232142Y-246150000D01*
X324732142Y-246078571D02*
X324732142Y-247078571D01*
X324089285Y-246078571D02*
X324089285Y-246864285D01*
X324160714Y-247007142D01*
X324303571Y-247078571D01*
X324517857Y-247078571D01*
X324660714Y-247007142D01*
X324732142Y-246935714D01*
X325446428Y-246078571D02*
X325446428Y-247078571D01*
X325446428Y-246221428D02*
X325517857Y-246150000D01*
X325660714Y-246078571D01*
X325875000Y-246078571D01*
X326017857Y-246150000D01*
X326089285Y-246292857D01*
X326089285Y-247078571D01*
X327446428Y-247078571D02*
X327446428Y-245578571D01*
X327446428Y-247007142D02*
X327303571Y-247078571D01*
X327017857Y-247078571D01*
X326875000Y-247007142D01*
X326803571Y-246935714D01*
X326732142Y-246792857D01*
X326732142Y-246364285D01*
X326803571Y-246221428D01*
X326875000Y-246150000D01*
X327017857Y-246078571D01*
X327303571Y-246078571D01*
X327446428Y-246150000D01*
X328732142Y-247007142D02*
X328589285Y-247078571D01*
X328303571Y-247078571D01*
X328160714Y-247007142D01*
X328089285Y-246864285D01*
X328089285Y-246292857D01*
X328160714Y-246150000D01*
X328303571Y-246078571D01*
X328589285Y-246078571D01*
X328732142Y-246150000D01*
X328803571Y-246292857D01*
X328803571Y-246435714D01*
X328089285Y-246578571D01*
X329446428Y-247078571D02*
X329446428Y-246078571D01*
X329446428Y-246364285D02*
X329517857Y-246221428D01*
X329589285Y-246150000D01*
X329732142Y-246078571D01*
X329875000Y-246078571D01*
X331303571Y-246078571D02*
X331875000Y-246078571D01*
X331517857Y-245578571D02*
X331517857Y-246864285D01*
X331589285Y-247007142D01*
X331732142Y-247078571D01*
X331875000Y-247078571D01*
X332375000Y-247078571D02*
X332375000Y-245578571D01*
X333017857Y-247078571D02*
X333017857Y-246292857D01*
X332946428Y-246150000D01*
X332803571Y-246078571D01*
X332589285Y-246078571D01*
X332446428Y-246150000D01*
X332375000Y-246221428D01*
X334303571Y-247007142D02*
X334160714Y-247078571D01*
X333875000Y-247078571D01*
X333732142Y-247007142D01*
X333660714Y-246864285D01*
X333660714Y-246292857D01*
X333732142Y-246150000D01*
X333875000Y-246078571D01*
X334160714Y-246078571D01*
X334303571Y-246150000D01*
X334375000Y-246292857D01*
X334375000Y-246435714D01*
X333660714Y-246578571D01*
X335946428Y-245578571D02*
X336803571Y-245578571D01*
X336375000Y-247078571D02*
X336375000Y-245578571D01*
X337232142Y-246650000D02*
X337946428Y-246650000D01*
X337089285Y-247078571D02*
X337589285Y-245578571D01*
X338089285Y-247078571D01*
X338589285Y-247078571D02*
X338589285Y-245578571D01*
X339160714Y-245578571D01*
X339303571Y-245650000D01*
X339375000Y-245721428D01*
X339446428Y-245864285D01*
X339446428Y-246078571D01*
X339375000Y-246221428D01*
X339303571Y-246292857D01*
X339160714Y-246364285D01*
X338589285Y-246364285D01*
X340946428Y-247078571D02*
X340446428Y-246364285D01*
X340089285Y-247078571D02*
X340089285Y-245578571D01*
X340660714Y-245578571D01*
X340803571Y-245650000D01*
X340875000Y-245721428D01*
X340946428Y-245864285D01*
X340946428Y-246078571D01*
X340875000Y-246221428D01*
X340803571Y-246292857D01*
X340660714Y-246364285D01*
X340089285Y-246364285D01*
X343017857Y-245578571D02*
X343303571Y-245578571D01*
X343446428Y-245650000D01*
X343589285Y-245792857D01*
X343660714Y-246078571D01*
X343660714Y-246578571D01*
X343589285Y-246864285D01*
X343446428Y-247007142D01*
X343303571Y-247078571D01*
X343017857Y-247078571D01*
X342875000Y-247007142D01*
X342732142Y-246864285D01*
X342660714Y-246578571D01*
X342660714Y-246078571D01*
X342732142Y-245792857D01*
X342875000Y-245650000D01*
X343017857Y-245578571D01*
X344303571Y-246078571D02*
X344303571Y-247578571D01*
X344303571Y-246150000D02*
X344446428Y-246078571D01*
X344732142Y-246078571D01*
X344875000Y-246150000D01*
X344946428Y-246221428D01*
X345017857Y-246364285D01*
X345017857Y-246792857D01*
X344946428Y-246935714D01*
X344875000Y-247007142D01*
X344732142Y-247078571D01*
X344446428Y-247078571D01*
X344303571Y-247007142D01*
X346232142Y-247007142D02*
X346089285Y-247078571D01*
X345803571Y-247078571D01*
X345660714Y-247007142D01*
X345589285Y-246864285D01*
X345589285Y-246292857D01*
X345660714Y-246150000D01*
X345803571Y-246078571D01*
X346089285Y-246078571D01*
X346232142Y-246150000D01*
X346303571Y-246292857D01*
X346303571Y-246435714D01*
X345589285Y-246578571D01*
X346946428Y-246078571D02*
X346946428Y-247078571D01*
X346946428Y-246221428D02*
X347017857Y-246150000D01*
X347160714Y-246078571D01*
X347375000Y-246078571D01*
X347517857Y-246150000D01*
X347589285Y-246292857D01*
X347589285Y-247078571D01*
X349446428Y-247078571D02*
X349446428Y-245578571D01*
X349446428Y-246292857D02*
X350303571Y-246292857D01*
X350303571Y-247078571D02*
X350303571Y-245578571D01*
X351660714Y-247078571D02*
X351660714Y-246292857D01*
X351589285Y-246150000D01*
X351446428Y-246078571D01*
X351160714Y-246078571D01*
X351017857Y-246150000D01*
X351660714Y-247007142D02*
X351517857Y-247078571D01*
X351160714Y-247078571D01*
X351017857Y-247007142D01*
X350946428Y-246864285D01*
X350946428Y-246721428D01*
X351017857Y-246578571D01*
X351160714Y-246507142D01*
X351517857Y-246507142D01*
X351660714Y-246435714D01*
X352375000Y-247078571D02*
X352375000Y-246078571D01*
X352375000Y-246364285D02*
X352446428Y-246221428D01*
X352517857Y-246150000D01*
X352660714Y-246078571D01*
X352803571Y-246078571D01*
X353946428Y-247078571D02*
X353946428Y-245578571D01*
X353946428Y-247007142D02*
X353803571Y-247078571D01*
X353517857Y-247078571D01*
X353375000Y-247007142D01*
X353303571Y-246935714D01*
X353232142Y-246792857D01*
X353232142Y-246364285D01*
X353303571Y-246221428D01*
X353375000Y-246150000D01*
X353517857Y-246078571D01*
X353803571Y-246078571D01*
X353946428Y-246150000D01*
X354517857Y-246078571D02*
X354803571Y-247078571D01*
X355089285Y-246364285D01*
X355375000Y-247078571D01*
X355660714Y-246078571D01*
X356875000Y-247078571D02*
X356875000Y-246292857D01*
X356803571Y-246150000D01*
X356660714Y-246078571D01*
X356375000Y-246078571D01*
X356232142Y-246150000D01*
X356875000Y-247007142D02*
X356732142Y-247078571D01*
X356375000Y-247078571D01*
X356232142Y-247007142D01*
X356160714Y-246864285D01*
X356160714Y-246721428D01*
X356232142Y-246578571D01*
X356375000Y-246507142D01*
X356732142Y-246507142D01*
X356875000Y-246435714D01*
X357589285Y-247078571D02*
X357589285Y-246078571D01*
X357589285Y-246364285D02*
X357660714Y-246221428D01*
X357732142Y-246150000D01*
X357875000Y-246078571D01*
X358017857Y-246078571D01*
X359089285Y-247007142D02*
X358946428Y-247078571D01*
X358660714Y-247078571D01*
X358517857Y-247007142D01*
X358446428Y-246864285D01*
X358446428Y-246292857D01*
X358517857Y-246150000D01*
X358660714Y-246078571D01*
X358946428Y-246078571D01*
X359089285Y-246150000D01*
X359160714Y-246292857D01*
X359160714Y-246435714D01*
X358446428Y-246578571D01*
X361660714Y-247078571D02*
X360946428Y-247078571D01*
X360946428Y-245578571D01*
X362160714Y-247078571D02*
X362160714Y-246078571D01*
X362160714Y-245578571D02*
X362089285Y-245650000D01*
X362160714Y-245721428D01*
X362232142Y-245650000D01*
X362160714Y-245578571D01*
X362160714Y-245721428D01*
X363517857Y-247007142D02*
X363375000Y-247078571D01*
X363089285Y-247078571D01*
X362946428Y-247007142D01*
X362875000Y-246935714D01*
X362803571Y-246792857D01*
X362803571Y-246364285D01*
X362875000Y-246221428D01*
X362946428Y-246150000D01*
X363089285Y-246078571D01*
X363375000Y-246078571D01*
X363517857Y-246150000D01*
X364732142Y-247007142D02*
X364589285Y-247078571D01*
X364303571Y-247078571D01*
X364160714Y-247007142D01*
X364089285Y-246864285D01*
X364089285Y-246292857D01*
X364160714Y-246150000D01*
X364303571Y-246078571D01*
X364589285Y-246078571D01*
X364732142Y-246150000D01*
X364803571Y-246292857D01*
X364803571Y-246435714D01*
X364089285Y-246578571D01*
X365446428Y-246078571D02*
X365446428Y-247078571D01*
X365446428Y-246221428D02*
X365517857Y-246150000D01*
X365660714Y-246078571D01*
X365875000Y-246078571D01*
X366017857Y-246150000D01*
X366089285Y-246292857D01*
X366089285Y-247078571D01*
X366732142Y-247007142D02*
X366875000Y-247078571D01*
X367160714Y-247078571D01*
X367303571Y-247007142D01*
X367375000Y-246864285D01*
X367375000Y-246792857D01*
X367303571Y-246650000D01*
X367160714Y-246578571D01*
X366946428Y-246578571D01*
X366803571Y-246507142D01*
X366732142Y-246364285D01*
X366732142Y-246292857D01*
X366803571Y-246150000D01*
X366946428Y-246078571D01*
X367160714Y-246078571D01*
X367303571Y-246150000D01*
X368589285Y-247007142D02*
X368446428Y-247078571D01*
X368160714Y-247078571D01*
X368017857Y-247007142D01*
X367946428Y-246864285D01*
X367946428Y-246292857D01*
X368017857Y-246150000D01*
X368160714Y-246078571D01*
X368446428Y-246078571D01*
X368589285Y-246150000D01*
X368660714Y-246292857D01*
X368660714Y-246435714D01*
X367946428Y-246578571D01*
X370303571Y-246078571D02*
X370660714Y-247078571D01*
X371017857Y-246078571D01*
X372375000Y-247078571D02*
X371517857Y-247078571D01*
X371946428Y-247078571D02*
X371946428Y-245578571D01*
X371803571Y-245792857D01*
X371660714Y-245935714D01*
X371517857Y-246007142D01*
X373017857Y-246935714D02*
X373089285Y-247007142D01*
X373017857Y-247078571D01*
X372946428Y-247007142D01*
X373017857Y-246935714D01*
X373017857Y-247078571D01*
X374017857Y-245578571D02*
X374160714Y-245578571D01*
X374303571Y-245650000D01*
X374375000Y-245721428D01*
X374446428Y-245864285D01*
X374517857Y-246150000D01*
X374517857Y-246507142D01*
X374446428Y-246792857D01*
X374375000Y-246935714D01*
X374303571Y-247007142D01*
X374160714Y-247078571D01*
X374017857Y-247078571D01*
X373875000Y-247007142D01*
X373803571Y-246935714D01*
X373732142Y-246792857D01*
X373660714Y-246507142D01*
X373660714Y-246150000D01*
X373732142Y-245864285D01*
X373803571Y-245721428D01*
X373875000Y-245650000D01*
X374017857Y-245578571D01*
D10*
D11*
X331800000Y-260900000D02*
X331800000Y-263900000D01*
D10*
D11*
X395800000Y-260900000D02*
X395800000Y-267400000D01*
D14*
X25400000Y-76200000D02*
X127000000Y-63500000D01*
X127000000Y-54165500D02*
X127000000Y-63500000D01*
X125349000Y-54165500D02*
X127000000Y-54165500D01*
X125349000Y-47434500D02*
X125349000Y-54165500D01*
X127000000Y-47434500D02*
X125349000Y-47434500D01*
X127000000Y-38100000D02*
X127000000Y-47434500D01*
X25400000Y-37274500D02*
X25400000Y-25400000D01*
X27051000Y-37274500D02*
X25400000Y-37274500D01*
X27051000Y-44005500D02*
X27051000Y-37274500D01*
X25400000Y-44005500D02*
X27051000Y-44005500D01*
X25400000Y-76200000D02*
X25400000Y-44005500D01*
X25400000Y-25400000D02*
X127000000Y-38100000D01*
M02*
