%FSLAX45Y45*%
G04 Gerber Fmt 4.5, Leading zero omitted, Abs format (unit mm)*
G04 Created by KiCad (PCBNEW 5.0.2+dfsg1-1) date Mon 19 Dec 2022 04:21:13 PM PST*
%MOMM*%
%LPD*%
G01*
G04 APERTURE LIST*
%ADD10C,0.203200*%
%ADD11C,0.200000*%
%ADD12C,0.300000*%
G04 APERTURE END LIST*
D10*
X2540000Y-7620000D02*
X12700000Y-6350000D01*
X12700000Y-5416550D02*
X12700000Y-6350000D01*
X12534900Y-5416550D02*
X12700000Y-5416550D01*
X12534900Y-4743450D02*
X12534900Y-5416550D01*
X12700000Y-4743450D02*
X12534900Y-4743450D01*
X12700000Y-3810000D02*
X12700000Y-4743450D01*
X2540000Y-3727450D02*
X2540000Y-2540000D01*
X2705100Y-3727450D02*
X2540000Y-3727450D01*
X2705100Y-4400550D02*
X2705100Y-3727450D01*
X2540000Y-4400550D02*
X2705100Y-4400550D01*
X2540000Y-7620000D02*
X2540000Y-4400550D01*
X2540000Y-2540000D02*
X12700000Y-3810000D01*
D11*
X12010000Y-4416000D02*
X12190000Y-4596000D01*
X12190000Y-4416000D02*
X12010000Y-4596000D01*
X12010000Y-5564000D02*
X12190000Y-5744000D01*
X12190000Y-5564000D02*
X12010000Y-5744000D01*
X3050000Y-3400000D02*
X3230000Y-3580000D01*
X3230000Y-3400000D02*
X3050000Y-3580000D01*
X3050000Y-4548000D02*
X3230000Y-4728000D01*
X3230000Y-4548000D02*
X3050000Y-4728000D01*
D12*
X2816268Y-8095874D02*
X2816268Y-7795874D01*
X2887697Y-7795874D01*
X2930554Y-7810160D01*
X2959126Y-7838731D01*
X2973411Y-7867303D01*
X2987697Y-7924446D01*
X2987697Y-7967303D01*
X2973411Y-8024446D01*
X2959126Y-8053017D01*
X2930554Y-8081589D01*
X2887697Y-8095874D01*
X2816268Y-8095874D01*
X3116268Y-8095874D02*
X3116268Y-7895874D01*
X3116268Y-7953017D02*
X3130554Y-7924446D01*
X3144840Y-7910160D01*
X3173411Y-7895874D01*
X3201983Y-7895874D01*
X3301983Y-8095874D02*
X3301983Y-7895874D01*
X3301983Y-7795874D02*
X3287697Y-7810160D01*
X3301983Y-7824446D01*
X3316268Y-7810160D01*
X3301983Y-7795874D01*
X3301983Y-7824446D01*
X3487697Y-8095874D02*
X3459126Y-8081589D01*
X3444840Y-8053017D01*
X3444840Y-7795874D01*
X3644840Y-8095874D02*
X3616268Y-8081589D01*
X3601983Y-8053017D01*
X3601983Y-7795874D01*
X3987697Y-8095874D02*
X3987697Y-7795874D01*
X4087697Y-8010160D01*
X4187697Y-7795874D01*
X4187697Y-8095874D01*
X4459126Y-8095874D02*
X4459126Y-7938731D01*
X4444840Y-7910160D01*
X4416268Y-7895874D01*
X4359126Y-7895874D01*
X4330554Y-7910160D01*
X4459126Y-8081589D02*
X4430554Y-8095874D01*
X4359126Y-8095874D01*
X4330554Y-8081589D01*
X4316268Y-8053017D01*
X4316268Y-8024446D01*
X4330554Y-7995874D01*
X4359126Y-7981589D01*
X4430554Y-7981589D01*
X4459126Y-7967303D01*
X4601983Y-7895874D02*
X4601983Y-8195874D01*
X4601983Y-7910160D02*
X4630554Y-7895874D01*
X4687697Y-7895874D01*
X4716268Y-7910160D01*
X4730554Y-7924446D01*
X4744840Y-7953017D01*
X4744840Y-8038731D01*
X4730554Y-8067303D01*
X4716268Y-8081589D01*
X4687697Y-8095874D01*
X4630554Y-8095874D01*
X4601983Y-8081589D01*
X4873411Y-8067303D02*
X4887697Y-8081589D01*
X4873411Y-8095874D01*
X4859126Y-8081589D01*
X4873411Y-8067303D01*
X4873411Y-8095874D01*
X4873411Y-7910160D02*
X4887697Y-7924446D01*
X4873411Y-7938731D01*
X4859126Y-7924446D01*
X4873411Y-7910160D01*
X4873411Y-7938731D01*
X2349840Y-8500160D02*
X2529840Y-8680160D01*
X2529840Y-8500160D02*
X2349840Y-8680160D01*
X2973411Y-8725874D02*
X2801983Y-8725874D01*
X2887697Y-8725874D02*
X2887697Y-8425874D01*
X2859126Y-8468732D01*
X2830554Y-8497303D01*
X2801983Y-8511589D01*
X3101983Y-8697303D02*
X3116268Y-8711589D01*
X3101983Y-8725874D01*
X3087697Y-8711589D01*
X3101983Y-8697303D01*
X3101983Y-8725874D01*
X3287697Y-8554446D02*
X3259126Y-8540160D01*
X3244840Y-8525874D01*
X3230554Y-8497303D01*
X3230554Y-8483017D01*
X3244840Y-8454446D01*
X3259126Y-8440160D01*
X3287697Y-8425874D01*
X3344840Y-8425874D01*
X3373411Y-8440160D01*
X3387697Y-8454446D01*
X3401983Y-8483017D01*
X3401983Y-8497303D01*
X3387697Y-8525874D01*
X3373411Y-8540160D01*
X3344840Y-8554446D01*
X3287697Y-8554446D01*
X3259126Y-8568732D01*
X3244840Y-8583017D01*
X3230554Y-8611589D01*
X3230554Y-8668732D01*
X3244840Y-8697303D01*
X3259126Y-8711589D01*
X3287697Y-8725874D01*
X3344840Y-8725874D01*
X3373411Y-8711589D01*
X3387697Y-8697303D01*
X3401983Y-8668732D01*
X3401983Y-8611589D01*
X3387697Y-8583017D01*
X3373411Y-8568732D01*
X3344840Y-8554446D01*
X3587697Y-8425874D02*
X3616268Y-8425874D01*
X3644840Y-8440160D01*
X3659126Y-8454446D01*
X3673411Y-8483017D01*
X3687697Y-8540160D01*
X3687697Y-8611589D01*
X3673411Y-8668732D01*
X3659126Y-8697303D01*
X3644840Y-8711589D01*
X3616268Y-8725874D01*
X3587697Y-8725874D01*
X3559126Y-8711589D01*
X3544840Y-8697303D01*
X3530554Y-8668732D01*
X3516268Y-8611589D01*
X3516268Y-8540160D01*
X3530554Y-8483017D01*
X3544840Y-8454446D01*
X3559126Y-8440160D01*
X3587697Y-8425874D01*
X3816268Y-8725874D02*
X3816268Y-8525874D01*
X3816268Y-8554446D02*
X3830554Y-8540160D01*
X3859126Y-8525874D01*
X3901983Y-8525874D01*
X3930554Y-8540160D01*
X3944840Y-8568732D01*
X3944840Y-8725874D01*
X3944840Y-8568732D02*
X3959126Y-8540160D01*
X3987697Y-8525874D01*
X4030554Y-8525874D01*
X4059126Y-8540160D01*
X4073411Y-8568732D01*
X4073411Y-8725874D01*
X4216268Y-8725874D02*
X4216268Y-8525874D01*
X4216268Y-8554446D02*
X4230554Y-8540160D01*
X4259126Y-8525874D01*
X4301983Y-8525874D01*
X4330554Y-8540160D01*
X4344840Y-8568732D01*
X4344840Y-8725874D01*
X4344840Y-8568732D02*
X4359126Y-8540160D01*
X4387697Y-8525874D01*
X4430554Y-8525874D01*
X4459126Y-8540160D01*
X4473411Y-8568732D01*
X4473411Y-8725874D01*
X5059126Y-8411589D02*
X4801983Y-8797303D01*
X5444840Y-8425874D02*
X5473411Y-8425874D01*
X5501983Y-8440160D01*
X5516268Y-8454446D01*
X5530554Y-8483017D01*
X5544840Y-8540160D01*
X5544840Y-8611589D01*
X5530554Y-8668732D01*
X5516268Y-8697303D01*
X5501983Y-8711589D01*
X5473411Y-8725874D01*
X5444840Y-8725874D01*
X5416268Y-8711589D01*
X5401983Y-8697303D01*
X5387697Y-8668732D01*
X5373411Y-8611589D01*
X5373411Y-8540160D01*
X5387697Y-8483017D01*
X5401983Y-8454446D01*
X5416268Y-8440160D01*
X5444840Y-8425874D01*
X5673411Y-8697303D02*
X5687697Y-8711589D01*
X5673411Y-8725874D01*
X5659126Y-8711589D01*
X5673411Y-8697303D01*
X5673411Y-8725874D01*
X5873411Y-8425874D02*
X5901983Y-8425874D01*
X5930554Y-8440160D01*
X5944840Y-8454446D01*
X5959126Y-8483017D01*
X5973411Y-8540160D01*
X5973411Y-8611589D01*
X5959126Y-8668732D01*
X5944840Y-8697303D01*
X5930554Y-8711589D01*
X5901983Y-8725874D01*
X5873411Y-8725874D01*
X5844840Y-8711589D01*
X5830554Y-8697303D01*
X5816268Y-8668732D01*
X5801983Y-8611589D01*
X5801983Y-8540160D01*
X5816268Y-8483017D01*
X5830554Y-8454446D01*
X5844840Y-8440160D01*
X5873411Y-8425874D01*
X6073411Y-8425874D02*
X6273411Y-8425874D01*
X6144840Y-8725874D01*
X6544840Y-8725874D02*
X6373411Y-8725874D01*
X6459126Y-8725874D02*
X6459126Y-8425874D01*
X6430554Y-8468732D01*
X6401983Y-8497303D01*
X6373411Y-8511589D01*
X6659126Y-8425874D02*
X6659126Y-8483017D01*
X6773411Y-8425874D02*
X6773411Y-8483017D01*
X7216268Y-8840160D02*
X7201983Y-8825874D01*
X7173411Y-8783017D01*
X7159126Y-8754446D01*
X7144840Y-8711589D01*
X7130554Y-8640160D01*
X7130554Y-8583017D01*
X7144840Y-8511589D01*
X7159126Y-8468732D01*
X7173411Y-8440160D01*
X7201983Y-8397303D01*
X7216268Y-8383017D01*
X7459126Y-8525874D02*
X7459126Y-8725874D01*
X7387697Y-8411589D02*
X7316268Y-8625874D01*
X7501983Y-8625874D01*
X7844840Y-8725874D02*
X7844840Y-8425874D01*
X7973411Y-8725874D02*
X7973411Y-8568732D01*
X7959126Y-8540160D01*
X7930554Y-8525874D01*
X7887697Y-8525874D01*
X7859126Y-8540160D01*
X7844840Y-8554446D01*
X8159126Y-8725874D02*
X8130554Y-8711589D01*
X8116268Y-8697303D01*
X8101983Y-8668732D01*
X8101983Y-8583017D01*
X8116268Y-8554446D01*
X8130554Y-8540160D01*
X8159126Y-8525874D01*
X8201983Y-8525874D01*
X8230554Y-8540160D01*
X8244840Y-8554446D01*
X8259126Y-8583017D01*
X8259126Y-8668732D01*
X8244840Y-8697303D01*
X8230554Y-8711589D01*
X8201983Y-8725874D01*
X8159126Y-8725874D01*
X8430554Y-8725874D02*
X8401983Y-8711589D01*
X8387697Y-8683017D01*
X8387697Y-8425874D01*
X8659126Y-8711589D02*
X8630554Y-8725874D01*
X8573411Y-8725874D01*
X8544840Y-8711589D01*
X8530554Y-8683017D01*
X8530554Y-8568732D01*
X8544840Y-8540160D01*
X8573411Y-8525874D01*
X8630554Y-8525874D01*
X8659126Y-8540160D01*
X8673411Y-8568732D01*
X8673411Y-8597303D01*
X8530554Y-8625874D01*
X8787697Y-8711589D02*
X8816268Y-8725874D01*
X8873411Y-8725874D01*
X8901983Y-8711589D01*
X8916268Y-8683017D01*
X8916268Y-8668732D01*
X8901983Y-8640160D01*
X8873411Y-8625874D01*
X8830554Y-8625874D01*
X8801983Y-8611589D01*
X8787697Y-8583017D01*
X8787697Y-8568732D01*
X8801983Y-8540160D01*
X8830554Y-8525874D01*
X8873411Y-8525874D01*
X8901983Y-8540160D01*
X9016268Y-8840160D02*
X9030554Y-8825874D01*
X9059126Y-8783017D01*
X9073411Y-8754446D01*
X9087697Y-8711589D01*
X9101983Y-8640160D01*
X9101983Y-8583017D01*
X9087697Y-8511589D01*
X9073411Y-8468732D01*
X9059126Y-8440160D01*
X9030554Y-8397303D01*
X9016268Y-8383017D01*
X9559126Y-8840160D02*
X9544840Y-8825874D01*
X9516268Y-8783017D01*
X9501983Y-8754446D01*
X9487697Y-8711589D01*
X9473411Y-8640160D01*
X9473411Y-8583017D01*
X9487697Y-8511589D01*
X9501983Y-8468732D01*
X9516268Y-8440160D01*
X9544840Y-8397303D01*
X9559126Y-8383017D01*
X9673411Y-8525874D02*
X9673411Y-8725874D01*
X9673411Y-8554446D02*
X9687697Y-8540160D01*
X9716268Y-8525874D01*
X9759126Y-8525874D01*
X9787697Y-8540160D01*
X9801983Y-8568732D01*
X9801983Y-8725874D01*
X9987697Y-8725874D02*
X9959126Y-8711589D01*
X9944840Y-8697303D01*
X9930554Y-8668732D01*
X9930554Y-8583017D01*
X9944840Y-8554446D01*
X9959126Y-8540160D01*
X9987697Y-8525874D01*
X10030554Y-8525874D01*
X10059126Y-8540160D01*
X10073411Y-8554446D01*
X10087697Y-8583017D01*
X10087697Y-8668732D01*
X10073411Y-8697303D01*
X10059126Y-8711589D01*
X10030554Y-8725874D01*
X9987697Y-8725874D01*
X10173411Y-8525874D02*
X10287697Y-8525874D01*
X10216268Y-8425874D02*
X10216268Y-8683017D01*
X10230554Y-8711589D01*
X10259126Y-8725874D01*
X10287697Y-8725874D01*
X10616268Y-8525874D02*
X10616268Y-8825874D01*
X10616268Y-8540160D02*
X10644840Y-8525874D01*
X10701983Y-8525874D01*
X10730554Y-8540160D01*
X10744840Y-8554446D01*
X10759126Y-8583017D01*
X10759126Y-8668732D01*
X10744840Y-8697303D01*
X10730554Y-8711589D01*
X10701983Y-8725874D01*
X10644840Y-8725874D01*
X10616268Y-8711589D01*
X10930554Y-8725874D02*
X10901983Y-8711589D01*
X10887697Y-8683017D01*
X10887697Y-8425874D01*
X11173411Y-8725874D02*
X11173411Y-8568732D01*
X11159126Y-8540160D01*
X11130554Y-8525874D01*
X11073411Y-8525874D01*
X11044840Y-8540160D01*
X11173411Y-8711589D02*
X11144840Y-8725874D01*
X11073411Y-8725874D01*
X11044840Y-8711589D01*
X11030554Y-8683017D01*
X11030554Y-8654446D01*
X11044840Y-8625874D01*
X11073411Y-8611589D01*
X11144840Y-8611589D01*
X11173411Y-8597303D01*
X11273411Y-8525874D02*
X11387697Y-8525874D01*
X11316268Y-8425874D02*
X11316268Y-8683017D01*
X11330554Y-8711589D01*
X11359126Y-8725874D01*
X11387697Y-8725874D01*
X11601983Y-8711589D02*
X11573411Y-8725874D01*
X11516268Y-8725874D01*
X11487697Y-8711589D01*
X11473411Y-8683017D01*
X11473411Y-8568732D01*
X11487697Y-8540160D01*
X11516268Y-8525874D01*
X11573411Y-8525874D01*
X11601983Y-8540160D01*
X11616268Y-8568732D01*
X11616268Y-8597303D01*
X11473411Y-8625874D01*
X11873411Y-8725874D02*
X11873411Y-8425874D01*
X11873411Y-8711589D02*
X11844840Y-8725874D01*
X11787697Y-8725874D01*
X11759126Y-8711589D01*
X11744840Y-8697303D01*
X11730554Y-8668732D01*
X11730554Y-8583017D01*
X11744840Y-8554446D01*
X11759126Y-8540160D01*
X11787697Y-8525874D01*
X11844840Y-8525874D01*
X11873411Y-8540160D01*
X11987697Y-8840160D02*
X12001983Y-8825874D01*
X12030554Y-8783017D01*
X12044840Y-8754446D01*
X12059126Y-8711589D01*
X12073411Y-8640160D01*
X12073411Y-8583017D01*
X12059126Y-8511589D01*
X12044840Y-8468732D01*
X12030554Y-8440160D01*
X12001983Y-8397303D01*
X11987697Y-8383017D01*
M02*
