G04 #@! TF.GenerationSoftware,KiCad,Pcbnew,5.0.2+dfsg1-1*
G04 #@! TF.CreationDate,2022-12-19T09:08:40-08:00*
G04 #@! TF.ProjectId,jvc43,6a766334-332e-46b6-9963-61645f706362,1*
G04 #@! TF.SameCoordinates,Original*
G04 #@! TF.FileFunction,Copper,L4,Inr*
G04 #@! TF.FilePolarity,Positive*
%FSLAX46Y46*%
G04 Gerber Fmt 4.6, Leading zero omitted, Abs format (unit mm)*
G04 Created by KiCad (PCBNEW 5.0.2+dfsg1-1) date Mon 19 Dec 2022 09:08:40 AM PST*
%MOMM*%
%LPD*%
G01*
G04 APERTURE LIST*
%ADD10C,0.100000*%
%ADD11C,0.150000*%
%ADD12C,0.300000*%
%ADD13C,0.400000*%
G04 #@! TA.AperFunction,NonConductor*
%ADD14C,0.300000*%
G04 #@! TD*
G04 #@! TA.AperFunction,ViaPad*
%ADD15C,1.600000*%
G04 #@! TD*
G04 #@! TA.AperFunction,ViaPad*
%ADD16C,1.295400*%
G04 #@! TD*
G04 #@! TA.AperFunction,ViaPad*
%ADD17O,2.500000X1.300000*%
G04 #@! TD*
G04 #@! TA.AperFunction,WasherPad*
%ADD18C,2.300000*%
G04 #@! TD*
G04 #@! TA.AperFunction,ViaPad*
%ADD19O,1.700000X0.900000*%
G04 #@! TD*
G04 #@! TA.AperFunction,ViaPad*
%ADD20O,2.400000X0.900000*%
G04 #@! TD*
G04 #@! TA.AperFunction,ViaPad*
%ADD21C,0.650000*%
G04 #@! TD*
G04 #@! TA.AperFunction,ViaPad*
%ADD22C,0.700000*%
G04 #@! TD*
G04 #@! TA.AperFunction,ViaPad*
%ADD23C,0.457200*%
G04 #@! TD*
G04 #@! TA.AperFunction,ViaPad*
%ADD24C,0.635000*%
G04 #@! TD*
G04 #@! TA.AperFunction,Conductor*
%ADD25C,0.198120*%
G04 #@! TD*
G04 APERTURE END LIST*
D10*
D11*
X311800000Y-235400000D02*
X311800000Y-267400000D01*
X419800000Y-267400000D01*
X419800000Y-235400000D01*
X311800000Y-235400000D01*
D10*
D11*
X10000000Y-10000000D02*
X10000000Y-269400000D01*
X421800000Y-269400000D01*
X421800000Y-10000000D01*
X10000000Y-10000000D01*
D10*
D11*
X12000000Y-12000000D02*
X12000000Y-267400000D01*
X419800000Y-267400000D01*
X419800000Y-12000000D01*
X12000000Y-12000000D01*
D10*
D11*
X60000000Y-12000000D02*
X60000000Y-10000000D01*
D10*
D11*
X110000000Y-12000000D02*
X110000000Y-10000000D01*
D10*
D11*
X160000000Y-12000000D02*
X160000000Y-10000000D01*
D10*
D11*
X210000000Y-12000000D02*
X210000000Y-10000000D01*
D10*
D11*
X260000000Y-12000000D02*
X260000000Y-10000000D01*
D10*
D11*
X310000000Y-12000000D02*
X310000000Y-10000000D01*
D10*
D11*
X360000000Y-12000000D02*
X360000000Y-10000000D01*
D10*
D11*
X410000000Y-12000000D02*
X410000000Y-10000000D01*
D10*
D11*
X36065476Y-11588095D02*
X35322619Y-11588095D01*
X35694047Y-11588095D02*
X35694047Y-10288095D01*
X35570238Y-10473809D01*
X35446428Y-10597619D01*
X35322619Y-10659523D01*
D10*
D11*
X85322619Y-10411904D02*
X85384523Y-10350000D01*
X85508333Y-10288095D01*
X85817857Y-10288095D01*
X85941666Y-10350000D01*
X86003571Y-10411904D01*
X86065476Y-10535714D01*
X86065476Y-10659523D01*
X86003571Y-10845238D01*
X85260714Y-11588095D01*
X86065476Y-11588095D01*
D10*
D11*
X135260714Y-10288095D02*
X136065476Y-10288095D01*
X135632142Y-10783333D01*
X135817857Y-10783333D01*
X135941666Y-10845238D01*
X136003571Y-10907142D01*
X136065476Y-11030952D01*
X136065476Y-11340476D01*
X136003571Y-11464285D01*
X135941666Y-11526190D01*
X135817857Y-11588095D01*
X135446428Y-11588095D01*
X135322619Y-11526190D01*
X135260714Y-11464285D01*
D10*
D11*
X185941666Y-10721428D02*
X185941666Y-11588095D01*
X185632142Y-10226190D02*
X185322619Y-11154761D01*
X186127380Y-11154761D01*
D10*
D11*
X236003571Y-10288095D02*
X235384523Y-10288095D01*
X235322619Y-10907142D01*
X235384523Y-10845238D01*
X235508333Y-10783333D01*
X235817857Y-10783333D01*
X235941666Y-10845238D01*
X236003571Y-10907142D01*
X236065476Y-11030952D01*
X236065476Y-11340476D01*
X236003571Y-11464285D01*
X235941666Y-11526190D01*
X235817857Y-11588095D01*
X235508333Y-11588095D01*
X235384523Y-11526190D01*
X235322619Y-11464285D01*
D10*
D11*
X285941666Y-10288095D02*
X285694047Y-10288095D01*
X285570238Y-10350000D01*
X285508333Y-10411904D01*
X285384523Y-10597619D01*
X285322619Y-10845238D01*
X285322619Y-11340476D01*
X285384523Y-11464285D01*
X285446428Y-11526190D01*
X285570238Y-11588095D01*
X285817857Y-11588095D01*
X285941666Y-11526190D01*
X286003571Y-11464285D01*
X286065476Y-11340476D01*
X286065476Y-11030952D01*
X286003571Y-10907142D01*
X285941666Y-10845238D01*
X285817857Y-10783333D01*
X285570238Y-10783333D01*
X285446428Y-10845238D01*
X285384523Y-10907142D01*
X285322619Y-11030952D01*
D10*
D11*
X335260714Y-10288095D02*
X336127380Y-10288095D01*
X335570238Y-11588095D01*
D10*
D11*
X385570238Y-10845238D02*
X385446428Y-10783333D01*
X385384523Y-10721428D01*
X385322619Y-10597619D01*
X385322619Y-10535714D01*
X385384523Y-10411904D01*
X385446428Y-10350000D01*
X385570238Y-10288095D01*
X385817857Y-10288095D01*
X385941666Y-10350000D01*
X386003571Y-10411904D01*
X386065476Y-10535714D01*
X386065476Y-10597619D01*
X386003571Y-10721428D01*
X385941666Y-10783333D01*
X385817857Y-10845238D01*
X385570238Y-10845238D01*
X385446428Y-10907142D01*
X385384523Y-10969047D01*
X385322619Y-11092857D01*
X385322619Y-11340476D01*
X385384523Y-11464285D01*
X385446428Y-11526190D01*
X385570238Y-11588095D01*
X385817857Y-11588095D01*
X385941666Y-11526190D01*
X386003571Y-11464285D01*
X386065476Y-11340476D01*
X386065476Y-11092857D01*
X386003571Y-10969047D01*
X385941666Y-10907142D01*
X385817857Y-10845238D01*
D10*
D11*
X60000000Y-267400000D02*
X60000000Y-269400000D01*
D10*
D11*
X110000000Y-267400000D02*
X110000000Y-269400000D01*
D10*
D11*
X160000000Y-267400000D02*
X160000000Y-269400000D01*
D10*
D11*
X210000000Y-267400000D02*
X210000000Y-269400000D01*
D10*
D11*
X260000000Y-267400000D02*
X260000000Y-269400000D01*
D10*
D11*
X310000000Y-267400000D02*
X310000000Y-269400000D01*
D10*
D11*
X360000000Y-267400000D02*
X360000000Y-269400000D01*
D10*
D11*
X410000000Y-267400000D02*
X410000000Y-269400000D01*
D10*
D11*
X36065476Y-268988095D02*
X35322619Y-268988095D01*
X35694047Y-268988095D02*
X35694047Y-267688095D01*
X35570238Y-267873809D01*
X35446428Y-267997619D01*
X35322619Y-268059523D01*
D10*
D11*
X85322619Y-267811904D02*
X85384523Y-267750000D01*
X85508333Y-267688095D01*
X85817857Y-267688095D01*
X85941666Y-267750000D01*
X86003571Y-267811904D01*
X86065476Y-267935714D01*
X86065476Y-268059523D01*
X86003571Y-268245238D01*
X85260714Y-268988095D01*
X86065476Y-268988095D01*
D10*
D11*
X135260714Y-267688095D02*
X136065476Y-267688095D01*
X135632142Y-268183333D01*
X135817857Y-268183333D01*
X135941666Y-268245238D01*
X136003571Y-268307142D01*
X136065476Y-268430952D01*
X136065476Y-268740476D01*
X136003571Y-268864285D01*
X135941666Y-268926190D01*
X135817857Y-268988095D01*
X135446428Y-268988095D01*
X135322619Y-268926190D01*
X135260714Y-268864285D01*
D10*
D11*
X185941666Y-268121428D02*
X185941666Y-268988095D01*
X185632142Y-267626190D02*
X185322619Y-268554761D01*
X186127380Y-268554761D01*
D10*
D11*
X236003571Y-267688095D02*
X235384523Y-267688095D01*
X235322619Y-268307142D01*
X235384523Y-268245238D01*
X235508333Y-268183333D01*
X235817857Y-268183333D01*
X235941666Y-268245238D01*
X236003571Y-268307142D01*
X236065476Y-268430952D01*
X236065476Y-268740476D01*
X236003571Y-268864285D01*
X235941666Y-268926190D01*
X235817857Y-268988095D01*
X235508333Y-268988095D01*
X235384523Y-268926190D01*
X235322619Y-268864285D01*
D10*
D11*
X285941666Y-267688095D02*
X285694047Y-267688095D01*
X285570238Y-267750000D01*
X285508333Y-267811904D01*
X285384523Y-267997619D01*
X285322619Y-268245238D01*
X285322619Y-268740476D01*
X285384523Y-268864285D01*
X285446428Y-268926190D01*
X285570238Y-268988095D01*
X285817857Y-268988095D01*
X285941666Y-268926190D01*
X286003571Y-268864285D01*
X286065476Y-268740476D01*
X286065476Y-268430952D01*
X286003571Y-268307142D01*
X285941666Y-268245238D01*
X285817857Y-268183333D01*
X285570238Y-268183333D01*
X285446428Y-268245238D01*
X285384523Y-268307142D01*
X285322619Y-268430952D01*
D10*
D11*
X335260714Y-267688095D02*
X336127380Y-267688095D01*
X335570238Y-268988095D01*
D10*
D11*
X385570238Y-268245238D02*
X385446428Y-268183333D01*
X385384523Y-268121428D01*
X385322619Y-267997619D01*
X385322619Y-267935714D01*
X385384523Y-267811904D01*
X385446428Y-267750000D01*
X385570238Y-267688095D01*
X385817857Y-267688095D01*
X385941666Y-267750000D01*
X386003571Y-267811904D01*
X386065476Y-267935714D01*
X386065476Y-267997619D01*
X386003571Y-268121428D01*
X385941666Y-268183333D01*
X385817857Y-268245238D01*
X385570238Y-268245238D01*
X385446428Y-268307142D01*
X385384523Y-268369047D01*
X385322619Y-268492857D01*
X385322619Y-268740476D01*
X385384523Y-268864285D01*
X385446428Y-268926190D01*
X385570238Y-268988095D01*
X385817857Y-268988095D01*
X385941666Y-268926190D01*
X386003571Y-268864285D01*
X386065476Y-268740476D01*
X386065476Y-268492857D01*
X386003571Y-268369047D01*
X385941666Y-268307142D01*
X385817857Y-268245238D01*
D10*
D11*
X10000000Y-60000000D02*
X12000000Y-60000000D01*
D10*
D11*
X10000000Y-110000000D02*
X12000000Y-110000000D01*
D10*
D11*
X10000000Y-160000000D02*
X12000000Y-160000000D01*
D10*
D11*
X10000000Y-210000000D02*
X12000000Y-210000000D01*
D10*
D11*
X10000000Y-260000000D02*
X12000000Y-260000000D01*
D10*
D11*
X10690476Y-35216666D02*
X11309523Y-35216666D01*
X10566666Y-35588095D02*
X11000000Y-34288095D01*
X11433333Y-35588095D01*
D10*
D11*
X11092857Y-84907142D02*
X11278571Y-84969047D01*
X11340476Y-85030952D01*
X11402380Y-85154761D01*
X11402380Y-85340476D01*
X11340476Y-85464285D01*
X11278571Y-85526190D01*
X11154761Y-85588095D01*
X10659523Y-85588095D01*
X10659523Y-84288095D01*
X11092857Y-84288095D01*
X11216666Y-84350000D01*
X11278571Y-84411904D01*
X11340476Y-84535714D01*
X11340476Y-84659523D01*
X11278571Y-84783333D01*
X11216666Y-84845238D01*
X11092857Y-84907142D01*
X10659523Y-84907142D01*
D10*
D11*
X11402380Y-135464285D02*
X11340476Y-135526190D01*
X11154761Y-135588095D01*
X11030952Y-135588095D01*
X10845238Y-135526190D01*
X10721428Y-135402380D01*
X10659523Y-135278571D01*
X10597619Y-135030952D01*
X10597619Y-134845238D01*
X10659523Y-134597619D01*
X10721428Y-134473809D01*
X10845238Y-134350000D01*
X11030952Y-134288095D01*
X11154761Y-134288095D01*
X11340476Y-134350000D01*
X11402380Y-134411904D01*
D10*
D11*
X10659523Y-185588095D02*
X10659523Y-184288095D01*
X10969047Y-184288095D01*
X11154761Y-184350000D01*
X11278571Y-184473809D01*
X11340476Y-184597619D01*
X11402380Y-184845238D01*
X11402380Y-185030952D01*
X11340476Y-185278571D01*
X11278571Y-185402380D01*
X11154761Y-185526190D01*
X10969047Y-185588095D01*
X10659523Y-185588095D01*
D10*
D11*
X10721428Y-234907142D02*
X11154761Y-234907142D01*
X11340476Y-235588095D02*
X10721428Y-235588095D01*
X10721428Y-234288095D01*
X11340476Y-234288095D01*
D10*
D11*
X421800000Y-60000000D02*
X419800000Y-60000000D01*
D10*
D11*
X421800000Y-110000000D02*
X419800000Y-110000000D01*
D10*
D11*
X421800000Y-160000000D02*
X419800000Y-160000000D01*
D10*
D11*
X421800000Y-210000000D02*
X419800000Y-210000000D01*
D10*
D11*
X421800000Y-260000000D02*
X419800000Y-260000000D01*
D10*
D11*
X420490476Y-35216666D02*
X421109523Y-35216666D01*
X420366666Y-35588095D02*
X420800000Y-34288095D01*
X421233333Y-35588095D01*
D10*
D11*
X420892857Y-84907142D02*
X421078571Y-84969047D01*
X421140476Y-85030952D01*
X421202380Y-85154761D01*
X421202380Y-85340476D01*
X421140476Y-85464285D01*
X421078571Y-85526190D01*
X420954761Y-85588095D01*
X420459523Y-85588095D01*
X420459523Y-84288095D01*
X420892857Y-84288095D01*
X421016666Y-84350000D01*
X421078571Y-84411904D01*
X421140476Y-84535714D01*
X421140476Y-84659523D01*
X421078571Y-84783333D01*
X421016666Y-84845238D01*
X420892857Y-84907142D01*
X420459523Y-84907142D01*
D10*
D11*
X421202380Y-135464285D02*
X421140476Y-135526190D01*
X420954761Y-135588095D01*
X420830952Y-135588095D01*
X420645238Y-135526190D01*
X420521428Y-135402380D01*
X420459523Y-135278571D01*
X420397619Y-135030952D01*
X420397619Y-134845238D01*
X420459523Y-134597619D01*
X420521428Y-134473809D01*
X420645238Y-134350000D01*
X420830952Y-134288095D01*
X420954761Y-134288095D01*
X421140476Y-134350000D01*
X421202380Y-134411904D01*
D10*
D11*
X420459523Y-185588095D02*
X420459523Y-184288095D01*
X420769047Y-184288095D01*
X420954761Y-184350000D01*
X421078571Y-184473809D01*
X421140476Y-184597619D01*
X421202380Y-184845238D01*
X421202380Y-185030952D01*
X421140476Y-185278571D01*
X421078571Y-185402380D01*
X420954761Y-185526190D01*
X420769047Y-185588095D01*
X420459523Y-185588095D01*
D10*
D11*
X420521428Y-234907142D02*
X420954761Y-234907142D01*
X421140476Y-235588095D02*
X420521428Y-235588095D01*
X420521428Y-234288095D01*
X421140476Y-234288095D01*
D10*
D11*
X335232142Y-263178571D02*
X335232142Y-261678571D01*
X335589285Y-261678571D01*
X335803571Y-261750000D01*
X335946428Y-261892857D01*
X336017857Y-262035714D01*
X336089285Y-262321428D01*
X336089285Y-262535714D01*
X336017857Y-262821428D01*
X335946428Y-262964285D01*
X335803571Y-263107142D01*
X335589285Y-263178571D01*
X335232142Y-263178571D01*
X337375000Y-263178571D02*
X337375000Y-262392857D01*
X337303571Y-262250000D01*
X337160714Y-262178571D01*
X336875000Y-262178571D01*
X336732142Y-262250000D01*
X337375000Y-263107142D02*
X337232142Y-263178571D01*
X336875000Y-263178571D01*
X336732142Y-263107142D01*
X336660714Y-262964285D01*
X336660714Y-262821428D01*
X336732142Y-262678571D01*
X336875000Y-262607142D01*
X337232142Y-262607142D01*
X337375000Y-262535714D01*
X337875000Y-262178571D02*
X338446428Y-262178571D01*
X338089285Y-261678571D02*
X338089285Y-262964285D01*
X338160714Y-263107142D01*
X338303571Y-263178571D01*
X338446428Y-263178571D01*
X339517857Y-263107142D02*
X339375000Y-263178571D01*
X339089285Y-263178571D01*
X338946428Y-263107142D01*
X338875000Y-262964285D01*
X338875000Y-262392857D01*
X338946428Y-262250000D01*
X339089285Y-262178571D01*
X339375000Y-262178571D01*
X339517857Y-262250000D01*
X339589285Y-262392857D01*
X339589285Y-262535714D01*
X338875000Y-262678571D01*
X340232142Y-263035714D02*
X340303571Y-263107142D01*
X340232142Y-263178571D01*
X340160714Y-263107142D01*
X340232142Y-263035714D01*
X340232142Y-263178571D01*
X340232142Y-262250000D02*
X340303571Y-262321428D01*
X340232142Y-262392857D01*
X340160714Y-262321428D01*
X340232142Y-262250000D01*
X340232142Y-262392857D01*
X342017857Y-261821428D02*
X342089285Y-261750000D01*
X342232142Y-261678571D01*
X342589285Y-261678571D01*
X342732142Y-261750000D01*
X342803571Y-261821428D01*
X342875000Y-261964285D01*
X342875000Y-262107142D01*
X342803571Y-262321428D01*
X341946428Y-263178571D01*
X342875000Y-263178571D01*
X343803571Y-261678571D02*
X343946428Y-261678571D01*
X344089285Y-261750000D01*
X344160714Y-261821428D01*
X344232142Y-261964285D01*
X344303571Y-262250000D01*
X344303571Y-262607142D01*
X344232142Y-262892857D01*
X344160714Y-263035714D01*
X344089285Y-263107142D01*
X343946428Y-263178571D01*
X343803571Y-263178571D01*
X343660714Y-263107142D01*
X343589285Y-263035714D01*
X343517857Y-262892857D01*
X343446428Y-262607142D01*
X343446428Y-262250000D01*
X343517857Y-261964285D01*
X343589285Y-261821428D01*
X343660714Y-261750000D01*
X343803571Y-261678571D01*
X344875000Y-261821428D02*
X344946428Y-261750000D01*
X345089285Y-261678571D01*
X345446428Y-261678571D01*
X345589285Y-261750000D01*
X345660714Y-261821428D01*
X345732142Y-261964285D01*
X345732142Y-262107142D01*
X345660714Y-262321428D01*
X344803571Y-263178571D01*
X345732142Y-263178571D01*
X346303571Y-261821428D02*
X346375000Y-261750000D01*
X346517857Y-261678571D01*
X346875000Y-261678571D01*
X347017857Y-261750000D01*
X347089285Y-261821428D01*
X347160714Y-261964285D01*
X347160714Y-262107142D01*
X347089285Y-262321428D01*
X346232142Y-263178571D01*
X347160714Y-263178571D01*
X347803571Y-262607142D02*
X348946428Y-262607142D01*
X350446428Y-263178571D02*
X349589285Y-263178571D01*
X350017857Y-263178571D02*
X350017857Y-261678571D01*
X349875000Y-261892857D01*
X349732142Y-262035714D01*
X349589285Y-262107142D01*
X351017857Y-261821428D02*
X351089285Y-261750000D01*
X351232142Y-261678571D01*
X351589285Y-261678571D01*
X351732142Y-261750000D01*
X351803571Y-261821428D01*
X351875000Y-261964285D01*
X351875000Y-262107142D01*
X351803571Y-262321428D01*
X350946428Y-263178571D01*
X351875000Y-263178571D01*
X352517857Y-262607142D02*
X353660714Y-262607142D01*
X355160714Y-263178571D02*
X354303571Y-263178571D01*
X354732142Y-263178571D02*
X354732142Y-261678571D01*
X354589285Y-261892857D01*
X354446428Y-262035714D01*
X354303571Y-262107142D01*
X355875000Y-263178571D02*
X356160714Y-263178571D01*
X356303571Y-263107142D01*
X356375000Y-263035714D01*
X356517857Y-262821428D01*
X356589285Y-262535714D01*
X356589285Y-261964285D01*
X356517857Y-261821428D01*
X356446428Y-261750000D01*
X356303571Y-261678571D01*
X356017857Y-261678571D01*
X355875000Y-261750000D01*
X355803571Y-261821428D01*
X355732142Y-261964285D01*
X355732142Y-262321428D01*
X355803571Y-262464285D01*
X355875000Y-262535714D01*
X356017857Y-262607142D01*
X356303571Y-262607142D01*
X356446428Y-262535714D01*
X356517857Y-262464285D01*
X356589285Y-262321428D01*
D10*
D11*
X311800000Y-263900000D02*
X419800000Y-263900000D01*
D10*
D11*
X313232142Y-265978571D02*
X313232142Y-264478571D01*
X314089285Y-265978571D02*
X313446428Y-265121428D01*
X314089285Y-264478571D02*
X313232142Y-265335714D01*
X314732142Y-265978571D02*
X314732142Y-264978571D01*
X314732142Y-264478571D02*
X314660714Y-264550000D01*
X314732142Y-264621428D01*
X314803571Y-264550000D01*
X314732142Y-264478571D01*
X314732142Y-264621428D01*
X316303571Y-265835714D02*
X316232142Y-265907142D01*
X316017857Y-265978571D01*
X315875000Y-265978571D01*
X315660714Y-265907142D01*
X315517857Y-265764285D01*
X315446428Y-265621428D01*
X315375000Y-265335714D01*
X315375000Y-265121428D01*
X315446428Y-264835714D01*
X315517857Y-264692857D01*
X315660714Y-264550000D01*
X315875000Y-264478571D01*
X316017857Y-264478571D01*
X316232142Y-264550000D01*
X316303571Y-264621428D01*
X317589285Y-265978571D02*
X317589285Y-265192857D01*
X317517857Y-265050000D01*
X317375000Y-264978571D01*
X317089285Y-264978571D01*
X316946428Y-265050000D01*
X317589285Y-265907142D02*
X317446428Y-265978571D01*
X317089285Y-265978571D01*
X316946428Y-265907142D01*
X316875000Y-265764285D01*
X316875000Y-265621428D01*
X316946428Y-265478571D01*
X317089285Y-265407142D01*
X317446428Y-265407142D01*
X317589285Y-265335714D01*
X318946428Y-265978571D02*
X318946428Y-264478571D01*
X318946428Y-265907142D02*
X318803571Y-265978571D01*
X318517857Y-265978571D01*
X318375000Y-265907142D01*
X318303571Y-265835714D01*
X318232142Y-265692857D01*
X318232142Y-265264285D01*
X318303571Y-265121428D01*
X318375000Y-265050000D01*
X318517857Y-264978571D01*
X318803571Y-264978571D01*
X318946428Y-265050000D01*
X320803571Y-265192857D02*
X321303571Y-265192857D01*
X321517857Y-265978571D02*
X320803571Y-265978571D01*
X320803571Y-264478571D01*
X321517857Y-264478571D01*
X322160714Y-265835714D02*
X322232142Y-265907142D01*
X322160714Y-265978571D01*
X322089285Y-265907142D01*
X322160714Y-265835714D01*
X322160714Y-265978571D01*
X322875000Y-265978571D02*
X322875000Y-264478571D01*
X323232142Y-264478571D01*
X323446428Y-264550000D01*
X323589285Y-264692857D01*
X323660714Y-264835714D01*
X323732142Y-265121428D01*
X323732142Y-265335714D01*
X323660714Y-265621428D01*
X323589285Y-265764285D01*
X323446428Y-265907142D01*
X323232142Y-265978571D01*
X322875000Y-265978571D01*
X324375000Y-265835714D02*
X324446428Y-265907142D01*
X324375000Y-265978571D01*
X324303571Y-265907142D01*
X324375000Y-265835714D01*
X324375000Y-265978571D01*
X325017857Y-265550000D02*
X325732142Y-265550000D01*
X324875000Y-265978571D02*
X325375000Y-264478571D01*
X325875000Y-265978571D01*
X326375000Y-265835714D02*
X326446428Y-265907142D01*
X326375000Y-265978571D01*
X326303571Y-265907142D01*
X326375000Y-265835714D01*
X326375000Y-265978571D01*
X329375000Y-265978571D02*
X329375000Y-264478571D01*
X329517857Y-265407142D02*
X329946428Y-265978571D01*
X329946428Y-264978571D02*
X329375000Y-265550000D01*
X330589285Y-265978571D02*
X330589285Y-264978571D01*
X330589285Y-264478571D02*
X330517857Y-264550000D01*
X330589285Y-264621428D01*
X330660714Y-264550000D01*
X330589285Y-264478571D01*
X330589285Y-264621428D01*
X331946428Y-265907142D02*
X331803571Y-265978571D01*
X331517857Y-265978571D01*
X331375000Y-265907142D01*
X331303571Y-265835714D01*
X331232142Y-265692857D01*
X331232142Y-265264285D01*
X331303571Y-265121428D01*
X331375000Y-265050000D01*
X331517857Y-264978571D01*
X331803571Y-264978571D01*
X331946428Y-265050000D01*
X333232142Y-265978571D02*
X333232142Y-265192857D01*
X333160714Y-265050000D01*
X333017857Y-264978571D01*
X332732142Y-264978571D01*
X332589285Y-265050000D01*
X333232142Y-265907142D02*
X333089285Y-265978571D01*
X332732142Y-265978571D01*
X332589285Y-265907142D01*
X332517857Y-265764285D01*
X332517857Y-265621428D01*
X332589285Y-265478571D01*
X332732142Y-265407142D01*
X333089285Y-265407142D01*
X333232142Y-265335714D01*
X334589285Y-265978571D02*
X334589285Y-264478571D01*
X334589285Y-265907142D02*
X334446428Y-265978571D01*
X334160714Y-265978571D01*
X334017857Y-265907142D01*
X333946428Y-265835714D01*
X333875000Y-265692857D01*
X333875000Y-265264285D01*
X333946428Y-265121428D01*
X334017857Y-265050000D01*
X334160714Y-264978571D01*
X334446428Y-264978571D01*
X334589285Y-265050000D01*
X337160714Y-264478571D02*
X336446428Y-264478571D01*
X336375000Y-265192857D01*
X336446428Y-265121428D01*
X336589285Y-265050000D01*
X336946428Y-265050000D01*
X337089285Y-265121428D01*
X337160714Y-265192857D01*
X337232142Y-265335714D01*
X337232142Y-265692857D01*
X337160714Y-265835714D01*
X337089285Y-265907142D01*
X336946428Y-265978571D01*
X336589285Y-265978571D01*
X336446428Y-265907142D01*
X336375000Y-265835714D01*
X337875000Y-265835714D02*
X337946428Y-265907142D01*
X337875000Y-265978571D01*
X337803571Y-265907142D01*
X337875000Y-265835714D01*
X337875000Y-265978571D01*
X338875000Y-264478571D02*
X339017857Y-264478571D01*
X339160714Y-264550000D01*
X339232142Y-264621428D01*
X339303571Y-264764285D01*
X339375000Y-265050000D01*
X339375000Y-265407142D01*
X339303571Y-265692857D01*
X339232142Y-265835714D01*
X339160714Y-265907142D01*
X339017857Y-265978571D01*
X338875000Y-265978571D01*
X338732142Y-265907142D01*
X338660714Y-265835714D01*
X338589285Y-265692857D01*
X338517857Y-265407142D01*
X338517857Y-265050000D01*
X338589285Y-264764285D01*
X338660714Y-264621428D01*
X338732142Y-264550000D01*
X338875000Y-264478571D01*
X340017857Y-265835714D02*
X340089285Y-265907142D01*
X340017857Y-265978571D01*
X339946428Y-265907142D01*
X340017857Y-265835714D01*
X340017857Y-265978571D01*
X340660714Y-264621428D02*
X340732142Y-264550000D01*
X340875000Y-264478571D01*
X341232142Y-264478571D01*
X341375000Y-264550000D01*
X341446428Y-264621428D01*
X341517857Y-264764285D01*
X341517857Y-264907142D01*
X341446428Y-265121428D01*
X340589285Y-265978571D01*
X341517857Y-265978571D01*
X342160714Y-265407142D02*
X343303571Y-265407142D01*
X342732142Y-265978571D02*
X342732142Y-264835714D01*
X344660714Y-265978571D02*
X344660714Y-264478571D01*
X344660714Y-265907142D02*
X344517857Y-265978571D01*
X344232142Y-265978571D01*
X344089285Y-265907142D01*
X344017857Y-265835714D01*
X343946428Y-265692857D01*
X343946428Y-265264285D01*
X344017857Y-265121428D01*
X344089285Y-265050000D01*
X344232142Y-264978571D01*
X344517857Y-264978571D01*
X344660714Y-265050000D01*
X345160714Y-264978571D02*
X345732142Y-264978571D01*
X345375000Y-265978571D02*
X345375000Y-264692857D01*
X345446428Y-264550000D01*
X345589285Y-264478571D01*
X345732142Y-264478571D01*
X346160714Y-265907142D02*
X346303571Y-265978571D01*
X346589285Y-265978571D01*
X346732142Y-265907142D01*
X346803571Y-265764285D01*
X346803571Y-265692857D01*
X346732142Y-265550000D01*
X346589285Y-265478571D01*
X346375000Y-265478571D01*
X346232142Y-265407142D01*
X346160714Y-265264285D01*
X346160714Y-265192857D01*
X346232142Y-265050000D01*
X346375000Y-264978571D01*
X346589285Y-264978571D01*
X346732142Y-265050000D01*
X348089285Y-264978571D02*
X348089285Y-266192857D01*
X348017857Y-266335714D01*
X347946428Y-266407142D01*
X347803571Y-266478571D01*
X347589285Y-266478571D01*
X347446428Y-266407142D01*
X348089285Y-265907142D02*
X347946428Y-265978571D01*
X347660714Y-265978571D01*
X347517857Y-265907142D01*
X347446428Y-265835714D01*
X347375000Y-265692857D01*
X347375000Y-265264285D01*
X347446428Y-265121428D01*
X347517857Y-265050000D01*
X347660714Y-264978571D01*
X347946428Y-264978571D01*
X348089285Y-265050000D01*
X349589285Y-265978571D02*
X348732142Y-265978571D01*
X349160714Y-265978571D02*
X349160714Y-264478571D01*
X349017857Y-264692857D01*
X348875000Y-264835714D01*
X348732142Y-264907142D01*
X350232142Y-265407142D02*
X351375000Y-265407142D01*
X352875000Y-265978571D02*
X352017857Y-265978571D01*
X352446428Y-265978571D02*
X352446428Y-264478571D01*
X352303571Y-264692857D01*
X352160714Y-264835714D01*
X352017857Y-264907142D01*
D10*
D11*
X311800000Y-260900000D02*
X419800000Y-260900000D01*
D10*
D12*
X399209285Y-263178571D02*
X398709285Y-262464285D01*
X398352142Y-263178571D02*
X398352142Y-261678571D01*
X398923571Y-261678571D01*
X399066428Y-261750000D01*
X399137857Y-261821428D01*
X399209285Y-261964285D01*
X399209285Y-262178571D01*
X399137857Y-262321428D01*
X399066428Y-262392857D01*
X398923571Y-262464285D01*
X398352142Y-262464285D01*
X400423571Y-263107142D02*
X400280714Y-263178571D01*
X399995000Y-263178571D01*
X399852142Y-263107142D01*
X399780714Y-262964285D01*
X399780714Y-262392857D01*
X399852142Y-262250000D01*
X399995000Y-262178571D01*
X400280714Y-262178571D01*
X400423571Y-262250000D01*
X400495000Y-262392857D01*
X400495000Y-262535714D01*
X399780714Y-262678571D01*
X400995000Y-262178571D02*
X401352142Y-263178571D01*
X401709285Y-262178571D01*
X402280714Y-263035714D02*
X402352142Y-263107142D01*
X402280714Y-263178571D01*
X402209285Y-263107142D01*
X402280714Y-263035714D01*
X402280714Y-263178571D01*
X402280714Y-262250000D02*
X402352142Y-262321428D01*
X402280714Y-262392857D01*
X402209285Y-262321428D01*
X402280714Y-262250000D01*
X402280714Y-262392857D01*
X404923571Y-263178571D02*
X404066428Y-263178571D01*
X404495000Y-263178571D02*
X404495000Y-261678571D01*
X404352142Y-261892857D01*
X404209285Y-262035714D01*
X404066428Y-262107142D01*
D10*
D11*
X313160714Y-263107142D02*
X313375000Y-263178571D01*
X313732142Y-263178571D01*
X313875000Y-263107142D01*
X313946428Y-263035714D01*
X314017857Y-262892857D01*
X314017857Y-262750000D01*
X313946428Y-262607142D01*
X313875000Y-262535714D01*
X313732142Y-262464285D01*
X313446428Y-262392857D01*
X313303571Y-262321428D01*
X313232142Y-262250000D01*
X313160714Y-262107142D01*
X313160714Y-261964285D01*
X313232142Y-261821428D01*
X313303571Y-261750000D01*
X313446428Y-261678571D01*
X313803571Y-261678571D01*
X314017857Y-261750000D01*
X314660714Y-263178571D02*
X314660714Y-262178571D01*
X314660714Y-261678571D02*
X314589285Y-261750000D01*
X314660714Y-261821428D01*
X314732142Y-261750000D01*
X314660714Y-261678571D01*
X314660714Y-261821428D01*
X315232142Y-262178571D02*
X316017857Y-262178571D01*
X315232142Y-263178571D01*
X316017857Y-263178571D01*
X317160714Y-263107142D02*
X317017857Y-263178571D01*
X316732142Y-263178571D01*
X316589285Y-263107142D01*
X316517857Y-262964285D01*
X316517857Y-262392857D01*
X316589285Y-262250000D01*
X316732142Y-262178571D01*
X317017857Y-262178571D01*
X317160714Y-262250000D01*
X317232142Y-262392857D01*
X317232142Y-262535714D01*
X316517857Y-262678571D01*
X317875000Y-263035714D02*
X317946428Y-263107142D01*
X317875000Y-263178571D01*
X317803571Y-263107142D01*
X317875000Y-263035714D01*
X317875000Y-263178571D01*
X317875000Y-262250000D02*
X317946428Y-262321428D01*
X317875000Y-262392857D01*
X317803571Y-262321428D01*
X317875000Y-262250000D01*
X317875000Y-262392857D01*
X320232142Y-262392857D02*
X320446428Y-262464285D01*
X320517857Y-262535714D01*
X320589285Y-262678571D01*
X320589285Y-262892857D01*
X320517857Y-263035714D01*
X320446428Y-263107142D01*
X320303571Y-263178571D01*
X319732142Y-263178571D01*
X319732142Y-261678571D01*
X320232142Y-261678571D01*
X320375000Y-261750000D01*
X320446428Y-261821428D01*
X320517857Y-261964285D01*
X320517857Y-262107142D01*
X320446428Y-262250000D01*
X320375000Y-262321428D01*
X320232142Y-262392857D01*
X319732142Y-262392857D01*
D10*
D11*
X398232142Y-265978571D02*
X398232142Y-264478571D01*
X399589285Y-265978571D02*
X399589285Y-264478571D01*
X399589285Y-265907142D02*
X399446428Y-265978571D01*
X399160714Y-265978571D01*
X399017857Y-265907142D01*
X398946428Y-265835714D01*
X398875000Y-265692857D01*
X398875000Y-265264285D01*
X398946428Y-265121428D01*
X399017857Y-265050000D01*
X399160714Y-264978571D01*
X399446428Y-264978571D01*
X399589285Y-265050000D01*
X400303571Y-265835714D02*
X400375000Y-265907142D01*
X400303571Y-265978571D01*
X400232142Y-265907142D01*
X400303571Y-265835714D01*
X400303571Y-265978571D01*
X400303571Y-265050000D02*
X400375000Y-265121428D01*
X400303571Y-265192857D01*
X400232142Y-265121428D01*
X400303571Y-265050000D01*
X400303571Y-265192857D01*
X402946428Y-265978571D02*
X402089285Y-265978571D01*
X402517857Y-265978571D02*
X402517857Y-264478571D01*
X402375000Y-264692857D01*
X402232142Y-264835714D01*
X402089285Y-264907142D01*
X404660714Y-264407142D02*
X403375000Y-266335714D01*
X405946428Y-265978571D02*
X405089285Y-265978571D01*
X405517857Y-265978571D02*
X405517857Y-264478571D01*
X405375000Y-264692857D01*
X405232142Y-264835714D01*
X405089285Y-264907142D01*
D10*
D11*
X311800000Y-256900000D02*
X419800000Y-256900000D01*
D10*
D13*
X313512380Y-257604761D02*
X314655238Y-257604761D01*
X313833809Y-259604761D02*
X314083809Y-257604761D01*
X315071904Y-259604761D02*
X315238571Y-258271428D01*
X315321904Y-257604761D02*
X315214761Y-257700000D01*
X315298095Y-257795238D01*
X315405238Y-257700000D01*
X315321904Y-257604761D01*
X315298095Y-257795238D01*
X315905238Y-258271428D02*
X316667142Y-258271428D01*
X316274285Y-257604761D02*
X316060000Y-259319047D01*
X316131428Y-259509523D01*
X316310000Y-259604761D01*
X316500476Y-259604761D01*
X317452857Y-259604761D02*
X317274285Y-259509523D01*
X317202857Y-259319047D01*
X317417142Y-257604761D01*
X318988571Y-259509523D02*
X318786190Y-259604761D01*
X318405238Y-259604761D01*
X318226666Y-259509523D01*
X318155238Y-259319047D01*
X318250476Y-258557142D01*
X318369523Y-258366666D01*
X318571904Y-258271428D01*
X318952857Y-258271428D01*
X319131428Y-258366666D01*
X319202857Y-258557142D01*
X319179047Y-258747619D01*
X318202857Y-258938095D01*
X319952857Y-259414285D02*
X320036190Y-259509523D01*
X319929047Y-259604761D01*
X319845714Y-259509523D01*
X319952857Y-259414285D01*
X319929047Y-259604761D01*
X320083809Y-258366666D02*
X320167142Y-258461904D01*
X320060000Y-258557142D01*
X319976666Y-258461904D01*
X320083809Y-258366666D01*
X320060000Y-258557142D01*
X323690952Y-257700000D02*
X323512380Y-257604761D01*
X323226666Y-257604761D01*
X322929047Y-257700000D01*
X322714761Y-257890476D01*
X322595714Y-258080952D01*
X322452857Y-258461904D01*
X322417142Y-258747619D01*
X322464761Y-259128571D01*
X322536190Y-259319047D01*
X322702857Y-259509523D01*
X322976666Y-259604761D01*
X323167142Y-259604761D01*
X323464761Y-259509523D01*
X323571904Y-259414285D01*
X323655238Y-258747619D01*
X323274285Y-258747619D01*
X324405238Y-259604761D02*
X324571904Y-258271428D01*
X324655238Y-257604761D02*
X324548095Y-257700000D01*
X324631428Y-257795238D01*
X324738571Y-257700000D01*
X324655238Y-257604761D01*
X324631428Y-257795238D01*
X326381428Y-258271428D02*
X326179047Y-259890476D01*
X326060000Y-260080952D01*
X325952857Y-260176190D01*
X325750476Y-260271428D01*
X325464761Y-260271428D01*
X325286190Y-260176190D01*
X326226666Y-259509523D02*
X326024285Y-259604761D01*
X325643333Y-259604761D01*
X325464761Y-259509523D01*
X325381428Y-259414285D01*
X325310000Y-259223809D01*
X325381428Y-258652380D01*
X325500476Y-258461904D01*
X325607619Y-258366666D01*
X325810000Y-258271428D01*
X326190952Y-258271428D01*
X326369523Y-258366666D01*
X328024285Y-259604761D02*
X328155238Y-258557142D01*
X328083809Y-258366666D01*
X327905238Y-258271428D01*
X327524285Y-258271428D01*
X327321904Y-258366666D01*
X328036190Y-259509523D02*
X327833809Y-259604761D01*
X327357619Y-259604761D01*
X327179047Y-259509523D01*
X327107619Y-259319047D01*
X327131428Y-259128571D01*
X327250476Y-258938095D01*
X327452857Y-258842857D01*
X327929047Y-258842857D01*
X328131428Y-258747619D01*
X328976666Y-259604761D02*
X329226666Y-257604761D01*
X329702857Y-257604761D01*
X329976666Y-257700000D01*
X330143333Y-257890476D01*
X330214761Y-258080952D01*
X330262380Y-258461904D01*
X330226666Y-258747619D01*
X330083809Y-259128571D01*
X329964761Y-259319047D01*
X329750476Y-259509523D01*
X329452857Y-259604761D01*
X328976666Y-259604761D01*
X330976666Y-259604761D02*
X331143333Y-258271428D01*
X331226666Y-257604761D02*
X331119523Y-257700000D01*
X331202857Y-257795238D01*
X331310000Y-257700000D01*
X331226666Y-257604761D01*
X331202857Y-257795238D01*
X332214761Y-259604761D02*
X332036190Y-259509523D01*
X331952857Y-259414285D01*
X331881428Y-259223809D01*
X331952857Y-258652380D01*
X332071904Y-258461904D01*
X332179047Y-258366666D01*
X332381428Y-258271428D01*
X332667142Y-258271428D01*
X332845714Y-258366666D01*
X332929047Y-258461904D01*
X333000476Y-258652380D01*
X332929047Y-259223809D01*
X332810000Y-259414285D01*
X332702857Y-259509523D01*
X332500476Y-259604761D01*
X332214761Y-259604761D01*
X334595714Y-259604761D02*
X334845714Y-257604761D01*
X334607619Y-259509523D02*
X334405238Y-259604761D01*
X334024285Y-259604761D01*
X333845714Y-259509523D01*
X333762380Y-259414285D01*
X333690952Y-259223809D01*
X333762380Y-258652380D01*
X333881428Y-258461904D01*
X333988571Y-258366666D01*
X334190952Y-258271428D01*
X334571904Y-258271428D01*
X334750476Y-258366666D01*
X336321904Y-259509523D02*
X336119523Y-259604761D01*
X335738571Y-259604761D01*
X335560000Y-259509523D01*
X335488571Y-259319047D01*
X335583809Y-258557142D01*
X335702857Y-258366666D01*
X335905238Y-258271428D01*
X336286190Y-258271428D01*
X336464761Y-258366666D01*
X336536190Y-258557142D01*
X336512380Y-258747619D01*
X335536190Y-258938095D01*
X340476666Y-257509523D02*
X338440952Y-260080952D01*
X343226666Y-257604761D02*
X343048095Y-259033333D01*
X342917142Y-259319047D01*
X342702857Y-259509523D01*
X342405238Y-259604761D01*
X342214761Y-259604761D01*
X343893333Y-257604761D02*
X344310000Y-259604761D01*
X345226666Y-257604761D01*
X346810000Y-259414285D02*
X346702857Y-259509523D01*
X346405238Y-259604761D01*
X346214761Y-259604761D01*
X345940952Y-259509523D01*
X345774285Y-259319047D01*
X345702857Y-259128571D01*
X345655238Y-258747619D01*
X345690952Y-258461904D01*
X345833809Y-258080952D01*
X345952857Y-257890476D01*
X346167142Y-257700000D01*
X346464761Y-257604761D01*
X346655238Y-257604761D01*
X346929047Y-257700000D01*
X347012380Y-257795238D01*
X348667142Y-258271428D02*
X348500476Y-259604761D01*
X348286190Y-257509523D02*
X347631428Y-258938095D01*
X348869523Y-258938095D01*
X349607619Y-257604761D02*
X350845714Y-257604761D01*
X350083809Y-258366666D01*
X350369523Y-258366666D01*
X350548095Y-258461904D01*
X350631428Y-258557142D01*
X350702857Y-258747619D01*
X350643333Y-259223809D01*
X350524285Y-259414285D01*
X350417142Y-259509523D01*
X350214761Y-259604761D01*
X349643333Y-259604761D01*
X349464761Y-259509523D01*
X349381428Y-259414285D01*
X352250476Y-258557142D02*
X352524285Y-258652380D01*
X352607619Y-258747619D01*
X352679047Y-258938095D01*
X352643333Y-259223809D01*
X352524285Y-259414285D01*
X352417142Y-259509523D01*
X352214761Y-259604761D01*
X351452857Y-259604761D01*
X351702857Y-257604761D01*
X352369523Y-257604761D01*
X352548095Y-257700000D01*
X352631428Y-257795238D01*
X352702857Y-257985714D01*
X352679047Y-258176190D01*
X352560000Y-258366666D01*
X352452857Y-258461904D01*
X352250476Y-258557142D01*
X351583809Y-258557142D01*
D10*
D11*
X313732142Y-254992857D02*
X313232142Y-254992857D01*
X313232142Y-255778571D02*
X313232142Y-254278571D01*
X313946428Y-254278571D01*
X314517857Y-255778571D02*
X314517857Y-254778571D01*
X314517857Y-254278571D02*
X314446428Y-254350000D01*
X314517857Y-254421428D01*
X314589285Y-254350000D01*
X314517857Y-254278571D01*
X314517857Y-254421428D01*
X315446428Y-255778571D02*
X315303571Y-255707142D01*
X315232142Y-255564285D01*
X315232142Y-254278571D01*
X316589285Y-255707142D02*
X316446428Y-255778571D01*
X316160714Y-255778571D01*
X316017857Y-255707142D01*
X315946428Y-255564285D01*
X315946428Y-254992857D01*
X316017857Y-254850000D01*
X316160714Y-254778571D01*
X316446428Y-254778571D01*
X316589285Y-254850000D01*
X316660714Y-254992857D01*
X316660714Y-255135714D01*
X315946428Y-255278571D01*
X317303571Y-255635714D02*
X317375000Y-255707142D01*
X317303571Y-255778571D01*
X317232142Y-255707142D01*
X317303571Y-255635714D01*
X317303571Y-255778571D01*
X317303571Y-254850000D02*
X317375000Y-254921428D01*
X317303571Y-254992857D01*
X317232142Y-254921428D01*
X317303571Y-254850000D01*
X317303571Y-254992857D01*
X319160714Y-254778571D02*
X319160714Y-256064285D01*
X319089285Y-256207142D01*
X318946428Y-256278571D01*
X318875000Y-256278571D01*
X319160714Y-254278571D02*
X319089285Y-254350000D01*
X319160714Y-254421428D01*
X319232142Y-254350000D01*
X319160714Y-254278571D01*
X319160714Y-254421428D01*
X319732142Y-254778571D02*
X320089285Y-255778571D01*
X320446428Y-254778571D01*
X321660714Y-255707142D02*
X321517857Y-255778571D01*
X321232142Y-255778571D01*
X321089285Y-255707142D01*
X321017857Y-255635714D01*
X320946428Y-255492857D01*
X320946428Y-255064285D01*
X321017857Y-254921428D01*
X321089285Y-254850000D01*
X321232142Y-254778571D01*
X321517857Y-254778571D01*
X321660714Y-254850000D01*
X322946428Y-254778571D02*
X322946428Y-255778571D01*
X322589285Y-254207142D02*
X322232142Y-255278571D01*
X323160714Y-255278571D01*
X323589285Y-254278571D02*
X324517857Y-254278571D01*
X324017857Y-254850000D01*
X324232142Y-254850000D01*
X324375000Y-254921428D01*
X324446428Y-254992857D01*
X324517857Y-255135714D01*
X324517857Y-255492857D01*
X324446428Y-255635714D01*
X324375000Y-255707142D01*
X324232142Y-255778571D01*
X323803571Y-255778571D01*
X323660714Y-255707142D01*
X323589285Y-255635714D01*
X325160714Y-255635714D02*
X325232142Y-255707142D01*
X325160714Y-255778571D01*
X325089285Y-255707142D01*
X325160714Y-255635714D01*
X325160714Y-255778571D01*
X325875000Y-255778571D02*
X325875000Y-254278571D01*
X326017857Y-255207142D02*
X326446428Y-255778571D01*
X326446428Y-254778571D02*
X325875000Y-255350000D01*
X327089285Y-255778571D02*
X327089285Y-254778571D01*
X327089285Y-254278571D02*
X327017857Y-254350000D01*
X327089285Y-254421428D01*
X327160714Y-254350000D01*
X327089285Y-254278571D01*
X327089285Y-254421428D01*
X328446428Y-255707142D02*
X328303571Y-255778571D01*
X328017857Y-255778571D01*
X327875000Y-255707142D01*
X327803571Y-255635714D01*
X327732142Y-255492857D01*
X327732142Y-255064285D01*
X327803571Y-254921428D01*
X327875000Y-254850000D01*
X328017857Y-254778571D01*
X328303571Y-254778571D01*
X328446428Y-254850000D01*
X329732142Y-255778571D02*
X329732142Y-254992857D01*
X329660714Y-254850000D01*
X329517857Y-254778571D01*
X329232142Y-254778571D01*
X329089285Y-254850000D01*
X329732142Y-255707142D02*
X329589285Y-255778571D01*
X329232142Y-255778571D01*
X329089285Y-255707142D01*
X329017857Y-255564285D01*
X329017857Y-255421428D01*
X329089285Y-255278571D01*
X329232142Y-255207142D01*
X329589285Y-255207142D01*
X329732142Y-255135714D01*
X331089285Y-255778571D02*
X331089285Y-254278571D01*
X331089285Y-255707142D02*
X330946428Y-255778571D01*
X330660714Y-255778571D01*
X330517857Y-255707142D01*
X330446428Y-255635714D01*
X330375000Y-255492857D01*
X330375000Y-255064285D01*
X330446428Y-254921428D01*
X330517857Y-254850000D01*
X330660714Y-254778571D01*
X330946428Y-254778571D01*
X331089285Y-254850000D01*
X331446428Y-255921428D02*
X332589285Y-255921428D01*
X332946428Y-254778571D02*
X332946428Y-256278571D01*
X332946428Y-254850000D02*
X333089285Y-254778571D01*
X333375000Y-254778571D01*
X333517857Y-254850000D01*
X333589285Y-254921428D01*
X333660714Y-255064285D01*
X333660714Y-255492857D01*
X333589285Y-255635714D01*
X333517857Y-255707142D01*
X333375000Y-255778571D01*
X333089285Y-255778571D01*
X332946428Y-255707142D01*
X334946428Y-255707142D02*
X334803571Y-255778571D01*
X334517857Y-255778571D01*
X334375000Y-255707142D01*
X334303571Y-255635714D01*
X334232142Y-255492857D01*
X334232142Y-255064285D01*
X334303571Y-254921428D01*
X334375000Y-254850000D01*
X334517857Y-254778571D01*
X334803571Y-254778571D01*
X334946428Y-254850000D01*
X335589285Y-255778571D02*
X335589285Y-254278571D01*
X335589285Y-254850000D02*
X335732142Y-254778571D01*
X336017857Y-254778571D01*
X336160714Y-254850000D01*
X336232142Y-254921428D01*
X336303571Y-255064285D01*
X336303571Y-255492857D01*
X336232142Y-255635714D01*
X336160714Y-255707142D01*
X336017857Y-255778571D01*
X335732142Y-255778571D01*
X335589285Y-255707142D01*
D10*
D11*
X311800000Y-250900000D02*
X419800000Y-250900000D01*
D10*
D11*
X313160714Y-253007142D02*
X313375000Y-253078571D01*
X313732142Y-253078571D01*
X313875000Y-253007142D01*
X313946428Y-252935714D01*
X314017857Y-252792857D01*
X314017857Y-252650000D01*
X313946428Y-252507142D01*
X313875000Y-252435714D01*
X313732142Y-252364285D01*
X313446428Y-252292857D01*
X313303571Y-252221428D01*
X313232142Y-252150000D01*
X313160714Y-252007142D01*
X313160714Y-251864285D01*
X313232142Y-251721428D01*
X313303571Y-251650000D01*
X313446428Y-251578571D01*
X313803571Y-251578571D01*
X314017857Y-251650000D01*
X314660714Y-253078571D02*
X314660714Y-251578571D01*
X315303571Y-253078571D02*
X315303571Y-252292857D01*
X315232142Y-252150000D01*
X315089285Y-252078571D01*
X314875000Y-252078571D01*
X314732142Y-252150000D01*
X314660714Y-252221428D01*
X316589285Y-253007142D02*
X316446428Y-253078571D01*
X316160714Y-253078571D01*
X316017857Y-253007142D01*
X315946428Y-252864285D01*
X315946428Y-252292857D01*
X316017857Y-252150000D01*
X316160714Y-252078571D01*
X316446428Y-252078571D01*
X316589285Y-252150000D01*
X316660714Y-252292857D01*
X316660714Y-252435714D01*
X315946428Y-252578571D01*
X317875000Y-253007142D02*
X317732142Y-253078571D01*
X317446428Y-253078571D01*
X317303571Y-253007142D01*
X317232142Y-252864285D01*
X317232142Y-252292857D01*
X317303571Y-252150000D01*
X317446428Y-252078571D01*
X317732142Y-252078571D01*
X317875000Y-252150000D01*
X317946428Y-252292857D01*
X317946428Y-252435714D01*
X317232142Y-252578571D01*
X318375000Y-252078571D02*
X318946428Y-252078571D01*
X318589285Y-251578571D02*
X318589285Y-252864285D01*
X318660714Y-253007142D01*
X318803571Y-253078571D01*
X318946428Y-253078571D01*
X319446428Y-252935714D02*
X319517857Y-253007142D01*
X319446428Y-253078571D01*
X319375000Y-253007142D01*
X319446428Y-252935714D01*
X319446428Y-253078571D01*
X319446428Y-252150000D02*
X319517857Y-252221428D01*
X319446428Y-252292857D01*
X319375000Y-252221428D01*
X319446428Y-252150000D01*
X319446428Y-252292857D01*
D10*
D12*
X314566428Y-248935714D02*
X314423571Y-248864285D01*
X314137857Y-248864285D01*
X313995000Y-248935714D01*
X313852142Y-249078571D01*
X313780714Y-249221428D01*
X313780714Y-249507142D01*
X313852142Y-249650000D01*
X313995000Y-249792857D01*
X314137857Y-249864285D01*
X314423571Y-249864285D01*
X314566428Y-249792857D01*
X314280714Y-248364285D02*
X313923571Y-248435714D01*
X313566428Y-248650000D01*
X313352142Y-249007142D01*
X313280714Y-249364285D01*
X313352142Y-249721428D01*
X313566428Y-250078571D01*
X313923571Y-250292857D01*
X314280714Y-250364285D01*
X314637857Y-250292857D01*
X314995000Y-250078571D01*
X315209285Y-249721428D01*
X315280714Y-249364285D01*
X315209285Y-249007142D01*
X314995000Y-248650000D01*
X314637857Y-248435714D01*
X314280714Y-248364285D01*
X315852142Y-248721428D02*
X315923571Y-248650000D01*
X316066428Y-248578571D01*
X316423571Y-248578571D01*
X316566428Y-248650000D01*
X316637857Y-248721428D01*
X316709285Y-248864285D01*
X316709285Y-249007142D01*
X316637857Y-249221428D01*
X315780714Y-250078571D01*
X316709285Y-250078571D01*
X317637857Y-248578571D02*
X317780714Y-248578571D01*
X317923571Y-248650000D01*
X317995000Y-248721428D01*
X318066428Y-248864285D01*
X318137857Y-249150000D01*
X318137857Y-249507142D01*
X318066428Y-249792857D01*
X317995000Y-249935714D01*
X317923571Y-250007142D01*
X317780714Y-250078571D01*
X317637857Y-250078571D01*
X317495000Y-250007142D01*
X317423571Y-249935714D01*
X317352142Y-249792857D01*
X317280714Y-249507142D01*
X317280714Y-249150000D01*
X317352142Y-248864285D01*
X317423571Y-248721428D01*
X317495000Y-248650000D01*
X317637857Y-248578571D01*
X318709285Y-248721428D02*
X318780714Y-248650000D01*
X318923571Y-248578571D01*
X319280714Y-248578571D01*
X319423571Y-248650000D01*
X319495000Y-248721428D01*
X319566428Y-248864285D01*
X319566428Y-249007142D01*
X319495000Y-249221428D01*
X318637857Y-250078571D01*
X319566428Y-250078571D01*
X320137857Y-248721428D02*
X320209285Y-248650000D01*
X320352142Y-248578571D01*
X320709285Y-248578571D01*
X320852142Y-248650000D01*
X320923571Y-248721428D01*
X320995000Y-248864285D01*
X320995000Y-249007142D01*
X320923571Y-249221428D01*
X320066428Y-250078571D01*
X320995000Y-250078571D01*
X323066428Y-248578571D02*
X323352142Y-248578571D01*
X323495000Y-248650000D01*
X323637857Y-248792857D01*
X323709285Y-249078571D01*
X323709285Y-249578571D01*
X323637857Y-249864285D01*
X323495000Y-250007142D01*
X323352142Y-250078571D01*
X323066428Y-250078571D01*
X322923571Y-250007142D01*
X322780714Y-249864285D01*
X322709285Y-249578571D01*
X322709285Y-249078571D01*
X322780714Y-248792857D01*
X322923571Y-248650000D01*
X323066428Y-248578571D01*
X324137857Y-248578571D02*
X324995000Y-248578571D01*
X324566428Y-250078571D02*
X324566428Y-248578571D01*
X327495000Y-249935714D02*
X327423571Y-250007142D01*
X327209285Y-250078571D01*
X327066428Y-250078571D01*
X326852142Y-250007142D01*
X326709285Y-249864285D01*
X326637857Y-249721428D01*
X326566428Y-249435714D01*
X326566428Y-249221428D01*
X326637857Y-248935714D01*
X326709285Y-248792857D01*
X326852142Y-248650000D01*
X327066428Y-248578571D01*
X327209285Y-248578571D01*
X327423571Y-248650000D01*
X327495000Y-248721428D01*
X328352142Y-250078571D02*
X328209285Y-250007142D01*
X328137857Y-249935714D01*
X328066428Y-249792857D01*
X328066428Y-249364285D01*
X328137857Y-249221428D01*
X328209285Y-249150000D01*
X328352142Y-249078571D01*
X328566428Y-249078571D01*
X328709285Y-249150000D01*
X328780714Y-249221428D01*
X328852142Y-249364285D01*
X328852142Y-249792857D01*
X328780714Y-249935714D01*
X328709285Y-250007142D01*
X328566428Y-250078571D01*
X328352142Y-250078571D01*
X329495000Y-249078571D02*
X329495000Y-250078571D01*
X329495000Y-249221428D02*
X329566428Y-249150000D01*
X329709285Y-249078571D01*
X329923571Y-249078571D01*
X330066428Y-249150000D01*
X330137857Y-249292857D01*
X330137857Y-250078571D01*
X331495000Y-250007142D02*
X331352142Y-250078571D01*
X331066428Y-250078571D01*
X330923571Y-250007142D01*
X330852142Y-249935714D01*
X330780714Y-249792857D01*
X330780714Y-249364285D01*
X330852142Y-249221428D01*
X330923571Y-249150000D01*
X331066428Y-249078571D01*
X331352142Y-249078571D01*
X331495000Y-249150000D01*
X332352142Y-250078571D02*
X332209285Y-250007142D01*
X332137857Y-249864285D01*
X332137857Y-248578571D01*
X333566428Y-250078571D02*
X333566428Y-249292857D01*
X333495000Y-249150000D01*
X333352142Y-249078571D01*
X333066428Y-249078571D01*
X332923571Y-249150000D01*
X333566428Y-250007142D02*
X333423571Y-250078571D01*
X333066428Y-250078571D01*
X332923571Y-250007142D01*
X332852142Y-249864285D01*
X332852142Y-249721428D01*
X332923571Y-249578571D01*
X333066428Y-249507142D01*
X333423571Y-249507142D01*
X333566428Y-249435714D01*
X334137857Y-249078571D02*
X334495000Y-250078571D01*
X334852142Y-249078571D01*
X335995000Y-250007142D02*
X335852142Y-250078571D01*
X335566428Y-250078571D01*
X335423571Y-250007142D01*
X335352142Y-249864285D01*
X335352142Y-249292857D01*
X335423571Y-249150000D01*
X335566428Y-249078571D01*
X335852142Y-249078571D01*
X335995000Y-249150000D01*
X336066428Y-249292857D01*
X336066428Y-249435714D01*
X335352142Y-249578571D01*
D10*
D11*
X313946428Y-247078571D02*
X313232142Y-247078571D01*
X313232142Y-245578571D01*
X314446428Y-247078571D02*
X314446428Y-246078571D01*
X314446428Y-245578571D02*
X314375000Y-245650000D01*
X314446428Y-245721428D01*
X314517857Y-245650000D01*
X314446428Y-245578571D01*
X314446428Y-245721428D01*
X315803571Y-247007142D02*
X315660714Y-247078571D01*
X315375000Y-247078571D01*
X315232142Y-247007142D01*
X315160714Y-246935714D01*
X315089285Y-246792857D01*
X315089285Y-246364285D01*
X315160714Y-246221428D01*
X315232142Y-246150000D01*
X315375000Y-246078571D01*
X315660714Y-246078571D01*
X315803571Y-246150000D01*
X317017857Y-247007142D02*
X316875000Y-247078571D01*
X316589285Y-247078571D01*
X316446428Y-247007142D01*
X316375000Y-246864285D01*
X316375000Y-246292857D01*
X316446428Y-246150000D01*
X316589285Y-246078571D01*
X316875000Y-246078571D01*
X317017857Y-246150000D01*
X317089285Y-246292857D01*
X317089285Y-246435714D01*
X316375000Y-246578571D01*
X317732142Y-246078571D02*
X317732142Y-247078571D01*
X317732142Y-246221428D02*
X317803571Y-246150000D01*
X317946428Y-246078571D01*
X318160714Y-246078571D01*
X318303571Y-246150000D01*
X318375000Y-246292857D01*
X318375000Y-247078571D01*
X319017857Y-247007142D02*
X319160714Y-247078571D01*
X319446428Y-247078571D01*
X319589285Y-247007142D01*
X319660714Y-246864285D01*
X319660714Y-246792857D01*
X319589285Y-246650000D01*
X319446428Y-246578571D01*
X319232142Y-246578571D01*
X319089285Y-246507142D01*
X319017857Y-246364285D01*
X319017857Y-246292857D01*
X319089285Y-246150000D01*
X319232142Y-246078571D01*
X319446428Y-246078571D01*
X319589285Y-246150000D01*
X320875000Y-247007142D02*
X320732142Y-247078571D01*
X320446428Y-247078571D01*
X320303571Y-247007142D01*
X320232142Y-246864285D01*
X320232142Y-246292857D01*
X320303571Y-246150000D01*
X320446428Y-246078571D01*
X320732142Y-246078571D01*
X320875000Y-246150000D01*
X320946428Y-246292857D01*
X320946428Y-246435714D01*
X320232142Y-246578571D01*
X322232142Y-247078571D02*
X322232142Y-245578571D01*
X322232142Y-247007142D02*
X322089285Y-247078571D01*
X321803571Y-247078571D01*
X321660714Y-247007142D01*
X321589285Y-246935714D01*
X321517857Y-246792857D01*
X321517857Y-246364285D01*
X321589285Y-246221428D01*
X321660714Y-246150000D01*
X321803571Y-246078571D01*
X322089285Y-246078571D01*
X322232142Y-246150000D01*
X324732142Y-246078571D02*
X324732142Y-247078571D01*
X324089285Y-246078571D02*
X324089285Y-246864285D01*
X324160714Y-247007142D01*
X324303571Y-247078571D01*
X324517857Y-247078571D01*
X324660714Y-247007142D01*
X324732142Y-246935714D01*
X325446428Y-246078571D02*
X325446428Y-247078571D01*
X325446428Y-246221428D02*
X325517857Y-246150000D01*
X325660714Y-246078571D01*
X325875000Y-246078571D01*
X326017857Y-246150000D01*
X326089285Y-246292857D01*
X326089285Y-247078571D01*
X327446428Y-247078571D02*
X327446428Y-245578571D01*
X327446428Y-247007142D02*
X327303571Y-247078571D01*
X327017857Y-247078571D01*
X326875000Y-247007142D01*
X326803571Y-246935714D01*
X326732142Y-246792857D01*
X326732142Y-246364285D01*
X326803571Y-246221428D01*
X326875000Y-246150000D01*
X327017857Y-246078571D01*
X327303571Y-246078571D01*
X327446428Y-246150000D01*
X328732142Y-247007142D02*
X328589285Y-247078571D01*
X328303571Y-247078571D01*
X328160714Y-247007142D01*
X328089285Y-246864285D01*
X328089285Y-246292857D01*
X328160714Y-246150000D01*
X328303571Y-246078571D01*
X328589285Y-246078571D01*
X328732142Y-246150000D01*
X328803571Y-246292857D01*
X328803571Y-246435714D01*
X328089285Y-246578571D01*
X329446428Y-247078571D02*
X329446428Y-246078571D01*
X329446428Y-246364285D02*
X329517857Y-246221428D01*
X329589285Y-246150000D01*
X329732142Y-246078571D01*
X329875000Y-246078571D01*
X331303571Y-246078571D02*
X331875000Y-246078571D01*
X331517857Y-245578571D02*
X331517857Y-246864285D01*
X331589285Y-247007142D01*
X331732142Y-247078571D01*
X331875000Y-247078571D01*
X332375000Y-247078571D02*
X332375000Y-245578571D01*
X333017857Y-247078571D02*
X333017857Y-246292857D01*
X332946428Y-246150000D01*
X332803571Y-246078571D01*
X332589285Y-246078571D01*
X332446428Y-246150000D01*
X332375000Y-246221428D01*
X334303571Y-247007142D02*
X334160714Y-247078571D01*
X333875000Y-247078571D01*
X333732142Y-247007142D01*
X333660714Y-246864285D01*
X333660714Y-246292857D01*
X333732142Y-246150000D01*
X333875000Y-246078571D01*
X334160714Y-246078571D01*
X334303571Y-246150000D01*
X334375000Y-246292857D01*
X334375000Y-246435714D01*
X333660714Y-246578571D01*
X335946428Y-245578571D02*
X336803571Y-245578571D01*
X336375000Y-247078571D02*
X336375000Y-245578571D01*
X337232142Y-246650000D02*
X337946428Y-246650000D01*
X337089285Y-247078571D02*
X337589285Y-245578571D01*
X338089285Y-247078571D01*
X338589285Y-247078571D02*
X338589285Y-245578571D01*
X339160714Y-245578571D01*
X339303571Y-245650000D01*
X339375000Y-245721428D01*
X339446428Y-245864285D01*
X339446428Y-246078571D01*
X339375000Y-246221428D01*
X339303571Y-246292857D01*
X339160714Y-246364285D01*
X338589285Y-246364285D01*
X340946428Y-247078571D02*
X340446428Y-246364285D01*
X340089285Y-247078571D02*
X340089285Y-245578571D01*
X340660714Y-245578571D01*
X340803571Y-245650000D01*
X340875000Y-245721428D01*
X340946428Y-245864285D01*
X340946428Y-246078571D01*
X340875000Y-246221428D01*
X340803571Y-246292857D01*
X340660714Y-246364285D01*
X340089285Y-246364285D01*
X343017857Y-245578571D02*
X343303571Y-245578571D01*
X343446428Y-245650000D01*
X343589285Y-245792857D01*
X343660714Y-246078571D01*
X343660714Y-246578571D01*
X343589285Y-246864285D01*
X343446428Y-247007142D01*
X343303571Y-247078571D01*
X343017857Y-247078571D01*
X342875000Y-247007142D01*
X342732142Y-246864285D01*
X342660714Y-246578571D01*
X342660714Y-246078571D01*
X342732142Y-245792857D01*
X342875000Y-245650000D01*
X343017857Y-245578571D01*
X344303571Y-246078571D02*
X344303571Y-247578571D01*
X344303571Y-246150000D02*
X344446428Y-246078571D01*
X344732142Y-246078571D01*
X344875000Y-246150000D01*
X344946428Y-246221428D01*
X345017857Y-246364285D01*
X345017857Y-246792857D01*
X344946428Y-246935714D01*
X344875000Y-247007142D01*
X344732142Y-247078571D01*
X344446428Y-247078571D01*
X344303571Y-247007142D01*
X346232142Y-247007142D02*
X346089285Y-247078571D01*
X345803571Y-247078571D01*
X345660714Y-247007142D01*
X345589285Y-246864285D01*
X345589285Y-246292857D01*
X345660714Y-246150000D01*
X345803571Y-246078571D01*
X346089285Y-246078571D01*
X346232142Y-246150000D01*
X346303571Y-246292857D01*
X346303571Y-246435714D01*
X345589285Y-246578571D01*
X346946428Y-246078571D02*
X346946428Y-247078571D01*
X346946428Y-246221428D02*
X347017857Y-246150000D01*
X347160714Y-246078571D01*
X347375000Y-246078571D01*
X347517857Y-246150000D01*
X347589285Y-246292857D01*
X347589285Y-247078571D01*
X349446428Y-247078571D02*
X349446428Y-245578571D01*
X349446428Y-246292857D02*
X350303571Y-246292857D01*
X350303571Y-247078571D02*
X350303571Y-245578571D01*
X351660714Y-247078571D02*
X351660714Y-246292857D01*
X351589285Y-246150000D01*
X351446428Y-246078571D01*
X351160714Y-246078571D01*
X351017857Y-246150000D01*
X351660714Y-247007142D02*
X351517857Y-247078571D01*
X351160714Y-247078571D01*
X351017857Y-247007142D01*
X350946428Y-246864285D01*
X350946428Y-246721428D01*
X351017857Y-246578571D01*
X351160714Y-246507142D01*
X351517857Y-246507142D01*
X351660714Y-246435714D01*
X352375000Y-247078571D02*
X352375000Y-246078571D01*
X352375000Y-246364285D02*
X352446428Y-246221428D01*
X352517857Y-246150000D01*
X352660714Y-246078571D01*
X352803571Y-246078571D01*
X353946428Y-247078571D02*
X353946428Y-245578571D01*
X353946428Y-247007142D02*
X353803571Y-247078571D01*
X353517857Y-247078571D01*
X353375000Y-247007142D01*
X353303571Y-246935714D01*
X353232142Y-246792857D01*
X353232142Y-246364285D01*
X353303571Y-246221428D01*
X353375000Y-246150000D01*
X353517857Y-246078571D01*
X353803571Y-246078571D01*
X353946428Y-246150000D01*
X354517857Y-246078571D02*
X354803571Y-247078571D01*
X355089285Y-246364285D01*
X355375000Y-247078571D01*
X355660714Y-246078571D01*
X356875000Y-247078571D02*
X356875000Y-246292857D01*
X356803571Y-246150000D01*
X356660714Y-246078571D01*
X356375000Y-246078571D01*
X356232142Y-246150000D01*
X356875000Y-247007142D02*
X356732142Y-247078571D01*
X356375000Y-247078571D01*
X356232142Y-247007142D01*
X356160714Y-246864285D01*
X356160714Y-246721428D01*
X356232142Y-246578571D01*
X356375000Y-246507142D01*
X356732142Y-246507142D01*
X356875000Y-246435714D01*
X357589285Y-247078571D02*
X357589285Y-246078571D01*
X357589285Y-246364285D02*
X357660714Y-246221428D01*
X357732142Y-246150000D01*
X357875000Y-246078571D01*
X358017857Y-246078571D01*
X359089285Y-247007142D02*
X358946428Y-247078571D01*
X358660714Y-247078571D01*
X358517857Y-247007142D01*
X358446428Y-246864285D01*
X358446428Y-246292857D01*
X358517857Y-246150000D01*
X358660714Y-246078571D01*
X358946428Y-246078571D01*
X359089285Y-246150000D01*
X359160714Y-246292857D01*
X359160714Y-246435714D01*
X358446428Y-246578571D01*
X361660714Y-247078571D02*
X360946428Y-247078571D01*
X360946428Y-245578571D01*
X362160714Y-247078571D02*
X362160714Y-246078571D01*
X362160714Y-245578571D02*
X362089285Y-245650000D01*
X362160714Y-245721428D01*
X362232142Y-245650000D01*
X362160714Y-245578571D01*
X362160714Y-245721428D01*
X363517857Y-247007142D02*
X363375000Y-247078571D01*
X363089285Y-247078571D01*
X362946428Y-247007142D01*
X362875000Y-246935714D01*
X362803571Y-246792857D01*
X362803571Y-246364285D01*
X362875000Y-246221428D01*
X362946428Y-246150000D01*
X363089285Y-246078571D01*
X363375000Y-246078571D01*
X363517857Y-246150000D01*
X364732142Y-247007142D02*
X364589285Y-247078571D01*
X364303571Y-247078571D01*
X364160714Y-247007142D01*
X364089285Y-246864285D01*
X364089285Y-246292857D01*
X364160714Y-246150000D01*
X364303571Y-246078571D01*
X364589285Y-246078571D01*
X364732142Y-246150000D01*
X364803571Y-246292857D01*
X364803571Y-246435714D01*
X364089285Y-246578571D01*
X365446428Y-246078571D02*
X365446428Y-247078571D01*
X365446428Y-246221428D02*
X365517857Y-246150000D01*
X365660714Y-246078571D01*
X365875000Y-246078571D01*
X366017857Y-246150000D01*
X366089285Y-246292857D01*
X366089285Y-247078571D01*
X366732142Y-247007142D02*
X366875000Y-247078571D01*
X367160714Y-247078571D01*
X367303571Y-247007142D01*
X367375000Y-246864285D01*
X367375000Y-246792857D01*
X367303571Y-246650000D01*
X367160714Y-246578571D01*
X366946428Y-246578571D01*
X366803571Y-246507142D01*
X366732142Y-246364285D01*
X366732142Y-246292857D01*
X366803571Y-246150000D01*
X366946428Y-246078571D01*
X367160714Y-246078571D01*
X367303571Y-246150000D01*
X368589285Y-247007142D02*
X368446428Y-247078571D01*
X368160714Y-247078571D01*
X368017857Y-247007142D01*
X367946428Y-246864285D01*
X367946428Y-246292857D01*
X368017857Y-246150000D01*
X368160714Y-246078571D01*
X368446428Y-246078571D01*
X368589285Y-246150000D01*
X368660714Y-246292857D01*
X368660714Y-246435714D01*
X367946428Y-246578571D01*
X370303571Y-246078571D02*
X370660714Y-247078571D01*
X371017857Y-246078571D01*
X372375000Y-247078571D02*
X371517857Y-247078571D01*
X371946428Y-247078571D02*
X371946428Y-245578571D01*
X371803571Y-245792857D01*
X371660714Y-245935714D01*
X371517857Y-246007142D01*
X373017857Y-246935714D02*
X373089285Y-247007142D01*
X373017857Y-247078571D01*
X372946428Y-247007142D01*
X373017857Y-246935714D01*
X373017857Y-247078571D01*
X374017857Y-245578571D02*
X374160714Y-245578571D01*
X374303571Y-245650000D01*
X374375000Y-245721428D01*
X374446428Y-245864285D01*
X374517857Y-246150000D01*
X374517857Y-246507142D01*
X374446428Y-246792857D01*
X374375000Y-246935714D01*
X374303571Y-247007142D01*
X374160714Y-247078571D01*
X374017857Y-247078571D01*
X373875000Y-247007142D01*
X373803571Y-246935714D01*
X373732142Y-246792857D01*
X373660714Y-246507142D01*
X373660714Y-246150000D01*
X373732142Y-245864285D01*
X373803571Y-245721428D01*
X373875000Y-245650000D01*
X374017857Y-245578571D01*
D10*
D11*
X331800000Y-260900000D02*
X331800000Y-263900000D01*
D10*
D11*
X395800000Y-260900000D02*
X395800000Y-267400000D01*
D14*
X331466428Y-186098571D02*
X330752142Y-186098571D01*
X330752142Y-184598571D01*
X332609285Y-185098571D02*
X332609285Y-186098571D01*
X332252142Y-184527142D02*
X331895000Y-185598571D01*
X332823571Y-185598571D01*
X335395000Y-185955714D02*
X335323571Y-186027142D01*
X335109285Y-186098571D01*
X334966428Y-186098571D01*
X334752142Y-186027142D01*
X334609285Y-185884285D01*
X334537857Y-185741428D01*
X334466428Y-185455714D01*
X334466428Y-185241428D01*
X334537857Y-184955714D01*
X334609285Y-184812857D01*
X334752142Y-184670000D01*
X334966428Y-184598571D01*
X335109285Y-184598571D01*
X335323571Y-184670000D01*
X335395000Y-184741428D01*
X336323571Y-184598571D02*
X336609285Y-184598571D01*
X336752142Y-184670000D01*
X336895000Y-184812857D01*
X336966428Y-185098571D01*
X336966428Y-185598571D01*
X336895000Y-185884285D01*
X336752142Y-186027142D01*
X336609285Y-186098571D01*
X336323571Y-186098571D01*
X336180714Y-186027142D01*
X336037857Y-185884285D01*
X335966428Y-185598571D01*
X335966428Y-185098571D01*
X336037857Y-184812857D01*
X336180714Y-184670000D01*
X336323571Y-184598571D01*
X337609285Y-186098571D02*
X337609285Y-184598571D01*
X338180714Y-184598571D01*
X338323571Y-184670000D01*
X338395000Y-184741428D01*
X338466428Y-184884285D01*
X338466428Y-185098571D01*
X338395000Y-185241428D01*
X338323571Y-185312857D01*
X338180714Y-185384285D01*
X337609285Y-185384285D01*
X339109285Y-186098571D02*
X339109285Y-184598571D01*
X339680714Y-184598571D01*
X339823571Y-184670000D01*
X339895000Y-184741428D01*
X339966428Y-184884285D01*
X339966428Y-185098571D01*
X339895000Y-185241428D01*
X339823571Y-185312857D01*
X339680714Y-185384285D01*
X339109285Y-185384285D01*
X340609285Y-185312857D02*
X341109285Y-185312857D01*
X341323571Y-186098571D02*
X340609285Y-186098571D01*
X340609285Y-184598571D01*
X341323571Y-184598571D01*
X342823571Y-186098571D02*
X342323571Y-185384285D01*
X341966428Y-186098571D02*
X341966428Y-184598571D01*
X342537857Y-184598571D01*
X342680714Y-184670000D01*
X342752142Y-184741428D01*
X342823571Y-184884285D01*
X342823571Y-185098571D01*
X342752142Y-185241428D01*
X342680714Y-185312857D01*
X342537857Y-185384285D01*
X341966428Y-185384285D01*
D15*
G04 #@! TO.N,+2V5*
G04 #@! TO.C,J201*
X35000000Y-45110000D03*
G04 #@! TO.N,/Ethernet1/green*
X35000000Y-36170000D03*
G04 #@! TO.N,/Ethernet1/yellow*
X35000000Y-47650000D03*
G04 #@! TO.N,+2V5*
X35000000Y-33630000D03*
D16*
G04 #@! TO.N,/Ethernet1/ETH_TX3-*
X29950000Y-44196000D03*
G04 #@! TO.N,/Ethernet1/ETH_TX3+*
X31730000Y-43180000D03*
G04 #@! TO.N,/Ethernet1/ETH_TX1-*
X29950000Y-42164000D03*
G04 #@! TO.N,/Ethernet1/ETH_TX2-*
X31730000Y-41148000D03*
G04 #@! TO.N,/Ethernet1/ETH_TX2+*
X29950000Y-40132000D03*
G04 #@! TO.N,/Ethernet1/ETH_TX1+*
X31730000Y-39116000D03*
G04 #@! TO.N,/Ethernet1/ETH_TX0-*
X29950000Y-38100000D03*
G04 #@! TO.N,/Ethernet1/ETH_TX0+*
X31730000Y-37084000D03*
D17*
G04 #@! TO.N,/Ethernet1/gnd_eth*
X27050000Y-48640000D03*
X27050000Y-32640000D03*
D18*
G04 #@! TO.N,*
X31400000Y-46380000D03*
X31400000Y-34900000D03*
G04 #@! TD*
D15*
G04 #@! TO.N,+2V5*
G04 #@! TO.C,J301*
X117400000Y-46330000D03*
G04 #@! TO.N,/Ethernet2/green*
X117400000Y-55270000D03*
G04 #@! TO.N,/Ethernet2/yellow*
X117400000Y-43790000D03*
G04 #@! TO.N,+2V5*
X117400000Y-57810000D03*
D16*
G04 #@! TO.N,/Ethernet2/ETH_TX3-*
X122450000Y-47244000D03*
G04 #@! TO.N,/Ethernet2/ETH_TX3+*
X120670000Y-48260000D03*
G04 #@! TO.N,/Ethernet2/ETH_TX1-*
X122450000Y-49276000D03*
G04 #@! TO.N,/Ethernet2/ETH_TX2-*
X120670000Y-50292000D03*
G04 #@! TO.N,/Ethernet2/ETH_TX2+*
X122450000Y-51308000D03*
G04 #@! TO.N,/Ethernet2/ETH_TX1+*
X120670000Y-52324000D03*
G04 #@! TO.N,/Ethernet2/ETH_TX0-*
X122450000Y-53340000D03*
G04 #@! TO.N,/Ethernet2/ETH_TX0+*
X120670000Y-54356000D03*
D17*
G04 #@! TO.N,/Ethernet2/gnd_eth*
X125350000Y-42800000D03*
X125350000Y-58800000D03*
D18*
G04 #@! TO.N,*
X121000000Y-45060000D03*
X121000000Y-56540000D03*
G04 #@! TD*
D19*
G04 #@! TO.N,GND*
G04 #@! TO.C,J401*
X27140000Y-56635000D03*
X27140000Y-65285000D03*
D20*
X30520000Y-56635000D03*
X30520000Y-65285000D03*
D21*
X31500000Y-57985000D03*
G04 #@! TO.N,/Power_Supply/VCC_USB*
X31500000Y-58835000D03*
G04 #@! TO.N,/Power_Supply/CC1*
X31500000Y-59685000D03*
G04 #@! TO.N,Net-(J401-PadA6)*
X31500000Y-60535000D03*
G04 #@! TO.N,Net-(J401-PadA7)*
X31500000Y-61385000D03*
G04 #@! TO.N,Net-(J401-PadA8)*
X31500000Y-62235000D03*
G04 #@! TO.N,/Power_Supply/VCC_USB*
X31500000Y-63085000D03*
G04 #@! TO.N,GND*
X31500000Y-63935000D03*
X30150000Y-63935000D03*
G04 #@! TO.N,/Power_Supply/VCC_USB*
X30150000Y-63085000D03*
G04 #@! TO.N,/Power_Supply/CC2*
X30150000Y-62235000D03*
G04 #@! TO.N,Net-(J401-PadB6)*
X30150000Y-61385000D03*
G04 #@! TO.N,Net-(J401-PadB7)*
X30150000Y-60535000D03*
G04 #@! TO.N,Net-(J401-PadB8)*
X30150000Y-59685000D03*
G04 #@! TO.N,/Power_Supply/VCC_USB*
X30150000Y-58835000D03*
G04 #@! TO.N,GND*
X30150000Y-57985000D03*
G04 #@! TD*
D22*
G04 #@! TO.N,GND*
G04 #@! TO.C,U201*
X66180000Y-43040000D03*
X68580000Y-41840000D03*
X66180000Y-41840000D03*
X68580000Y-40640000D03*
X66180000Y-40640000D03*
X68580000Y-39440000D03*
X67380000Y-39440000D03*
X66180000Y-39440000D03*
X68580000Y-38240000D03*
X67380000Y-38240000D03*
X66180000Y-38240000D03*
X67380000Y-40640000D03*
X67380000Y-41840000D03*
X67380000Y-43040000D03*
X68580000Y-43040000D03*
X69780000Y-39440000D03*
X70980000Y-39440000D03*
X70980000Y-38240000D03*
X70980000Y-41840000D03*
X69780000Y-38240000D03*
X70980000Y-40640000D03*
X70980000Y-43040000D03*
X69780000Y-43040000D03*
X69780000Y-41840000D03*
X69780000Y-40640000D03*
G04 #@! TD*
G04 #@! TO.N,GND*
G04 #@! TO.C,U301*
X82620000Y-50800000D03*
X82620000Y-49600000D03*
X82620000Y-48400000D03*
X81420000Y-48400000D03*
X81420000Y-50800000D03*
X82620000Y-53200000D03*
X81420000Y-49600000D03*
X81420000Y-53200000D03*
X81420000Y-52000000D03*
X82620000Y-52000000D03*
X83820000Y-48400000D03*
X85020000Y-48400000D03*
X85020000Y-49600000D03*
X85020000Y-50800000D03*
X86220000Y-53200000D03*
X85020000Y-53200000D03*
X83820000Y-53200000D03*
X86220000Y-52000000D03*
X85020000Y-52000000D03*
X83820000Y-52000000D03*
X86220000Y-50800000D03*
X83820000Y-50800000D03*
X86220000Y-49600000D03*
X83820000Y-49600000D03*
X86220000Y-48400000D03*
G04 #@! TD*
D23*
G04 #@! TO.N,GND*
X58420000Y-65278000D03*
X58420000Y-64262000D03*
X57150000Y-64262000D03*
X57150000Y-65278000D03*
X59055000Y-64770000D03*
X56515000Y-64770000D03*
D24*
X57785000Y-58420000D03*
X31623000Y-67183000D03*
X31623000Y-69977000D03*
X31623000Y-72771000D03*
D23*
X57785000Y-64770000D03*
X57023000Y-67183000D03*
X58801000Y-67183000D03*
D24*
X54737000Y-53848000D03*
X57531000Y-53848000D03*
X56134000Y-52705000D03*
X59563000Y-53975000D03*
X58293000Y-54991000D03*
X60579000Y-54102000D03*
X67945000Y-52070000D03*
X62357000Y-64516000D03*
X62357000Y-65278000D03*
X52070000Y-64516000D03*
X52070000Y-65278000D03*
X99695000Y-47625000D03*
X99695000Y-43815000D03*
X99695000Y-51435000D03*
X99695000Y-55245000D03*
X52705000Y-43815000D03*
X52705000Y-40005000D03*
X52705000Y-36195000D03*
X52705000Y-47625000D03*
X71247000Y-35179000D03*
D23*
X69189600Y-45948600D03*
X67970400Y-45948600D03*
X71958200Y-45974000D03*
X73888600Y-43891200D03*
D24*
X89281000Y-42545000D03*
X91440000Y-42545000D03*
X90043000Y-57023000D03*
X60960000Y-48895000D03*
X63119000Y-48895000D03*
X63627000Y-50673000D03*
X64516000Y-51562000D03*
X69469000Y-50800000D03*
X61595000Y-35433000D03*
X75184000Y-52578000D03*
D23*
X81203800Y-56134000D03*
X82169000Y-59690000D03*
X70612000Y-46863000D03*
X79883000Y-36830000D03*
D24*
X54610000Y-32893000D03*
D23*
G04 #@! TO.N,/Ethernet1/ETH_TX1-*
X35941000Y-39570660D03*
G04 #@! TO.N,/Ethernet1/ETH_TX1+*
X35941000Y-38915340D03*
G04 #@! TO.N,/Ethernet2/ETH_TX1+*
X116713000Y-52524660D03*
G04 #@! TO.N,/Ethernet2/ETH_TX1-*
X116713000Y-51869340D03*
G04 #@! TO.N,/EN_W2B*
X77851000Y-45466000D03*
X80010000Y-37592000D03*
G04 #@! TO.N,/ER_W2B*
X77851000Y-36830000D03*
X79756000Y-45212000D03*
G04 #@! TO.N,/CLK_W2B*
X80010000Y-36068000D03*
X78994000Y-45212000D03*
D24*
G04 #@! TO.N,/Ethernet1/gnd_eth*
X42545000Y-32512000D03*
G04 #@! TO.N,/Ethernet2/gnd_eth*
X109728000Y-58928000D03*
G04 #@! TO.N,/Ethernet1/ETH_CT0*
X43815000Y-36195000D03*
G04 #@! TO.N,/Ethernet1/ETH_CT1*
X43815000Y-40005000D03*
G04 #@! TO.N,/Ethernet1/ETH_CT2*
X43815000Y-43815000D03*
G04 #@! TO.N,/Ethernet1/ETH_CT3*
X43815000Y-47625000D03*
G04 #@! TO.N,/Ethernet2/ETH_CT0*
X108585000Y-55245000D03*
G04 #@! TO.N,/Ethernet2/ETH_CT1*
X108585000Y-51435000D03*
G04 #@! TO.N,/Ethernet2/ETH_CT2*
X108585000Y-47625000D03*
G04 #@! TO.N,/Ethernet2/ETH_CT3*
X108585000Y-43815000D03*
D23*
G04 #@! TO.N,/Ethernet1/XI*
X66014600Y-34569400D03*
X85344000Y-56515000D03*
X68580000Y-48260000D03*
G04 #@! TO.N,/Power_Supply/IntVcc*
X57785000Y-61976000D03*
X57785000Y-67183000D03*
G04 #@! TO.N,/Power_Supply/FB1*
X55626000Y-62230000D03*
G04 #@! TO.N,/Power_Supply/FB2*
X59944000Y-62230000D03*
G04 #@! TO.N,+2V5*
X73533000Y-48387000D03*
D24*
X59563000Y-57785000D03*
X58547000Y-57531000D03*
X56515000Y-50165000D03*
X58166000Y-50165000D03*
D23*
X71170800Y-45948600D03*
X66776600Y-45948600D03*
X68656200Y-35331400D03*
X83769200Y-56108600D03*
X85775800Y-45491400D03*
X80797400Y-45491400D03*
X74066400Y-37566600D03*
X74676000Y-40970200D03*
D24*
X65024000Y-48895000D03*
D23*
X78511400Y-54229000D03*
X77597000Y-50520600D03*
D24*
X87376000Y-42291000D03*
D23*
X86360000Y-61214000D03*
D24*
X100965000Y-40640000D03*
X77216000Y-44450000D03*
D23*
X79248000Y-35306000D03*
D24*
X54610000Y-31750000D03*
D23*
G04 #@! TO.N,/Power_Supply/PS_Vin*
X56515000Y-62357000D03*
X59055000Y-62357000D03*
D24*
X55245000Y-67818000D03*
D23*
G04 #@! TO.N,/Ethernet1/nRST*
X51943000Y-32108000D03*
D24*
G04 #@! TO.N,/Ethernet1/VDDAH*
X62738000Y-44958000D03*
X63500000Y-44958000D03*
D23*
X63373000Y-37592000D03*
X63246000Y-36830000D03*
X63220600Y-43510200D03*
G04 #@! TO.N,/Ethernet1/VDD*
X69977000Y-45948600D03*
X69316600Y-35331400D03*
X74676000Y-39471600D03*
X74295000Y-43256200D03*
D24*
X74041000Y-36195000D03*
X72009000Y-34544000D03*
D23*
G04 #@! TO.N,/Ethernet1/VDDAL*
X62839600Y-39116000D03*
X62433200Y-39497000D03*
X62179200Y-41757600D03*
X62153800Y-42214800D03*
G04 #@! TO.N,/Ethernet1/VDDAL_PLL*
X65989200Y-35331400D03*
D24*
G04 #@! TO.N,/Ethernet2/VDDAH*
X88900000Y-46482000D03*
D23*
X89128600Y-53517800D03*
X89128600Y-54051200D03*
X89128600Y-47929800D03*
D24*
X89662000Y-46482000D03*
D23*
G04 #@! TO.N,/Ethernet2/VDD*
X83083400Y-56108600D03*
X82270600Y-45212000D03*
X78206600Y-51968400D03*
D24*
X78613000Y-54991000D03*
X78613000Y-55626000D03*
D23*
X78409800Y-48615600D03*
G04 #@! TO.N,/Ethernet2/VDDAL*
X89128600Y-49530000D03*
X89585800Y-49657000D03*
X89128600Y-51917600D03*
X89585800Y-52070000D03*
G04 #@! TO.N,/Ethernet2/VDDAL_PLL*
X86436200Y-56108600D03*
D24*
G04 #@! TO.N,+1V1*
X54737000Y-56642000D03*
X57531000Y-56642000D03*
X56134000Y-57785000D03*
X93345000Y-42672000D03*
X88646000Y-60071000D03*
X76581000Y-56769000D03*
X59055000Y-48895000D03*
X75692000Y-34544000D03*
X61849000Y-33528000D03*
D23*
G04 #@! TO.N,/RXD0*
X75438000Y-38354000D03*
G04 #@! TO.N,/RXD1*
X77470000Y-39116000D03*
G04 #@! TO.N,/RXD2*
X75438000Y-39878000D03*
G04 #@! TO.N,/RXD3*
X77470000Y-40640000D03*
G04 #@! TO.N,/RXD4*
X75438000Y-41402000D03*
G04 #@! TO.N,/RXD5*
X77470000Y-42164000D03*
G04 #@! TO.N,/RXD6*
X75438000Y-42926000D03*
G04 #@! TO.N,/Ethernet1/RXCLK*
X77470000Y-36068000D03*
G04 #@! TO.N,/Ethernet1/RXDV*
X77470000Y-37592000D03*
G04 #@! TO.N,/Ethernet1/CLK125*
X59690000Y-32131000D03*
G04 #@! TO.N,/Ethernet1/LED2*
X66243200Y-46863000D03*
X52705000Y-49276000D03*
G04 #@! TO.N,/Ethernet1/LED1*
X52705000Y-51054000D03*
X67360800Y-47498000D03*
G04 #@! TO.N,/Ethernet2/LED1*
X85598000Y-44831000D03*
G04 #@! TO.N,/Ethernet2/LED2*
X86309200Y-44780200D03*
D24*
G04 #@! TO.N,/Ethernet1/ETH_CR3*
X55245000Y-47625000D03*
G04 #@! TO.N,/Ethernet1/ETH_CR2*
X55245000Y-43815000D03*
G04 #@! TO.N,/Ethernet1/ETH_CR1*
X55245000Y-40005000D03*
G04 #@! TO.N,/Ethernet1/ETH_CR0*
X55245000Y-36195000D03*
G04 #@! TO.N,/Ethernet2/ETH_CR3*
X97155000Y-43815000D03*
G04 #@! TO.N,/Ethernet2/ETH_CR2*
X97155000Y-47625000D03*
G04 #@! TO.N,/Ethernet2/ETH_CR1*
X97155000Y-51435000D03*
G04 #@! TO.N,/Ethernet2/ETH_CR0*
X97155000Y-55245000D03*
G04 #@! TD*
D25*
G04 #@! TO.N,+1V1*
G36*
X101019570Y-35587277D02*
X101268803Y-35682637D01*
X101437231Y-35873428D01*
X101500940Y-36132564D01*
X101500940Y-40327639D01*
X101486100Y-40291812D01*
X101313188Y-40118900D01*
X101087267Y-40025320D01*
X100842733Y-40025320D01*
X100616812Y-40118900D01*
X100443900Y-40291812D01*
X100350320Y-40517733D01*
X100350320Y-40762267D01*
X100443900Y-40988188D01*
X100616812Y-41161100D01*
X100842733Y-41254680D01*
X101087267Y-41254680D01*
X101313188Y-41161100D01*
X101486100Y-40988188D01*
X101500940Y-40952361D01*
X101500940Y-65463267D01*
X101436605Y-65723591D01*
X101266666Y-65914694D01*
X101015641Y-66009005D01*
X69926550Y-69666545D01*
X69620794Y-69615882D01*
X69400103Y-69419631D01*
X69314060Y-69121889D01*
X69314060Y-61109416D01*
X85834220Y-61109416D01*
X85834220Y-61318584D01*
X85914265Y-61511831D01*
X86062169Y-61659735D01*
X86255416Y-61739780D01*
X86464584Y-61739780D01*
X86657831Y-61659735D01*
X86805735Y-61511831D01*
X86885780Y-61318584D01*
X86885780Y-61109416D01*
X86805735Y-60916169D01*
X86657831Y-60768265D01*
X86464584Y-60688220D01*
X86255416Y-60688220D01*
X86062169Y-60768265D01*
X85914265Y-60916169D01*
X85834220Y-61109416D01*
X69314060Y-61109416D01*
X69314060Y-59585416D01*
X81643220Y-59585416D01*
X81643220Y-59794584D01*
X81723265Y-59987831D01*
X81871169Y-60135735D01*
X82064416Y-60215780D01*
X82273584Y-60215780D01*
X82466831Y-60135735D01*
X82614735Y-59987831D01*
X82694780Y-59794584D01*
X82694780Y-59585416D01*
X82614735Y-59392169D01*
X82466831Y-59244265D01*
X82273584Y-59164220D01*
X82064416Y-59164220D01*
X81871169Y-59244265D01*
X81723265Y-59392169D01*
X81643220Y-59585416D01*
X69314060Y-59585416D01*
X69314060Y-54610000D01*
X69310685Y-54584361D01*
X69225611Y-54266861D01*
X69199972Y-54222454D01*
X69101934Y-54124416D01*
X77985620Y-54124416D01*
X77985620Y-54333584D01*
X78065665Y-54526831D01*
X78136773Y-54597939D01*
X78091900Y-54642812D01*
X77998320Y-54868733D01*
X77998320Y-55113267D01*
X78079189Y-55308500D01*
X77998320Y-55503733D01*
X77998320Y-55748267D01*
X78091900Y-55974188D01*
X78264812Y-56147100D01*
X78490733Y-56240680D01*
X78735267Y-56240680D01*
X78961188Y-56147100D01*
X79078872Y-56029416D01*
X80678020Y-56029416D01*
X80678020Y-56238584D01*
X80758065Y-56431831D01*
X80905969Y-56579735D01*
X81099216Y-56659780D01*
X81308384Y-56659780D01*
X81501631Y-56579735D01*
X81649535Y-56431831D01*
X81729580Y-56238584D01*
X81729580Y-56029416D01*
X81719060Y-56004016D01*
X82557620Y-56004016D01*
X82557620Y-56213184D01*
X82637665Y-56406431D01*
X82785569Y-56554335D01*
X82978816Y-56634380D01*
X83187984Y-56634380D01*
X83381231Y-56554335D01*
X83426300Y-56509266D01*
X83471369Y-56554335D01*
X83664616Y-56634380D01*
X83873784Y-56634380D01*
X84067031Y-56554335D01*
X84210950Y-56410416D01*
X84818220Y-56410416D01*
X84818220Y-56619584D01*
X84898265Y-56812831D01*
X85046169Y-56960735D01*
X85239416Y-57040780D01*
X85448584Y-57040780D01*
X85641831Y-56960735D01*
X85701833Y-56900733D01*
X89428320Y-56900733D01*
X89428320Y-57145267D01*
X89521900Y-57371188D01*
X89694812Y-57544100D01*
X89920733Y-57637680D01*
X90165267Y-57637680D01*
X90391188Y-57544100D01*
X90564100Y-57371188D01*
X90657680Y-57145267D01*
X90657680Y-56900733D01*
X90564100Y-56674812D01*
X90391188Y-56501900D01*
X90165267Y-56408320D01*
X89920733Y-56408320D01*
X89694812Y-56501900D01*
X89521900Y-56674812D01*
X89428320Y-56900733D01*
X85701833Y-56900733D01*
X85789735Y-56812831D01*
X85869780Y-56619584D01*
X85869780Y-56410416D01*
X85789735Y-56217169D01*
X85641831Y-56069265D01*
X85484305Y-56004016D01*
X85910420Y-56004016D01*
X85910420Y-56213184D01*
X85990465Y-56406431D01*
X86138369Y-56554335D01*
X86331616Y-56634380D01*
X86540784Y-56634380D01*
X86734031Y-56554335D01*
X86881935Y-56406431D01*
X86961980Y-56213184D01*
X86961980Y-56004016D01*
X86881935Y-55810769D01*
X86734031Y-55662865D01*
X86540784Y-55582820D01*
X86331616Y-55582820D01*
X86138369Y-55662865D01*
X85990465Y-55810769D01*
X85910420Y-56004016D01*
X85484305Y-56004016D01*
X85448584Y-55989220D01*
X85239416Y-55989220D01*
X85046169Y-56069265D01*
X84898265Y-56217169D01*
X84818220Y-56410416D01*
X84210950Y-56410416D01*
X84214935Y-56406431D01*
X84294980Y-56213184D01*
X84294980Y-56004016D01*
X84214935Y-55810769D01*
X84067031Y-55662865D01*
X83873784Y-55582820D01*
X83664616Y-55582820D01*
X83471369Y-55662865D01*
X83426300Y-55707934D01*
X83381231Y-55662865D01*
X83187984Y-55582820D01*
X82978816Y-55582820D01*
X82785569Y-55662865D01*
X82637665Y-55810769D01*
X82557620Y-56004016D01*
X81719060Y-56004016D01*
X81649535Y-55836169D01*
X81501631Y-55688265D01*
X81308384Y-55608220D01*
X81099216Y-55608220D01*
X80905969Y-55688265D01*
X80758065Y-55836169D01*
X80678020Y-56029416D01*
X79078872Y-56029416D01*
X79134100Y-55974188D01*
X79227680Y-55748267D01*
X79227680Y-55503733D01*
X79146811Y-55308500D01*
X79223759Y-55122733D01*
X96540320Y-55122733D01*
X96540320Y-55367267D01*
X96633900Y-55593188D01*
X96806812Y-55766100D01*
X97032733Y-55859680D01*
X97277267Y-55859680D01*
X97503188Y-55766100D01*
X97676100Y-55593188D01*
X97769680Y-55367267D01*
X97769680Y-55122733D01*
X99080320Y-55122733D01*
X99080320Y-55367267D01*
X99173900Y-55593188D01*
X99346812Y-55766100D01*
X99572733Y-55859680D01*
X99817267Y-55859680D01*
X100043188Y-55766100D01*
X100216100Y-55593188D01*
X100309680Y-55367267D01*
X100309680Y-55122733D01*
X100216100Y-54896812D01*
X100043188Y-54723900D01*
X99817267Y-54630320D01*
X99572733Y-54630320D01*
X99346812Y-54723900D01*
X99173900Y-54896812D01*
X99080320Y-55122733D01*
X97769680Y-55122733D01*
X97676100Y-54896812D01*
X97503188Y-54723900D01*
X97277267Y-54630320D01*
X97032733Y-54630320D01*
X96806812Y-54723900D01*
X96633900Y-54896812D01*
X96540320Y-55122733D01*
X79223759Y-55122733D01*
X79227680Y-55113267D01*
X79227680Y-54868733D01*
X79134100Y-54642812D01*
X78974997Y-54483709D01*
X79037180Y-54333584D01*
X79037180Y-54124416D01*
X78957135Y-53931169D01*
X78809231Y-53783265D01*
X78615984Y-53703220D01*
X78406816Y-53703220D01*
X78213569Y-53783265D01*
X78065665Y-53931169D01*
X77985620Y-54124416D01*
X69101934Y-54124416D01*
X68967546Y-53990028D01*
X68923139Y-53964389D01*
X68605639Y-53879315D01*
X68580000Y-53875940D01*
X61150687Y-53875940D01*
X61100100Y-53753812D01*
X60927188Y-53580900D01*
X60701267Y-53487320D01*
X60456733Y-53487320D01*
X60230812Y-53580900D01*
X60113624Y-53698088D01*
X60084100Y-53626812D01*
X59911188Y-53453900D01*
X59685267Y-53360320D01*
X59440733Y-53360320D01*
X59214812Y-53453900D01*
X59041900Y-53626812D01*
X58948320Y-53852733D01*
X58948320Y-54097267D01*
X59041900Y-54323188D01*
X59214812Y-54496100D01*
X59440733Y-54589680D01*
X59685267Y-54589680D01*
X59911188Y-54496100D01*
X60028376Y-54378912D01*
X60057900Y-54450188D01*
X60225940Y-54618228D01*
X60225940Y-57771957D01*
X60151111Y-58051223D01*
X60094674Y-58107660D01*
X60177680Y-57907267D01*
X60177680Y-57662733D01*
X60084100Y-57436812D01*
X59911188Y-57263900D01*
X59685267Y-57170320D01*
X59440733Y-57170320D01*
X59214812Y-57263900D01*
X59134821Y-57343891D01*
X59068100Y-57182812D01*
X58895188Y-57009900D01*
X58669267Y-56916320D01*
X58424733Y-56916320D01*
X58198812Y-57009900D01*
X58025900Y-57182812D01*
X57932320Y-57408733D01*
X57932320Y-57653267D01*
X58013536Y-57849338D01*
X57907267Y-57805320D01*
X57662733Y-57805320D01*
X57436812Y-57898900D01*
X57263900Y-58071812D01*
X57170320Y-58297733D01*
X57170320Y-58320940D01*
X55893043Y-58320940D01*
X55613777Y-58246111D01*
X55418889Y-58051223D01*
X55344060Y-57771957D01*
X55344060Y-54868733D01*
X57678320Y-54868733D01*
X57678320Y-55113267D01*
X57771900Y-55339188D01*
X57944812Y-55512100D01*
X58170733Y-55605680D01*
X58415267Y-55605680D01*
X58641188Y-55512100D01*
X58814100Y-55339188D01*
X58907680Y-55113267D01*
X58907680Y-54868733D01*
X58814100Y-54642812D01*
X58641188Y-54469900D01*
X58415267Y-54376320D01*
X58170733Y-54376320D01*
X57944812Y-54469900D01*
X57771900Y-54642812D01*
X57678320Y-54868733D01*
X55344060Y-54868733D01*
X55344060Y-54610000D01*
X55340685Y-54584361D01*
X55255611Y-54266861D01*
X55230654Y-54223634D01*
X55258100Y-54196188D01*
X55351680Y-53970267D01*
X55351680Y-53725733D01*
X56916320Y-53725733D01*
X56916320Y-53970267D01*
X57009900Y-54196188D01*
X57182812Y-54369100D01*
X57408733Y-54462680D01*
X57653267Y-54462680D01*
X57879188Y-54369100D01*
X58052100Y-54196188D01*
X58145680Y-53970267D01*
X58145680Y-53725733D01*
X58052100Y-53499812D01*
X57879188Y-53326900D01*
X57653267Y-53233320D01*
X57408733Y-53233320D01*
X57182812Y-53326900D01*
X57009900Y-53499812D01*
X56916320Y-53725733D01*
X55351680Y-53725733D01*
X55258100Y-53499812D01*
X55085188Y-53326900D01*
X54859267Y-53233320D01*
X54614733Y-53233320D01*
X54388812Y-53326900D01*
X54215900Y-53499812D01*
X54122320Y-53725733D01*
X54122320Y-53875940D01*
X51448043Y-53875940D01*
X51168777Y-53801111D01*
X50973889Y-53606223D01*
X50899060Y-53326957D01*
X50899060Y-52582733D01*
X55519320Y-52582733D01*
X55519320Y-52827267D01*
X55612900Y-53053188D01*
X55785812Y-53226100D01*
X56011733Y-53319680D01*
X56256267Y-53319680D01*
X56482188Y-53226100D01*
X56655100Y-53053188D01*
X56748680Y-52827267D01*
X56748680Y-52582733D01*
X56655100Y-52356812D01*
X56482188Y-52183900D01*
X56256267Y-52090320D01*
X56011733Y-52090320D01*
X55785812Y-52183900D01*
X55612900Y-52356812D01*
X55519320Y-52582733D01*
X50899060Y-52582733D01*
X50899060Y-50949416D01*
X52179220Y-50949416D01*
X52179220Y-51158584D01*
X52259265Y-51351831D01*
X52407169Y-51499735D01*
X52600416Y-51579780D01*
X52809584Y-51579780D01*
X53002831Y-51499735D01*
X53062833Y-51439733D01*
X63901320Y-51439733D01*
X63901320Y-51684267D01*
X63994900Y-51910188D01*
X64167812Y-52083100D01*
X64393733Y-52176680D01*
X64638267Y-52176680D01*
X64864188Y-52083100D01*
X64999555Y-51947733D01*
X67330320Y-51947733D01*
X67330320Y-52192267D01*
X67423900Y-52418188D01*
X67596812Y-52591100D01*
X67822733Y-52684680D01*
X68067267Y-52684680D01*
X68293188Y-52591100D01*
X68428555Y-52455733D01*
X74569320Y-52455733D01*
X74569320Y-52700267D01*
X74662900Y-52926188D01*
X74835812Y-53099100D01*
X75061733Y-53192680D01*
X75306267Y-53192680D01*
X75532188Y-53099100D01*
X75705100Y-52926188D01*
X75798680Y-52700267D01*
X75798680Y-52455733D01*
X75705100Y-52229812D01*
X75532188Y-52056900D01*
X75306267Y-51963320D01*
X75061733Y-51963320D01*
X74835812Y-52056900D01*
X74662900Y-52229812D01*
X74569320Y-52455733D01*
X68428555Y-52455733D01*
X68466100Y-52418188D01*
X68559680Y-52192267D01*
X68559680Y-51947733D01*
X68524921Y-51863816D01*
X77680820Y-51863816D01*
X77680820Y-52072984D01*
X77760865Y-52266231D01*
X77908769Y-52414135D01*
X78102016Y-52494180D01*
X78311184Y-52494180D01*
X78504431Y-52414135D01*
X78652335Y-52266231D01*
X78732380Y-52072984D01*
X78732380Y-51863816D01*
X78652335Y-51670569D01*
X78504431Y-51522665D01*
X78311184Y-51442620D01*
X78102016Y-51442620D01*
X77908769Y-51522665D01*
X77760865Y-51670569D01*
X77680820Y-51863816D01*
X68524921Y-51863816D01*
X68466100Y-51721812D01*
X68293188Y-51548900D01*
X68067267Y-51455320D01*
X67822733Y-51455320D01*
X67596812Y-51548900D01*
X67423900Y-51721812D01*
X67330320Y-51947733D01*
X64999555Y-51947733D01*
X65037100Y-51910188D01*
X65130680Y-51684267D01*
X65130680Y-51439733D01*
X65037100Y-51213812D01*
X64864188Y-51040900D01*
X64638267Y-50947320D01*
X64393733Y-50947320D01*
X64167812Y-51040900D01*
X63994900Y-51213812D01*
X63901320Y-51439733D01*
X53062833Y-51439733D01*
X53150735Y-51351831D01*
X53230780Y-51158584D01*
X53230780Y-50949416D01*
X53150735Y-50756169D01*
X53002831Y-50608265D01*
X52809584Y-50528220D01*
X52600416Y-50528220D01*
X52407169Y-50608265D01*
X52259265Y-50756169D01*
X52179220Y-50949416D01*
X50899060Y-50949416D01*
X50899060Y-50042733D01*
X55900320Y-50042733D01*
X55900320Y-50287267D01*
X55993900Y-50513188D01*
X56166812Y-50686100D01*
X56392733Y-50779680D01*
X56637267Y-50779680D01*
X56863188Y-50686100D01*
X57036100Y-50513188D01*
X57129680Y-50287267D01*
X57129680Y-50042733D01*
X57551320Y-50042733D01*
X57551320Y-50287267D01*
X57644900Y-50513188D01*
X57817812Y-50686100D01*
X58043733Y-50779680D01*
X58288267Y-50779680D01*
X58514188Y-50686100D01*
X58649555Y-50550733D01*
X63012320Y-50550733D01*
X63012320Y-50795267D01*
X63105900Y-51021188D01*
X63278812Y-51194100D01*
X63504733Y-51287680D01*
X63749267Y-51287680D01*
X63975188Y-51194100D01*
X64148100Y-51021188D01*
X64241680Y-50795267D01*
X64241680Y-50677733D01*
X68854320Y-50677733D01*
X68854320Y-50922267D01*
X68947900Y-51148188D01*
X69120812Y-51321100D01*
X69346733Y-51414680D01*
X69591267Y-51414680D01*
X69817188Y-51321100D01*
X69990100Y-51148188D01*
X70083680Y-50922267D01*
X70083680Y-50677733D01*
X69990100Y-50451812D01*
X69954304Y-50416016D01*
X77071220Y-50416016D01*
X77071220Y-50625184D01*
X77151265Y-50818431D01*
X77299169Y-50966335D01*
X77492416Y-51046380D01*
X77701584Y-51046380D01*
X77894831Y-50966335D01*
X78042735Y-50818431D01*
X78122780Y-50625184D01*
X78122780Y-50416016D01*
X78042735Y-50222769D01*
X77894831Y-50074865D01*
X77701584Y-49994820D01*
X77492416Y-49994820D01*
X77299169Y-50074865D01*
X77151265Y-50222769D01*
X77071220Y-50416016D01*
X69954304Y-50416016D01*
X69817188Y-50278900D01*
X69591267Y-50185320D01*
X69346733Y-50185320D01*
X69120812Y-50278900D01*
X68947900Y-50451812D01*
X68854320Y-50677733D01*
X64241680Y-50677733D01*
X64241680Y-50550733D01*
X64148100Y-50324812D01*
X63975188Y-50151900D01*
X63749267Y-50058320D01*
X63504733Y-50058320D01*
X63278812Y-50151900D01*
X63105900Y-50324812D01*
X63012320Y-50550733D01*
X58649555Y-50550733D01*
X58687100Y-50513188D01*
X58780680Y-50287267D01*
X58780680Y-50042733D01*
X58687100Y-49816812D01*
X58514188Y-49643900D01*
X58288267Y-49550320D01*
X58043733Y-49550320D01*
X57817812Y-49643900D01*
X57644900Y-49816812D01*
X57551320Y-50042733D01*
X57129680Y-50042733D01*
X57036100Y-49816812D01*
X56863188Y-49643900D01*
X56637267Y-49550320D01*
X56392733Y-49550320D01*
X56166812Y-49643900D01*
X55993900Y-49816812D01*
X55900320Y-50042733D01*
X50899060Y-50042733D01*
X50899060Y-49171416D01*
X52179220Y-49171416D01*
X52179220Y-49380584D01*
X52259265Y-49573831D01*
X52407169Y-49721735D01*
X52600416Y-49801780D01*
X52809584Y-49801780D01*
X53002831Y-49721735D01*
X53150735Y-49573831D01*
X53230780Y-49380584D01*
X53230780Y-49171416D01*
X53150735Y-48978169D01*
X53002831Y-48830265D01*
X52863936Y-48772733D01*
X60345320Y-48772733D01*
X60345320Y-49017267D01*
X60438900Y-49243188D01*
X60611812Y-49416100D01*
X60837733Y-49509680D01*
X61082267Y-49509680D01*
X61308188Y-49416100D01*
X61481100Y-49243188D01*
X61574680Y-49017267D01*
X61574680Y-48772733D01*
X62504320Y-48772733D01*
X62504320Y-49017267D01*
X62597900Y-49243188D01*
X62770812Y-49416100D01*
X62996733Y-49509680D01*
X63241267Y-49509680D01*
X63467188Y-49416100D01*
X63640100Y-49243188D01*
X63733680Y-49017267D01*
X63733680Y-48772733D01*
X64409320Y-48772733D01*
X64409320Y-49017267D01*
X64502900Y-49243188D01*
X64675812Y-49416100D01*
X64901733Y-49509680D01*
X65146267Y-49509680D01*
X65372188Y-49416100D01*
X65545100Y-49243188D01*
X65638680Y-49017267D01*
X65638680Y-48772733D01*
X65545100Y-48546812D01*
X65372188Y-48373900D01*
X65146267Y-48280320D01*
X64901733Y-48280320D01*
X64675812Y-48373900D01*
X64502900Y-48546812D01*
X64409320Y-48772733D01*
X63733680Y-48772733D01*
X63640100Y-48546812D01*
X63467188Y-48373900D01*
X63241267Y-48280320D01*
X62996733Y-48280320D01*
X62770812Y-48373900D01*
X62597900Y-48546812D01*
X62504320Y-48772733D01*
X61574680Y-48772733D01*
X61481100Y-48546812D01*
X61308188Y-48373900D01*
X61082267Y-48280320D01*
X60837733Y-48280320D01*
X60611812Y-48373900D01*
X60438900Y-48546812D01*
X60345320Y-48772733D01*
X52863936Y-48772733D01*
X52809584Y-48750220D01*
X52600416Y-48750220D01*
X52407169Y-48830265D01*
X52259265Y-48978169D01*
X52179220Y-49171416D01*
X50899060Y-49171416D01*
X50899060Y-47502733D01*
X52090320Y-47502733D01*
X52090320Y-47747267D01*
X52183900Y-47973188D01*
X52356812Y-48146100D01*
X52582733Y-48239680D01*
X52827267Y-48239680D01*
X53053188Y-48146100D01*
X53226100Y-47973188D01*
X53319680Y-47747267D01*
X53319680Y-47502733D01*
X54630320Y-47502733D01*
X54630320Y-47747267D01*
X54723900Y-47973188D01*
X54896812Y-48146100D01*
X55122733Y-48239680D01*
X55367267Y-48239680D01*
X55570697Y-48155416D01*
X68054220Y-48155416D01*
X68054220Y-48364584D01*
X68134265Y-48557831D01*
X68282169Y-48705735D01*
X68475416Y-48785780D01*
X68684584Y-48785780D01*
X68877831Y-48705735D01*
X69025735Y-48557831D01*
X69105780Y-48364584D01*
X69105780Y-48282416D01*
X73007220Y-48282416D01*
X73007220Y-48491584D01*
X73087265Y-48684831D01*
X73235169Y-48832735D01*
X73428416Y-48912780D01*
X73637584Y-48912780D01*
X73830831Y-48832735D01*
X73978735Y-48684831D01*
X74050731Y-48511016D01*
X77884020Y-48511016D01*
X77884020Y-48720184D01*
X77964065Y-48913431D01*
X78111969Y-49061335D01*
X78305216Y-49141380D01*
X78514384Y-49141380D01*
X78707631Y-49061335D01*
X78855535Y-48913431D01*
X78935580Y-48720184D01*
X78935580Y-48511016D01*
X78855535Y-48317769D01*
X78809034Y-48271268D01*
X80772820Y-48271268D01*
X80772820Y-48528732D01*
X80871347Y-48766598D01*
X81053402Y-48948653D01*
X81177365Y-49000000D01*
X81053402Y-49051347D01*
X80871347Y-49233402D01*
X80772820Y-49471268D01*
X80772820Y-49728732D01*
X80871347Y-49966598D01*
X81053402Y-50148653D01*
X81177365Y-50200000D01*
X81053402Y-50251347D01*
X80871347Y-50433402D01*
X80772820Y-50671268D01*
X80772820Y-50928732D01*
X80871347Y-51166598D01*
X81053402Y-51348653D01*
X81177365Y-51400000D01*
X81053402Y-51451347D01*
X80871347Y-51633402D01*
X80772820Y-51871268D01*
X80772820Y-52128732D01*
X80871347Y-52366598D01*
X81053402Y-52548653D01*
X81177365Y-52600000D01*
X81053402Y-52651347D01*
X80871347Y-52833402D01*
X80772820Y-53071268D01*
X80772820Y-53328732D01*
X80871347Y-53566598D01*
X81053402Y-53748653D01*
X81291268Y-53847180D01*
X81548732Y-53847180D01*
X81786598Y-53748653D01*
X81968653Y-53566598D01*
X82020000Y-53442635D01*
X82071347Y-53566598D01*
X82253402Y-53748653D01*
X82491268Y-53847180D01*
X82748732Y-53847180D01*
X82986598Y-53748653D01*
X83168653Y-53566598D01*
X83220000Y-53442635D01*
X83271347Y-53566598D01*
X83453402Y-53748653D01*
X83691268Y-53847180D01*
X83948732Y-53847180D01*
X84186598Y-53748653D01*
X84368653Y-53566598D01*
X84420000Y-53442635D01*
X84471347Y-53566598D01*
X84653402Y-53748653D01*
X84891268Y-53847180D01*
X85148732Y-53847180D01*
X85386598Y-53748653D01*
X85568653Y-53566598D01*
X85620000Y-53442635D01*
X85671347Y-53566598D01*
X85853402Y-53748653D01*
X86091268Y-53847180D01*
X86348732Y-53847180D01*
X86586598Y-53748653D01*
X86768653Y-53566598D01*
X86832185Y-53413216D01*
X88602820Y-53413216D01*
X88602820Y-53622384D01*
X88669970Y-53784500D01*
X88602820Y-53946616D01*
X88602820Y-54155784D01*
X88682865Y-54349031D01*
X88830769Y-54496935D01*
X89024016Y-54576980D01*
X89233184Y-54576980D01*
X89426431Y-54496935D01*
X89574335Y-54349031D01*
X89654380Y-54155784D01*
X89654380Y-53946616D01*
X89587230Y-53784500D01*
X89654380Y-53622384D01*
X89654380Y-53413216D01*
X89574335Y-53219969D01*
X89426431Y-53072065D01*
X89233184Y-52992020D01*
X89024016Y-52992020D01*
X88830769Y-53072065D01*
X88682865Y-53219969D01*
X88602820Y-53413216D01*
X86832185Y-53413216D01*
X86867180Y-53328732D01*
X86867180Y-53071268D01*
X86768653Y-52833402D01*
X86586598Y-52651347D01*
X86462635Y-52600000D01*
X86586598Y-52548653D01*
X86768653Y-52366598D01*
X86867180Y-52128732D01*
X86867180Y-51871268D01*
X86843052Y-51813016D01*
X88602820Y-51813016D01*
X88602820Y-52022184D01*
X88682865Y-52215431D01*
X88830769Y-52363335D01*
X89024016Y-52443380D01*
X89215614Y-52443380D01*
X89287969Y-52515735D01*
X89481216Y-52595780D01*
X89690384Y-52595780D01*
X89883631Y-52515735D01*
X90031535Y-52367831D01*
X90111580Y-52174584D01*
X90111580Y-51965416D01*
X90031535Y-51772169D01*
X89883631Y-51624265D01*
X89690384Y-51544220D01*
X89498786Y-51544220D01*
X89426431Y-51471865D01*
X89233184Y-51391820D01*
X89024016Y-51391820D01*
X88830769Y-51471865D01*
X88682865Y-51619769D01*
X88602820Y-51813016D01*
X86843052Y-51813016D01*
X86768653Y-51633402D01*
X86586598Y-51451347D01*
X86462635Y-51400000D01*
X86586598Y-51348653D01*
X86622518Y-51312733D01*
X96540320Y-51312733D01*
X96540320Y-51557267D01*
X96633900Y-51783188D01*
X96806812Y-51956100D01*
X97032733Y-52049680D01*
X97277267Y-52049680D01*
X97503188Y-51956100D01*
X97676100Y-51783188D01*
X97769680Y-51557267D01*
X97769680Y-51312733D01*
X99080320Y-51312733D01*
X99080320Y-51557267D01*
X99173900Y-51783188D01*
X99346812Y-51956100D01*
X99572733Y-52049680D01*
X99817267Y-52049680D01*
X100043188Y-51956100D01*
X100216100Y-51783188D01*
X100309680Y-51557267D01*
X100309680Y-51312733D01*
X100216100Y-51086812D01*
X100043188Y-50913900D01*
X99817267Y-50820320D01*
X99572733Y-50820320D01*
X99346812Y-50913900D01*
X99173900Y-51086812D01*
X99080320Y-51312733D01*
X97769680Y-51312733D01*
X97676100Y-51086812D01*
X97503188Y-50913900D01*
X97277267Y-50820320D01*
X97032733Y-50820320D01*
X96806812Y-50913900D01*
X96633900Y-51086812D01*
X96540320Y-51312733D01*
X86622518Y-51312733D01*
X86768653Y-51166598D01*
X86867180Y-50928732D01*
X86867180Y-50671268D01*
X86768653Y-50433402D01*
X86586598Y-50251347D01*
X86462635Y-50200000D01*
X86586598Y-50148653D01*
X86768653Y-49966598D01*
X86867180Y-49728732D01*
X86867180Y-49471268D01*
X86848188Y-49425416D01*
X88602820Y-49425416D01*
X88602820Y-49634584D01*
X88682865Y-49827831D01*
X88830769Y-49975735D01*
X89024016Y-50055780D01*
X89233184Y-50055780D01*
X89238721Y-50053487D01*
X89287969Y-50102735D01*
X89481216Y-50182780D01*
X89690384Y-50182780D01*
X89883631Y-50102735D01*
X90031535Y-49954831D01*
X90111580Y-49761584D01*
X90111580Y-49552416D01*
X90031535Y-49359169D01*
X89883631Y-49211265D01*
X89690384Y-49131220D01*
X89481216Y-49131220D01*
X89475679Y-49133513D01*
X89426431Y-49084265D01*
X89233184Y-49004220D01*
X89024016Y-49004220D01*
X88830769Y-49084265D01*
X88682865Y-49232169D01*
X88602820Y-49425416D01*
X86848188Y-49425416D01*
X86768653Y-49233402D01*
X86586598Y-49051347D01*
X86462635Y-49000000D01*
X86586598Y-48948653D01*
X86768653Y-48766598D01*
X86867180Y-48528732D01*
X86867180Y-48271268D01*
X86768653Y-48033402D01*
X86586598Y-47851347D01*
X86523512Y-47825216D01*
X88602820Y-47825216D01*
X88602820Y-48034384D01*
X88682865Y-48227631D01*
X88830769Y-48375535D01*
X89024016Y-48455580D01*
X89233184Y-48455580D01*
X89426431Y-48375535D01*
X89574335Y-48227631D01*
X89654380Y-48034384D01*
X89654380Y-47825216D01*
X89574335Y-47631969D01*
X89445099Y-47502733D01*
X96540320Y-47502733D01*
X96540320Y-47747267D01*
X96633900Y-47973188D01*
X96806812Y-48146100D01*
X97032733Y-48239680D01*
X97277267Y-48239680D01*
X97503188Y-48146100D01*
X97676100Y-47973188D01*
X97769680Y-47747267D01*
X97769680Y-47502733D01*
X99080320Y-47502733D01*
X99080320Y-47747267D01*
X99173900Y-47973188D01*
X99346812Y-48146100D01*
X99572733Y-48239680D01*
X99817267Y-48239680D01*
X100043188Y-48146100D01*
X100216100Y-47973188D01*
X100309680Y-47747267D01*
X100309680Y-47502733D01*
X100216100Y-47276812D01*
X100043188Y-47103900D01*
X99817267Y-47010320D01*
X99572733Y-47010320D01*
X99346812Y-47103900D01*
X99173900Y-47276812D01*
X99080320Y-47502733D01*
X97769680Y-47502733D01*
X97676100Y-47276812D01*
X97503188Y-47103900D01*
X97277267Y-47010320D01*
X97032733Y-47010320D01*
X96806812Y-47103900D01*
X96633900Y-47276812D01*
X96540320Y-47502733D01*
X89445099Y-47502733D01*
X89426431Y-47484065D01*
X89233184Y-47404020D01*
X89024016Y-47404020D01*
X88830769Y-47484065D01*
X88682865Y-47631969D01*
X88602820Y-47825216D01*
X86523512Y-47825216D01*
X86348732Y-47752820D01*
X86091268Y-47752820D01*
X85853402Y-47851347D01*
X85671347Y-48033402D01*
X85620000Y-48157365D01*
X85568653Y-48033402D01*
X85386598Y-47851347D01*
X85148732Y-47752820D01*
X84891268Y-47752820D01*
X84653402Y-47851347D01*
X84471347Y-48033402D01*
X84420000Y-48157365D01*
X84368653Y-48033402D01*
X84186598Y-47851347D01*
X83948732Y-47752820D01*
X83691268Y-47752820D01*
X83453402Y-47851347D01*
X83271347Y-48033402D01*
X83220000Y-48157365D01*
X83168653Y-48033402D01*
X82986598Y-47851347D01*
X82748732Y-47752820D01*
X82491268Y-47752820D01*
X82253402Y-47851347D01*
X82071347Y-48033402D01*
X82020000Y-48157365D01*
X81968653Y-48033402D01*
X81786598Y-47851347D01*
X81548732Y-47752820D01*
X81291268Y-47752820D01*
X81053402Y-47851347D01*
X80871347Y-48033402D01*
X80772820Y-48271268D01*
X78809034Y-48271268D01*
X78707631Y-48169865D01*
X78514384Y-48089820D01*
X78305216Y-48089820D01*
X78111969Y-48169865D01*
X77964065Y-48317769D01*
X77884020Y-48511016D01*
X74050731Y-48511016D01*
X74058780Y-48491584D01*
X74058780Y-48282416D01*
X73978735Y-48089169D01*
X73830831Y-47941265D01*
X73637584Y-47861220D01*
X73428416Y-47861220D01*
X73235169Y-47941265D01*
X73087265Y-48089169D01*
X73007220Y-48282416D01*
X69105780Y-48282416D01*
X69105780Y-48155416D01*
X69025735Y-47962169D01*
X68877831Y-47814265D01*
X68684584Y-47734220D01*
X68475416Y-47734220D01*
X68282169Y-47814265D01*
X68134265Y-47962169D01*
X68054220Y-48155416D01*
X55570697Y-48155416D01*
X55593188Y-48146100D01*
X55766100Y-47973188D01*
X55859680Y-47747267D01*
X55859680Y-47502733D01*
X55814400Y-47393416D01*
X66835020Y-47393416D01*
X66835020Y-47602584D01*
X66915065Y-47795831D01*
X67062969Y-47943735D01*
X67256216Y-48023780D01*
X67465384Y-48023780D01*
X67658631Y-47943735D01*
X67806535Y-47795831D01*
X67886580Y-47602584D01*
X67886580Y-47393416D01*
X67806535Y-47200169D01*
X67658631Y-47052265D01*
X67465384Y-46972220D01*
X67256216Y-46972220D01*
X67062969Y-47052265D01*
X66915065Y-47200169D01*
X66835020Y-47393416D01*
X55814400Y-47393416D01*
X55766100Y-47276812D01*
X55593188Y-47103900D01*
X55367267Y-47010320D01*
X55122733Y-47010320D01*
X54896812Y-47103900D01*
X54723900Y-47276812D01*
X54630320Y-47502733D01*
X53319680Y-47502733D01*
X53226100Y-47276812D01*
X53053188Y-47103900D01*
X52827267Y-47010320D01*
X52582733Y-47010320D01*
X52356812Y-47103900D01*
X52183900Y-47276812D01*
X52090320Y-47502733D01*
X50899060Y-47502733D01*
X50899060Y-46758416D01*
X65717420Y-46758416D01*
X65717420Y-46967584D01*
X65797465Y-47160831D01*
X65945369Y-47308735D01*
X66138616Y-47388780D01*
X66347784Y-47388780D01*
X66541031Y-47308735D01*
X66688935Y-47160831D01*
X66768980Y-46967584D01*
X66768980Y-46758416D01*
X70086220Y-46758416D01*
X70086220Y-46967584D01*
X70166265Y-47160831D01*
X70314169Y-47308735D01*
X70507416Y-47388780D01*
X70716584Y-47388780D01*
X70909831Y-47308735D01*
X71057735Y-47160831D01*
X71137780Y-46967584D01*
X71137780Y-46758416D01*
X71057735Y-46565169D01*
X70909831Y-46417265D01*
X70716584Y-46337220D01*
X70507416Y-46337220D01*
X70314169Y-46417265D01*
X70166265Y-46565169D01*
X70086220Y-46758416D01*
X66768980Y-46758416D01*
X66688935Y-46565169D01*
X66545913Y-46422147D01*
X66672016Y-46474380D01*
X66881184Y-46474380D01*
X67074431Y-46394335D01*
X67222335Y-46246431D01*
X67302380Y-46053184D01*
X67302380Y-45844016D01*
X67444620Y-45844016D01*
X67444620Y-46053184D01*
X67524665Y-46246431D01*
X67672569Y-46394335D01*
X67865816Y-46474380D01*
X68074984Y-46474380D01*
X68268231Y-46394335D01*
X68416135Y-46246431D01*
X68496180Y-46053184D01*
X68496180Y-45844016D01*
X68663820Y-45844016D01*
X68663820Y-46053184D01*
X68743865Y-46246431D01*
X68891769Y-46394335D01*
X69085016Y-46474380D01*
X69294184Y-46474380D01*
X69487431Y-46394335D01*
X69583300Y-46298466D01*
X69679169Y-46394335D01*
X69872416Y-46474380D01*
X70081584Y-46474380D01*
X70274831Y-46394335D01*
X70422735Y-46246431D01*
X70502780Y-46053184D01*
X70502780Y-45844016D01*
X70645020Y-45844016D01*
X70645020Y-46053184D01*
X70725065Y-46246431D01*
X70872969Y-46394335D01*
X71066216Y-46474380D01*
X71275384Y-46474380D01*
X71468631Y-46394335D01*
X71551800Y-46311166D01*
X71660369Y-46419735D01*
X71853616Y-46499780D01*
X72062784Y-46499780D01*
X72256031Y-46419735D01*
X72316033Y-46359733D01*
X88285320Y-46359733D01*
X88285320Y-46604267D01*
X88378900Y-46830188D01*
X88551812Y-47003100D01*
X88777733Y-47096680D01*
X89022267Y-47096680D01*
X89248188Y-47003100D01*
X89281000Y-46970288D01*
X89313812Y-47003100D01*
X89539733Y-47096680D01*
X89784267Y-47096680D01*
X90010188Y-47003100D01*
X90183100Y-46830188D01*
X90276680Y-46604267D01*
X90276680Y-46359733D01*
X90183100Y-46133812D01*
X90010188Y-45960900D01*
X89784267Y-45867320D01*
X89539733Y-45867320D01*
X89313812Y-45960900D01*
X89281000Y-45993712D01*
X89248188Y-45960900D01*
X89022267Y-45867320D01*
X88777733Y-45867320D01*
X88551812Y-45960900D01*
X88378900Y-46133812D01*
X88285320Y-46359733D01*
X72316033Y-46359733D01*
X72403935Y-46271831D01*
X72483980Y-46078584D01*
X72483980Y-45869416D01*
X72403935Y-45676169D01*
X72256031Y-45528265D01*
X72062784Y-45448220D01*
X71853616Y-45448220D01*
X71660369Y-45528265D01*
X71577200Y-45611434D01*
X71468631Y-45502865D01*
X71275384Y-45422820D01*
X71066216Y-45422820D01*
X70872969Y-45502865D01*
X70725065Y-45650769D01*
X70645020Y-45844016D01*
X70502780Y-45844016D01*
X70422735Y-45650769D01*
X70274831Y-45502865D01*
X70081584Y-45422820D01*
X69872416Y-45422820D01*
X69679169Y-45502865D01*
X69583300Y-45598734D01*
X69487431Y-45502865D01*
X69294184Y-45422820D01*
X69085016Y-45422820D01*
X68891769Y-45502865D01*
X68743865Y-45650769D01*
X68663820Y-45844016D01*
X68496180Y-45844016D01*
X68416135Y-45650769D01*
X68268231Y-45502865D01*
X68074984Y-45422820D01*
X67865816Y-45422820D01*
X67672569Y-45502865D01*
X67524665Y-45650769D01*
X67444620Y-45844016D01*
X67302380Y-45844016D01*
X67222335Y-45650769D01*
X67074431Y-45502865D01*
X66881184Y-45422820D01*
X66672016Y-45422820D01*
X66478769Y-45502865D01*
X66330865Y-45650769D01*
X66250820Y-45844016D01*
X66250820Y-46053184D01*
X66330865Y-46246431D01*
X66473887Y-46389453D01*
X66347784Y-46337220D01*
X66138616Y-46337220D01*
X65945369Y-46417265D01*
X65797465Y-46565169D01*
X65717420Y-46758416D01*
X50899060Y-46758416D01*
X50899060Y-44835733D01*
X62123320Y-44835733D01*
X62123320Y-45080267D01*
X62216900Y-45306188D01*
X62389812Y-45479100D01*
X62615733Y-45572680D01*
X62860267Y-45572680D01*
X63086188Y-45479100D01*
X63119000Y-45446288D01*
X63151812Y-45479100D01*
X63377733Y-45572680D01*
X63622267Y-45572680D01*
X63848188Y-45479100D01*
X63965872Y-45361416D01*
X77325220Y-45361416D01*
X77325220Y-45570584D01*
X77405265Y-45763831D01*
X77553169Y-45911735D01*
X77746416Y-45991780D01*
X77955584Y-45991780D01*
X78148831Y-45911735D01*
X78296735Y-45763831D01*
X78376780Y-45570584D01*
X78376780Y-45361416D01*
X78296735Y-45168169D01*
X78235982Y-45107416D01*
X78468220Y-45107416D01*
X78468220Y-45316584D01*
X78548265Y-45509831D01*
X78696169Y-45657735D01*
X78889416Y-45737780D01*
X79098584Y-45737780D01*
X79291831Y-45657735D01*
X79375000Y-45574566D01*
X79458169Y-45657735D01*
X79651416Y-45737780D01*
X79860584Y-45737780D01*
X80053831Y-45657735D01*
X80201735Y-45509831D01*
X80252689Y-45386816D01*
X80271620Y-45386816D01*
X80271620Y-45595984D01*
X80351665Y-45789231D01*
X80499569Y-45937135D01*
X80692816Y-46017180D01*
X80901984Y-46017180D01*
X81095231Y-45937135D01*
X81243135Y-45789231D01*
X81323180Y-45595984D01*
X81323180Y-45386816D01*
X81243135Y-45193569D01*
X81156982Y-45107416D01*
X81744820Y-45107416D01*
X81744820Y-45316584D01*
X81824865Y-45509831D01*
X81972769Y-45657735D01*
X82166016Y-45737780D01*
X82375184Y-45737780D01*
X82568431Y-45657735D01*
X82716335Y-45509831D01*
X82796380Y-45316584D01*
X82796380Y-45107416D01*
X82716335Y-44914169D01*
X82568431Y-44766265D01*
X82472227Y-44726416D01*
X85072220Y-44726416D01*
X85072220Y-44935584D01*
X85152265Y-45128831D01*
X85296950Y-45273516D01*
X85250020Y-45386816D01*
X85250020Y-45595984D01*
X85330065Y-45789231D01*
X85477969Y-45937135D01*
X85671216Y-46017180D01*
X85880384Y-46017180D01*
X86073631Y-45937135D01*
X86221535Y-45789231D01*
X86301580Y-45595984D01*
X86301580Y-45386816D01*
X86268097Y-45305980D01*
X86413784Y-45305980D01*
X86607031Y-45225935D01*
X86754935Y-45078031D01*
X86834980Y-44884784D01*
X86834980Y-44675616D01*
X86754935Y-44482369D01*
X86607031Y-44334465D01*
X86413784Y-44254420D01*
X86204616Y-44254420D01*
X86011369Y-44334465D01*
X85928200Y-44417634D01*
X85895831Y-44385265D01*
X85702584Y-44305220D01*
X85493416Y-44305220D01*
X85300169Y-44385265D01*
X85152265Y-44533169D01*
X85072220Y-44726416D01*
X82472227Y-44726416D01*
X82375184Y-44686220D01*
X82166016Y-44686220D01*
X81972769Y-44766265D01*
X81824865Y-44914169D01*
X81744820Y-45107416D01*
X81156982Y-45107416D01*
X81095231Y-45045665D01*
X80901984Y-44965620D01*
X80692816Y-44965620D01*
X80499569Y-45045665D01*
X80351665Y-45193569D01*
X80271620Y-45386816D01*
X80252689Y-45386816D01*
X80281780Y-45316584D01*
X80281780Y-45107416D01*
X80201735Y-44914169D01*
X80053831Y-44766265D01*
X79860584Y-44686220D01*
X79651416Y-44686220D01*
X79458169Y-44766265D01*
X79375000Y-44849434D01*
X79291831Y-44766265D01*
X79098584Y-44686220D01*
X78889416Y-44686220D01*
X78696169Y-44766265D01*
X78548265Y-44914169D01*
X78468220Y-45107416D01*
X78235982Y-45107416D01*
X78148831Y-45020265D01*
X77955584Y-44940220D01*
X77746416Y-44940220D01*
X77553169Y-45020265D01*
X77405265Y-45168169D01*
X77325220Y-45361416D01*
X63965872Y-45361416D01*
X64021100Y-45306188D01*
X64114680Y-45080267D01*
X64114680Y-44835733D01*
X64021100Y-44609812D01*
X63848188Y-44436900D01*
X63622267Y-44343320D01*
X63377733Y-44343320D01*
X63151812Y-44436900D01*
X63119000Y-44469712D01*
X63086188Y-44436900D01*
X62860267Y-44343320D01*
X62615733Y-44343320D01*
X62389812Y-44436900D01*
X62216900Y-44609812D01*
X62123320Y-44835733D01*
X50899060Y-44835733D01*
X50899060Y-43692733D01*
X52090320Y-43692733D01*
X52090320Y-43937267D01*
X52183900Y-44163188D01*
X52356812Y-44336100D01*
X52582733Y-44429680D01*
X52827267Y-44429680D01*
X53053188Y-44336100D01*
X53226100Y-44163188D01*
X53319680Y-43937267D01*
X53319680Y-43692733D01*
X54630320Y-43692733D01*
X54630320Y-43937267D01*
X54723900Y-44163188D01*
X54896812Y-44336100D01*
X55122733Y-44429680D01*
X55367267Y-44429680D01*
X55593188Y-44336100D01*
X55766100Y-44163188D01*
X55859680Y-43937267D01*
X55859680Y-43692733D01*
X55766100Y-43466812D01*
X55704904Y-43405616D01*
X62694820Y-43405616D01*
X62694820Y-43614784D01*
X62774865Y-43808031D01*
X62922769Y-43955935D01*
X63116016Y-44035980D01*
X63325184Y-44035980D01*
X63518431Y-43955935D01*
X63666335Y-43808031D01*
X63675205Y-43786616D01*
X73362820Y-43786616D01*
X73362820Y-43995784D01*
X73442865Y-44189031D01*
X73590769Y-44336935D01*
X73784016Y-44416980D01*
X73993184Y-44416980D01*
X74186431Y-44336935D01*
X74195633Y-44327733D01*
X76601320Y-44327733D01*
X76601320Y-44572267D01*
X76694900Y-44798188D01*
X76867812Y-44971100D01*
X77093733Y-45064680D01*
X77338267Y-45064680D01*
X77564188Y-44971100D01*
X77737100Y-44798188D01*
X77830680Y-44572267D01*
X77830680Y-44327733D01*
X77737100Y-44101812D01*
X77564188Y-43928900D01*
X77338267Y-43835320D01*
X77093733Y-43835320D01*
X76867812Y-43928900D01*
X76694900Y-44101812D01*
X76601320Y-44327733D01*
X74195633Y-44327733D01*
X74334335Y-44189031D01*
X74414380Y-43995784D01*
X74414380Y-43786616D01*
X74410574Y-43777428D01*
X74592831Y-43701935D01*
X74602033Y-43692733D01*
X96540320Y-43692733D01*
X96540320Y-43937267D01*
X96633900Y-44163188D01*
X96806812Y-44336100D01*
X97032733Y-44429680D01*
X97277267Y-44429680D01*
X97503188Y-44336100D01*
X97676100Y-44163188D01*
X97769680Y-43937267D01*
X97769680Y-43692733D01*
X99080320Y-43692733D01*
X99080320Y-43937267D01*
X99173900Y-44163188D01*
X99346812Y-44336100D01*
X99572733Y-44429680D01*
X99817267Y-44429680D01*
X100043188Y-44336100D01*
X100216100Y-44163188D01*
X100309680Y-43937267D01*
X100309680Y-43692733D01*
X100216100Y-43466812D01*
X100043188Y-43293900D01*
X99817267Y-43200320D01*
X99572733Y-43200320D01*
X99346812Y-43293900D01*
X99173900Y-43466812D01*
X99080320Y-43692733D01*
X97769680Y-43692733D01*
X97676100Y-43466812D01*
X97503188Y-43293900D01*
X97277267Y-43200320D01*
X97032733Y-43200320D01*
X96806812Y-43293900D01*
X96633900Y-43466812D01*
X96540320Y-43692733D01*
X74602033Y-43692733D01*
X74740735Y-43554031D01*
X74820780Y-43360784D01*
X74820780Y-43151616D01*
X74740735Y-42958369D01*
X74603782Y-42821416D01*
X74912220Y-42821416D01*
X74912220Y-43030584D01*
X74992265Y-43223831D01*
X75140169Y-43371735D01*
X75333416Y-43451780D01*
X75542584Y-43451780D01*
X75735831Y-43371735D01*
X75883735Y-43223831D01*
X75963780Y-43030584D01*
X75963780Y-42821416D01*
X75883735Y-42628169D01*
X75735831Y-42480265D01*
X75542584Y-42400220D01*
X75333416Y-42400220D01*
X75140169Y-42480265D01*
X74992265Y-42628169D01*
X74912220Y-42821416D01*
X74603782Y-42821416D01*
X74592831Y-42810465D01*
X74399584Y-42730420D01*
X74190416Y-42730420D01*
X73997169Y-42810465D01*
X73849265Y-42958369D01*
X73769220Y-43151616D01*
X73769220Y-43360784D01*
X73773026Y-43369972D01*
X73590769Y-43445465D01*
X73442865Y-43593369D01*
X73362820Y-43786616D01*
X63675205Y-43786616D01*
X63746380Y-43614784D01*
X63746380Y-43405616D01*
X63666335Y-43212369D01*
X63518431Y-43064465D01*
X63325184Y-42984420D01*
X63116016Y-42984420D01*
X62922769Y-43064465D01*
X62774865Y-43212369D01*
X62694820Y-43405616D01*
X55704904Y-43405616D01*
X55593188Y-43293900D01*
X55367267Y-43200320D01*
X55122733Y-43200320D01*
X54896812Y-43293900D01*
X54723900Y-43466812D01*
X54630320Y-43692733D01*
X53319680Y-43692733D01*
X53226100Y-43466812D01*
X53053188Y-43293900D01*
X52827267Y-43200320D01*
X52582733Y-43200320D01*
X52356812Y-43293900D01*
X52183900Y-43466812D01*
X52090320Y-43692733D01*
X50899060Y-43692733D01*
X50899060Y-42110216D01*
X61628020Y-42110216D01*
X61628020Y-42319384D01*
X61708065Y-42512631D01*
X61855969Y-42660535D01*
X62049216Y-42740580D01*
X62258384Y-42740580D01*
X62451631Y-42660535D01*
X62599535Y-42512631D01*
X62679580Y-42319384D01*
X62679580Y-42110216D01*
X62640911Y-42016861D01*
X62704980Y-41862184D01*
X62704980Y-41653016D01*
X62624935Y-41459769D01*
X62477031Y-41311865D01*
X62283784Y-41231820D01*
X62074616Y-41231820D01*
X61881369Y-41311865D01*
X61733465Y-41459769D01*
X61653420Y-41653016D01*
X61653420Y-41862184D01*
X61692089Y-41955539D01*
X61628020Y-42110216D01*
X50899060Y-42110216D01*
X50899060Y-39882733D01*
X52090320Y-39882733D01*
X52090320Y-40127267D01*
X52183900Y-40353188D01*
X52356812Y-40526100D01*
X52582733Y-40619680D01*
X52827267Y-40619680D01*
X53053188Y-40526100D01*
X53226100Y-40353188D01*
X53319680Y-40127267D01*
X53319680Y-39882733D01*
X54630320Y-39882733D01*
X54630320Y-40127267D01*
X54723900Y-40353188D01*
X54896812Y-40526100D01*
X55122733Y-40619680D01*
X55367267Y-40619680D01*
X55593188Y-40526100D01*
X55766100Y-40353188D01*
X55859680Y-40127267D01*
X55859680Y-39882733D01*
X55766100Y-39656812D01*
X55593188Y-39483900D01*
X55372328Y-39392416D01*
X61907420Y-39392416D01*
X61907420Y-39601584D01*
X61987465Y-39794831D01*
X62135369Y-39942735D01*
X62328616Y-40022780D01*
X62537784Y-40022780D01*
X62731031Y-39942735D01*
X62878935Y-39794831D01*
X62942330Y-39641780D01*
X62944184Y-39641780D01*
X63137431Y-39561735D01*
X63285335Y-39413831D01*
X63365380Y-39220584D01*
X63365380Y-39011416D01*
X63285335Y-38818169D01*
X63137431Y-38670265D01*
X62944184Y-38590220D01*
X62735016Y-38590220D01*
X62541769Y-38670265D01*
X62393865Y-38818169D01*
X62330470Y-38971220D01*
X62328616Y-38971220D01*
X62135369Y-39051265D01*
X61987465Y-39199169D01*
X61907420Y-39392416D01*
X55372328Y-39392416D01*
X55367267Y-39390320D01*
X55122733Y-39390320D01*
X54896812Y-39483900D01*
X54723900Y-39656812D01*
X54630320Y-39882733D01*
X53319680Y-39882733D01*
X53226100Y-39656812D01*
X53053188Y-39483900D01*
X52827267Y-39390320D01*
X52582733Y-39390320D01*
X52356812Y-39483900D01*
X52183900Y-39656812D01*
X52090320Y-39882733D01*
X50899060Y-39882733D01*
X50899060Y-36072733D01*
X52090320Y-36072733D01*
X52090320Y-36317267D01*
X52183900Y-36543188D01*
X52356812Y-36716100D01*
X52582733Y-36809680D01*
X52827267Y-36809680D01*
X53053188Y-36716100D01*
X53226100Y-36543188D01*
X53319680Y-36317267D01*
X53319680Y-36072733D01*
X54630320Y-36072733D01*
X54630320Y-36317267D01*
X54723900Y-36543188D01*
X54896812Y-36716100D01*
X55122733Y-36809680D01*
X55367267Y-36809680D01*
X55570697Y-36725416D01*
X62720220Y-36725416D01*
X62720220Y-36934584D01*
X62800265Y-37127831D01*
X62946934Y-37274500D01*
X62927265Y-37294169D01*
X62847220Y-37487416D01*
X62847220Y-37696584D01*
X62927265Y-37889831D01*
X63075169Y-38037735D01*
X63268416Y-38117780D01*
X63477584Y-38117780D01*
X63493305Y-38111268D01*
X65532820Y-38111268D01*
X65532820Y-38368732D01*
X65631347Y-38606598D01*
X65813402Y-38788653D01*
X65937365Y-38840000D01*
X65813402Y-38891347D01*
X65631347Y-39073402D01*
X65532820Y-39311268D01*
X65532820Y-39568732D01*
X65631347Y-39806598D01*
X65813402Y-39988653D01*
X65937365Y-40040000D01*
X65813402Y-40091347D01*
X65631347Y-40273402D01*
X65532820Y-40511268D01*
X65532820Y-40768732D01*
X65631347Y-41006598D01*
X65813402Y-41188653D01*
X65937365Y-41240000D01*
X65813402Y-41291347D01*
X65631347Y-41473402D01*
X65532820Y-41711268D01*
X65532820Y-41968732D01*
X65631347Y-42206598D01*
X65813402Y-42388653D01*
X65937365Y-42440000D01*
X65813402Y-42491347D01*
X65631347Y-42673402D01*
X65532820Y-42911268D01*
X65532820Y-43168732D01*
X65631347Y-43406598D01*
X65813402Y-43588653D01*
X66051268Y-43687180D01*
X66308732Y-43687180D01*
X66546598Y-43588653D01*
X66728653Y-43406598D01*
X66780000Y-43282635D01*
X66831347Y-43406598D01*
X67013402Y-43588653D01*
X67251268Y-43687180D01*
X67508732Y-43687180D01*
X67746598Y-43588653D01*
X67928653Y-43406598D01*
X67980000Y-43282635D01*
X68031347Y-43406598D01*
X68213402Y-43588653D01*
X68451268Y-43687180D01*
X68708732Y-43687180D01*
X68946598Y-43588653D01*
X69128653Y-43406598D01*
X69180000Y-43282635D01*
X69231347Y-43406598D01*
X69413402Y-43588653D01*
X69651268Y-43687180D01*
X69908732Y-43687180D01*
X70146598Y-43588653D01*
X70328653Y-43406598D01*
X70380000Y-43282635D01*
X70431347Y-43406598D01*
X70613402Y-43588653D01*
X70851268Y-43687180D01*
X71108732Y-43687180D01*
X71346598Y-43588653D01*
X71528653Y-43406598D01*
X71627180Y-43168732D01*
X71627180Y-42911268D01*
X71528653Y-42673402D01*
X71346598Y-42491347D01*
X71222635Y-42440000D01*
X71346598Y-42388653D01*
X71528653Y-42206598D01*
X71589617Y-42059416D01*
X76944220Y-42059416D01*
X76944220Y-42268584D01*
X77024265Y-42461831D01*
X77172169Y-42609735D01*
X77365416Y-42689780D01*
X77574584Y-42689780D01*
X77767831Y-42609735D01*
X77915735Y-42461831D01*
X77995780Y-42268584D01*
X77995780Y-42168733D01*
X86761320Y-42168733D01*
X86761320Y-42413267D01*
X86854900Y-42639188D01*
X87027812Y-42812100D01*
X87253733Y-42905680D01*
X87498267Y-42905680D01*
X87724188Y-42812100D01*
X87897100Y-42639188D01*
X87986759Y-42422733D01*
X88666320Y-42422733D01*
X88666320Y-42667267D01*
X88759900Y-42893188D01*
X88932812Y-43066100D01*
X89158733Y-43159680D01*
X89403267Y-43159680D01*
X89629188Y-43066100D01*
X89802100Y-42893188D01*
X89895680Y-42667267D01*
X89895680Y-42422733D01*
X90825320Y-42422733D01*
X90825320Y-42667267D01*
X90918900Y-42893188D01*
X91091812Y-43066100D01*
X91317733Y-43159680D01*
X91562267Y-43159680D01*
X91788188Y-43066100D01*
X91961100Y-42893188D01*
X92054680Y-42667267D01*
X92054680Y-42422733D01*
X91961100Y-42196812D01*
X91788188Y-42023900D01*
X91562267Y-41930320D01*
X91317733Y-41930320D01*
X91091812Y-42023900D01*
X90918900Y-42196812D01*
X90825320Y-42422733D01*
X89895680Y-42422733D01*
X89802100Y-42196812D01*
X89629188Y-42023900D01*
X89403267Y-41930320D01*
X89158733Y-41930320D01*
X88932812Y-42023900D01*
X88759900Y-42196812D01*
X88666320Y-42422733D01*
X87986759Y-42422733D01*
X87990680Y-42413267D01*
X87990680Y-42168733D01*
X87897100Y-41942812D01*
X87724188Y-41769900D01*
X87498267Y-41676320D01*
X87253733Y-41676320D01*
X87027812Y-41769900D01*
X86854900Y-41942812D01*
X86761320Y-42168733D01*
X77995780Y-42168733D01*
X77995780Y-42059416D01*
X77915735Y-41866169D01*
X77767831Y-41718265D01*
X77574584Y-41638220D01*
X77365416Y-41638220D01*
X77172169Y-41718265D01*
X77024265Y-41866169D01*
X76944220Y-42059416D01*
X71589617Y-42059416D01*
X71627180Y-41968732D01*
X71627180Y-41711268D01*
X71528653Y-41473402D01*
X71346598Y-41291347D01*
X71222635Y-41240000D01*
X71346598Y-41188653D01*
X71528653Y-41006598D01*
X71587049Y-40865616D01*
X74150220Y-40865616D01*
X74150220Y-41074784D01*
X74230265Y-41268031D01*
X74378169Y-41415935D01*
X74571416Y-41495980D01*
X74780584Y-41495980D01*
X74912220Y-41441455D01*
X74912220Y-41506584D01*
X74992265Y-41699831D01*
X75140169Y-41847735D01*
X75333416Y-41927780D01*
X75542584Y-41927780D01*
X75735831Y-41847735D01*
X75883735Y-41699831D01*
X75963780Y-41506584D01*
X75963780Y-41297416D01*
X75883735Y-41104169D01*
X75735831Y-40956265D01*
X75542584Y-40876220D01*
X75333416Y-40876220D01*
X75201780Y-40930745D01*
X75201780Y-40865616D01*
X75121735Y-40672369D01*
X74984782Y-40535416D01*
X76944220Y-40535416D01*
X76944220Y-40744584D01*
X77024265Y-40937831D01*
X77172169Y-41085735D01*
X77365416Y-41165780D01*
X77574584Y-41165780D01*
X77767831Y-41085735D01*
X77915735Y-40937831D01*
X77995780Y-40744584D01*
X77995780Y-40535416D01*
X77915735Y-40342169D01*
X77767831Y-40194265D01*
X77574584Y-40114220D01*
X77365416Y-40114220D01*
X77172169Y-40194265D01*
X77024265Y-40342169D01*
X76944220Y-40535416D01*
X74984782Y-40535416D01*
X74973831Y-40524465D01*
X74780584Y-40444420D01*
X74571416Y-40444420D01*
X74378169Y-40524465D01*
X74230265Y-40672369D01*
X74150220Y-40865616D01*
X71587049Y-40865616D01*
X71627180Y-40768732D01*
X71627180Y-40511268D01*
X71528653Y-40273402D01*
X71346598Y-40091347D01*
X71222635Y-40040000D01*
X71346598Y-39988653D01*
X71528653Y-39806598D01*
X71627180Y-39568732D01*
X71627180Y-39367016D01*
X74150220Y-39367016D01*
X74150220Y-39576184D01*
X74230265Y-39769431D01*
X74378169Y-39917335D01*
X74571416Y-39997380D01*
X74780584Y-39997380D01*
X74912220Y-39942855D01*
X74912220Y-39982584D01*
X74992265Y-40175831D01*
X75140169Y-40323735D01*
X75333416Y-40403780D01*
X75542584Y-40403780D01*
X75735831Y-40323735D01*
X75883735Y-40175831D01*
X75963780Y-39982584D01*
X75963780Y-39773416D01*
X75883735Y-39580169D01*
X75735831Y-39432265D01*
X75542584Y-39352220D01*
X75333416Y-39352220D01*
X75201780Y-39406745D01*
X75201780Y-39367016D01*
X75121735Y-39173769D01*
X74973831Y-39025865D01*
X74938948Y-39011416D01*
X76944220Y-39011416D01*
X76944220Y-39220584D01*
X77024265Y-39413831D01*
X77172169Y-39561735D01*
X77365416Y-39641780D01*
X77574584Y-39641780D01*
X77767831Y-39561735D01*
X77915735Y-39413831D01*
X77995780Y-39220584D01*
X77995780Y-39011416D01*
X77915735Y-38818169D01*
X77767831Y-38670265D01*
X77574584Y-38590220D01*
X77365416Y-38590220D01*
X77172169Y-38670265D01*
X77024265Y-38818169D01*
X76944220Y-39011416D01*
X74938948Y-39011416D01*
X74780584Y-38945820D01*
X74571416Y-38945820D01*
X74378169Y-39025865D01*
X74230265Y-39173769D01*
X74150220Y-39367016D01*
X71627180Y-39367016D01*
X71627180Y-39311268D01*
X71528653Y-39073402D01*
X71346598Y-38891347D01*
X71222635Y-38840000D01*
X71346598Y-38788653D01*
X71528653Y-38606598D01*
X71627180Y-38368732D01*
X71627180Y-38249416D01*
X74912220Y-38249416D01*
X74912220Y-38458584D01*
X74992265Y-38651831D01*
X75140169Y-38799735D01*
X75333416Y-38879780D01*
X75542584Y-38879780D01*
X75735831Y-38799735D01*
X75883735Y-38651831D01*
X75963780Y-38458584D01*
X75963780Y-38249416D01*
X75883735Y-38056169D01*
X75735831Y-37908265D01*
X75542584Y-37828220D01*
X75333416Y-37828220D01*
X75140169Y-37908265D01*
X74992265Y-38056169D01*
X74912220Y-38249416D01*
X71627180Y-38249416D01*
X71627180Y-38111268D01*
X71528653Y-37873402D01*
X71346598Y-37691347D01*
X71108732Y-37592820D01*
X70851268Y-37592820D01*
X70613402Y-37691347D01*
X70431347Y-37873402D01*
X70380000Y-37997365D01*
X70328653Y-37873402D01*
X70146598Y-37691347D01*
X69908732Y-37592820D01*
X69651268Y-37592820D01*
X69413402Y-37691347D01*
X69231347Y-37873402D01*
X69180000Y-37997365D01*
X69128653Y-37873402D01*
X68946598Y-37691347D01*
X68708732Y-37592820D01*
X68451268Y-37592820D01*
X68213402Y-37691347D01*
X68031347Y-37873402D01*
X67980000Y-37997365D01*
X67928653Y-37873402D01*
X67746598Y-37691347D01*
X67508732Y-37592820D01*
X67251268Y-37592820D01*
X67013402Y-37691347D01*
X66831347Y-37873402D01*
X66780000Y-37997365D01*
X66728653Y-37873402D01*
X66546598Y-37691347D01*
X66308732Y-37592820D01*
X66051268Y-37592820D01*
X65813402Y-37691347D01*
X65631347Y-37873402D01*
X65532820Y-38111268D01*
X63493305Y-38111268D01*
X63670831Y-38037735D01*
X63818735Y-37889831D01*
X63898780Y-37696584D01*
X63898780Y-37487416D01*
X63888260Y-37462016D01*
X73540620Y-37462016D01*
X73540620Y-37671184D01*
X73620665Y-37864431D01*
X73768569Y-38012335D01*
X73961816Y-38092380D01*
X74170984Y-38092380D01*
X74364231Y-38012335D01*
X74512135Y-37864431D01*
X74592180Y-37671184D01*
X74592180Y-37462016D01*
X74512135Y-37268769D01*
X74364231Y-37120865D01*
X74170984Y-37040820D01*
X73961816Y-37040820D01*
X73768569Y-37120865D01*
X73620665Y-37268769D01*
X73540620Y-37462016D01*
X63888260Y-37462016D01*
X63818735Y-37294169D01*
X63672066Y-37147500D01*
X63691735Y-37127831D01*
X63771780Y-36934584D01*
X63771780Y-36725416D01*
X63691735Y-36532169D01*
X63543831Y-36384265D01*
X63350584Y-36304220D01*
X63141416Y-36304220D01*
X62948169Y-36384265D01*
X62800265Y-36532169D01*
X62720220Y-36725416D01*
X55570697Y-36725416D01*
X55593188Y-36716100D01*
X55766100Y-36543188D01*
X55859680Y-36317267D01*
X55859680Y-36072733D01*
X73426320Y-36072733D01*
X73426320Y-36317267D01*
X73519900Y-36543188D01*
X73692812Y-36716100D01*
X73918733Y-36809680D01*
X74163267Y-36809680D01*
X74389188Y-36716100D01*
X74562100Y-36543188D01*
X74655680Y-36317267D01*
X74655680Y-36072733D01*
X74610400Y-35963416D01*
X76944220Y-35963416D01*
X76944220Y-36172584D01*
X77024265Y-36365831D01*
X77172169Y-36513735D01*
X77365416Y-36593780D01*
X77379745Y-36593780D01*
X77325220Y-36725416D01*
X77325220Y-36934584D01*
X77379745Y-37066220D01*
X77365416Y-37066220D01*
X77172169Y-37146265D01*
X77024265Y-37294169D01*
X76944220Y-37487416D01*
X76944220Y-37696584D01*
X77024265Y-37889831D01*
X77172169Y-38037735D01*
X77365416Y-38117780D01*
X77574584Y-38117780D01*
X77767831Y-38037735D01*
X77915735Y-37889831D01*
X77995780Y-37696584D01*
X77995780Y-37487416D01*
X77941255Y-37355780D01*
X77955584Y-37355780D01*
X78148831Y-37275735D01*
X78296735Y-37127831D01*
X78376780Y-36934584D01*
X78376780Y-36725416D01*
X79357220Y-36725416D01*
X79357220Y-36934584D01*
X79437265Y-37127831D01*
X79583934Y-37274500D01*
X79564265Y-37294169D01*
X79484220Y-37487416D01*
X79484220Y-37696584D01*
X79564265Y-37889831D01*
X79712169Y-38037735D01*
X79905416Y-38117780D01*
X80114584Y-38117780D01*
X80307831Y-38037735D01*
X80455735Y-37889831D01*
X80535780Y-37696584D01*
X80535780Y-37487416D01*
X80455735Y-37294169D01*
X80309066Y-37147500D01*
X80328735Y-37127831D01*
X80408780Y-36934584D01*
X80408780Y-36725416D01*
X80328735Y-36532169D01*
X80309066Y-36512500D01*
X80455735Y-36365831D01*
X80535780Y-36172584D01*
X80535780Y-35963416D01*
X80455735Y-35770169D01*
X80307831Y-35622265D01*
X80114584Y-35542220D01*
X79905416Y-35542220D01*
X79712169Y-35622265D01*
X79564265Y-35770169D01*
X79484220Y-35963416D01*
X79484220Y-36172584D01*
X79564265Y-36365831D01*
X79583934Y-36385500D01*
X79437265Y-36532169D01*
X79357220Y-36725416D01*
X78376780Y-36725416D01*
X78296735Y-36532169D01*
X78148831Y-36384265D01*
X77955584Y-36304220D01*
X77941255Y-36304220D01*
X77995780Y-36172584D01*
X77995780Y-35963416D01*
X77915735Y-35770169D01*
X77767831Y-35622265D01*
X77574584Y-35542220D01*
X77365416Y-35542220D01*
X77172169Y-35622265D01*
X77024265Y-35770169D01*
X76944220Y-35963416D01*
X74610400Y-35963416D01*
X74562100Y-35846812D01*
X74389188Y-35673900D01*
X74163267Y-35580320D01*
X73918733Y-35580320D01*
X73692812Y-35673900D01*
X73519900Y-35846812D01*
X73426320Y-36072733D01*
X55859680Y-36072733D01*
X55766100Y-35846812D01*
X55593188Y-35673900D01*
X55367267Y-35580320D01*
X55122733Y-35580320D01*
X54896812Y-35673900D01*
X54723900Y-35846812D01*
X54630320Y-36072733D01*
X53319680Y-36072733D01*
X53226100Y-35846812D01*
X53053188Y-35673900D01*
X52827267Y-35580320D01*
X52582733Y-35580320D01*
X52356812Y-35673900D01*
X52183900Y-35846812D01*
X52090320Y-36072733D01*
X50899060Y-36072733D01*
X50899060Y-35310733D01*
X60980320Y-35310733D01*
X60980320Y-35555267D01*
X61073900Y-35781188D01*
X61246812Y-35954100D01*
X61472733Y-36047680D01*
X61717267Y-36047680D01*
X61943188Y-35954100D01*
X62116100Y-35781188D01*
X62209680Y-35555267D01*
X62209680Y-35310733D01*
X62174921Y-35226816D01*
X65463420Y-35226816D01*
X65463420Y-35435984D01*
X65543465Y-35629231D01*
X65691369Y-35777135D01*
X65884616Y-35857180D01*
X66093784Y-35857180D01*
X66287031Y-35777135D01*
X66434935Y-35629231D01*
X66514980Y-35435984D01*
X66514980Y-35226816D01*
X68130420Y-35226816D01*
X68130420Y-35435984D01*
X68210465Y-35629231D01*
X68358369Y-35777135D01*
X68551616Y-35857180D01*
X68760784Y-35857180D01*
X68954031Y-35777135D01*
X68986400Y-35744766D01*
X69018769Y-35777135D01*
X69212016Y-35857180D01*
X69421184Y-35857180D01*
X69614431Y-35777135D01*
X69762335Y-35629231D01*
X69842380Y-35435984D01*
X69842380Y-35226816D01*
X69771930Y-35056733D01*
X70632320Y-35056733D01*
X70632320Y-35301267D01*
X70725900Y-35527188D01*
X70898812Y-35700100D01*
X71124733Y-35793680D01*
X71369267Y-35793680D01*
X71595188Y-35700100D01*
X71768100Y-35527188D01*
X71861680Y-35301267D01*
X71861680Y-35201416D01*
X78722220Y-35201416D01*
X78722220Y-35410584D01*
X78802265Y-35603831D01*
X78950169Y-35751735D01*
X79143416Y-35831780D01*
X79352584Y-35831780D01*
X79545831Y-35751735D01*
X79693735Y-35603831D01*
X79773780Y-35410584D01*
X79773780Y-35201416D01*
X79693735Y-35008169D01*
X79545831Y-34860265D01*
X79352584Y-34780220D01*
X79143416Y-34780220D01*
X78950169Y-34860265D01*
X78802265Y-35008169D01*
X78722220Y-35201416D01*
X71861680Y-35201416D01*
X71861680Y-35148303D01*
X71886733Y-35158680D01*
X72131267Y-35158680D01*
X72357188Y-35065100D01*
X72530100Y-34892188D01*
X72623680Y-34666267D01*
X72623680Y-34421733D01*
X72530100Y-34195812D01*
X72357188Y-34022900D01*
X72131267Y-33929320D01*
X71886733Y-33929320D01*
X71660812Y-34022900D01*
X71487900Y-34195812D01*
X71394320Y-34421733D01*
X71394320Y-34574697D01*
X71369267Y-34564320D01*
X71124733Y-34564320D01*
X70898812Y-34657900D01*
X70725900Y-34830812D01*
X70632320Y-35056733D01*
X69771930Y-35056733D01*
X69762335Y-35033569D01*
X69614431Y-34885665D01*
X69421184Y-34805620D01*
X69212016Y-34805620D01*
X69018769Y-34885665D01*
X68986400Y-34918034D01*
X68954031Y-34885665D01*
X68760784Y-34805620D01*
X68551616Y-34805620D01*
X68358369Y-34885665D01*
X68210465Y-35033569D01*
X68130420Y-35226816D01*
X66514980Y-35226816D01*
X66434935Y-35033569D01*
X66364466Y-34963100D01*
X66460335Y-34867231D01*
X66540380Y-34673984D01*
X66540380Y-34464816D01*
X66460335Y-34271569D01*
X66312431Y-34123665D01*
X66119184Y-34043620D01*
X65910016Y-34043620D01*
X65716769Y-34123665D01*
X65568865Y-34271569D01*
X65488820Y-34464816D01*
X65488820Y-34673984D01*
X65568865Y-34867231D01*
X65639334Y-34937700D01*
X65543465Y-35033569D01*
X65463420Y-35226816D01*
X62174921Y-35226816D01*
X62116100Y-35084812D01*
X61943188Y-34911900D01*
X61717267Y-34818320D01*
X61472733Y-34818320D01*
X61246812Y-34911900D01*
X61073900Y-35084812D01*
X60980320Y-35310733D01*
X50899060Y-35310733D01*
X50899060Y-32003416D01*
X51417220Y-32003416D01*
X51417220Y-32212584D01*
X51497265Y-32405831D01*
X51645169Y-32553735D01*
X51838416Y-32633780D01*
X52047584Y-32633780D01*
X52240831Y-32553735D01*
X52388735Y-32405831D01*
X52468780Y-32212584D01*
X52468780Y-32003416D01*
X52388735Y-31810169D01*
X52240831Y-31662265D01*
X52157463Y-31627733D01*
X53995320Y-31627733D01*
X53995320Y-31872267D01*
X54088900Y-32098188D01*
X54261812Y-32271100D01*
X54383488Y-32321500D01*
X54261812Y-32371900D01*
X54088900Y-32544812D01*
X53995320Y-32770733D01*
X53995320Y-33015267D01*
X54088900Y-33241188D01*
X54261812Y-33414100D01*
X54487733Y-33507680D01*
X54732267Y-33507680D01*
X54958188Y-33414100D01*
X55131100Y-33241188D01*
X55224680Y-33015267D01*
X55224680Y-32770733D01*
X55131100Y-32544812D01*
X54958188Y-32371900D01*
X54836512Y-32321500D01*
X54958188Y-32271100D01*
X55131100Y-32098188D01*
X55160829Y-32026416D01*
X59164220Y-32026416D01*
X59164220Y-32235584D01*
X59244265Y-32428831D01*
X59392169Y-32576735D01*
X59585416Y-32656780D01*
X59794584Y-32656780D01*
X59987831Y-32576735D01*
X60135735Y-32428831D01*
X60215780Y-32235584D01*
X60215780Y-32026416D01*
X60135735Y-31833169D01*
X59987831Y-31685265D01*
X59794584Y-31605220D01*
X59585416Y-31605220D01*
X59392169Y-31685265D01*
X59244265Y-31833169D01*
X59164220Y-32026416D01*
X55160829Y-32026416D01*
X55224680Y-31872267D01*
X55224680Y-31627733D01*
X55131100Y-31401812D01*
X54958188Y-31228900D01*
X54732267Y-31135320D01*
X54487733Y-31135320D01*
X54261812Y-31228900D01*
X54088900Y-31401812D01*
X53995320Y-31627733D01*
X52157463Y-31627733D01*
X52047584Y-31582220D01*
X51838416Y-31582220D01*
X51645169Y-31662265D01*
X51497265Y-31810169D01*
X51417220Y-32003416D01*
X50899060Y-32003416D01*
X50899060Y-29943405D01*
X50985819Y-29644533D01*
X51208130Y-29448281D01*
X51515452Y-29399262D01*
X101019570Y-35587277D01*
X101019570Y-35587277D01*
G37*
X101019570Y-35587277D02*
X101268803Y-35682637D01*
X101437231Y-35873428D01*
X101500940Y-36132564D01*
X101500940Y-40327639D01*
X101486100Y-40291812D01*
X101313188Y-40118900D01*
X101087267Y-40025320D01*
X100842733Y-40025320D01*
X100616812Y-40118900D01*
X100443900Y-40291812D01*
X100350320Y-40517733D01*
X100350320Y-40762267D01*
X100443900Y-40988188D01*
X100616812Y-41161100D01*
X100842733Y-41254680D01*
X101087267Y-41254680D01*
X101313188Y-41161100D01*
X101486100Y-40988188D01*
X101500940Y-40952361D01*
X101500940Y-65463267D01*
X101436605Y-65723591D01*
X101266666Y-65914694D01*
X101015641Y-66009005D01*
X69926550Y-69666545D01*
X69620794Y-69615882D01*
X69400103Y-69419631D01*
X69314060Y-69121889D01*
X69314060Y-61109416D01*
X85834220Y-61109416D01*
X85834220Y-61318584D01*
X85914265Y-61511831D01*
X86062169Y-61659735D01*
X86255416Y-61739780D01*
X86464584Y-61739780D01*
X86657831Y-61659735D01*
X86805735Y-61511831D01*
X86885780Y-61318584D01*
X86885780Y-61109416D01*
X86805735Y-60916169D01*
X86657831Y-60768265D01*
X86464584Y-60688220D01*
X86255416Y-60688220D01*
X86062169Y-60768265D01*
X85914265Y-60916169D01*
X85834220Y-61109416D01*
X69314060Y-61109416D01*
X69314060Y-59585416D01*
X81643220Y-59585416D01*
X81643220Y-59794584D01*
X81723265Y-59987831D01*
X81871169Y-60135735D01*
X82064416Y-60215780D01*
X82273584Y-60215780D01*
X82466831Y-60135735D01*
X82614735Y-59987831D01*
X82694780Y-59794584D01*
X82694780Y-59585416D01*
X82614735Y-59392169D01*
X82466831Y-59244265D01*
X82273584Y-59164220D01*
X82064416Y-59164220D01*
X81871169Y-59244265D01*
X81723265Y-59392169D01*
X81643220Y-59585416D01*
X69314060Y-59585416D01*
X69314060Y-54610000D01*
X69310685Y-54584361D01*
X69225611Y-54266861D01*
X69199972Y-54222454D01*
X69101934Y-54124416D01*
X77985620Y-54124416D01*
X77985620Y-54333584D01*
X78065665Y-54526831D01*
X78136773Y-54597939D01*
X78091900Y-54642812D01*
X77998320Y-54868733D01*
X77998320Y-55113267D01*
X78079189Y-55308500D01*
X77998320Y-55503733D01*
X77998320Y-55748267D01*
X78091900Y-55974188D01*
X78264812Y-56147100D01*
X78490733Y-56240680D01*
X78735267Y-56240680D01*
X78961188Y-56147100D01*
X79078872Y-56029416D01*
X80678020Y-56029416D01*
X80678020Y-56238584D01*
X80758065Y-56431831D01*
X80905969Y-56579735D01*
X81099216Y-56659780D01*
X81308384Y-56659780D01*
X81501631Y-56579735D01*
X81649535Y-56431831D01*
X81729580Y-56238584D01*
X81729580Y-56029416D01*
X81719060Y-56004016D01*
X82557620Y-56004016D01*
X82557620Y-56213184D01*
X82637665Y-56406431D01*
X82785569Y-56554335D01*
X82978816Y-56634380D01*
X83187984Y-56634380D01*
X83381231Y-56554335D01*
X83426300Y-56509266D01*
X83471369Y-56554335D01*
X83664616Y-56634380D01*
X83873784Y-56634380D01*
X84067031Y-56554335D01*
X84210950Y-56410416D01*
X84818220Y-56410416D01*
X84818220Y-56619584D01*
X84898265Y-56812831D01*
X85046169Y-56960735D01*
X85239416Y-57040780D01*
X85448584Y-57040780D01*
X85641831Y-56960735D01*
X85701833Y-56900733D01*
X89428320Y-56900733D01*
X89428320Y-57145267D01*
X89521900Y-57371188D01*
X89694812Y-57544100D01*
X89920733Y-57637680D01*
X90165267Y-57637680D01*
X90391188Y-57544100D01*
X90564100Y-57371188D01*
X90657680Y-57145267D01*
X90657680Y-56900733D01*
X90564100Y-56674812D01*
X90391188Y-56501900D01*
X90165267Y-56408320D01*
X89920733Y-56408320D01*
X89694812Y-56501900D01*
X89521900Y-56674812D01*
X89428320Y-56900733D01*
X85701833Y-56900733D01*
X85789735Y-56812831D01*
X85869780Y-56619584D01*
X85869780Y-56410416D01*
X85789735Y-56217169D01*
X85641831Y-56069265D01*
X85484305Y-56004016D01*
X85910420Y-56004016D01*
X85910420Y-56213184D01*
X85990465Y-56406431D01*
X86138369Y-56554335D01*
X86331616Y-56634380D01*
X86540784Y-56634380D01*
X86734031Y-56554335D01*
X86881935Y-56406431D01*
X86961980Y-56213184D01*
X86961980Y-56004016D01*
X86881935Y-55810769D01*
X86734031Y-55662865D01*
X86540784Y-55582820D01*
X86331616Y-55582820D01*
X86138369Y-55662865D01*
X85990465Y-55810769D01*
X85910420Y-56004016D01*
X85484305Y-56004016D01*
X85448584Y-55989220D01*
X85239416Y-55989220D01*
X85046169Y-56069265D01*
X84898265Y-56217169D01*
X84818220Y-56410416D01*
X84210950Y-56410416D01*
X84214935Y-56406431D01*
X84294980Y-56213184D01*
X84294980Y-56004016D01*
X84214935Y-55810769D01*
X84067031Y-55662865D01*
X83873784Y-55582820D01*
X83664616Y-55582820D01*
X83471369Y-55662865D01*
X83426300Y-55707934D01*
X83381231Y-55662865D01*
X83187984Y-55582820D01*
X82978816Y-55582820D01*
X82785569Y-55662865D01*
X82637665Y-55810769D01*
X82557620Y-56004016D01*
X81719060Y-56004016D01*
X81649535Y-55836169D01*
X81501631Y-55688265D01*
X81308384Y-55608220D01*
X81099216Y-55608220D01*
X80905969Y-55688265D01*
X80758065Y-55836169D01*
X80678020Y-56029416D01*
X79078872Y-56029416D01*
X79134100Y-55974188D01*
X79227680Y-55748267D01*
X79227680Y-55503733D01*
X79146811Y-55308500D01*
X79223759Y-55122733D01*
X96540320Y-55122733D01*
X96540320Y-55367267D01*
X96633900Y-55593188D01*
X96806812Y-55766100D01*
X97032733Y-55859680D01*
X97277267Y-55859680D01*
X97503188Y-55766100D01*
X97676100Y-55593188D01*
X97769680Y-55367267D01*
X97769680Y-55122733D01*
X99080320Y-55122733D01*
X99080320Y-55367267D01*
X99173900Y-55593188D01*
X99346812Y-55766100D01*
X99572733Y-55859680D01*
X99817267Y-55859680D01*
X100043188Y-55766100D01*
X100216100Y-55593188D01*
X100309680Y-55367267D01*
X100309680Y-55122733D01*
X100216100Y-54896812D01*
X100043188Y-54723900D01*
X99817267Y-54630320D01*
X99572733Y-54630320D01*
X99346812Y-54723900D01*
X99173900Y-54896812D01*
X99080320Y-55122733D01*
X97769680Y-55122733D01*
X97676100Y-54896812D01*
X97503188Y-54723900D01*
X97277267Y-54630320D01*
X97032733Y-54630320D01*
X96806812Y-54723900D01*
X96633900Y-54896812D01*
X96540320Y-55122733D01*
X79223759Y-55122733D01*
X79227680Y-55113267D01*
X79227680Y-54868733D01*
X79134100Y-54642812D01*
X78974997Y-54483709D01*
X79037180Y-54333584D01*
X79037180Y-54124416D01*
X78957135Y-53931169D01*
X78809231Y-53783265D01*
X78615984Y-53703220D01*
X78406816Y-53703220D01*
X78213569Y-53783265D01*
X78065665Y-53931169D01*
X77985620Y-54124416D01*
X69101934Y-54124416D01*
X68967546Y-53990028D01*
X68923139Y-53964389D01*
X68605639Y-53879315D01*
X68580000Y-53875940D01*
X61150687Y-53875940D01*
X61100100Y-53753812D01*
X60927188Y-53580900D01*
X60701267Y-53487320D01*
X60456733Y-53487320D01*
X60230812Y-53580900D01*
X60113624Y-53698088D01*
X60084100Y-53626812D01*
X59911188Y-53453900D01*
X59685267Y-53360320D01*
X59440733Y-53360320D01*
X59214812Y-53453900D01*
X59041900Y-53626812D01*
X58948320Y-53852733D01*
X58948320Y-54097267D01*
X59041900Y-54323188D01*
X59214812Y-54496100D01*
X59440733Y-54589680D01*
X59685267Y-54589680D01*
X59911188Y-54496100D01*
X60028376Y-54378912D01*
X60057900Y-54450188D01*
X60225940Y-54618228D01*
X60225940Y-57771957D01*
X60151111Y-58051223D01*
X60094674Y-58107660D01*
X60177680Y-57907267D01*
X60177680Y-57662733D01*
X60084100Y-57436812D01*
X59911188Y-57263900D01*
X59685267Y-57170320D01*
X59440733Y-57170320D01*
X59214812Y-57263900D01*
X59134821Y-57343891D01*
X59068100Y-57182812D01*
X58895188Y-57009900D01*
X58669267Y-56916320D01*
X58424733Y-56916320D01*
X58198812Y-57009900D01*
X58025900Y-57182812D01*
X57932320Y-57408733D01*
X57932320Y-57653267D01*
X58013536Y-57849338D01*
X57907267Y-57805320D01*
X57662733Y-57805320D01*
X57436812Y-57898900D01*
X57263900Y-58071812D01*
X57170320Y-58297733D01*
X57170320Y-58320940D01*
X55893043Y-58320940D01*
X55613777Y-58246111D01*
X55418889Y-58051223D01*
X55344060Y-57771957D01*
X55344060Y-54868733D01*
X57678320Y-54868733D01*
X57678320Y-55113267D01*
X57771900Y-55339188D01*
X57944812Y-55512100D01*
X58170733Y-55605680D01*
X58415267Y-55605680D01*
X58641188Y-55512100D01*
X58814100Y-55339188D01*
X58907680Y-55113267D01*
X58907680Y-54868733D01*
X58814100Y-54642812D01*
X58641188Y-54469900D01*
X58415267Y-54376320D01*
X58170733Y-54376320D01*
X57944812Y-54469900D01*
X57771900Y-54642812D01*
X57678320Y-54868733D01*
X55344060Y-54868733D01*
X55344060Y-54610000D01*
X55340685Y-54584361D01*
X55255611Y-54266861D01*
X55230654Y-54223634D01*
X55258100Y-54196188D01*
X55351680Y-53970267D01*
X55351680Y-53725733D01*
X56916320Y-53725733D01*
X56916320Y-53970267D01*
X57009900Y-54196188D01*
X57182812Y-54369100D01*
X57408733Y-54462680D01*
X57653267Y-54462680D01*
X57879188Y-54369100D01*
X58052100Y-54196188D01*
X58145680Y-53970267D01*
X58145680Y-53725733D01*
X58052100Y-53499812D01*
X57879188Y-53326900D01*
X57653267Y-53233320D01*
X57408733Y-53233320D01*
X57182812Y-53326900D01*
X57009900Y-53499812D01*
X56916320Y-53725733D01*
X55351680Y-53725733D01*
X55258100Y-53499812D01*
X55085188Y-53326900D01*
X54859267Y-53233320D01*
X54614733Y-53233320D01*
X54388812Y-53326900D01*
X54215900Y-53499812D01*
X54122320Y-53725733D01*
X54122320Y-53875940D01*
X51448043Y-53875940D01*
X51168777Y-53801111D01*
X50973889Y-53606223D01*
X50899060Y-53326957D01*
X50899060Y-52582733D01*
X55519320Y-52582733D01*
X55519320Y-52827267D01*
X55612900Y-53053188D01*
X55785812Y-53226100D01*
X56011733Y-53319680D01*
X56256267Y-53319680D01*
X56482188Y-53226100D01*
X56655100Y-53053188D01*
X56748680Y-52827267D01*
X56748680Y-52582733D01*
X56655100Y-52356812D01*
X56482188Y-52183900D01*
X56256267Y-52090320D01*
X56011733Y-52090320D01*
X55785812Y-52183900D01*
X55612900Y-52356812D01*
X55519320Y-52582733D01*
X50899060Y-52582733D01*
X50899060Y-50949416D01*
X52179220Y-50949416D01*
X52179220Y-51158584D01*
X52259265Y-51351831D01*
X52407169Y-51499735D01*
X52600416Y-51579780D01*
X52809584Y-51579780D01*
X53002831Y-51499735D01*
X53062833Y-51439733D01*
X63901320Y-51439733D01*
X63901320Y-51684267D01*
X63994900Y-51910188D01*
X64167812Y-52083100D01*
X64393733Y-52176680D01*
X64638267Y-52176680D01*
X64864188Y-52083100D01*
X64999555Y-51947733D01*
X67330320Y-51947733D01*
X67330320Y-52192267D01*
X67423900Y-52418188D01*
X67596812Y-52591100D01*
X67822733Y-52684680D01*
X68067267Y-52684680D01*
X68293188Y-52591100D01*
X68428555Y-52455733D01*
X74569320Y-52455733D01*
X74569320Y-52700267D01*
X74662900Y-52926188D01*
X74835812Y-53099100D01*
X75061733Y-53192680D01*
X75306267Y-53192680D01*
X75532188Y-53099100D01*
X75705100Y-52926188D01*
X75798680Y-52700267D01*
X75798680Y-52455733D01*
X75705100Y-52229812D01*
X75532188Y-52056900D01*
X75306267Y-51963320D01*
X75061733Y-51963320D01*
X74835812Y-52056900D01*
X74662900Y-52229812D01*
X74569320Y-52455733D01*
X68428555Y-52455733D01*
X68466100Y-52418188D01*
X68559680Y-52192267D01*
X68559680Y-51947733D01*
X68524921Y-51863816D01*
X77680820Y-51863816D01*
X77680820Y-52072984D01*
X77760865Y-52266231D01*
X77908769Y-52414135D01*
X78102016Y-52494180D01*
X78311184Y-52494180D01*
X78504431Y-52414135D01*
X78652335Y-52266231D01*
X78732380Y-52072984D01*
X78732380Y-51863816D01*
X78652335Y-51670569D01*
X78504431Y-51522665D01*
X78311184Y-51442620D01*
X78102016Y-51442620D01*
X77908769Y-51522665D01*
X77760865Y-51670569D01*
X77680820Y-51863816D01*
X68524921Y-51863816D01*
X68466100Y-51721812D01*
X68293188Y-51548900D01*
X68067267Y-51455320D01*
X67822733Y-51455320D01*
X67596812Y-51548900D01*
X67423900Y-51721812D01*
X67330320Y-51947733D01*
X64999555Y-51947733D01*
X65037100Y-51910188D01*
X65130680Y-51684267D01*
X65130680Y-51439733D01*
X65037100Y-51213812D01*
X64864188Y-51040900D01*
X64638267Y-50947320D01*
X64393733Y-50947320D01*
X64167812Y-51040900D01*
X63994900Y-51213812D01*
X63901320Y-51439733D01*
X53062833Y-51439733D01*
X53150735Y-51351831D01*
X53230780Y-51158584D01*
X53230780Y-50949416D01*
X53150735Y-50756169D01*
X53002831Y-50608265D01*
X52809584Y-50528220D01*
X52600416Y-50528220D01*
X52407169Y-50608265D01*
X52259265Y-50756169D01*
X52179220Y-50949416D01*
X50899060Y-50949416D01*
X50899060Y-50042733D01*
X55900320Y-50042733D01*
X55900320Y-50287267D01*
X55993900Y-50513188D01*
X56166812Y-50686100D01*
X56392733Y-50779680D01*
X56637267Y-50779680D01*
X56863188Y-50686100D01*
X57036100Y-50513188D01*
X57129680Y-50287267D01*
X57129680Y-50042733D01*
X57551320Y-50042733D01*
X57551320Y-50287267D01*
X57644900Y-50513188D01*
X57817812Y-50686100D01*
X58043733Y-50779680D01*
X58288267Y-50779680D01*
X58514188Y-50686100D01*
X58649555Y-50550733D01*
X63012320Y-50550733D01*
X63012320Y-50795267D01*
X63105900Y-51021188D01*
X63278812Y-51194100D01*
X63504733Y-51287680D01*
X63749267Y-51287680D01*
X63975188Y-51194100D01*
X64148100Y-51021188D01*
X64241680Y-50795267D01*
X64241680Y-50677733D01*
X68854320Y-50677733D01*
X68854320Y-50922267D01*
X68947900Y-51148188D01*
X69120812Y-51321100D01*
X69346733Y-51414680D01*
X69591267Y-51414680D01*
X69817188Y-51321100D01*
X69990100Y-51148188D01*
X70083680Y-50922267D01*
X70083680Y-50677733D01*
X69990100Y-50451812D01*
X69954304Y-50416016D01*
X77071220Y-50416016D01*
X77071220Y-50625184D01*
X77151265Y-50818431D01*
X77299169Y-50966335D01*
X77492416Y-51046380D01*
X77701584Y-51046380D01*
X77894831Y-50966335D01*
X78042735Y-50818431D01*
X78122780Y-50625184D01*
X78122780Y-50416016D01*
X78042735Y-50222769D01*
X77894831Y-50074865D01*
X77701584Y-49994820D01*
X77492416Y-49994820D01*
X77299169Y-50074865D01*
X77151265Y-50222769D01*
X77071220Y-50416016D01*
X69954304Y-50416016D01*
X69817188Y-50278900D01*
X69591267Y-50185320D01*
X69346733Y-50185320D01*
X69120812Y-50278900D01*
X68947900Y-50451812D01*
X68854320Y-50677733D01*
X64241680Y-50677733D01*
X64241680Y-50550733D01*
X64148100Y-50324812D01*
X63975188Y-50151900D01*
X63749267Y-50058320D01*
X63504733Y-50058320D01*
X63278812Y-50151900D01*
X63105900Y-50324812D01*
X63012320Y-50550733D01*
X58649555Y-50550733D01*
X58687100Y-50513188D01*
X58780680Y-50287267D01*
X58780680Y-50042733D01*
X58687100Y-49816812D01*
X58514188Y-49643900D01*
X58288267Y-49550320D01*
X58043733Y-49550320D01*
X57817812Y-49643900D01*
X57644900Y-49816812D01*
X57551320Y-50042733D01*
X57129680Y-50042733D01*
X57036100Y-49816812D01*
X56863188Y-49643900D01*
X56637267Y-49550320D01*
X56392733Y-49550320D01*
X56166812Y-49643900D01*
X55993900Y-49816812D01*
X55900320Y-50042733D01*
X50899060Y-50042733D01*
X50899060Y-49171416D01*
X52179220Y-49171416D01*
X52179220Y-49380584D01*
X52259265Y-49573831D01*
X52407169Y-49721735D01*
X52600416Y-49801780D01*
X52809584Y-49801780D01*
X53002831Y-49721735D01*
X53150735Y-49573831D01*
X53230780Y-49380584D01*
X53230780Y-49171416D01*
X53150735Y-48978169D01*
X53002831Y-48830265D01*
X52863936Y-48772733D01*
X60345320Y-48772733D01*
X60345320Y-49017267D01*
X60438900Y-49243188D01*
X60611812Y-49416100D01*
X60837733Y-49509680D01*
X61082267Y-49509680D01*
X61308188Y-49416100D01*
X61481100Y-49243188D01*
X61574680Y-49017267D01*
X61574680Y-48772733D01*
X62504320Y-48772733D01*
X62504320Y-49017267D01*
X62597900Y-49243188D01*
X62770812Y-49416100D01*
X62996733Y-49509680D01*
X63241267Y-49509680D01*
X63467188Y-49416100D01*
X63640100Y-49243188D01*
X63733680Y-49017267D01*
X63733680Y-48772733D01*
X64409320Y-48772733D01*
X64409320Y-49017267D01*
X64502900Y-49243188D01*
X64675812Y-49416100D01*
X64901733Y-49509680D01*
X65146267Y-49509680D01*
X65372188Y-49416100D01*
X65545100Y-49243188D01*
X65638680Y-49017267D01*
X65638680Y-48772733D01*
X65545100Y-48546812D01*
X65372188Y-48373900D01*
X65146267Y-48280320D01*
X64901733Y-48280320D01*
X64675812Y-48373900D01*
X64502900Y-48546812D01*
X64409320Y-48772733D01*
X63733680Y-48772733D01*
X63640100Y-48546812D01*
X63467188Y-48373900D01*
X63241267Y-48280320D01*
X62996733Y-48280320D01*
X62770812Y-48373900D01*
X62597900Y-48546812D01*
X62504320Y-48772733D01*
X61574680Y-48772733D01*
X61481100Y-48546812D01*
X61308188Y-48373900D01*
X61082267Y-48280320D01*
X60837733Y-48280320D01*
X60611812Y-48373900D01*
X60438900Y-48546812D01*
X60345320Y-48772733D01*
X52863936Y-48772733D01*
X52809584Y-48750220D01*
X52600416Y-48750220D01*
X52407169Y-48830265D01*
X52259265Y-48978169D01*
X52179220Y-49171416D01*
X50899060Y-49171416D01*
X50899060Y-47502733D01*
X52090320Y-47502733D01*
X52090320Y-47747267D01*
X52183900Y-47973188D01*
X52356812Y-48146100D01*
X52582733Y-48239680D01*
X52827267Y-48239680D01*
X53053188Y-48146100D01*
X53226100Y-47973188D01*
X53319680Y-47747267D01*
X53319680Y-47502733D01*
X54630320Y-47502733D01*
X54630320Y-47747267D01*
X54723900Y-47973188D01*
X54896812Y-48146100D01*
X55122733Y-48239680D01*
X55367267Y-48239680D01*
X55570697Y-48155416D01*
X68054220Y-48155416D01*
X68054220Y-48364584D01*
X68134265Y-48557831D01*
X68282169Y-48705735D01*
X68475416Y-48785780D01*
X68684584Y-48785780D01*
X68877831Y-48705735D01*
X69025735Y-48557831D01*
X69105780Y-48364584D01*
X69105780Y-48282416D01*
X73007220Y-48282416D01*
X73007220Y-48491584D01*
X73087265Y-48684831D01*
X73235169Y-48832735D01*
X73428416Y-48912780D01*
X73637584Y-48912780D01*
X73830831Y-48832735D01*
X73978735Y-48684831D01*
X74050731Y-48511016D01*
X77884020Y-48511016D01*
X77884020Y-48720184D01*
X77964065Y-48913431D01*
X78111969Y-49061335D01*
X78305216Y-49141380D01*
X78514384Y-49141380D01*
X78707631Y-49061335D01*
X78855535Y-48913431D01*
X78935580Y-48720184D01*
X78935580Y-48511016D01*
X78855535Y-48317769D01*
X78809034Y-48271268D01*
X80772820Y-48271268D01*
X80772820Y-48528732D01*
X80871347Y-48766598D01*
X81053402Y-48948653D01*
X81177365Y-49000000D01*
X81053402Y-49051347D01*
X80871347Y-49233402D01*
X80772820Y-49471268D01*
X80772820Y-49728732D01*
X80871347Y-49966598D01*
X81053402Y-50148653D01*
X81177365Y-50200000D01*
X81053402Y-50251347D01*
X80871347Y-50433402D01*
X80772820Y-50671268D01*
X80772820Y-50928732D01*
X80871347Y-51166598D01*
X81053402Y-51348653D01*
X81177365Y-51400000D01*
X81053402Y-51451347D01*
X80871347Y-51633402D01*
X80772820Y-51871268D01*
X80772820Y-52128732D01*
X80871347Y-52366598D01*
X81053402Y-52548653D01*
X81177365Y-52600000D01*
X81053402Y-52651347D01*
X80871347Y-52833402D01*
X80772820Y-53071268D01*
X80772820Y-53328732D01*
X80871347Y-53566598D01*
X81053402Y-53748653D01*
X81291268Y-53847180D01*
X81548732Y-53847180D01*
X81786598Y-53748653D01*
X81968653Y-53566598D01*
X82020000Y-53442635D01*
X82071347Y-53566598D01*
X82253402Y-53748653D01*
X82491268Y-53847180D01*
X82748732Y-53847180D01*
X82986598Y-53748653D01*
X83168653Y-53566598D01*
X83220000Y-53442635D01*
X83271347Y-53566598D01*
X83453402Y-53748653D01*
X83691268Y-53847180D01*
X83948732Y-53847180D01*
X84186598Y-53748653D01*
X84368653Y-53566598D01*
X84420000Y-53442635D01*
X84471347Y-53566598D01*
X84653402Y-53748653D01*
X84891268Y-53847180D01*
X85148732Y-53847180D01*
X85386598Y-53748653D01*
X85568653Y-53566598D01*
X85620000Y-53442635D01*
X85671347Y-53566598D01*
X85853402Y-53748653D01*
X86091268Y-53847180D01*
X86348732Y-53847180D01*
X86586598Y-53748653D01*
X86768653Y-53566598D01*
X86832185Y-53413216D01*
X88602820Y-53413216D01*
X88602820Y-53622384D01*
X88669970Y-53784500D01*
X88602820Y-53946616D01*
X88602820Y-54155784D01*
X88682865Y-54349031D01*
X88830769Y-54496935D01*
X89024016Y-54576980D01*
X89233184Y-54576980D01*
X89426431Y-54496935D01*
X89574335Y-54349031D01*
X89654380Y-54155784D01*
X89654380Y-53946616D01*
X89587230Y-53784500D01*
X89654380Y-53622384D01*
X89654380Y-53413216D01*
X89574335Y-53219969D01*
X89426431Y-53072065D01*
X89233184Y-52992020D01*
X89024016Y-52992020D01*
X88830769Y-53072065D01*
X88682865Y-53219969D01*
X88602820Y-53413216D01*
X86832185Y-53413216D01*
X86867180Y-53328732D01*
X86867180Y-53071268D01*
X86768653Y-52833402D01*
X86586598Y-52651347D01*
X86462635Y-52600000D01*
X86586598Y-52548653D01*
X86768653Y-52366598D01*
X86867180Y-52128732D01*
X86867180Y-51871268D01*
X86843052Y-51813016D01*
X88602820Y-51813016D01*
X88602820Y-52022184D01*
X88682865Y-52215431D01*
X88830769Y-52363335D01*
X89024016Y-52443380D01*
X89215614Y-52443380D01*
X89287969Y-52515735D01*
X89481216Y-52595780D01*
X89690384Y-52595780D01*
X89883631Y-52515735D01*
X90031535Y-52367831D01*
X90111580Y-52174584D01*
X90111580Y-51965416D01*
X90031535Y-51772169D01*
X89883631Y-51624265D01*
X89690384Y-51544220D01*
X89498786Y-51544220D01*
X89426431Y-51471865D01*
X89233184Y-51391820D01*
X89024016Y-51391820D01*
X88830769Y-51471865D01*
X88682865Y-51619769D01*
X88602820Y-51813016D01*
X86843052Y-51813016D01*
X86768653Y-51633402D01*
X86586598Y-51451347D01*
X86462635Y-51400000D01*
X86586598Y-51348653D01*
X86622518Y-51312733D01*
X96540320Y-51312733D01*
X96540320Y-51557267D01*
X96633900Y-51783188D01*
X96806812Y-51956100D01*
X97032733Y-52049680D01*
X97277267Y-52049680D01*
X97503188Y-51956100D01*
X97676100Y-51783188D01*
X97769680Y-51557267D01*
X97769680Y-51312733D01*
X99080320Y-51312733D01*
X99080320Y-51557267D01*
X99173900Y-51783188D01*
X99346812Y-51956100D01*
X99572733Y-52049680D01*
X99817267Y-52049680D01*
X100043188Y-51956100D01*
X100216100Y-51783188D01*
X100309680Y-51557267D01*
X100309680Y-51312733D01*
X100216100Y-51086812D01*
X100043188Y-50913900D01*
X99817267Y-50820320D01*
X99572733Y-50820320D01*
X99346812Y-50913900D01*
X99173900Y-51086812D01*
X99080320Y-51312733D01*
X97769680Y-51312733D01*
X97676100Y-51086812D01*
X97503188Y-50913900D01*
X97277267Y-50820320D01*
X97032733Y-50820320D01*
X96806812Y-50913900D01*
X96633900Y-51086812D01*
X96540320Y-51312733D01*
X86622518Y-51312733D01*
X86768653Y-51166598D01*
X86867180Y-50928732D01*
X86867180Y-50671268D01*
X86768653Y-50433402D01*
X86586598Y-50251347D01*
X86462635Y-50200000D01*
X86586598Y-50148653D01*
X86768653Y-49966598D01*
X86867180Y-49728732D01*
X86867180Y-49471268D01*
X86848188Y-49425416D01*
X88602820Y-49425416D01*
X88602820Y-49634584D01*
X88682865Y-49827831D01*
X88830769Y-49975735D01*
X89024016Y-50055780D01*
X89233184Y-50055780D01*
X89238721Y-50053487D01*
X89287969Y-50102735D01*
X89481216Y-50182780D01*
X89690384Y-50182780D01*
X89883631Y-50102735D01*
X90031535Y-49954831D01*
X90111580Y-49761584D01*
X90111580Y-49552416D01*
X90031535Y-49359169D01*
X89883631Y-49211265D01*
X89690384Y-49131220D01*
X89481216Y-49131220D01*
X89475679Y-49133513D01*
X89426431Y-49084265D01*
X89233184Y-49004220D01*
X89024016Y-49004220D01*
X88830769Y-49084265D01*
X88682865Y-49232169D01*
X88602820Y-49425416D01*
X86848188Y-49425416D01*
X86768653Y-49233402D01*
X86586598Y-49051347D01*
X86462635Y-49000000D01*
X86586598Y-48948653D01*
X86768653Y-48766598D01*
X86867180Y-48528732D01*
X86867180Y-48271268D01*
X86768653Y-48033402D01*
X86586598Y-47851347D01*
X86523512Y-47825216D01*
X88602820Y-47825216D01*
X88602820Y-48034384D01*
X88682865Y-48227631D01*
X88830769Y-48375535D01*
X89024016Y-48455580D01*
X89233184Y-48455580D01*
X89426431Y-48375535D01*
X89574335Y-48227631D01*
X89654380Y-48034384D01*
X89654380Y-47825216D01*
X89574335Y-47631969D01*
X89445099Y-47502733D01*
X96540320Y-47502733D01*
X96540320Y-47747267D01*
X96633900Y-47973188D01*
X96806812Y-48146100D01*
X97032733Y-48239680D01*
X97277267Y-48239680D01*
X97503188Y-48146100D01*
X97676100Y-47973188D01*
X97769680Y-47747267D01*
X97769680Y-47502733D01*
X99080320Y-47502733D01*
X99080320Y-47747267D01*
X99173900Y-47973188D01*
X99346812Y-48146100D01*
X99572733Y-48239680D01*
X99817267Y-48239680D01*
X100043188Y-48146100D01*
X100216100Y-47973188D01*
X100309680Y-47747267D01*
X100309680Y-47502733D01*
X100216100Y-47276812D01*
X100043188Y-47103900D01*
X99817267Y-47010320D01*
X99572733Y-47010320D01*
X99346812Y-47103900D01*
X99173900Y-47276812D01*
X99080320Y-47502733D01*
X97769680Y-47502733D01*
X97676100Y-47276812D01*
X97503188Y-47103900D01*
X97277267Y-47010320D01*
X97032733Y-47010320D01*
X96806812Y-47103900D01*
X96633900Y-47276812D01*
X96540320Y-47502733D01*
X89445099Y-47502733D01*
X89426431Y-47484065D01*
X89233184Y-47404020D01*
X89024016Y-47404020D01*
X88830769Y-47484065D01*
X88682865Y-47631969D01*
X88602820Y-47825216D01*
X86523512Y-47825216D01*
X86348732Y-47752820D01*
X86091268Y-47752820D01*
X85853402Y-47851347D01*
X85671347Y-48033402D01*
X85620000Y-48157365D01*
X85568653Y-48033402D01*
X85386598Y-47851347D01*
X85148732Y-47752820D01*
X84891268Y-47752820D01*
X84653402Y-47851347D01*
X84471347Y-48033402D01*
X84420000Y-48157365D01*
X84368653Y-48033402D01*
X84186598Y-47851347D01*
X83948732Y-47752820D01*
X83691268Y-47752820D01*
X83453402Y-47851347D01*
X83271347Y-48033402D01*
X83220000Y-48157365D01*
X83168653Y-48033402D01*
X82986598Y-47851347D01*
X82748732Y-47752820D01*
X82491268Y-47752820D01*
X82253402Y-47851347D01*
X82071347Y-48033402D01*
X82020000Y-48157365D01*
X81968653Y-48033402D01*
X81786598Y-47851347D01*
X81548732Y-47752820D01*
X81291268Y-47752820D01*
X81053402Y-47851347D01*
X80871347Y-48033402D01*
X80772820Y-48271268D01*
X78809034Y-48271268D01*
X78707631Y-48169865D01*
X78514384Y-48089820D01*
X78305216Y-48089820D01*
X78111969Y-48169865D01*
X77964065Y-48317769D01*
X77884020Y-48511016D01*
X74050731Y-48511016D01*
X74058780Y-48491584D01*
X74058780Y-48282416D01*
X73978735Y-48089169D01*
X73830831Y-47941265D01*
X73637584Y-47861220D01*
X73428416Y-47861220D01*
X73235169Y-47941265D01*
X73087265Y-48089169D01*
X73007220Y-48282416D01*
X69105780Y-48282416D01*
X69105780Y-48155416D01*
X69025735Y-47962169D01*
X68877831Y-47814265D01*
X68684584Y-47734220D01*
X68475416Y-47734220D01*
X68282169Y-47814265D01*
X68134265Y-47962169D01*
X68054220Y-48155416D01*
X55570697Y-48155416D01*
X55593188Y-48146100D01*
X55766100Y-47973188D01*
X55859680Y-47747267D01*
X55859680Y-47502733D01*
X55814400Y-47393416D01*
X66835020Y-47393416D01*
X66835020Y-47602584D01*
X66915065Y-47795831D01*
X67062969Y-47943735D01*
X67256216Y-48023780D01*
X67465384Y-48023780D01*
X67658631Y-47943735D01*
X67806535Y-47795831D01*
X67886580Y-47602584D01*
X67886580Y-47393416D01*
X67806535Y-47200169D01*
X67658631Y-47052265D01*
X67465384Y-46972220D01*
X67256216Y-46972220D01*
X67062969Y-47052265D01*
X66915065Y-47200169D01*
X66835020Y-47393416D01*
X55814400Y-47393416D01*
X55766100Y-47276812D01*
X55593188Y-47103900D01*
X55367267Y-47010320D01*
X55122733Y-47010320D01*
X54896812Y-47103900D01*
X54723900Y-47276812D01*
X54630320Y-47502733D01*
X53319680Y-47502733D01*
X53226100Y-47276812D01*
X53053188Y-47103900D01*
X52827267Y-47010320D01*
X52582733Y-47010320D01*
X52356812Y-47103900D01*
X52183900Y-47276812D01*
X52090320Y-47502733D01*
X50899060Y-47502733D01*
X50899060Y-46758416D01*
X65717420Y-46758416D01*
X65717420Y-46967584D01*
X65797465Y-47160831D01*
X65945369Y-47308735D01*
X66138616Y-47388780D01*
X66347784Y-47388780D01*
X66541031Y-47308735D01*
X66688935Y-47160831D01*
X66768980Y-46967584D01*
X66768980Y-46758416D01*
X70086220Y-46758416D01*
X70086220Y-46967584D01*
X70166265Y-47160831D01*
X70314169Y-47308735D01*
X70507416Y-47388780D01*
X70716584Y-47388780D01*
X70909831Y-47308735D01*
X71057735Y-47160831D01*
X71137780Y-46967584D01*
X71137780Y-46758416D01*
X71057735Y-46565169D01*
X70909831Y-46417265D01*
X70716584Y-46337220D01*
X70507416Y-46337220D01*
X70314169Y-46417265D01*
X70166265Y-46565169D01*
X70086220Y-46758416D01*
X66768980Y-46758416D01*
X66688935Y-46565169D01*
X66545913Y-46422147D01*
X66672016Y-46474380D01*
X66881184Y-46474380D01*
X67074431Y-46394335D01*
X67222335Y-46246431D01*
X67302380Y-46053184D01*
X67302380Y-45844016D01*
X67444620Y-45844016D01*
X67444620Y-46053184D01*
X67524665Y-46246431D01*
X67672569Y-46394335D01*
X67865816Y-46474380D01*
X68074984Y-46474380D01*
X68268231Y-46394335D01*
X68416135Y-46246431D01*
X68496180Y-46053184D01*
X68496180Y-45844016D01*
X68663820Y-45844016D01*
X68663820Y-46053184D01*
X68743865Y-46246431D01*
X68891769Y-46394335D01*
X69085016Y-46474380D01*
X69294184Y-46474380D01*
X69487431Y-46394335D01*
X69583300Y-46298466D01*
X69679169Y-46394335D01*
X69872416Y-46474380D01*
X70081584Y-46474380D01*
X70274831Y-46394335D01*
X70422735Y-46246431D01*
X70502780Y-46053184D01*
X70502780Y-45844016D01*
X70645020Y-45844016D01*
X70645020Y-46053184D01*
X70725065Y-46246431D01*
X70872969Y-46394335D01*
X71066216Y-46474380D01*
X71275384Y-46474380D01*
X71468631Y-46394335D01*
X71551800Y-46311166D01*
X71660369Y-46419735D01*
X71853616Y-46499780D01*
X72062784Y-46499780D01*
X72256031Y-46419735D01*
X72316033Y-46359733D01*
X88285320Y-46359733D01*
X88285320Y-46604267D01*
X88378900Y-46830188D01*
X88551812Y-47003100D01*
X88777733Y-47096680D01*
X89022267Y-47096680D01*
X89248188Y-47003100D01*
X89281000Y-46970288D01*
X89313812Y-47003100D01*
X89539733Y-47096680D01*
X89784267Y-47096680D01*
X90010188Y-47003100D01*
X90183100Y-46830188D01*
X90276680Y-46604267D01*
X90276680Y-46359733D01*
X90183100Y-46133812D01*
X90010188Y-45960900D01*
X89784267Y-45867320D01*
X89539733Y-45867320D01*
X89313812Y-45960900D01*
X89281000Y-45993712D01*
X89248188Y-45960900D01*
X89022267Y-45867320D01*
X88777733Y-45867320D01*
X88551812Y-45960900D01*
X88378900Y-46133812D01*
X88285320Y-46359733D01*
X72316033Y-46359733D01*
X72403935Y-46271831D01*
X72483980Y-46078584D01*
X72483980Y-45869416D01*
X72403935Y-45676169D01*
X72256031Y-45528265D01*
X72062784Y-45448220D01*
X71853616Y-45448220D01*
X71660369Y-45528265D01*
X71577200Y-45611434D01*
X71468631Y-45502865D01*
X71275384Y-45422820D01*
X71066216Y-45422820D01*
X70872969Y-45502865D01*
X70725065Y-45650769D01*
X70645020Y-45844016D01*
X70502780Y-45844016D01*
X70422735Y-45650769D01*
X70274831Y-45502865D01*
X70081584Y-45422820D01*
X69872416Y-45422820D01*
X69679169Y-45502865D01*
X69583300Y-45598734D01*
X69487431Y-45502865D01*
X69294184Y-45422820D01*
X69085016Y-45422820D01*
X68891769Y-45502865D01*
X68743865Y-45650769D01*
X68663820Y-45844016D01*
X68496180Y-45844016D01*
X68416135Y-45650769D01*
X68268231Y-45502865D01*
X68074984Y-45422820D01*
X67865816Y-45422820D01*
X67672569Y-45502865D01*
X67524665Y-45650769D01*
X67444620Y-45844016D01*
X67302380Y-45844016D01*
X67222335Y-45650769D01*
X67074431Y-45502865D01*
X66881184Y-45422820D01*
X66672016Y-45422820D01*
X66478769Y-45502865D01*
X66330865Y-45650769D01*
X66250820Y-45844016D01*
X66250820Y-46053184D01*
X66330865Y-46246431D01*
X66473887Y-46389453D01*
X66347784Y-46337220D01*
X66138616Y-46337220D01*
X65945369Y-46417265D01*
X65797465Y-46565169D01*
X65717420Y-46758416D01*
X50899060Y-46758416D01*
X50899060Y-44835733D01*
X62123320Y-44835733D01*
X62123320Y-45080267D01*
X62216900Y-45306188D01*
X62389812Y-45479100D01*
X62615733Y-45572680D01*
X62860267Y-45572680D01*
X63086188Y-45479100D01*
X63119000Y-45446288D01*
X63151812Y-45479100D01*
X63377733Y-45572680D01*
X63622267Y-45572680D01*
X63848188Y-45479100D01*
X63965872Y-45361416D01*
X77325220Y-45361416D01*
X77325220Y-45570584D01*
X77405265Y-45763831D01*
X77553169Y-45911735D01*
X77746416Y-45991780D01*
X77955584Y-45991780D01*
X78148831Y-45911735D01*
X78296735Y-45763831D01*
X78376780Y-45570584D01*
X78376780Y-45361416D01*
X78296735Y-45168169D01*
X78235982Y-45107416D01*
X78468220Y-45107416D01*
X78468220Y-45316584D01*
X78548265Y-45509831D01*
X78696169Y-45657735D01*
X78889416Y-45737780D01*
X79098584Y-45737780D01*
X79291831Y-45657735D01*
X79375000Y-45574566D01*
X79458169Y-45657735D01*
X79651416Y-45737780D01*
X79860584Y-45737780D01*
X80053831Y-45657735D01*
X80201735Y-45509831D01*
X80252689Y-45386816D01*
X80271620Y-45386816D01*
X80271620Y-45595984D01*
X80351665Y-45789231D01*
X80499569Y-45937135D01*
X80692816Y-46017180D01*
X80901984Y-46017180D01*
X81095231Y-45937135D01*
X81243135Y-45789231D01*
X81323180Y-45595984D01*
X81323180Y-45386816D01*
X81243135Y-45193569D01*
X81156982Y-45107416D01*
X81744820Y-45107416D01*
X81744820Y-45316584D01*
X81824865Y-45509831D01*
X81972769Y-45657735D01*
X82166016Y-45737780D01*
X82375184Y-45737780D01*
X82568431Y-45657735D01*
X82716335Y-45509831D01*
X82796380Y-45316584D01*
X82796380Y-45107416D01*
X82716335Y-44914169D01*
X82568431Y-44766265D01*
X82472227Y-44726416D01*
X85072220Y-44726416D01*
X85072220Y-44935584D01*
X85152265Y-45128831D01*
X85296950Y-45273516D01*
X85250020Y-45386816D01*
X85250020Y-45595984D01*
X85330065Y-45789231D01*
X85477969Y-45937135D01*
X85671216Y-46017180D01*
X85880384Y-46017180D01*
X86073631Y-45937135D01*
X86221535Y-45789231D01*
X86301580Y-45595984D01*
X86301580Y-45386816D01*
X86268097Y-45305980D01*
X86413784Y-45305980D01*
X86607031Y-45225935D01*
X86754935Y-45078031D01*
X86834980Y-44884784D01*
X86834980Y-44675616D01*
X86754935Y-44482369D01*
X86607031Y-44334465D01*
X86413784Y-44254420D01*
X86204616Y-44254420D01*
X86011369Y-44334465D01*
X85928200Y-44417634D01*
X85895831Y-44385265D01*
X85702584Y-44305220D01*
X85493416Y-44305220D01*
X85300169Y-44385265D01*
X85152265Y-44533169D01*
X85072220Y-44726416D01*
X82472227Y-44726416D01*
X82375184Y-44686220D01*
X82166016Y-44686220D01*
X81972769Y-44766265D01*
X81824865Y-44914169D01*
X81744820Y-45107416D01*
X81156982Y-45107416D01*
X81095231Y-45045665D01*
X80901984Y-44965620D01*
X80692816Y-44965620D01*
X80499569Y-45045665D01*
X80351665Y-45193569D01*
X80271620Y-45386816D01*
X80252689Y-45386816D01*
X80281780Y-45316584D01*
X80281780Y-45107416D01*
X80201735Y-44914169D01*
X80053831Y-44766265D01*
X79860584Y-44686220D01*
X79651416Y-44686220D01*
X79458169Y-44766265D01*
X79375000Y-44849434D01*
X79291831Y-44766265D01*
X79098584Y-44686220D01*
X78889416Y-44686220D01*
X78696169Y-44766265D01*
X78548265Y-44914169D01*
X78468220Y-45107416D01*
X78235982Y-45107416D01*
X78148831Y-45020265D01*
X77955584Y-44940220D01*
X77746416Y-44940220D01*
X77553169Y-45020265D01*
X77405265Y-45168169D01*
X77325220Y-45361416D01*
X63965872Y-45361416D01*
X64021100Y-45306188D01*
X64114680Y-45080267D01*
X64114680Y-44835733D01*
X64021100Y-44609812D01*
X63848188Y-44436900D01*
X63622267Y-44343320D01*
X63377733Y-44343320D01*
X63151812Y-44436900D01*
X63119000Y-44469712D01*
X63086188Y-44436900D01*
X62860267Y-44343320D01*
X62615733Y-44343320D01*
X62389812Y-44436900D01*
X62216900Y-44609812D01*
X62123320Y-44835733D01*
X50899060Y-44835733D01*
X50899060Y-43692733D01*
X52090320Y-43692733D01*
X52090320Y-43937267D01*
X52183900Y-44163188D01*
X52356812Y-44336100D01*
X52582733Y-44429680D01*
X52827267Y-44429680D01*
X53053188Y-44336100D01*
X53226100Y-44163188D01*
X53319680Y-43937267D01*
X53319680Y-43692733D01*
X54630320Y-43692733D01*
X54630320Y-43937267D01*
X54723900Y-44163188D01*
X54896812Y-44336100D01*
X55122733Y-44429680D01*
X55367267Y-44429680D01*
X55593188Y-44336100D01*
X55766100Y-44163188D01*
X55859680Y-43937267D01*
X55859680Y-43692733D01*
X55766100Y-43466812D01*
X55704904Y-43405616D01*
X62694820Y-43405616D01*
X62694820Y-43614784D01*
X62774865Y-43808031D01*
X62922769Y-43955935D01*
X63116016Y-44035980D01*
X63325184Y-44035980D01*
X63518431Y-43955935D01*
X63666335Y-43808031D01*
X63675205Y-43786616D01*
X73362820Y-43786616D01*
X73362820Y-43995784D01*
X73442865Y-44189031D01*
X73590769Y-44336935D01*
X73784016Y-44416980D01*
X73993184Y-44416980D01*
X74186431Y-44336935D01*
X74195633Y-44327733D01*
X76601320Y-44327733D01*
X76601320Y-44572267D01*
X76694900Y-44798188D01*
X76867812Y-44971100D01*
X77093733Y-45064680D01*
X77338267Y-45064680D01*
X77564188Y-44971100D01*
X77737100Y-44798188D01*
X77830680Y-44572267D01*
X77830680Y-44327733D01*
X77737100Y-44101812D01*
X77564188Y-43928900D01*
X77338267Y-43835320D01*
X77093733Y-43835320D01*
X76867812Y-43928900D01*
X76694900Y-44101812D01*
X76601320Y-44327733D01*
X74195633Y-44327733D01*
X74334335Y-44189031D01*
X74414380Y-43995784D01*
X74414380Y-43786616D01*
X74410574Y-43777428D01*
X74592831Y-43701935D01*
X74602033Y-43692733D01*
X96540320Y-43692733D01*
X96540320Y-43937267D01*
X96633900Y-44163188D01*
X96806812Y-44336100D01*
X97032733Y-44429680D01*
X97277267Y-44429680D01*
X97503188Y-44336100D01*
X97676100Y-44163188D01*
X97769680Y-43937267D01*
X97769680Y-43692733D01*
X99080320Y-43692733D01*
X99080320Y-43937267D01*
X99173900Y-44163188D01*
X99346812Y-44336100D01*
X99572733Y-44429680D01*
X99817267Y-44429680D01*
X100043188Y-44336100D01*
X100216100Y-44163188D01*
X100309680Y-43937267D01*
X100309680Y-43692733D01*
X100216100Y-43466812D01*
X100043188Y-43293900D01*
X99817267Y-43200320D01*
X99572733Y-43200320D01*
X99346812Y-43293900D01*
X99173900Y-43466812D01*
X99080320Y-43692733D01*
X97769680Y-43692733D01*
X97676100Y-43466812D01*
X97503188Y-43293900D01*
X97277267Y-43200320D01*
X97032733Y-43200320D01*
X96806812Y-43293900D01*
X96633900Y-43466812D01*
X96540320Y-43692733D01*
X74602033Y-43692733D01*
X74740735Y-43554031D01*
X74820780Y-43360784D01*
X74820780Y-43151616D01*
X74740735Y-42958369D01*
X74603782Y-42821416D01*
X74912220Y-42821416D01*
X74912220Y-43030584D01*
X74992265Y-43223831D01*
X75140169Y-43371735D01*
X75333416Y-43451780D01*
X75542584Y-43451780D01*
X75735831Y-43371735D01*
X75883735Y-43223831D01*
X75963780Y-43030584D01*
X75963780Y-42821416D01*
X75883735Y-42628169D01*
X75735831Y-42480265D01*
X75542584Y-42400220D01*
X75333416Y-42400220D01*
X75140169Y-42480265D01*
X74992265Y-42628169D01*
X74912220Y-42821416D01*
X74603782Y-42821416D01*
X74592831Y-42810465D01*
X74399584Y-42730420D01*
X74190416Y-42730420D01*
X73997169Y-42810465D01*
X73849265Y-42958369D01*
X73769220Y-43151616D01*
X73769220Y-43360784D01*
X73773026Y-43369972D01*
X73590769Y-43445465D01*
X73442865Y-43593369D01*
X73362820Y-43786616D01*
X63675205Y-43786616D01*
X63746380Y-43614784D01*
X63746380Y-43405616D01*
X63666335Y-43212369D01*
X63518431Y-43064465D01*
X63325184Y-42984420D01*
X63116016Y-42984420D01*
X62922769Y-43064465D01*
X62774865Y-43212369D01*
X62694820Y-43405616D01*
X55704904Y-43405616D01*
X55593188Y-43293900D01*
X55367267Y-43200320D01*
X55122733Y-43200320D01*
X54896812Y-43293900D01*
X54723900Y-43466812D01*
X54630320Y-43692733D01*
X53319680Y-43692733D01*
X53226100Y-43466812D01*
X53053188Y-43293900D01*
X52827267Y-43200320D01*
X52582733Y-43200320D01*
X52356812Y-43293900D01*
X52183900Y-43466812D01*
X52090320Y-43692733D01*
X50899060Y-43692733D01*
X50899060Y-42110216D01*
X61628020Y-42110216D01*
X61628020Y-42319384D01*
X61708065Y-42512631D01*
X61855969Y-42660535D01*
X62049216Y-42740580D01*
X62258384Y-42740580D01*
X62451631Y-42660535D01*
X62599535Y-42512631D01*
X62679580Y-42319384D01*
X62679580Y-42110216D01*
X62640911Y-42016861D01*
X62704980Y-41862184D01*
X62704980Y-41653016D01*
X62624935Y-41459769D01*
X62477031Y-41311865D01*
X62283784Y-41231820D01*
X62074616Y-41231820D01*
X61881369Y-41311865D01*
X61733465Y-41459769D01*
X61653420Y-41653016D01*
X61653420Y-41862184D01*
X61692089Y-41955539D01*
X61628020Y-42110216D01*
X50899060Y-42110216D01*
X50899060Y-39882733D01*
X52090320Y-39882733D01*
X52090320Y-40127267D01*
X52183900Y-40353188D01*
X52356812Y-40526100D01*
X52582733Y-40619680D01*
X52827267Y-40619680D01*
X53053188Y-40526100D01*
X53226100Y-40353188D01*
X53319680Y-40127267D01*
X53319680Y-39882733D01*
X54630320Y-39882733D01*
X54630320Y-40127267D01*
X54723900Y-40353188D01*
X54896812Y-40526100D01*
X55122733Y-40619680D01*
X55367267Y-40619680D01*
X55593188Y-40526100D01*
X55766100Y-40353188D01*
X55859680Y-40127267D01*
X55859680Y-39882733D01*
X55766100Y-39656812D01*
X55593188Y-39483900D01*
X55372328Y-39392416D01*
X61907420Y-39392416D01*
X61907420Y-39601584D01*
X61987465Y-39794831D01*
X62135369Y-39942735D01*
X62328616Y-40022780D01*
X62537784Y-40022780D01*
X62731031Y-39942735D01*
X62878935Y-39794831D01*
X62942330Y-39641780D01*
X62944184Y-39641780D01*
X63137431Y-39561735D01*
X63285335Y-39413831D01*
X63365380Y-39220584D01*
X63365380Y-39011416D01*
X63285335Y-38818169D01*
X63137431Y-38670265D01*
X62944184Y-38590220D01*
X62735016Y-38590220D01*
X62541769Y-38670265D01*
X62393865Y-38818169D01*
X62330470Y-38971220D01*
X62328616Y-38971220D01*
X62135369Y-39051265D01*
X61987465Y-39199169D01*
X61907420Y-39392416D01*
X55372328Y-39392416D01*
X55367267Y-39390320D01*
X55122733Y-39390320D01*
X54896812Y-39483900D01*
X54723900Y-39656812D01*
X54630320Y-39882733D01*
X53319680Y-39882733D01*
X53226100Y-39656812D01*
X53053188Y-39483900D01*
X52827267Y-39390320D01*
X52582733Y-39390320D01*
X52356812Y-39483900D01*
X52183900Y-39656812D01*
X52090320Y-39882733D01*
X50899060Y-39882733D01*
X50899060Y-36072733D01*
X52090320Y-36072733D01*
X52090320Y-36317267D01*
X52183900Y-36543188D01*
X52356812Y-36716100D01*
X52582733Y-36809680D01*
X52827267Y-36809680D01*
X53053188Y-36716100D01*
X53226100Y-36543188D01*
X53319680Y-36317267D01*
X53319680Y-36072733D01*
X54630320Y-36072733D01*
X54630320Y-36317267D01*
X54723900Y-36543188D01*
X54896812Y-36716100D01*
X55122733Y-36809680D01*
X55367267Y-36809680D01*
X55570697Y-36725416D01*
X62720220Y-36725416D01*
X62720220Y-36934584D01*
X62800265Y-37127831D01*
X62946934Y-37274500D01*
X62927265Y-37294169D01*
X62847220Y-37487416D01*
X62847220Y-37696584D01*
X62927265Y-37889831D01*
X63075169Y-38037735D01*
X63268416Y-38117780D01*
X63477584Y-38117780D01*
X63493305Y-38111268D01*
X65532820Y-38111268D01*
X65532820Y-38368732D01*
X65631347Y-38606598D01*
X65813402Y-38788653D01*
X65937365Y-38840000D01*
X65813402Y-38891347D01*
X65631347Y-39073402D01*
X65532820Y-39311268D01*
X65532820Y-39568732D01*
X65631347Y-39806598D01*
X65813402Y-39988653D01*
X65937365Y-40040000D01*
X65813402Y-40091347D01*
X65631347Y-40273402D01*
X65532820Y-40511268D01*
X65532820Y-40768732D01*
X65631347Y-41006598D01*
X65813402Y-41188653D01*
X65937365Y-41240000D01*
X65813402Y-41291347D01*
X65631347Y-41473402D01*
X65532820Y-41711268D01*
X65532820Y-41968732D01*
X65631347Y-42206598D01*
X65813402Y-42388653D01*
X65937365Y-42440000D01*
X65813402Y-42491347D01*
X65631347Y-42673402D01*
X65532820Y-42911268D01*
X65532820Y-43168732D01*
X65631347Y-43406598D01*
X65813402Y-43588653D01*
X66051268Y-43687180D01*
X66308732Y-43687180D01*
X66546598Y-43588653D01*
X66728653Y-43406598D01*
X66780000Y-43282635D01*
X66831347Y-43406598D01*
X67013402Y-43588653D01*
X67251268Y-43687180D01*
X67508732Y-43687180D01*
X67746598Y-43588653D01*
X67928653Y-43406598D01*
X67980000Y-43282635D01*
X68031347Y-43406598D01*
X68213402Y-43588653D01*
X68451268Y-43687180D01*
X68708732Y-43687180D01*
X68946598Y-43588653D01*
X69128653Y-43406598D01*
X69180000Y-43282635D01*
X69231347Y-43406598D01*
X69413402Y-43588653D01*
X69651268Y-43687180D01*
X69908732Y-43687180D01*
X70146598Y-43588653D01*
X70328653Y-43406598D01*
X70380000Y-43282635D01*
X70431347Y-43406598D01*
X70613402Y-43588653D01*
X70851268Y-43687180D01*
X71108732Y-43687180D01*
X71346598Y-43588653D01*
X71528653Y-43406598D01*
X71627180Y-43168732D01*
X71627180Y-42911268D01*
X71528653Y-42673402D01*
X71346598Y-42491347D01*
X71222635Y-42440000D01*
X71346598Y-42388653D01*
X71528653Y-42206598D01*
X71589617Y-42059416D01*
X76944220Y-42059416D01*
X76944220Y-42268584D01*
X77024265Y-42461831D01*
X77172169Y-42609735D01*
X77365416Y-42689780D01*
X77574584Y-42689780D01*
X77767831Y-42609735D01*
X77915735Y-42461831D01*
X77995780Y-42268584D01*
X77995780Y-42168733D01*
X86761320Y-42168733D01*
X86761320Y-42413267D01*
X86854900Y-42639188D01*
X87027812Y-42812100D01*
X87253733Y-42905680D01*
X87498267Y-42905680D01*
X87724188Y-42812100D01*
X87897100Y-42639188D01*
X87986759Y-42422733D01*
X88666320Y-42422733D01*
X88666320Y-42667267D01*
X88759900Y-42893188D01*
X88932812Y-43066100D01*
X89158733Y-43159680D01*
X89403267Y-43159680D01*
X89629188Y-43066100D01*
X89802100Y-42893188D01*
X89895680Y-42667267D01*
X89895680Y-42422733D01*
X90825320Y-42422733D01*
X90825320Y-42667267D01*
X90918900Y-42893188D01*
X91091812Y-43066100D01*
X91317733Y-43159680D01*
X91562267Y-43159680D01*
X91788188Y-43066100D01*
X91961100Y-42893188D01*
X92054680Y-42667267D01*
X92054680Y-42422733D01*
X91961100Y-42196812D01*
X91788188Y-42023900D01*
X91562267Y-41930320D01*
X91317733Y-41930320D01*
X91091812Y-42023900D01*
X90918900Y-42196812D01*
X90825320Y-42422733D01*
X89895680Y-42422733D01*
X89802100Y-42196812D01*
X89629188Y-42023900D01*
X89403267Y-41930320D01*
X89158733Y-41930320D01*
X88932812Y-42023900D01*
X88759900Y-42196812D01*
X88666320Y-42422733D01*
X87986759Y-42422733D01*
X87990680Y-42413267D01*
X87990680Y-42168733D01*
X87897100Y-41942812D01*
X87724188Y-41769900D01*
X87498267Y-41676320D01*
X87253733Y-41676320D01*
X87027812Y-41769900D01*
X86854900Y-41942812D01*
X86761320Y-42168733D01*
X77995780Y-42168733D01*
X77995780Y-42059416D01*
X77915735Y-41866169D01*
X77767831Y-41718265D01*
X77574584Y-41638220D01*
X77365416Y-41638220D01*
X77172169Y-41718265D01*
X77024265Y-41866169D01*
X76944220Y-42059416D01*
X71589617Y-42059416D01*
X71627180Y-41968732D01*
X71627180Y-41711268D01*
X71528653Y-41473402D01*
X71346598Y-41291347D01*
X71222635Y-41240000D01*
X71346598Y-41188653D01*
X71528653Y-41006598D01*
X71587049Y-40865616D01*
X74150220Y-40865616D01*
X74150220Y-41074784D01*
X74230265Y-41268031D01*
X74378169Y-41415935D01*
X74571416Y-41495980D01*
X74780584Y-41495980D01*
X74912220Y-41441455D01*
X74912220Y-41506584D01*
X74992265Y-41699831D01*
X75140169Y-41847735D01*
X75333416Y-41927780D01*
X75542584Y-41927780D01*
X75735831Y-41847735D01*
X75883735Y-41699831D01*
X75963780Y-41506584D01*
X75963780Y-41297416D01*
X75883735Y-41104169D01*
X75735831Y-40956265D01*
X75542584Y-40876220D01*
X75333416Y-40876220D01*
X75201780Y-40930745D01*
X75201780Y-40865616D01*
X75121735Y-40672369D01*
X74984782Y-40535416D01*
X76944220Y-40535416D01*
X76944220Y-40744584D01*
X77024265Y-40937831D01*
X77172169Y-41085735D01*
X77365416Y-41165780D01*
X77574584Y-41165780D01*
X77767831Y-41085735D01*
X77915735Y-40937831D01*
X77995780Y-40744584D01*
X77995780Y-40535416D01*
X77915735Y-40342169D01*
X77767831Y-40194265D01*
X77574584Y-40114220D01*
X77365416Y-40114220D01*
X77172169Y-40194265D01*
X77024265Y-40342169D01*
X76944220Y-40535416D01*
X74984782Y-40535416D01*
X74973831Y-40524465D01*
X74780584Y-40444420D01*
X74571416Y-40444420D01*
X74378169Y-40524465D01*
X74230265Y-40672369D01*
X74150220Y-40865616D01*
X71587049Y-40865616D01*
X71627180Y-40768732D01*
X71627180Y-40511268D01*
X71528653Y-40273402D01*
X71346598Y-40091347D01*
X71222635Y-40040000D01*
X71346598Y-39988653D01*
X71528653Y-39806598D01*
X71627180Y-39568732D01*
X71627180Y-39367016D01*
X74150220Y-39367016D01*
X74150220Y-39576184D01*
X74230265Y-39769431D01*
X74378169Y-39917335D01*
X74571416Y-39997380D01*
X74780584Y-39997380D01*
X74912220Y-39942855D01*
X74912220Y-39982584D01*
X74992265Y-40175831D01*
X75140169Y-40323735D01*
X75333416Y-40403780D01*
X75542584Y-40403780D01*
X75735831Y-40323735D01*
X75883735Y-40175831D01*
X75963780Y-39982584D01*
X75963780Y-39773416D01*
X75883735Y-39580169D01*
X75735831Y-39432265D01*
X75542584Y-39352220D01*
X75333416Y-39352220D01*
X75201780Y-39406745D01*
X75201780Y-39367016D01*
X75121735Y-39173769D01*
X74973831Y-39025865D01*
X74938948Y-39011416D01*
X76944220Y-39011416D01*
X76944220Y-39220584D01*
X77024265Y-39413831D01*
X77172169Y-39561735D01*
X77365416Y-39641780D01*
X77574584Y-39641780D01*
X77767831Y-39561735D01*
X77915735Y-39413831D01*
X77995780Y-39220584D01*
X77995780Y-39011416D01*
X77915735Y-38818169D01*
X77767831Y-38670265D01*
X77574584Y-38590220D01*
X77365416Y-38590220D01*
X77172169Y-38670265D01*
X77024265Y-38818169D01*
X76944220Y-39011416D01*
X74938948Y-39011416D01*
X74780584Y-38945820D01*
X74571416Y-38945820D01*
X74378169Y-39025865D01*
X74230265Y-39173769D01*
X74150220Y-39367016D01*
X71627180Y-39367016D01*
X71627180Y-39311268D01*
X71528653Y-39073402D01*
X71346598Y-38891347D01*
X71222635Y-38840000D01*
X71346598Y-38788653D01*
X71528653Y-38606598D01*
X71627180Y-38368732D01*
X71627180Y-38249416D01*
X74912220Y-38249416D01*
X74912220Y-38458584D01*
X74992265Y-38651831D01*
X75140169Y-38799735D01*
X75333416Y-38879780D01*
X75542584Y-38879780D01*
X75735831Y-38799735D01*
X75883735Y-38651831D01*
X75963780Y-38458584D01*
X75963780Y-38249416D01*
X75883735Y-38056169D01*
X75735831Y-37908265D01*
X75542584Y-37828220D01*
X75333416Y-37828220D01*
X75140169Y-37908265D01*
X74992265Y-38056169D01*
X74912220Y-38249416D01*
X71627180Y-38249416D01*
X71627180Y-38111268D01*
X71528653Y-37873402D01*
X71346598Y-37691347D01*
X71108732Y-37592820D01*
X70851268Y-37592820D01*
X70613402Y-37691347D01*
X70431347Y-37873402D01*
X70380000Y-37997365D01*
X70328653Y-37873402D01*
X70146598Y-37691347D01*
X69908732Y-37592820D01*
X69651268Y-37592820D01*
X69413402Y-37691347D01*
X69231347Y-37873402D01*
X69180000Y-37997365D01*
X69128653Y-37873402D01*
X68946598Y-37691347D01*
X68708732Y-37592820D01*
X68451268Y-37592820D01*
X68213402Y-37691347D01*
X68031347Y-37873402D01*
X67980000Y-37997365D01*
X67928653Y-37873402D01*
X67746598Y-37691347D01*
X67508732Y-37592820D01*
X67251268Y-37592820D01*
X67013402Y-37691347D01*
X66831347Y-37873402D01*
X66780000Y-37997365D01*
X66728653Y-37873402D01*
X66546598Y-37691347D01*
X66308732Y-37592820D01*
X66051268Y-37592820D01*
X65813402Y-37691347D01*
X65631347Y-37873402D01*
X65532820Y-38111268D01*
X63493305Y-38111268D01*
X63670831Y-38037735D01*
X63818735Y-37889831D01*
X63898780Y-37696584D01*
X63898780Y-37487416D01*
X63888260Y-37462016D01*
X73540620Y-37462016D01*
X73540620Y-37671184D01*
X73620665Y-37864431D01*
X73768569Y-38012335D01*
X73961816Y-38092380D01*
X74170984Y-38092380D01*
X74364231Y-38012335D01*
X74512135Y-37864431D01*
X74592180Y-37671184D01*
X74592180Y-37462016D01*
X74512135Y-37268769D01*
X74364231Y-37120865D01*
X74170984Y-37040820D01*
X73961816Y-37040820D01*
X73768569Y-37120865D01*
X73620665Y-37268769D01*
X73540620Y-37462016D01*
X63888260Y-37462016D01*
X63818735Y-37294169D01*
X63672066Y-37147500D01*
X63691735Y-37127831D01*
X63771780Y-36934584D01*
X63771780Y-36725416D01*
X63691735Y-36532169D01*
X63543831Y-36384265D01*
X63350584Y-36304220D01*
X63141416Y-36304220D01*
X62948169Y-36384265D01*
X62800265Y-36532169D01*
X62720220Y-36725416D01*
X55570697Y-36725416D01*
X55593188Y-36716100D01*
X55766100Y-36543188D01*
X55859680Y-36317267D01*
X55859680Y-36072733D01*
X73426320Y-36072733D01*
X73426320Y-36317267D01*
X73519900Y-36543188D01*
X73692812Y-36716100D01*
X73918733Y-36809680D01*
X74163267Y-36809680D01*
X74389188Y-36716100D01*
X74562100Y-36543188D01*
X74655680Y-36317267D01*
X74655680Y-36072733D01*
X74610400Y-35963416D01*
X76944220Y-35963416D01*
X76944220Y-36172584D01*
X77024265Y-36365831D01*
X77172169Y-36513735D01*
X77365416Y-36593780D01*
X77379745Y-36593780D01*
X77325220Y-36725416D01*
X77325220Y-36934584D01*
X77379745Y-37066220D01*
X77365416Y-37066220D01*
X77172169Y-37146265D01*
X77024265Y-37294169D01*
X76944220Y-37487416D01*
X76944220Y-37696584D01*
X77024265Y-37889831D01*
X77172169Y-38037735D01*
X77365416Y-38117780D01*
X77574584Y-38117780D01*
X77767831Y-38037735D01*
X77915735Y-37889831D01*
X77995780Y-37696584D01*
X77995780Y-37487416D01*
X77941255Y-37355780D01*
X77955584Y-37355780D01*
X78148831Y-37275735D01*
X78296735Y-37127831D01*
X78376780Y-36934584D01*
X78376780Y-36725416D01*
X79357220Y-36725416D01*
X79357220Y-36934584D01*
X79437265Y-37127831D01*
X79583934Y-37274500D01*
X79564265Y-37294169D01*
X79484220Y-37487416D01*
X79484220Y-37696584D01*
X79564265Y-37889831D01*
X79712169Y-38037735D01*
X79905416Y-38117780D01*
X80114584Y-38117780D01*
X80307831Y-38037735D01*
X80455735Y-37889831D01*
X80535780Y-37696584D01*
X80535780Y-37487416D01*
X80455735Y-37294169D01*
X80309066Y-37147500D01*
X80328735Y-37127831D01*
X80408780Y-36934584D01*
X80408780Y-36725416D01*
X80328735Y-36532169D01*
X80309066Y-36512500D01*
X80455735Y-36365831D01*
X80535780Y-36172584D01*
X80535780Y-35963416D01*
X80455735Y-35770169D01*
X80307831Y-35622265D01*
X80114584Y-35542220D01*
X79905416Y-35542220D01*
X79712169Y-35622265D01*
X79564265Y-35770169D01*
X79484220Y-35963416D01*
X79484220Y-36172584D01*
X79564265Y-36365831D01*
X79583934Y-36385500D01*
X79437265Y-36532169D01*
X79357220Y-36725416D01*
X78376780Y-36725416D01*
X78296735Y-36532169D01*
X78148831Y-36384265D01*
X77955584Y-36304220D01*
X77941255Y-36304220D01*
X77995780Y-36172584D01*
X77995780Y-35963416D01*
X77915735Y-35770169D01*
X77767831Y-35622265D01*
X77574584Y-35542220D01*
X77365416Y-35542220D01*
X77172169Y-35622265D01*
X77024265Y-35770169D01*
X76944220Y-35963416D01*
X74610400Y-35963416D01*
X74562100Y-35846812D01*
X74389188Y-35673900D01*
X74163267Y-35580320D01*
X73918733Y-35580320D01*
X73692812Y-35673900D01*
X73519900Y-35846812D01*
X73426320Y-36072733D01*
X55859680Y-36072733D01*
X55766100Y-35846812D01*
X55593188Y-35673900D01*
X55367267Y-35580320D01*
X55122733Y-35580320D01*
X54896812Y-35673900D01*
X54723900Y-35846812D01*
X54630320Y-36072733D01*
X53319680Y-36072733D01*
X53226100Y-35846812D01*
X53053188Y-35673900D01*
X52827267Y-35580320D01*
X52582733Y-35580320D01*
X52356812Y-35673900D01*
X52183900Y-35846812D01*
X52090320Y-36072733D01*
X50899060Y-36072733D01*
X50899060Y-35310733D01*
X60980320Y-35310733D01*
X60980320Y-35555267D01*
X61073900Y-35781188D01*
X61246812Y-35954100D01*
X61472733Y-36047680D01*
X61717267Y-36047680D01*
X61943188Y-35954100D01*
X62116100Y-35781188D01*
X62209680Y-35555267D01*
X62209680Y-35310733D01*
X62174921Y-35226816D01*
X65463420Y-35226816D01*
X65463420Y-35435984D01*
X65543465Y-35629231D01*
X65691369Y-35777135D01*
X65884616Y-35857180D01*
X66093784Y-35857180D01*
X66287031Y-35777135D01*
X66434935Y-35629231D01*
X66514980Y-35435984D01*
X66514980Y-35226816D01*
X68130420Y-35226816D01*
X68130420Y-35435984D01*
X68210465Y-35629231D01*
X68358369Y-35777135D01*
X68551616Y-35857180D01*
X68760784Y-35857180D01*
X68954031Y-35777135D01*
X68986400Y-35744766D01*
X69018769Y-35777135D01*
X69212016Y-35857180D01*
X69421184Y-35857180D01*
X69614431Y-35777135D01*
X69762335Y-35629231D01*
X69842380Y-35435984D01*
X69842380Y-35226816D01*
X69771930Y-35056733D01*
X70632320Y-35056733D01*
X70632320Y-35301267D01*
X70725900Y-35527188D01*
X70898812Y-35700100D01*
X71124733Y-35793680D01*
X71369267Y-35793680D01*
X71595188Y-35700100D01*
X71768100Y-35527188D01*
X71861680Y-35301267D01*
X71861680Y-35201416D01*
X78722220Y-35201416D01*
X78722220Y-35410584D01*
X78802265Y-35603831D01*
X78950169Y-35751735D01*
X79143416Y-35831780D01*
X79352584Y-35831780D01*
X79545831Y-35751735D01*
X79693735Y-35603831D01*
X79773780Y-35410584D01*
X79773780Y-35201416D01*
X79693735Y-35008169D01*
X79545831Y-34860265D01*
X79352584Y-34780220D01*
X79143416Y-34780220D01*
X78950169Y-34860265D01*
X78802265Y-35008169D01*
X78722220Y-35201416D01*
X71861680Y-35201416D01*
X71861680Y-35148303D01*
X71886733Y-35158680D01*
X72131267Y-35158680D01*
X72357188Y-35065100D01*
X72530100Y-34892188D01*
X72623680Y-34666267D01*
X72623680Y-34421733D01*
X72530100Y-34195812D01*
X72357188Y-34022900D01*
X72131267Y-33929320D01*
X71886733Y-33929320D01*
X71660812Y-34022900D01*
X71487900Y-34195812D01*
X71394320Y-34421733D01*
X71394320Y-34574697D01*
X71369267Y-34564320D01*
X71124733Y-34564320D01*
X70898812Y-34657900D01*
X70725900Y-34830812D01*
X70632320Y-35056733D01*
X69771930Y-35056733D01*
X69762335Y-35033569D01*
X69614431Y-34885665D01*
X69421184Y-34805620D01*
X69212016Y-34805620D01*
X69018769Y-34885665D01*
X68986400Y-34918034D01*
X68954031Y-34885665D01*
X68760784Y-34805620D01*
X68551616Y-34805620D01*
X68358369Y-34885665D01*
X68210465Y-35033569D01*
X68130420Y-35226816D01*
X66514980Y-35226816D01*
X66434935Y-35033569D01*
X66364466Y-34963100D01*
X66460335Y-34867231D01*
X66540380Y-34673984D01*
X66540380Y-34464816D01*
X66460335Y-34271569D01*
X66312431Y-34123665D01*
X66119184Y-34043620D01*
X65910016Y-34043620D01*
X65716769Y-34123665D01*
X65568865Y-34271569D01*
X65488820Y-34464816D01*
X65488820Y-34673984D01*
X65568865Y-34867231D01*
X65639334Y-34937700D01*
X65543465Y-35033569D01*
X65463420Y-35226816D01*
X62174921Y-35226816D01*
X62116100Y-35084812D01*
X61943188Y-34911900D01*
X61717267Y-34818320D01*
X61472733Y-34818320D01*
X61246812Y-34911900D01*
X61073900Y-35084812D01*
X60980320Y-35310733D01*
X50899060Y-35310733D01*
X50899060Y-32003416D01*
X51417220Y-32003416D01*
X51417220Y-32212584D01*
X51497265Y-32405831D01*
X51645169Y-32553735D01*
X51838416Y-32633780D01*
X52047584Y-32633780D01*
X52240831Y-32553735D01*
X52388735Y-32405831D01*
X52468780Y-32212584D01*
X52468780Y-32003416D01*
X52388735Y-31810169D01*
X52240831Y-31662265D01*
X52157463Y-31627733D01*
X53995320Y-31627733D01*
X53995320Y-31872267D01*
X54088900Y-32098188D01*
X54261812Y-32271100D01*
X54383488Y-32321500D01*
X54261812Y-32371900D01*
X54088900Y-32544812D01*
X53995320Y-32770733D01*
X53995320Y-33015267D01*
X54088900Y-33241188D01*
X54261812Y-33414100D01*
X54487733Y-33507680D01*
X54732267Y-33507680D01*
X54958188Y-33414100D01*
X55131100Y-33241188D01*
X55224680Y-33015267D01*
X55224680Y-32770733D01*
X55131100Y-32544812D01*
X54958188Y-32371900D01*
X54836512Y-32321500D01*
X54958188Y-32271100D01*
X55131100Y-32098188D01*
X55160829Y-32026416D01*
X59164220Y-32026416D01*
X59164220Y-32235584D01*
X59244265Y-32428831D01*
X59392169Y-32576735D01*
X59585416Y-32656780D01*
X59794584Y-32656780D01*
X59987831Y-32576735D01*
X60135735Y-32428831D01*
X60215780Y-32235584D01*
X60215780Y-32026416D01*
X60135735Y-31833169D01*
X59987831Y-31685265D01*
X59794584Y-31605220D01*
X59585416Y-31605220D01*
X59392169Y-31685265D01*
X59244265Y-31833169D01*
X59164220Y-32026416D01*
X55160829Y-32026416D01*
X55224680Y-31872267D01*
X55224680Y-31627733D01*
X55131100Y-31401812D01*
X54958188Y-31228900D01*
X54732267Y-31135320D01*
X54487733Y-31135320D01*
X54261812Y-31228900D01*
X54088900Y-31401812D01*
X53995320Y-31627733D01*
X52157463Y-31627733D01*
X52047584Y-31582220D01*
X51838416Y-31582220D01*
X51645169Y-31662265D01*
X51497265Y-31810169D01*
X51417220Y-32003416D01*
X50899060Y-32003416D01*
X50899060Y-29943405D01*
X50985819Y-29644533D01*
X51208130Y-29448281D01*
X51515452Y-29399262D01*
X101019570Y-35587277D01*
G04 #@! TD*
M02*
